<svg width="64" height="65" viewBox="0 0 64 65" fill="none" xmlns="http://www.w3.org/2000/svg">
<path d="M54.8561 4.94971H51.3601V8.44573H54.8561V4.94971Z" fill="#30BC90"/>
<path d="M8.82992 5.48706L6.07812 10.2545H11.5817L8.82992 5.48706Z" fill="#30BC90"/>
<path d="M57.3224 58.0998C58.0748 57.3474 58.0748 56.1277 57.3224 55.3753C56.5701 54.623 55.3504 54.623 54.598 55.3753C53.8457 56.1277 53.8457 57.3474 54.598 58.0998C55.3504 58.8521 56.5701 58.8521 57.3224 58.0998Z" fill="#30BC90"/>
<path d="M5.61949 38.2838L4.448 39.4553L4.89251 39.8998L6.064 38.7283L5.61949 38.2838Z" fill="#114232"/>
<path d="M7.77989 36.121L6.6084 37.2925L7.05291 37.737L8.2244 36.5655L7.77989 36.121Z" fill="#114232"/>
<path d="M7.05388 38.2828L6.60938 38.7273L7.78087 39.8988L8.22538 39.4543L7.05388 38.2828Z" fill="#114232"/>
<path d="M4.89104 36.1221L4.44653 36.5667L5.61803 37.7381L6.06253 37.2936L4.89104 36.1221Z" fill="#114232"/>
<path d="M56.9459 29.141L55.7729 30.314L56.2175 30.7585L57.3904 29.5855L56.9459 29.141Z" fill="#114232"/>
<path d="M59.108 26.9794L57.9351 28.1523L58.3796 28.5969L59.5525 27.4239L59.108 26.9794Z" fill="#114232"/>
<path d="M58.3791 29.1407L57.9346 29.5852L59.1075 30.7581L59.552 30.3136L58.3791 29.1407Z" fill="#114232"/>
<path d="M56.2175 26.9786L55.7729 27.4231L56.9459 28.596L57.3904 28.1515L56.2175 26.9786Z" fill="#114232"/>
<path d="M29.1388 5.79921L27.9673 6.9707L28.4118 7.41521L29.5833 6.24372L29.1388 5.79921Z" fill="#114232"/>
<path d="M31.3006 3.63759L30.1292 4.80908L30.5737 5.25359L31.7452 4.0821L31.3006 3.63759Z" fill="#114232"/>
<path d="M30.5737 5.79792L30.1292 6.24243L31.3006 7.41392L31.7452 6.96942L30.5737 5.79792Z" fill="#114232"/>
<path d="M28.412 3.63606L27.9675 4.08057L29.1405 5.25349L29.585 4.80899L28.412 3.63606Z" fill="#114232"/>
<path d="M17.5678 56.1306H16.9392V60.2309H17.5678V56.1306Z" fill="#114232"/>
<path d="M19.3037 57.8667H15.2034V58.4953H19.3037V57.8667Z" fill="#114232"/>
<path d="M56.0931 7.54336H52.597C52.4226 7.54336 52.2827 7.40344 52.2827 7.22904V3.73302C52.2827 3.55862 52.4226 3.4187 52.597 3.4187H56.0931C56.2674 3.4187 56.4074 3.55862 56.4074 3.73302V7.22904C56.4074 7.40344 56.2674 7.54336 56.0931 7.54336ZM52.9113 6.91472H55.7787V4.04734H52.9113V6.91472Z" fill="#114232"/>
<path d="M12.8186 9.35225H7.31505C7.20352 9.35225 7.09807 9.29142 7.04332 9.19408C6.98654 9.09674 6.98654 8.9771 7.04332 8.87976L9.79512 4.11227C9.8519 4.01494 9.95532 3.9541 10.0668 3.9541C10.1784 3.9541 10.2838 4.01494 10.3386 4.11227L13.0924 8.87976C13.1492 8.9771 13.1492 9.09674 13.0924 9.19408C13.0356 9.29142 12.9322 9.35225 12.8186 9.35225ZM7.86054 8.72362H12.2752L10.0668 4.89908L7.86054 8.72362Z" fill="#114232"/>
<path d="M57.1983 57.7633C55.9613 57.7633 54.9575 56.7575 54.9575 55.5225C54.9575 54.2855 55.9633 53.2817 57.1983 53.2817C58.4353 53.2817 59.4391 54.2876 59.4391 55.5225C59.4411 56.7575 58.4353 57.7633 57.1983 57.7633ZM57.1983 53.9083C56.3081 53.9083 55.5862 54.6323 55.5862 55.5205C55.5862 56.4087 56.3101 57.1326 57.1983 57.1326C58.0865 57.1326 58.8104 56.4087 58.8104 55.5205C58.8104 54.6323 58.0885 53.9083 57.1983 53.9083Z" fill="#114232"/>
<path d="M31.2397 17.7981C29.2463 17.7981 27.2225 18.2199 25.2737 19.1121C20.9382 21.0974 17.8903 24.995 16.6208 29.5049C16.6898 29.7036 16.7283 29.9166 16.7283 30.1396V39.4008C16.8561 39.8165 17.0001 40.2302 17.1603 40.6398C17.5658 41.6801 18.0667 42.6637 18.6568 43.5843C19.3666 43.8723 20.1392 44.1217 20.9584 44.3265C18.1945 40.9744 16.8034 36.2982 17.6551 31.4314C20.0966 31.1191 21.4471 28.2801 22.9985 27.1445C23.4608 26.8058 23.8177 26.7044 24.1868 26.7044C24.4666 26.7044 24.7525 26.7612 25.0953 26.818C27.1495 27.1546 29.153 27.7609 31.1606 28.3004C31.8906 28.4971 32.4969 28.5761 33.014 28.5761C34.5349 28.5761 35.2893 27.8968 36.1815 27.5338C36.8142 27.2763 37.7917 27.0796 38.7346 27.0796C39.6269 27.0796 40.4846 27.256 40.9896 27.7204C41.2268 27.9394 41.4012 28.2314 41.5756 28.4991C41.9346 29.0527 42.3016 29.5982 42.6504 30.1579C43.2709 31.1475 43.8266 31.9424 44.9723 32.1817C46.1282 41.2746 39.6167 49.3393 31.2559 49.3393C29.2787 49.3393 27.4111 48.8912 25.7259 48.0882C25.6367 48.0496 25.5475 48.0111 25.4643 47.9685C25.3487 47.9117 25.2413 47.8529 25.1378 47.7901C24.929 47.6785 24.7242 47.5609 24.5214 47.4372C23.5277 47.3541 22.5564 47.2202 21.6134 47.0357C22.7227 48.0091 23.9495 48.804 25.2737 49.4123C27.1779 50.2843 29.2159 50.7203 31.2559 50.7203C33.2939 50.7203 35.3319 50.2843 37.236 49.4123C41.3952 47.5082 44.3781 43.8357 45.7327 39.5448V30.1396C45.7327 29.8861 45.7814 29.6428 45.8727 29.4218C45.7246 28.9047 45.5523 28.3916 45.3535 27.8826C42.8937 21.5861 37.2117 17.7981 31.2397 17.7981Z" fill="#30BC90"/>
<path d="M24.0774 46.606C24.0125 46.4275 23.9801 46.243 23.9801 46.0564C23.9801 45.8719 24.0125 45.6894 24.0774 45.5109C23.5948 45.4602 23.1102 45.3953 22.6275 45.3162C21.1046 45.0668 19.604 44.6714 18.2372 44.0914C18.0608 44.0164 17.8844 43.9393 17.712 43.8562C16.544 43.3066 15.6335 42.6719 15.0068 41.9743C14.9764 41.9399 14.946 41.9054 14.9156 41.8689C14.8791 41.8709 14.8406 41.873 14.8041 41.873H13.3967C14.3539 43.554 16.5115 44.931 19.3465 45.8192C20.7943 46.2734 22.4187 46.5979 24.1484 46.7702C24.12 46.7175 24.0977 46.6627 24.0774 46.606Z" fill="#30BC90"/>
<path d="M25.3509 47.1797C25.3813 47.2 25.4117 47.2203 25.4442 47.2406C25.6105 47.344 25.7991 47.4393 26.0039 47.5225C26.6751 47.7982 27.539 47.9645 28.4799 47.9645C30.6193 47.9645 32.3531 47.1088 32.3531 46.0543C32.3531 44.9998 30.6193 44.144 28.4799 44.144C27.1496 44.144 25.9755 44.4746 25.2779 44.9795C25.1502 45.0708 25.0386 45.1681 24.9453 45.2715C24.8581 45.3668 24.7872 45.4682 24.7324 45.5717C24.6513 45.7258 24.6067 45.888 24.6067 46.0543C24.6067 46.3341 24.7284 46.5998 24.9474 46.8391C25.0589 46.9607 25.1927 47.0743 25.3509 47.1797Z" fill="#30BC90"/>
<path d="M15.0593 27.5137C15.7143 25.9502 16.5964 24.4922 17.6773 23.1761C18.75 21.8702 20.0032 20.7265 21.4004 19.7794C24.3002 17.8124 27.6888 16.7721 31.197 16.7721C34.7072 16.7721 38.0937 17.8124 40.9935 19.7794C42.3907 20.7265 43.6439 21.8702 44.7167 23.1761C45.7975 24.4922 46.6776 25.9522 47.3346 27.5137C47.432 27.7449 47.5232 27.9801 47.6104 28.2153C47.6267 28.2153 47.6449 28.2153 47.6632 28.2153H49.4031C49.3949 28.193 49.3889 28.1707 49.3807 28.1504C49.2287 27.6962 49.0563 27.2399 48.8677 26.7978C48.3871 25.6602 47.7909 24.5652 47.0994 23.5391C46.414 22.5231 45.6252 21.57 44.7593 20.7021C43.8913 19.8342 42.9362 19.0474 41.9223 18.3599C40.8962 17.6664 39.8012 17.0723 38.6635 16.5917C37.5056 16.1029 36.293 15.7258 35.0621 15.4743C33.7987 15.2147 32.4989 15.085 31.199 15.085C29.8991 15.085 28.5993 15.2168 27.3359 15.4743C26.103 15.7258 24.8924 16.1029 23.7345 16.5917C22.5968 17.0723 21.5018 17.6684 20.4757 18.3599C19.4557 19.0454 18.5006 19.8322 17.6347 20.7001C16.7668 21.568 15.98 22.5211 15.2945 23.5371C14.601 24.5611 14.0068 25.6582 13.5262 26.7958C13.3377 27.244 13.1633 27.7043 13.0091 28.1646C13.0031 28.1808 12.999 28.1971 12.9929 28.2133H14.7855C14.8707 27.9781 14.962 27.7449 15.0593 27.5137Z" fill="#30BC90"/>
<path d="M50.2551 28.8461C50.2246 28.8441 50.1962 28.842 50.1658 28.842H49.9265H49.598H47.8277H47.6614C47.6067 28.842 47.5539 28.8461 47.5012 28.8522C47.3958 28.8643 47.2924 28.8907 47.195 28.9292C46.9213 29.0347 46.6901 29.2314 46.542 29.4808C46.4427 29.6512 46.3798 29.8458 46.3656 30.0527C46.3636 30.0811 46.3616 30.1095 46.3616 30.1399V31.6851V36.8075V38.4622V39.6383V39.9466C46.3616 40.2954 46.4995 40.6137 46.7246 40.8469C46.9598 41.0923 47.2924 41.2444 47.6594 41.2444H50.1618C50.8776 41.2444 51.4596 40.6624 51.4596 39.9466V30.1378C51.4616 29.4545 50.9283 28.8927 50.2551 28.8461Z" fill="#30BC90"/>
<path d="M14.7755 41.2464H14.8019C14.8141 41.2464 14.8283 41.2464 14.8404 41.2464C14.9581 41.2424 15.0736 41.2241 15.1811 41.1917C15.3717 41.1329 15.5441 41.0335 15.6861 40.8997C15.9416 40.6624 16.0997 40.3258 16.0997 39.9506V39.4964V38.2736V36.4729V32.0846V30.2737V30.1419C16.0997 29.929 16.049 29.7282 15.9578 29.5498C15.8037 29.2476 15.534 29.0144 15.2055 28.9069C15.1061 28.8745 15.0027 28.8542 14.8952 28.8461C14.8648 28.8441 14.8344 28.842 14.8039 28.842H14.5667H12.7964H12.4678H12.2995C12.2448 28.842 12.19 28.8461 12.1373 28.8522C11.4965 28.9313 11.0017 29.4768 11.0017 30.1399V39.9486C11.0017 40.6644 11.5837 41.2464 12.2995 41.2464H12.4374H12.768H13.1005H14.4734H14.7755Z" fill="#30BC90"/>
<path d="M51.1777 27.1993H51.0763C51.0479 27.11 51.0195 27.0228 50.9891 26.9336C50.8309 26.4631 50.6525 25.9927 50.4598 25.5364C49.963 24.3623 49.3486 23.2287 48.6327 22.1702C47.925 21.1218 47.1118 20.1362 46.2155 19.2399C45.3192 18.3436 44.3337 17.5304 43.2853 16.8227C42.2267 16.1069 41.0932 15.4924 39.919 14.9956C38.7226 14.4907 37.4714 14.1013 36.1979 13.8397C34.894 13.5721 33.5516 13.4382 32.2091 13.4382C30.8667 13.4382 29.5242 13.5741 28.2183 13.8397C26.9448 14.0993 25.6936 14.4887 24.4972 14.9956C23.3231 15.4924 22.1915 16.1069 21.131 16.8227C20.0826 17.5304 19.097 18.3436 18.2007 19.2399C17.3044 20.1362 16.4912 21.1218 15.7835 22.1702C15.0677 23.2287 14.4532 24.3603 13.9564 25.5364C13.7617 25.9988 13.5813 26.4753 13.4211 26.9498C13.3927 27.033 13.3663 27.1161 13.3399 27.1993H13.3095C12.2469 27.1993 11.3831 28.0631 11.3831 29.1257V38.9345C11.3831 39.997 12.2469 40.8609 13.3095 40.8609H13.7009C13.9077 41.2908 14.1856 41.7065 14.5262 42.104C15.3029 43.0064 16.404 43.8054 17.7992 44.4786C18.8658 44.9937 20.0704 45.4195 21.3925 45.748L21.9766 46.2793C23.1933 47.3886 24.556 48.293 26.0282 48.9683C27.0117 49.4185 28.0439 49.7632 29.0964 49.9923C30.1387 50.2195 31.2074 50.333 32.272 50.333C33.3366 50.333 34.4053 50.2174 35.4456 49.9923C36.498 49.7632 37.5302 49.4185 38.5158 48.9683C39.5033 48.5161 40.4503 47.9564 41.3284 47.3054C42.1841 46.6707 42.9831 45.9427 43.7071 45.1397C44.4168 44.3529 45.0596 43.485 45.6153 42.5643C46.1405 41.6964 46.5927 40.7717 46.9658 39.8166C47.2862 40.4371 47.9331 40.8609 48.6773 40.8609H51.1797C52.2423 40.8609 53.1062 39.997 53.1062 38.9345V29.1257C53.1041 28.0631 52.2403 27.1993 51.1777 27.1993ZM52.4755 38.9345C52.4755 39.6503 51.8935 40.2323 51.1777 40.2323H48.6753C48.3083 40.2323 47.9777 40.0802 47.7405 39.8348C47.5154 39.6016 47.3775 39.2853 47.3775 38.9345V38.6262V37.4501V35.7953V30.673V29.1277C47.3775 29.0994 47.3795 29.0689 47.3815 29.0405C47.3957 28.8317 47.4586 28.639 47.558 28.4687C47.706 28.2172 47.9351 28.0226 48.2109 27.9171C48.3083 27.8806 48.4097 27.8543 48.5171 27.8401C48.5699 27.834 48.6226 27.8299 48.6773 27.8299H48.8436H50.6139H50.9424H51.1817C51.2122 27.8299 51.2426 27.8319 51.271 27.834C51.9462 27.8806 52.4796 28.4423 52.4796 29.1277V38.9345H52.4755ZM38.2521 48.3984C36.3459 49.2704 34.308 49.7064 32.272 49.7064C30.232 49.7064 28.194 49.2704 26.2898 48.3984C24.9656 47.7921 23.7388 46.9952 22.6295 46.0218C23.5705 46.2043 24.5418 46.3402 25.5375 46.4233C25.7403 46.547 25.9451 46.6646 26.1539 46.7762C26.2574 46.839 26.3648 46.8978 26.4804 46.9546C26.5656 46.9972 26.6528 47.0357 26.742 47.0743C28.4272 47.8773 30.2948 48.3254 32.272 48.3254C40.6328 48.3254 47.1422 40.2607 45.9884 31.1678C44.8427 30.9285 44.287 30.1336 43.6665 29.144C43.3157 28.5863 42.9507 28.0388 42.5917 27.4852C42.4173 27.2175 42.243 26.9255 42.0057 26.7065C41.5028 26.2401 40.643 26.0657 39.7507 26.0657C38.8078 26.0657 37.8303 26.2624 37.1976 26.5199C36.3054 26.8829 35.551 27.5622 34.0301 27.5622C33.513 27.5622 32.9067 27.4832 32.1767 27.2865C30.1691 26.747 28.1656 26.1407 26.1114 25.8041C25.7666 25.7473 25.4807 25.6905 25.2029 25.6905C24.8338 25.6905 24.4769 25.7919 24.0146 26.1306C22.4653 27.2641 21.1127 30.1052 18.6712 30.4175C17.8195 35.2823 19.2126 39.9605 21.9745 43.3146C21.1533 43.1098 20.3827 42.8604 19.6729 42.5724C19.0848 41.6518 18.584 40.6683 18.1764 39.628C18.0162 39.2183 17.8722 38.8047 17.7444 38.389V29.1277C17.7444 28.9047 17.7059 28.6918 17.637 28.493C18.9064 23.981 21.9543 20.0855 26.2918 18.0982C28.2406 17.206 30.2644 16.7842 32.2578 16.7842C38.2278 16.7842 43.9119 20.5743 46.3717 26.8707C46.5704 27.3797 46.7428 27.8928 46.8908 28.4099C46.8016 28.6329 46.7509 28.8743 46.7509 29.1277V38.5329C45.3942 42.8218 42.4113 46.4943 38.2521 48.3984ZM12.0157 38.9345V29.1257C12.0157 28.4646 12.5105 27.9191 13.1513 27.838C13.2041 27.8319 13.2588 27.8279 13.3136 27.8279H13.4819H13.8104H15.5807H15.818C15.8484 27.8279 15.8788 27.8299 15.9092 27.8319C16.0167 27.8401 16.1222 27.8603 16.2195 27.8928C16.546 28.0003 16.8157 28.2335 16.9718 28.5356C17.0631 28.712 17.1138 28.9148 17.1138 29.1277V29.2596V31.0704V35.4587V37.2594V38.4822V38.9365C17.1138 39.3116 16.9536 39.6503 16.7001 39.8855C16.5581 40.0173 16.3858 40.1187 16.1952 40.1775C16.0877 40.21 15.9721 40.2302 15.8545 40.2323C15.8423 40.2323 15.8281 40.2323 15.8159 40.2323H15.7896H15.4874H14.1146H13.782H13.4494H13.3115C12.5957 40.2323 12.0157 39.6523 12.0157 38.9345ZM14.0213 27.1506C14.1754 26.6903 14.3498 26.2299 14.5384 25.7818C15.019 24.6442 15.6152 23.5491 16.3067 22.523C16.9921 21.5071 17.7809 20.554 18.6468 19.6861C19.5148 18.8181 20.4699 18.0313 21.4838 17.3439C22.5099 16.6504 23.6049 16.0562 24.7426 15.5756C25.9005 15.0869 27.1131 14.7097 28.344 14.4582C29.6074 14.1987 30.9072 14.0689 32.2071 14.0689C33.5069 14.0689 34.8068 14.2007 36.0702 14.4582C37.3031 14.7097 38.5158 15.0869 39.6716 15.5756C40.8093 16.0562 41.9043 16.6524 42.9304 17.3439C43.9463 18.0293 44.8994 18.8181 45.7674 19.6861C46.6353 20.554 47.4221 21.5071 48.1075 22.523C48.799 23.5471 49.3952 24.6442 49.8758 25.7818C50.0624 26.2239 50.2347 26.6801 50.3888 27.1344C50.397 27.1567 50.403 27.179 50.4112 27.1993H48.6712C48.653 27.1993 48.6368 27.1993 48.6185 27.1993C48.5313 26.964 48.4401 26.7308 48.3427 26.4976C47.6877 24.9341 46.8056 23.4761 45.7248 22.16C44.652 20.8541 43.3988 19.7104 42.0016 18.7634C39.1018 16.7964 35.7133 15.7561 32.2051 15.7561C28.6949 15.7561 25.3083 16.7964 22.4085 18.7634C21.0113 19.7124 19.7581 20.8541 18.6854 22.16C17.6045 23.4761 16.7244 24.9362 16.0674 26.4976C15.9701 26.7288 15.8788 26.962 15.7916 27.1972H14.0051C14.0112 27.183 14.0152 27.1668 14.0213 27.1506ZM22.6235 43.1139C19.7926 39.8003 18.5637 35.3898 19.2187 30.9528C19.8899 30.7845 20.5348 30.4438 21.1776 29.9186C21.8346 29.3812 22.3923 28.7384 22.9317 28.1158C23.4366 27.5318 23.9152 26.9802 24.3816 26.6396C24.7426 26.3759 24.9697 26.3212 25.1988 26.3212C25.3793 26.3212 25.5943 26.3577 25.8417 26.4003C25.8944 26.4084 25.9491 26.4185 26.0059 26.4287C27.6323 26.6963 29.2687 27.1465 30.8505 27.5805C31.2297 27.6859 31.6231 27.7934 32.0104 27.8968C32.7526 28.0956 33.4116 28.1929 34.0261 28.1929C35.2996 28.1929 36.1249 27.761 36.788 27.4162C37.0111 27.3006 37.222 27.1891 37.4309 27.1039C38.0392 26.8565 38.9477 26.6963 39.7467 26.6963C40.5821 26.6963 41.2493 26.8687 41.5738 27.1709C41.7238 27.3088 41.8536 27.5136 41.9935 27.7306C42.0158 27.765 42.0361 27.7975 42.0584 27.8319C42.174 28.0104 42.2916 28.1888 42.4052 28.3632C42.6445 28.7283 42.8939 29.1075 43.1291 29.4826C43.4495 29.9916 43.7699 30.4844 44.1856 30.8899C44.5486 31.2469 44.9522 31.5003 45.4064 31.6626C45.8383 35.9413 44.5283 40.1512 41.7806 43.272C39.264 46.1293 35.8856 47.7009 32.2679 47.7009C31.6109 47.7009 30.9579 47.6481 30.3151 47.5427C31.1344 47.4616 31.8948 47.2608 32.5092 46.9587C32.9412 46.7457 33.2879 46.4902 33.5394 46.1962C33.8375 45.8494 33.9957 45.4499 33.9957 45.0444C33.9957 44.6388 33.8375 44.2393 33.5394 43.8926C33.2879 43.6005 32.9432 43.345 32.5092 43.1301C31.692 42.7286 30.6213 42.5055 29.4918 42.5055C28.3623 42.5055 27.2916 42.7265 26.4744 43.1301C26.0424 43.343 25.6957 43.5985 25.4442 43.8926C25.4422 43.8966 25.4381 43.8986 25.4361 43.9027C24.5905 43.8216 23.7712 43.7019 22.9864 43.5458L22.6235 43.1139ZM25.9613 44.2596C26.0546 44.1562 26.1661 44.0588 26.2939 43.9676C26.9915 43.4626 28.1656 43.1321 29.4959 43.1321C31.6352 43.1321 33.3691 43.9879 33.3691 45.0423C33.3691 46.0968 31.6352 46.9526 29.4959 46.9526C28.5549 46.9526 27.6911 46.7863 27.0198 46.5105C26.815 46.4253 26.6264 46.3321 26.4602 46.2286C26.4277 46.2084 26.3973 46.1881 26.3669 46.1678C26.2107 46.0624 26.0749 45.9488 25.9654 45.8271C25.7464 45.5878 25.6247 45.3222 25.6247 45.0423C25.6247 44.8761 25.6693 44.7138 25.7504 44.5597C25.8011 44.4563 25.8741 44.3549 25.9613 44.2596ZM17.5883 39.8551C17.8925 40.6358 18.2514 41.3902 18.661 42.1121C17.8073 41.6781 17.1239 41.1996 16.621 40.6845C17.0286 40.4959 17.3591 40.1694 17.5538 39.7659C17.566 39.7963 17.5761 39.8267 17.5883 39.8551ZM47.998 27.323C47.7506 27.4162 47.5275 27.5582 47.341 27.7387C47.2234 27.3696 47.0936 27.0026 46.9537 26.6416C45.7187 23.4802 43.6564 20.8217 40.9877 18.952C40.5902 18.6742 40.1847 18.4146 39.7669 18.1773C40.4159 18.5038 41.0465 18.8749 41.6528 19.2866C42.9993 20.2011 44.2079 21.3023 45.2421 22.5616C46.2845 23.831 47.1341 25.2383 47.7648 26.743C47.8479 26.9356 47.925 27.1283 47.998 27.323ZM25.5273 17.7657C24.7162 18.1733 23.9395 18.6498 23.2095 19.1933C22.3538 19.828 21.5527 20.558 20.8288 21.3631C20.1191 22.1519 19.4783 23.0198 18.9206 23.9425C18.369 24.8551 17.8965 25.8305 17.5173 26.8403C17.3997 27.1506 17.2922 27.4629 17.1929 27.7792C16.982 27.5643 16.7224 27.398 16.4324 27.3006C16.5034 27.1141 16.5764 26.9275 16.6555 26.743C17.2882 25.2363 18.1358 23.829 19.1781 22.5595C20.2123 21.3002 21.4209 20.1971 22.7674 19.2845C23.6435 18.6883 24.5682 18.1814 25.5273 17.7657ZM15.8159 40.8609C15.8545 40.8609 15.891 40.8589 15.9275 40.8569C15.9579 40.8913 15.9883 40.9258 16.0187 40.9623C16.6453 41.6599 17.5558 42.2926 18.7239 42.8442C18.8963 42.9253 19.0707 43.0044 19.2491 43.0794C20.6159 43.6573 22.1165 44.0528 23.6394 44.3042C24.122 44.3833 24.6067 44.4482 25.0893 44.4989C25.0265 44.6753 24.992 44.8598 24.992 45.0444C24.992 45.2309 25.0265 45.4155 25.0893 45.5939C25.1096 45.6507 25.1319 45.7055 25.1583 45.7602C23.4285 45.5878 21.8042 45.2634 20.3563 44.8091C17.5254 43.9189 15.3658 42.542 14.4106 40.8609H15.8159Z" fill="#114232"/>
</svg>
