<svg width="64" height="65" viewBox="0 0 64 65" fill="none" xmlns="http://www.w3.org/2000/svg">
<path d="M55.4586 3.86694H51.8547V7.47085H55.4586V3.86694Z" fill="#30BC90"/>
<path d="M8.01226 4.42041L5.17554 9.33502H10.849L8.01226 4.42041Z" fill="#30BC90"/>
<path d="M58.001 58.6567C58.7766 57.8811 58.7766 56.6237 58.001 55.8482C57.2255 55.0727 55.9681 55.0727 55.1926 55.8482C54.417 56.6237 54.417 57.8811 55.1926 58.6567C55.9681 59.4322 57.2255 59.4322 58.001 58.6567Z" fill="#30BC90"/>
<path d="M4.70276 38.2296L3.49512 39.4373L3.95334 39.8955L5.16099 38.6878L4.70276 38.2296Z" fill="#114232"/>
<path d="M6.93006 36.0001L5.72241 37.2078L6.18064 37.666L7.38828 36.4583L6.93006 36.0001Z" fill="#114232"/>
<path d="M6.18186 38.2283L5.72363 38.6865L6.93128 39.8942L7.3895 39.4359L6.18186 38.2283Z" fill="#114232"/>
<path d="M3.95212 36.0015L3.4939 36.4597L4.70154 37.6674L5.15977 37.2091L3.95212 36.0015Z" fill="#114232"/>
<path d="M57.6132 28.8045L56.4041 30.0137L56.8623 30.4719L58.0714 29.2628L57.6132 28.8045Z" fill="#114232"/>
<path d="M59.8419 26.5765L58.6328 27.7856L59.091 28.2439L60.3002 27.0347L59.8419 26.5765Z" fill="#114232"/>
<path d="M59.0905 28.8037L58.6323 29.262L59.8414 30.4711L60.2997 30.0129L59.0905 28.8037Z" fill="#114232"/>
<path d="M56.8623 26.576L56.4041 27.0342L57.6132 28.2433L58.0714 27.7851L56.8623 26.576Z" fill="#114232"/>
<path d="M28.9479 4.74279L27.7402 5.95044L28.1985 6.40866L29.4061 5.20102L28.9479 4.74279Z" fill="#114232"/>
<path d="M31.1766 2.51428L29.969 3.72192L30.4272 4.18015L31.6349 2.9725L31.1766 2.51428Z" fill="#114232"/>
<path d="M30.427 4.74148L29.9688 5.19971L31.1764 6.40735L31.6346 5.94913L30.427 4.74148Z" fill="#114232"/>
<path d="M28.1987 2.51248L27.7405 2.9707L28.9496 4.17983L29.4078 3.7216L28.1987 2.51248Z" fill="#114232"/>
<path d="M17.0199 56.6272H16.3718V60.8541H17.0199V56.6272Z" fill="#114232"/>
<path d="M18.8091 58.4165H14.5823V59.0645H18.8091V58.4165Z" fill="#114232"/>
<path d="M56.7338 6.54052H53.1299C52.9501 6.54052 52.8059 6.39628 52.8059 6.2165V2.61259C52.8059 2.43281 52.9501 2.28857 53.1299 2.28857H56.7338C56.9136 2.28857 57.0579 2.43281 57.0579 2.61259V6.2165C57.0579 6.39628 56.9136 6.54052 56.7338 6.54052ZM53.4539 5.89248H56.4098V2.93661H53.4539V5.89248Z" fill="#114232"/>
<path d="M12.1239 8.40532H6.45048C6.33551 8.40532 6.22681 8.3426 6.17036 8.24226C6.11183 8.14192 6.11183 8.01858 6.17036 7.91824L9.00708 3.00363C9.06562 2.90329 9.17223 2.84058 9.2872 2.84058C9.40218 2.84058 9.51088 2.90329 9.56732 3.00363L12.4061 7.91824C12.4647 8.01858 12.4647 8.14192 12.4061 8.24226C12.3476 8.3426 12.241 8.40532 12.1239 8.40532ZM7.01281 7.75728H11.5637L9.2872 3.81472L7.01281 7.75728Z" fill="#114232"/>
<path d="M57.8732 58.3098C56.598 58.3098 55.5632 57.2729 55.5632 55.9999C55.5632 54.7247 56.6001 53.6899 57.8732 53.6899C59.1483 53.6899 60.1831 54.7268 60.1831 55.9999C60.1852 57.2729 59.1483 58.3098 57.8732 58.3098ZM57.8732 54.3359C56.9555 54.3359 56.2113 55.0822 56.2113 55.9978C56.2113 56.9134 56.9576 57.6597 57.8732 57.6597C58.7888 57.6597 59.5351 56.9134 59.5351 55.9978C59.5351 55.0822 58.7909 54.3359 57.8732 54.3359Z" fill="#114232"/>
<path d="M24.6208 26.7963H24.6375C24.6438 26.7963 24.65 26.7963 24.6584 26.7963C25.6827 26.7963 26.6568 26.2988 27.3321 25.4271C27.9111 24.685 28.2226 23.7359 28.2309 22.6781V22.6677C28.2226 21.6141 27.9132 20.6651 27.3341 19.9229C26.6568 19.0533 25.6848 18.5537 24.6626 18.5537C24.6563 18.5537 24.6479 18.5537 24.6417 18.5537H24.6228C23.6006 18.5537 22.6244 19.0512 21.9492 19.9209C21.3701 20.665 21.0587 21.6141 21.0503 22.6677V22.6781C21.0587 23.7317 21.3701 24.6808 21.9471 25.4229C22.6223 26.2967 23.5964 26.7963 24.6208 26.7963Z" fill="#30BC90"/>
<path d="M19.4344 39.1195H23.7323L24.5601 36.7029L24.3448 36.6047C24.1692 36.5252 23.9853 36.4834 23.795 36.4834H21.1694C20.6238 36.4834 20.1807 36.0403 20.1807 35.4946V31.9305C20.1807 31.7486 20.3291 31.6023 20.5089 31.6023C20.6907 31.6023 20.8371 31.7507 20.8371 31.9305V35.4946C20.8371 35.6765 20.9855 35.827 21.1694 35.827H23.7971C24.048 35.827 24.2926 35.873 24.5246 35.965L24.7796 36.0653L26.5983 30.7535C26.6067 30.7285 26.6192 30.7055 26.6318 30.6846L26.6798 30.5424H26.8303C26.8554 30.5361 26.8805 30.534 26.9077 30.534H31.9435L31.885 30.2247C31.5798 28.6192 30.1709 27.4548 28.5382 27.4548H20.7409C18.8658 27.4548 17.3398 28.9767 17.3335 30.8497V37.0186C17.3335 38.1767 18.2763 39.1195 19.4344 39.1195Z" fill="#30BC90"/>
<path d="M23.3664 41.2993H22.9964L23.1156 40.9481C23.1177 40.923 23.1239 40.898 23.1323 40.8729L23.5086 39.7754H20.9248V51.0115C20.9248 51.5027 21.1171 51.9668 21.4641 52.3138C21.8111 52.6608 22.2752 52.8532 22.7665 52.8532C23.7824 52.8532 24.6082 52.0274 24.6082 51.0115V44.1486C24.6082 43.9667 24.7566 43.8204 24.9364 43.8204C25.1161 43.8204 25.2645 43.9688 25.2645 44.1486V51.0115C25.2645 51.5027 25.4569 51.9668 25.8039 52.3138C26.1509 52.6608 26.615 52.8532 27.1062 52.8532C28.1222 52.8532 28.9479 52.0274 28.9479 51.0115V41.3056H23.4396C23.4166 41.3077 23.3915 41.3056 23.3664 41.2993Z" fill="#30BC90"/>
<path d="M33.0056 34.485L32.9972 34.4808H32.9993C32.993 34.4788 32.9889 34.4767 32.9826 34.4746C32.8781 34.4328 32.7673 34.4119 32.6544 34.4119H31.6322C31.628 34.414 31.6259 34.416 31.6217 34.4181L30.6162 37.3803C30.6183 37.3907 30.6225 37.3991 30.6267 37.4075C30.6329 37.4158 30.6392 37.42 30.6476 37.4263H32.2196C32.5917 37.4263 32.9241 37.1901 33.0432 36.8368L33.478 35.5595C33.57 35.2898 33.5261 35.0035 33.361 34.7735C33.269 34.6481 33.1456 34.5477 33.0056 34.485Z" fill="#30BC90"/>
<path d="M24.2822 39.5463C24.2822 39.5484 24.2801 39.5505 24.2801 39.5526L23.9038 40.65H30.5556L31.4336 38.0851H30.6789C30.449 38.0851 30.2316 37.9743 30.0978 37.7861C29.964 37.6001 29.9284 37.3576 30.0016 37.1402L30.9862 34.2387C31.0845 33.9481 31.3562 33.7537 31.6635 33.7537H32.6523C32.669 33.7537 32.6899 33.7537 32.7087 33.7558H32.9157L33.7957 31.1887H27.144L24.2822 39.5463Z" fill="#30BC90"/>
<path d="M42.0947 12.5063H32.7755C31.2412 12.5063 29.9932 13.7543 29.9932 15.2887V22.8456C29.9932 24.38 31.2412 25.628 32.7755 25.628H33.0076L32.8132 27.2795C32.7776 27.5888 32.9135 27.892 33.1664 28.0717L33.1685 28.0738C33.3149 28.1763 33.4842 28.2285 33.6598 28.2285C33.7894 28.2285 33.919 28.1992 34.034 28.1407L39.1702 25.6259H42.0926C43.627 25.6259 44.875 24.3779 44.875 22.8436V15.2887C44.8771 13.7543 43.6291 12.5063 42.0947 12.5063ZM42.4145 17.4063L36.4254 23.3933L35.9676 23.8511L35.5098 23.3933L32.4599 20.3434L32.0021 19.8856L32.4599 19.4278L33.7936 18.0941L34.2514 17.6363L34.7092 18.0941L35.9697 19.3546L40.1673 15.157L40.6251 14.6992L41.0829 15.157L42.4166 16.4907L42.8744 16.9485L42.4145 17.4063Z" fill="#30BC90"/>
<path d="M33.6494 29.4969L33.6243 29.3673L33.5658 29.0579C33.202 27.1472 31.5255 25.7613 29.5814 25.7613H27.8275C28.2226 25.5041 28.5822 25.1759 28.8874 24.7808C29.5542 23.9259 29.9117 22.8388 29.9221 21.641V21.6389V21.6368V21.6264V21.6243V21.6222C29.9138 20.4244 29.5542 19.3394 28.8874 18.4845C28.0867 17.456 26.9265 16.8665 25.7057 16.8665C25.6974 16.8665 25.689 16.8665 25.6827 16.8665H25.666C24.441 16.8665 23.2808 17.456 22.4802 18.4845C21.8133 19.3415 21.4559 20.4286 21.4454 21.6243V21.6264V21.6285V21.6389V21.641V21.6431C21.4538 22.8409 21.8133 23.9259 22.4802 24.7808C22.7854 25.1738 23.1449 25.5041 23.5421 25.7613H21.7862C21.2406 25.7613 20.7117 25.8679 20.2121 26.079C19.7313 26.2818 19.2964 26.5744 18.9244 26.9444C18.5523 27.3145 18.2596 27.7472 18.0547 28.228C17.8457 28.7171 17.737 29.2356 17.7307 29.7707V29.7728V29.8042V35.973C17.7307 37.4886 18.9641 38.722 20.4796 38.722H21.3221V38.7303V49.9664C21.3221 50.6312 21.5813 51.2562 22.0516 51.7266C22.522 52.1969 23.147 52.4561 23.8118 52.4561C24.742 52.4561 25.5531 51.944 25.9817 51.1872C26.0925 51.3816 26.2304 51.5635 26.3914 51.7266C26.8617 52.1969 27.4868 52.4561 28.1515 52.4561C29.525 52.4561 30.6412 51.3398 30.6412 49.9664V40.2605V40.2522H31.5987H32.0627L32.2133 39.8132L33.0912 37.2482L33.1665 37.0287H33.2626C33.9128 37.0287 34.4918 36.6148 34.6988 35.9981L35.1336 34.7209C35.2925 34.2526 35.2172 33.753 34.9287 33.3495C34.8242 33.2053 34.6967 33.0799 34.5524 32.9816L34.5734 32.921L35.4534 30.3539L35.7482 29.4969H34.8409H33.6494ZM22.9923 24.3816C22.4133 23.6395 22.1018 22.6904 22.0955 21.6368V21.6264C22.1039 20.5728 22.4133 19.6237 22.9944 18.8795C23.6717 18.0099 24.6459 17.5124 25.6681 17.5124H25.6869C25.6932 17.5124 25.7015 17.5124 25.7078 17.5124C26.73 17.5124 27.7021 18.0099 28.3794 18.8816C28.9584 19.6237 29.2678 20.5728 29.2762 21.6264V21.6368C29.2678 22.6925 28.9564 23.6436 28.3773 24.3858C27.7021 25.2554 26.7279 25.755 25.7036 25.755C25.6974 25.755 25.6911 25.755 25.6827 25.755H25.666C24.6417 25.7508 23.6676 25.2512 22.9923 24.3816ZM20.4796 38.0739C19.3215 38.0739 18.3787 37.1311 18.3787 35.973V29.8021C18.385 27.929 19.9131 26.4072 21.7862 26.4072H29.5814C31.2161 26.4072 32.623 27.5716 32.9282 29.177L32.9867 29.4864H27.9509C27.9237 29.4864 27.8986 29.4906 27.8735 29.4948H27.723L27.6749 29.6369C27.6603 29.6578 27.6498 29.6829 27.6415 29.7059L25.8228 35.0177L25.5678 34.9174C25.3357 34.8254 25.0911 34.7794 24.8403 34.7794H22.2126C22.0307 34.7794 21.8802 34.631 21.8802 34.447V30.8828C21.8802 30.701 21.7318 30.5546 21.552 30.5546C21.3702 30.5546 21.2238 30.703 21.2238 30.8828V34.447C21.2238 34.9926 21.667 35.4358 22.2126 35.4358H24.8403C25.0305 35.4358 25.2145 35.4755 25.3901 35.557L25.6054 35.6553L24.7776 38.0718H20.4796V38.0739ZM29.9953 49.9685C29.9953 50.9845 29.1696 51.8102 28.1536 51.8102C27.6624 51.8102 27.1983 51.6179 26.8513 51.2708C26.5043 50.9238 26.3119 50.4598 26.3119 49.9685V43.1056C26.3119 42.9237 26.1635 42.7774 25.9838 42.7774C25.804 42.7774 25.6556 42.9258 25.6556 43.1056V49.9685C25.6556 50.9845 24.8298 51.8102 23.8139 51.8102C23.3226 51.8102 22.8586 51.6179 22.5115 51.2708C22.1645 50.9238 21.9722 50.4598 21.9722 49.9685V38.7324H24.5518L24.1755 39.8299C24.1672 39.855 24.1609 39.8801 24.1588 39.9051L24.0396 40.2563H24.4097C24.4347 40.2626 24.4598 40.2647 24.487 40.2647H29.9953V49.9685ZM34.5211 34.5139L34.0863 35.7933C33.9671 36.1465 33.6347 36.3828 33.2626 36.3828H31.6906C31.6823 36.3786 31.676 36.3723 31.6697 36.3639C31.6635 36.3556 31.6614 36.3472 31.6593 36.3368L32.6648 33.3746C32.669 33.3725 32.6711 33.3704 32.6752 33.3684H33.6975C33.8103 33.3684 33.9211 33.3893 34.0257 33.4311C34.0319 33.4332 34.0361 33.4352 34.0424 33.4373H34.0403L34.0487 33.4415C34.1908 33.5042 34.312 33.6046 34.4019 33.73C34.5692 33.9599 34.6131 34.2463 34.5211 34.5139ZM33.9609 32.712H33.7539C33.733 32.712 33.7142 32.7099 33.6975 32.7099H32.7087C32.4014 32.7099 32.1296 32.9043 32.0314 33.1948L31.0468 36.0964C30.9736 36.3138 31.0092 36.5563 31.1429 36.7423C31.2767 36.9305 31.4941 37.0412 31.7241 37.0412H32.4787L31.6008 39.6062H24.949L25.3253 38.5087C25.3253 38.5066 25.3274 38.5046 25.3274 38.5025L28.1892 30.147H34.8409L33.9609 32.712Z" fill="#114232"/>
<path d="M43.1399 10.8127H33.8208C31.9289 10.8127 30.3904 12.3513 30.3904 14.2431V21.8001C30.3904 23.5247 31.6697 24.9545 33.3295 25.1949L33.2166 26.1586V26.1607V26.1628C33.1539 26.7063 33.3922 27.2415 33.8375 27.5571L33.8396 27.5592H33.8417H33.8438C34.0988 27.7369 34.3977 27.831 34.705 27.831C34.9329 27.831 35.1608 27.7787 35.3635 27.6784L40.3659 25.2305H43.1399C45.0318 25.2305 46.5704 23.6919 46.5704 21.8001V14.2431C46.5704 12.3513 45.0318 10.8127 43.1399 10.8127ZM45.9223 21.8001C45.9223 23.3345 44.6743 24.5824 43.1399 24.5824H40.2175L35.0813 27.0972C34.9663 27.1537 34.8367 27.185 34.7071 27.185C34.5315 27.185 34.3622 27.1307 34.2159 27.0303L34.2138 27.0283C33.9608 26.8485 33.825 26.5454 33.8605 26.236L34.0549 24.5845H33.8229C32.2885 24.5845 31.0405 23.3365 31.0405 21.8022V14.2431C31.0405 12.7088 32.2885 11.4608 33.8229 11.4608H43.142C44.6764 11.4608 45.9244 12.7088 45.9244 14.2431V21.8001H45.9223Z" fill="#114232"/>
<path d="M42.126 14.1111L41.6682 13.6533L41.2104 14.1111L37.0128 18.3087L35.7523 17.0482L35.2945 16.5904L34.8367 17.0482L33.503 18.3819L33.0452 18.8397L33.503 19.2975L36.5529 22.3474L37.0107 22.8052L37.4685 22.3474L43.4576 16.3583L43.9154 15.9005L43.4576 15.4427L42.126 14.1111ZM37.0128 21.8896L33.9629 18.8397L35.2966 17.506L37.0149 19.2243L41.6703 14.5689L43.004 15.9026L37.0128 21.8896Z" fill="#114232"/>
</svg>
