
<svg width="51" height="48" fill="none" xmlns="http://www.w3.org/2000/svg"><path fill-rule="evenodd" clip-rule="evenodd" d="M7 34.465l-.765-.677h-.001A6.982 6.982 0 015 32.353v-2.017a2 2 0 012-2h3v-4.233a2 2 0 012-2h5.866v-6.017a2 2 0 011.044-1.757l2.934-1.596a2 2 0 011.912 0l2.933 1.596a2 2 0 011.044 1.757v3.812H35.5a2 2 0 012 2v9.822h3c.433 0 .834.138 1.162.372l-.487 2.602a6.985 6.985 0 01-.675 1.95V33.72h-3v1.843c1.01.35 1.999.734 2.962 1.152a6.88 6.88 0 01-1.226 1.639c-4.855-2.04-10.395-3.2-16.308-3.2-4.584 0-8.944.698-12.935 1.961l-1.72-1.523a42.501 42.501 0 011.727-.56v-4.696H7v4.128zm28.5-.744v1.206a44.302 44.302 0 00-7.767-1.52V21.899H35.5V33.72zm-9.767-17.634V33.24a46.174 46.174 0 00-5.867.016v-17.17L22.8 14.49l2.933 1.597zm-7.867 8.017v9.33A44.529 44.529 0 0012 34.483V24.104h5.866z" fill="#2D3137"/><path fill-rule="evenodd" clip-rule="evenodd" d="M33.067 2.709l-.11-.097A9.857 9.857 0 0028.372.325a9.73 9.73 0 00-5.118.344L10.078 5.236a9.765 9.765 0 00-4.234 2.895 9.94 9.94 0 00-2.204 4.623v.002l-2.6 13.912a10.04 10.04 0 003.206 9.366l.001.001 10.556 9.347.002.001a9.83 9.83 0 004.588 2.292 9.74 9.74 0 005.121-.344l13.171-4.566a9.768 9.768 0 004.234-2.893v-.001a9.935 9.935 0 002.205-4.624l2.605-13.915c.085-.452.138-.906.16-1.36l-1.654 1.241a5.39 5.39 0 01-.591.386l-2.486 13.28a7.935 7.935 0 01-1.76 3.694 7.768 7.768 0 01-3.368 2.302l-13.171 4.566a7.74 7.74 0 01-4.071.273 7.83 7.83 0 01-3.656-1.827l-10.56-9.35a8.04 8.04 0 01-2.566-7.5l2.6-13.914a7.94 7.94 0 011.76-3.694 7.764 7.764 0 013.367-2.303l13.175-4.567a7.73 7.73 0 014.068-.273c1.259.254 2.46.82 3.486 1.678.16-.154.33-.3.51-.435l1.095-.82z" fill="#CFCFCF"/><path d="M38.202 2.257a4.054 4.054 0 014.025-.485l4.543 1.941a4.054 4.054 0 012.432 3.243l.591 4.905a4.054 4.054 0 01-1.592 3.728l-3.953 2.964a4.054 4.054 0 01-4.024.485l-4.544-1.94a4.054 4.054 0 01-2.432-3.243l-.591-4.906a4.054 4.054 0 011.592-3.728l3.953-2.964z" fill="url(#paint0_radial)"/><defs><radialGradient id="paint0_radial" cx="0" cy="0" r="1" gradientUnits="userSpaceOnUse" gradientTransform="matrix(14.9251 -5.43214 6.22667 17.1081 37.003 11.719)"><stop stop-color="#FFCC4C"/><stop offset="1" stop-color="#FFE367"/></radialGradient></defs></svg>