<svg width="55" height="57" viewBox="0 0 55 57" fill="none" xmlns="http://www.w3.org/2000/svg">
<path d="M50.1532 2.02539H46.7394V5.43924H50.1532V2.02539Z" fill="#30BC90"/>
<path d="M5.20897 2.55029L2.52185 7.20572H7.89608L5.20897 2.55029Z" fill="#30BC90"/>
<path d="M52.5616 53.9259C53.2962 53.1912 53.2962 52.0002 52.5616 51.2655C51.827 50.5309 50.6359 50.5309 49.9012 51.2655C49.1666 52.0002 49.1666 53.1912 49.9012 53.9259C50.6359 54.6605 51.827 54.6605 52.5616 53.9259Z" fill="#30BC90"/>
<path d="M2.07413 34.5765L0.930176 35.7205L1.36424 36.1545L2.50819 35.0106L2.07413 34.5765Z" fill="#114232"/>
<path d="M4.184 32.4642L3.04004 33.6082L3.4741 34.0422L4.61805 32.8983L4.184 32.4642Z" fill="#114232"/>
<path d="M3.47508 34.5757L3.04102 35.0098L4.18497 36.1537L4.61903 35.7197L3.47508 34.5757Z" fill="#114232"/>
<path d="M1.36301 32.4658L0.928955 32.8999L2.07291 34.0439L2.50697 33.6098L1.36301 32.4658Z" fill="#114232"/>
<path d="M52.1941 25.6483L51.0487 26.7937L51.4828 27.2278L52.6281 26.0824L52.1941 25.6483Z" fill="#114232"/>
<path d="M54.3054 23.5375L53.16 24.6829L53.5941 25.1169L54.7395 23.9716L54.3054 23.5375Z" fill="#114232"/>
<path d="M53.5935 25.648L53.1594 26.082L54.3048 27.2274L54.7388 26.7933L53.5935 25.648Z" fill="#114232"/>
<path d="M51.4829 23.5366L51.0488 23.9707L52.1942 25.1161L52.6282 24.682L51.4829 23.5366Z" fill="#114232"/>
<path d="M25.0404 2.85507L23.8965 3.99902L24.3305 4.43308L25.4745 3.28913L25.0404 2.85507Z" fill="#114232"/>
<path d="M27.1516 0.744226L26.0077 1.88818L26.4417 2.32224L27.5857 1.17829L27.1516 0.744226Z" fill="#114232"/>
<path d="M26.4415 2.85403L26.0074 3.28809L27.1514 4.43204L27.5855 3.99798L26.4415 2.85403Z" fill="#114232"/>
<path d="M24.3309 0.742698L23.8969 1.17676L25.0422 2.32211L25.4763 1.88806L24.3309 0.742698Z" fill="#114232"/>
<path d="M13.7415 52.0034H13.1277V56.0074H13.7415V52.0034Z" fill="#114232"/>
<path d="M15.4366 53.6985H11.4326V54.3123H15.4366V53.6985Z" fill="#114232"/>
<path d="M51.3612 4.55798H47.9473C47.777 4.55798 47.6404 4.42134 47.6404 4.25105V0.837203C47.6404 0.666906 47.777 0.530273 47.9473 0.530273H51.3612C51.5315 0.530273 51.6681 0.666906 51.6681 0.837203V4.25105C51.6681 4.42134 51.5315 4.55798 51.3612 4.55798ZM48.2542 3.94412H51.0542V1.14413H48.2542V3.94412Z" fill="#114232"/>
<path d="M9.10389 6.32424H3.72966C3.62075 6.32424 3.51778 6.26484 3.46431 6.16979C3.40887 6.07474 3.40887 5.95791 3.46431 5.86286L6.15143 1.20743C6.20688 1.11238 6.30786 1.05298 6.41677 1.05298C6.52569 1.05298 6.62866 1.11238 6.68212 1.20743L9.37122 5.86286C9.42666 5.95791 9.42666 6.07474 9.37122 6.16979C9.31577 6.26484 9.21478 6.32424 9.10389 6.32424ZM4.26233 5.71038H8.5732L6.41677 1.97575L4.26233 5.71038Z" fill="#114232"/>
<path d="M52.4404 53.5977C51.2325 53.5977 50.2523 52.6155 50.2523 51.4095C50.2523 50.2016 51.2345 49.2214 52.4404 49.2214C53.6483 49.2214 54.6285 50.2036 54.6285 51.4095C54.6305 52.6155 53.6483 53.5977 52.4404 53.5977ZM52.4404 49.8333C51.5711 49.8333 50.8662 50.5402 50.8662 51.4076C50.8662 52.2749 51.5731 52.9818 52.4404 52.9818C53.3078 52.9818 54.0147 52.2749 54.0147 51.4076C54.0147 50.5402 53.3097 49.8333 52.4404 49.8333Z" fill="#114232"/>
<path d="M38.3097 33.477C38.3097 33.6315 38.185 33.7582 38.0305 33.7602C38.0286 33.7602 38.0286 33.7602 38.0266 33.7602C37.9553 33.7602 37.884 33.7325 37.8305 33.679C37.7731 33.6236 37.7414 33.5444 37.7414 33.4671V12.1662C37.7414 10.7385 36.581 9.57812 35.1533 9.57812H19.0128C17.5851 9.57812 16.4247 10.7385 16.4247 12.1662V33.477C16.4247 33.6315 16.2999 33.7582 16.1455 33.7602C16.1435 33.7602 16.1435 33.7602 16.1415 33.7602C16.0683 33.7602 15.999 33.7325 15.9455 33.679C15.8881 33.6236 15.8564 33.5444 15.8564 33.4671V16.0989H8.80493V36.9562H45.3632V16.0989H38.3117V33.477H38.3097ZM27.0088 13.9484C27.0088 13.2217 27.5989 12.6316 28.3256 12.6316H32.3672C33.0939 12.6316 33.684 13.2217 33.684 13.9484V17.99C33.684 18.7167 33.0939 19.3068 32.3672 19.3068H28.3256C27.5989 19.3068 27.0088 18.7167 27.0088 17.99V13.9484ZM21.0306 12.9405H24.0088C24.591 12.9405 25.0643 13.4138 25.0643 13.9959C25.0643 14.5781 24.591 15.0514 24.0088 15.0514H21.0306C20.4484 15.0514 19.9752 14.5781 19.9752 13.9959C19.9752 13.4138 20.4484 12.9405 21.0306 12.9405ZM21.0306 17.485H24.0088C24.591 17.485 25.0643 17.9583 25.0643 18.5405C25.0643 19.1226 24.591 19.5959 24.0088 19.5959H21.0306C20.4484 19.5959 19.9752 19.1226 19.9752 18.5405C19.9752 17.9583 20.4484 17.485 21.0306 17.485ZM27.5375 32.2057C27.5375 32.9325 26.9474 33.5226 26.2207 33.5226H22.1791C21.4524 33.5226 20.8623 32.9325 20.8623 32.2057V28.1642C20.8623 27.4374 21.4524 26.8474 22.1791 26.8474H26.2207C26.9474 26.8474 27.5375 27.4374 27.5375 28.1642V32.2057ZM33.5137 33.2137H30.5355C29.9534 33.2137 29.4801 32.7404 29.4801 32.1582C29.4801 31.576 29.9534 31.1028 30.5355 31.1028H33.5137C34.0959 31.1028 34.5692 31.576 34.5692 32.1582C34.5692 32.7404 34.0959 33.2137 33.5137 33.2137ZM33.5137 28.6691H30.5355C29.9534 28.6691 29.4801 28.1959 29.4801 27.6137C29.4801 27.0315 29.9534 26.5582 30.5355 26.5582H33.5137C34.0959 26.5582 34.5692 27.0315 34.5692 27.6137C34.5692 28.1959 34.0959 28.6691 33.5137 28.6691ZM33.7157 24.1424H21.0306C20.4484 24.1424 19.9752 23.6691 19.9752 23.087C19.9752 22.5048 20.4484 22.0315 21.0306 22.0315H33.7157C34.2979 22.0315 34.7711 22.5048 34.7711 23.087C34.7711 23.6672 34.2979 24.1424 33.7157 24.1424Z" fill="#30BC90"/>
<path d="M32.5197 46.677H31.4088V46.7225H30.7949H23.3732H22.7593V46.677H21.6484C20.4583 46.677 19.488 47.6453 19.488 48.8374V49.0631H34.68V48.8374C34.68 47.6453 33.7117 46.677 32.5197 46.677Z" fill="#30BC90"/>
<path d="M30.7949 41.6099H23.3732V46.1089H30.7949V41.6099Z" fill="#30BC90"/>
<path d="M8.80493 40.996H45.3632V37.5703H8.80493V40.996ZM28.4583 40.3386H25.7098C25.1276 40.3386 24.6544 39.8654 24.6544 39.2832C24.6544 38.701 25.1276 38.2277 25.7098 38.2277H28.4583C29.0405 38.2277 29.5137 38.701 29.5137 39.2832C29.5137 39.8654 29.0405 40.3386 28.4583 40.3386Z" fill="#30BC90"/>
<path d="M46.3533 14.4949H39.3473V11.1761C39.3473 9.40976 37.9117 7.97412 36.1454 7.97412H20.0049C18.2385 7.97412 16.8029 9.40976 16.8029 11.1761V14.4949H9.79501H9.18115V15.1087V35.9661V36.0116V36.5799V36.6255V40.0057V40.6195H9.79501H23.7494V45.073H22.6385C21.1098 45.073 19.8643 46.3165 19.8643 47.8472V48.0729V48.6868H20.4781H35.6701H36.284V48.0729V47.8472C36.284 46.3185 35.0404 45.073 33.5098 45.073H32.3989V40.6195H46.3533H46.9671V40.0057V36.6255V36.5799V36.0116V35.9661V15.1087V14.4949H46.3533ZM33.5098 45.6868C34.6998 45.6868 35.6701 46.6551 35.6701 47.8472V48.0729H20.4781V47.8472C20.4781 46.6571 21.4464 45.6868 22.6385 45.6868H23.7494V45.7324H24.3633H31.785H32.3989V45.6868H33.5098ZM24.3633 45.1185V40.6195H31.785V45.1185H24.3633ZM46.3533 40.0057H9.79501V36.5799H46.3533V40.0057ZM46.3533 35.9661H9.79501V15.1087H16.8465V32.477C16.8465 32.5562 16.8801 32.6334 16.9356 32.6889C16.989 32.7423 17.0583 32.77 17.1316 32.77C17.1336 32.77 17.1336 32.77 17.1356 32.77C17.29 32.7681 17.4148 32.6394 17.4148 32.4869V11.1761C17.4148 9.74837 18.5752 8.58798 20.0029 8.58798H36.1434C37.5711 8.58798 38.7315 9.74837 38.7315 11.1761V32.477C38.7315 32.5562 38.7652 32.6334 38.8206 32.6889C38.8741 32.7423 38.9434 32.77 39.0167 32.77C39.0186 32.77 39.0186 32.77 39.0206 32.77C39.1751 32.7681 39.2998 32.6394 39.2998 32.4869V15.1087H46.3513V35.9661H46.3533Z" fill="#114232"/>
<path d="M26.6998 39.3487H29.4484C30.0305 39.3487 30.5038 38.8754 30.5038 38.2932C30.5038 37.7111 30.0305 37.2378 29.4484 37.2378H26.6998C26.1177 37.2378 25.6444 37.7111 25.6444 38.2932C25.6444 38.8754 26.1177 39.3487 26.6998 39.3487ZM26.6998 37.8497H29.4484C29.6919 37.8497 29.8899 38.0477 29.8899 38.2913C29.8899 38.5348 29.6919 38.7328 29.4484 38.7328H26.6998C26.4563 38.7328 26.2583 38.5348 26.2583 38.2913C26.2583 38.0477 26.4563 37.8497 26.6998 37.8497Z" fill="#114232"/>
<path d="M29.3157 18.3168H33.3573C34.084 18.3168 34.6741 17.7267 34.6741 17V12.9584C34.6741 12.2317 34.084 11.6416 33.3573 11.6416H29.3157C28.589 11.6416 27.9989 12.2317 27.9989 12.9584V17C27.9989 17.7267 28.589 18.3168 29.3157 18.3168ZM28.6128 12.9584C28.6128 12.5703 28.9276 12.2555 29.3157 12.2555H33.3573C33.7454 12.2555 34.0603 12.5703 34.0603 12.9584V17C34.0603 17.3881 33.7454 17.703 33.3573 17.703H29.3157C28.9276 17.703 28.6128 17.3881 28.6128 17V12.9584Z" fill="#114232"/>
<path d="M22.0207 14.0638H24.9989C25.581 14.0638 26.0543 13.5905 26.0543 13.0083C26.0543 12.4261 25.581 11.9529 24.9989 11.9529H22.0207C21.4385 11.9529 20.9652 12.4261 20.9652 13.0083C20.9652 13.5885 21.4385 14.0638 22.0207 14.0638ZM22.0207 12.5648H24.9989C25.2424 12.5648 25.4404 12.7628 25.4404 13.0063C25.4404 13.2499 25.2424 13.4479 24.9989 13.4479H22.0207C21.7771 13.4479 21.5791 13.2499 21.5791 13.0063C21.5791 12.7628 21.7771 12.5648 22.0207 12.5648Z" fill="#114232"/>
<path d="M22.0207 18.6082H24.9989C25.581 18.6082 26.0543 18.1349 26.0543 17.5528C26.0543 16.9706 25.581 16.4973 24.9989 16.4973H22.0207C21.4385 16.4973 20.9652 16.9706 20.9652 17.5528C20.9652 18.133 21.4385 18.6082 22.0207 18.6082ZM22.0207 17.1092H24.9989C25.2424 17.1092 25.4404 17.3072 25.4404 17.5508C25.4404 17.7943 25.2424 17.9924 24.9989 17.9924H22.0207C21.7771 17.9924 21.5791 17.7943 21.5791 17.5508C21.5791 17.3072 21.7771 17.1092 22.0207 17.1092Z" fill="#114232"/>
<path d="M27.2087 25.8577H23.1672C22.4404 25.8577 21.8503 26.4478 21.8503 27.1745V31.2161C21.8503 31.9428 22.4404 32.5329 23.1672 32.5329H27.2087C27.9355 32.5329 28.5256 31.9428 28.5256 31.2161V27.1745C28.5275 26.4478 27.9355 25.8577 27.2087 25.8577ZM27.9137 31.2161C27.9137 31.6042 27.5988 31.919 27.2107 31.919H23.1691C22.781 31.919 22.4662 31.6042 22.4662 31.2161V27.1745C22.4662 26.7864 22.781 26.4715 23.1691 26.4715H27.2107C27.5988 26.4715 27.9137 26.7864 27.9137 27.1745V31.2161Z" fill="#114232"/>
<path d="M34.5039 30.1113H31.5257C30.9435 30.1113 30.4702 30.5846 30.4702 31.1668C30.4702 31.7489 30.9435 32.2222 31.5257 32.2222H34.5039C35.086 32.2222 35.5593 31.7489 35.5593 31.1668C35.5593 30.5846 35.086 30.1113 34.5039 30.1113ZM34.5039 31.6103H31.5257C31.2821 31.6103 31.0841 31.4123 31.0841 31.1687C31.0841 30.9252 31.2821 30.7272 31.5257 30.7272H34.5039C34.7474 30.7272 34.9454 30.9252 34.9454 31.1687C34.9474 31.4123 34.7494 31.6103 34.5039 31.6103Z" fill="#114232"/>
<path d="M34.5039 25.5664H31.5257C30.9435 25.5664 30.4702 26.0397 30.4702 26.6218C30.4702 27.204 30.9435 27.6773 31.5257 27.6773H34.5039C35.086 27.6773 35.5593 27.204 35.5593 26.6218C35.5593 26.0397 35.086 25.5664 34.5039 25.5664ZM34.5039 27.0654H31.5257C31.2821 27.0654 31.0841 26.8674 31.0841 26.6238C31.0841 26.3803 31.2821 26.1822 31.5257 26.1822H34.5039C34.7474 26.1822 34.9454 26.3803 34.9454 26.6238C34.9474 26.8674 34.7494 27.0654 34.5039 27.0654Z" fill="#114232"/>
<path d="M34.7057 21.0396H22.0207C21.4385 21.0396 20.9652 21.5128 20.9652 22.095C20.9652 22.6772 21.4385 23.1504 22.0207 23.1504H34.7057C35.2879 23.1504 35.7612 22.6772 35.7612 22.095C35.7612 21.5128 35.2879 21.0396 34.7057 21.0396ZM34.7057 22.5386H22.0207C21.7771 22.5386 21.5791 22.3405 21.5791 22.097C21.5791 21.8534 21.7771 21.6554 22.0207 21.6554H34.7057C34.9493 21.6554 35.1473 21.8534 35.1473 22.097C35.1473 22.3386 34.9493 22.5386 34.7057 22.5386Z" fill="#114232"/>
</svg>
