<svg width="64" height="65" viewBox="0 0 64 65" fill="none" xmlns="http://www.w3.org/2000/svg">
<path d="M55.6063 4.27319H52.0077V7.87181H55.6063V4.27319Z" fill="#30BC90"/>
<path d="M8.22928 4.82617L5.39673 9.73357H11.0618L8.22928 4.82617Z" fill="#30BC90"/>
<path d="M58.1446 58.9827C58.919 58.2083 58.919 56.9528 58.1446 56.1784C57.3702 55.404 56.1147 55.404 55.3403 56.1784C54.5659 56.9528 54.5659 58.2083 55.3403 58.9827C56.1147 59.7571 57.3702 59.7571 58.1446 58.9827Z" fill="#30BC90"/>
<path d="M4.9245 38.5854L3.71863 39.7913L4.17618 40.2488L5.38205 39.0429L4.9245 38.5854Z" fill="#114232"/>
<path d="M7.14874 36.3591L5.94287 37.5649L6.40042 38.0225L7.6063 36.8166L7.14874 36.3591Z" fill="#114232"/>
<path d="M6.40128 38.5842L5.94373 39.0417L7.1496 40.2476L7.60715 39.7901L6.40128 38.5842Z" fill="#114232"/>
<path d="M4.17496 36.3603L3.71741 36.8179L4.92328 38.0237L5.38083 37.5662L4.17496 36.3603Z" fill="#114232"/>
<path d="M57.7573 29.1745L56.5499 30.3818L57.0075 30.8394L58.2148 29.632L57.7573 29.1745Z" fill="#114232"/>
<path d="M59.9827 26.9494L58.7754 28.1567L59.2329 28.6143L60.4403 27.4069L59.9827 26.9494Z" fill="#114232"/>
<path d="M59.2326 29.174L58.775 29.6316L59.9824 30.8389L60.4399 30.3814L59.2326 29.174Z" fill="#114232"/>
<path d="M57.0078 26.9485L56.5503 27.406L57.7576 28.6134L58.2152 28.1558L57.0078 26.9485Z" fill="#114232"/>
<path d="M29.1341 5.1474L27.9282 6.35327L28.3858 6.81082L29.5916 5.60495L29.1341 5.1474Z" fill="#114232"/>
<path d="M31.3596 2.9223L30.1537 4.12817L30.6112 4.58573L31.8171 3.37985L31.3596 2.9223Z" fill="#114232"/>
<path d="M30.6109 5.14621L30.1533 5.60376L31.3592 6.80963L31.8167 6.35208L30.6109 5.14621Z" fill="#114232"/>
<path d="M28.3861 2.92062L27.9286 3.37817L29.1359 4.58552L29.5935 4.12797L28.3861 2.92062Z" fill="#114232"/>
<path d="M17.2236 56.9561H16.5765V61.1767H17.2236V56.9561Z" fill="#114232"/>
<path d="M19.0104 58.7429H14.7898V59.39H19.0104V58.7429Z" fill="#114232"/>
<path d="M56.8797 6.94272H53.2811C53.1015 6.94272 52.9575 6.7987 52.9575 6.61918V3.02056C52.9575 2.84105 53.1015 2.69702 53.2811 2.69702H56.8797C57.0592 2.69702 57.2032 2.84105 57.2032 3.02056V6.61918C57.2032 6.7987 57.0592 6.94272 56.8797 6.94272ZM53.6046 6.29564H56.5561V3.3441H53.6046V6.29564Z" fill="#114232"/>
<path d="M12.3348 8.80461H6.66973C6.55493 8.80461 6.44638 8.74199 6.39003 8.6418C6.33158 8.54161 6.33158 8.41845 6.39003 8.31826L9.22258 3.41086C9.28103 3.31067 9.38748 3.24805 9.50229 3.24805C9.61709 3.24805 9.72564 3.31067 9.78199 3.41086L12.6166 8.31826C12.6751 8.41845 12.6751 8.54161 12.6166 8.6418C12.5582 8.74199 12.4517 8.80461 12.3348 8.80461ZM7.23123 8.15753H11.7754L9.50229 4.22076L7.23123 8.15753Z" fill="#114232"/>
<path d="M58.0171 58.6363C56.7438 58.6363 55.7106 57.6009 55.7106 56.3297C55.7106 55.0564 56.7459 54.0232 58.0171 54.0232C59.2904 54.0232 60.3236 55.0585 60.3236 56.3297C60.3257 57.6009 59.2904 58.6363 58.0171 58.6363ZM58.0171 54.6682C57.1008 54.6682 56.3577 55.4134 56.3577 56.3276C56.3577 57.2419 57.1028 57.9871 58.0171 57.9871C58.9314 57.9871 59.6766 57.2419 59.6766 56.3276C59.6766 55.4134 58.9335 54.6682 58.0171 54.6682Z" fill="#114232"/>
<path d="M38.7152 27.4887C38.4418 27.2153 38.0827 27.0796 37.7237 27.0796C37.3647 27.0796 37.0057 27.2153 36.7322 27.4887L28.5957 35.6253L25.8466 32.8762C25.5732 32.6028 25.2141 32.4671 24.8551 32.4671C24.4961 32.4671 24.137 32.6048 23.8636 32.8783C23.5985 33.1434 23.4524 33.4962 23.4524 33.8698C23.4524 34.2455 23.5985 34.5962 23.8636 34.8613L27.6042 38.6018C27.8693 38.8669 28.222 39.0131 28.5957 39.0131C28.9693 39.0131 29.3221 38.8669 29.5872 38.6018L38.7173 29.4738C39.2621 28.9248 39.2621 28.0356 38.7152 27.4887Z" fill="#30BC90"/>
<path d="M47.2984 32.2166C47.1961 32.0704 47.0291 31.9849 46.8517 31.9849C46.6742 31.9849 46.5072 32.0725 46.405 32.2166L42.6414 37.5581C42.5246 37.7251 42.5099 37.9422 42.6039 38.1238C42.6978 38.3033 42.8857 38.4181 43.0881 38.4181H44.5201C42.3471 43.7743 37.1245 47.3228 31.2883 47.3228C27.6583 47.3228 24.2371 45.9786 21.5904 43.5238C21.4547 43.3986 21.3232 43.2712 21.1917 43.1418C21.0852 43.0354 20.9454 42.9811 20.8055 42.9811C20.6886 42.9811 20.5738 43.0187 20.4757 43.0917L20.3693 43.1982L18.4155 45.152C16.4408 43.0521 15.0026 40.4971 14.2428 37.7293C14.176 37.4872 13.9569 37.3264 13.7168 37.3264C13.6688 37.3264 13.6208 37.3327 13.5728 37.3452C13.2806 37.4245 13.1115 37.7251 13.1908 38.0173C13.9986 40.9689 15.5349 43.6908 17.6432 45.9243C17.7663 46.0558 17.8916 46.1852 18.0189 46.3125C18.1483 46.442 18.2819 46.5714 18.4155 46.6966C20.0478 48.2371 21.9181 49.4582 23.9825 50.3328C26.2953 51.3118 28.7521 51.8086 31.2862 51.8086C33.3986 51.8086 35.4734 51.4579 37.4523 50.7712C39.3643 50.1053 41.149 49.1367 42.7563 47.8927C44.3489 46.6632 45.7245 45.1937 46.8496 43.5259C47.912 41.9479 48.724 40.232 49.2667 38.4181H50.6152C50.8197 38.4181 51.0055 38.3033 51.0995 38.1238C51.1934 37.9422 51.1788 37.723 51.0619 37.5581L47.2984 32.2166Z" fill="#30BC90"/>
<path d="M15.2762 33.8741C15.3785 34.0202 15.5454 34.1058 15.7229 34.1058C15.9003 34.1058 16.0673 34.0181 16.1696 33.8741L19.9331 28.5325C20.05 28.3655 20.0646 28.1485 19.9707 27.9669C19.8767 27.7853 19.6889 27.6725 19.4864 27.6725H18.0545C20.2274 22.3164 25.45 18.7699 31.2863 18.7699C34.9058 18.7699 38.3186 20.1058 40.9612 22.5501C41.1052 22.6796 41.243 22.8132 41.3808 22.953C41.4872 23.0595 41.6271 23.1116 41.7669 23.1116C41.8442 23.1116 41.9214 23.0949 41.9924 23.0636L44.134 20.922C46.1191 23.0261 47.5635 25.5873 48.3254 28.3655C48.3922 28.6077 48.6114 28.7663 48.8514 28.7663C48.8995 28.7663 48.9475 28.7601 48.9976 28.7475C49.2898 28.6682 49.4589 28.3676 49.3796 28.0754C48.5676 25.1155 47.025 22.3852 44.9084 20.1476C44.7915 20.0244 44.6725 19.9013 44.5515 19.7802C44.4137 19.6424 44.2759 19.5089 44.134 19.3753C42.5059 17.8431 40.6439 16.6283 38.5879 15.7579C36.2751 14.7789 33.8182 14.2842 31.2842 14.2842C29.1718 14.2842 27.0969 14.6328 25.1181 15.3216C23.2061 15.9875 21.4214 16.956 19.8141 18.198C18.2214 19.4295 16.8459 20.899 15.7208 22.5648C14.6583 24.1407 13.8463 25.8565 13.3036 27.6705H11.9552C11.7506 27.6705 11.5648 27.7853 11.4709 27.9648C11.377 28.1464 11.3916 28.3635 11.5085 28.5304L15.2762 33.8741Z" fill="#30BC90"/>
<path d="M37.3166 25.9879L29.6372 33.6673L27.3452 31.3754C26.9591 30.9892 26.4435 30.7763 25.8966 30.7763C25.3476 30.7763 24.8341 30.9892 24.448 31.3754C24.0618 31.7615 23.8468 32.2771 23.8468 32.824C23.8468 33.3709 24.0597 33.8865 24.448 34.2726L28.1885 38.0132C28.5747 38.4014 29.0903 38.6144 29.6372 38.6144C30.184 38.6144 30.6996 38.4014 31.0858 38.0132L40.2159 28.8851C41.0154 28.0857 41.0154 26.7853 40.2159 25.9858C39.8298 25.5996 39.3142 25.3867 38.7673 25.3867C38.2183 25.3867 37.7027 25.5996 37.3166 25.9879ZM39.7588 28.428L30.6287 37.5561C30.3636 37.8212 30.0108 37.9673 29.6372 37.9673C29.2614 37.9673 28.9108 37.8212 28.6457 37.5561L24.9051 33.8155C24.64 33.5504 24.4939 33.1976 24.4939 32.824C24.4939 32.4483 24.64 32.0976 24.9051 31.8325C25.1785 31.5591 25.5376 31.4213 25.8966 31.4213C26.2556 31.4213 26.6146 31.557 26.8881 31.8304L29.6372 34.5795L37.7737 26.4429C38.0471 26.1695 38.4062 26.0338 38.7652 26.0338C39.1242 26.0338 39.4833 26.1695 39.7567 26.4429C40.3057 26.9919 40.3057 27.8811 39.7588 28.428Z" fill="#114232"/>
<path d="M52.6358 36.1409L48.8722 30.8014C48.6489 30.4841 48.2857 30.2942 47.8974 30.2942C47.5092 30.2942 47.1439 30.4841 46.9226 30.8014L43.1591 36.143C42.9024 36.5083 42.869 36.98 43.0756 37.3787C43.2823 37.7753 43.6872 38.0216 44.1339 38.0216H44.566C42.2845 42.6744 37.5838 45.6322 32.332 45.6322C28.8836 45.6322 25.596 44.3442 23.0745 42.0064C22.9451 41.8874 22.8177 41.7643 22.6946 41.6411C22.4692 41.4157 22.1707 41.2925 21.8513 41.2925C21.6071 41.2925 21.3649 41.3698 21.1646 41.5096H21.1479L20.9579 41.6996L19.4863 43.1711C17.8143 41.2487 16.5849 38.9609 15.9148 36.5166C15.7729 35.999 15.3011 35.6378 14.7647 35.6378C14.6582 35.6378 14.5518 35.6525 14.4495 35.6796C14.1406 35.7631 13.8859 35.9635 13.7273 36.2411C13.5707 36.5187 13.529 36.8402 13.6146 37.147C14.0299 38.6645 14.6353 40.1361 15.4139 41.5159C16.1904 42.8935 17.1339 44.1752 18.2214 45.3253C18.3487 45.461 18.4802 45.5967 18.6117 45.7282C18.7578 45.8743 18.8935 46.0058 19.0208 46.1269C20.7074 47.7195 22.6466 48.9845 24.7799 49.8883C27.1741 50.9007 29.7165 51.4142 32.334 51.4142C34.5174 51.4142 36.6632 51.053 38.713 50.3412C40.6919 49.6524 42.5392 48.6505 44.2007 47.3647C45.8456 46.0935 47.2691 44.5739 48.4339 42.8476C49.4421 41.351 50.2332 39.7312 50.7905 38.0258H51.6631C52.1097 38.0258 52.5168 37.7795 52.7213 37.3829C52.9259 36.98 52.8925 36.5062 52.6358 36.1409ZM52.1452 37.0802C52.0513 37.2597 51.8634 37.3745 51.661 37.3745H50.3125C49.7719 39.1885 48.9599 40.9043 47.8954 42.4823C46.7703 44.148 45.3947 45.6175 43.802 46.8491C42.1948 48.0932 40.4101 49.0617 38.498 49.7276C36.5192 50.4143 34.4444 50.765 32.332 50.765C29.8 50.765 27.3432 50.2682 25.0283 49.2892C22.9639 48.4146 21.0936 47.1935 19.4613 45.653C19.3277 45.5278 19.1962 45.3984 19.0647 45.269C18.9373 45.1416 18.8121 45.0122 18.6889 44.8807C16.5807 42.6472 15.0444 39.9253 14.2366 36.9738C14.1573 36.6836 14.3263 36.383 14.6186 36.3016C14.6666 36.2891 14.7146 36.2828 14.7626 36.2828C15.0027 36.2828 15.2218 36.4415 15.2886 36.6857C16.0484 39.4536 17.4845 42.0085 19.4613 44.1084L21.415 42.1546L21.5215 42.0481C21.6175 41.9751 21.7344 41.9375 21.8513 41.9375C21.9911 41.9375 22.131 41.9918 22.2375 42.0982C22.3669 42.2277 22.5005 42.3571 22.6361 42.4802C25.2829 44.935 28.7041 46.2792 32.334 46.2792C38.1703 46.2792 43.3929 42.7328 45.5659 37.3745H44.1339C43.9294 37.3745 43.7436 37.2597 43.6497 37.0802C43.5557 36.8986 43.5703 36.6794 43.6872 36.5145L47.4507 31.173C47.553 31.0269 47.72 30.9413 47.8974 30.9413C48.0749 30.9413 48.2419 31.0289 48.3441 31.173L52.1077 36.5145C52.2245 36.6815 52.2392 36.8986 52.1452 37.0802Z" fill="#114232"/>
<path d="M15.7898 33.2018C16.0131 33.5191 16.3784 33.7091 16.7667 33.7091C17.1549 33.7091 17.5202 33.5191 17.7415 33.2018L21.505 27.8603C21.7617 27.495 21.7951 27.0211 21.5885 26.6245C21.3818 26.2258 20.9769 25.9795 20.5281 25.9795H20.096C22.3775 21.3268 27.0782 18.3711 32.3301 18.3711C35.77 18.3711 39.0493 19.6527 41.5667 21.9781L41.5687 21.9801L41.5708 21.9822C41.6961 22.097 41.8276 22.2202 41.9695 22.3621C42.1949 22.5876 42.4934 22.7107 42.8128 22.7107C42.984 22.7107 43.1489 22.6752 43.3054 22.6043L43.414 22.5563L43.4975 22.4728L45.159 20.8112C46.8414 22.7399 48.0771 25.034 48.7493 27.4887C48.8912 28.0043 49.363 28.3654 49.8994 28.3654C50.0059 28.3654 50.1123 28.3508 50.2146 28.3237C50.8492 28.1504 51.2228 27.4929 51.0496 26.8583C50.6321 25.3345 50.0247 23.8609 49.2419 22.4748C48.4612 21.093 47.5136 19.8093 46.424 18.6571C46.3071 18.5339 46.186 18.4087 46.0545 18.2772C45.9084 18.131 45.7623 17.9912 45.6224 17.8597C43.94 16.2754 42.0092 15.0167 39.8842 14.1191C37.49 13.1068 34.9497 12.5933 32.3301 12.5933C30.1425 12.5933 27.9967 12.9544 25.9511 13.6662C23.9743 14.3529 22.1291 15.3548 20.4655 16.6428C18.8206 17.916 17.395 19.4356 16.2323 21.1598C15.2241 22.6544 14.433 24.2742 13.8757 25.9816H13.0031C12.5544 25.9816 12.1494 26.2279 11.9428 26.6266C11.7382 27.0232 11.7695 27.495 12.0263 27.8603L15.7898 33.2018ZM12.5564 27.4887C12.4395 27.3217 12.4249 27.1046 12.5189 26.923C12.6128 26.7414 12.8007 26.6287 13.0031 26.6287H14.3516C14.8922 24.8148 15.7042 23.099 16.7687 21.523C17.8938 19.8573 19.2694 18.3878 20.8621 17.1562C22.4693 15.9122 24.254 14.9436 26.1661 14.2799C28.1449 13.591 30.2197 13.2424 32.3321 13.2424C34.8641 13.2424 37.3209 13.7392 39.6358 14.7161C41.6919 15.5865 43.5538 16.8014 45.182 18.3335C45.3239 18.465 45.4617 18.6007 45.5994 18.7385C45.7205 18.8595 45.8395 18.9806 45.9564 19.1058C48.0751 21.3435 49.6176 24.0738 50.4275 27.0337C50.5068 27.3259 50.3378 27.6244 50.0455 27.7058C49.9975 27.7183 49.9474 27.7246 49.8994 27.7246C49.6594 27.7246 49.4402 27.5659 49.3734 27.3238C48.6115 24.5455 47.1671 21.9822 45.182 19.8803L43.0403 22.0219C42.9694 22.0532 42.8921 22.0699 42.8149 22.0699C42.675 22.0699 42.5352 22.0177 42.4287 21.9113C42.291 21.7735 42.1511 21.6399 42.0092 21.5084C39.3666 19.0641 35.9537 17.7282 32.3342 17.7282C26.498 17.7282 21.2754 21.2746 19.1024 26.6308H20.5344C20.7389 26.6308 20.9247 26.7456 21.0186 26.9251C21.1126 27.1067 21.0979 27.3238 20.9811 27.4908L17.2175 32.8324C17.1152 32.9785 16.9483 33.0641 16.7708 33.0641C16.5934 33.0641 16.4264 32.9764 16.3241 32.8324L12.5564 27.4887Z" fill="#114232"/>
</svg>
