<svg width="58" height="60" viewBox="0 0 58 60" fill="none" xmlns="http://www.w3.org/2000/svg">
<path d="M52.276 2.52881H48.6951V6.10971H52.276V2.52881Z" fill="#30BC90"/>
<path d="M5.13233 3.07935L2.31372 7.96258H7.95094L5.13233 3.07935Z" fill="#30BC90"/>
<path d="M54.802 56.9692C55.5726 56.1987 55.5726 54.9493 54.802 54.1787C54.0314 53.4081 52.7821 53.4081 52.0115 54.1787C51.2409 54.9493 51.2409 56.1987 52.0115 56.9692C52.7821 57.7398 54.0314 57.7398 54.802 56.9692Z" fill="#30BC90"/>
<path d="M1.84398 36.6724L0.644043 37.8723L1.09934 38.3276L2.29928 37.1277L1.84398 36.6724Z" fill="#114232"/>
<path d="M4.05711 34.457L2.85718 35.657L3.31248 36.1123L4.51241 34.9123L4.05711 34.457Z" fill="#114232"/>
<path d="M3.31345 36.6714L2.85815 37.1267L4.05809 38.3266L4.51339 37.8713L3.31345 36.6714Z" fill="#114232"/>
<path d="M1.09812 34.4583L0.642822 34.9136L1.84276 36.1135L2.29806 35.6582L1.09812 34.4583Z" fill="#114232"/>
<path d="M54.4165 27.3076L53.2151 28.509L53.6704 28.9643L54.8718 27.7629L54.4165 27.3076Z" fill="#114232"/>
<path d="M56.6311 25.0935L55.4297 26.2949L55.885 26.7502L57.0864 25.5488L56.6311 25.0935Z" fill="#114232"/>
<path d="M55.8845 27.3072L55.4292 27.7625L56.6306 28.9639L57.0859 28.5086L55.8845 27.3072Z" fill="#114232"/>
<path d="M53.6704 25.0928L53.2151 25.5481L54.4165 26.7495L54.8718 26.2942L53.6704 25.0928Z" fill="#114232"/>
<path d="M25.9341 3.39894L24.7341 4.59888L25.1894 5.05418L26.3894 3.85424L25.9341 3.39894Z" fill="#114232"/>
<path d="M28.1489 1.18483L26.949 2.38477L27.4043 2.84007L28.6042 1.64013L28.1489 1.18483Z" fill="#114232"/>
<path d="M27.4038 3.39773L26.9485 3.85303L28.1484 5.05296L28.6037 4.59766L27.4038 3.39773Z" fill="#114232"/>
<path d="M25.1902 1.18313L24.7349 1.63843L25.9363 2.83983L26.3916 2.38453L25.1902 1.18313Z" fill="#114232"/>
<path d="M14.0826 54.9524H13.4387V59.1523H14.0826V54.9524Z" fill="#114232"/>
<path d="M15.8603 56.7305H11.6604V57.3744H15.8603V56.7305Z" fill="#114232"/>
<path d="M53.543 5.18549H49.9621C49.7835 5.18549 49.6401 5.04217 49.6401 4.86354V1.28264C49.6401 1.10401 49.7835 0.960693 49.9621 0.960693H53.543C53.7216 0.960693 53.8649 1.10401 53.8649 1.28264V4.86354C53.8649 5.04217 53.7216 5.18549 53.543 5.18549ZM50.284 4.5416H53.221V1.60459H50.284V4.5416Z" fill="#114232"/>
<path d="M9.21796 7.03825H3.58074C3.4665 7.03825 3.35849 6.97593 3.30241 6.87623C3.24425 6.77653 3.24425 6.65398 3.30241 6.55428L6.12102 1.67105C6.17918 1.57135 6.28511 1.50903 6.39935 1.50903C6.51359 1.50903 6.6216 1.57135 6.67768 1.67105L9.49836 6.55428C9.55652 6.65398 9.55652 6.77653 9.49836 6.87623C9.44021 6.97593 9.33427 7.03825 9.21796 7.03825ZM4.13947 6.39435H8.6613L6.39935 2.47696L4.13947 6.39435Z" fill="#114232"/>
<path d="M54.6748 56.6245C53.4078 56.6245 52.3796 55.5943 52.3796 54.3294C52.3796 53.0623 53.4099 52.0342 54.6748 52.0342C55.9418 52.0342 56.97 53.0644 56.97 54.3294C56.9721 55.5943 55.9418 56.6245 54.6748 56.6245ZM54.6748 52.676C53.763 52.676 53.0235 53.4175 53.0235 54.3273C53.0235 55.237 53.7651 55.9786 54.6748 55.9786C55.5846 55.9786 56.3261 55.237 56.3261 54.3273C56.3261 53.4175 55.5867 52.676 54.6748 52.676Z" fill="#114232"/>
<path d="M45.9722 33.5833L43.5004 32.9208C43.6271 31.7514 43.6271 30.5695 43.5004 29.398L45.9722 28.7354C46.13 28.6939 46.265 28.6108 46.373 28.5049C46.5932 28.2868 46.6908 27.9586 46.6057 27.6387C46.5267 27.3479 46.371 27.0841 46.1529 26.8764L44.4704 25.2791L43.3758 24.2634L43.2865 24.3548L38.37 29.5891C38.8457 32.9208 37.8009 36.4269 35.2378 38.99C33.0755 41.1523 30.2424 42.2324 27.4071 42.2324C24.574 42.2324 21.7388 41.1523 19.5765 38.99C18.8807 38.2942 18.297 37.5298 17.8255 36.7177C17.4143 36.0115 17.0902 35.2699 16.8493 34.5077C15.6425 30.692 16.5523 26.353 19.5765 23.3288C21.7388 21.1665 24.5719 20.0864 27.4071 20.0864C30.2403 20.0864 33.0755 21.1665 35.2378 23.3288C35.4018 23.4928 35.5618 23.6632 35.7134 23.8356L39.1219 20.2069L38.0294 19.1704L37.0968 18.2856C36.7623 17.9678 36.3989 17.6853 36.0084 17.4402C35.3375 17.0186 34.6437 16.6509 33.9292 16.3373L34.5897 13.8697C34.7185 13.392 34.4339 12.8997 33.9562 12.773L30.9278 11.9608C30.8509 11.9401 30.772 11.9297 30.6952 11.9297C30.4542 11.9297 30.2278 12.0273 30.0616 12.1935C29.9536 12.3015 29.8726 12.4365 29.8311 12.5944L29.1685 15.0661C28.5828 15.0017 27.9949 14.9705 27.4071 14.9705C26.8193 14.9705 26.2315 15.0017 25.6458 15.0661L24.9832 12.5944C24.8752 12.1935 24.5137 11.9297 24.1191 11.9297C24.0422 11.9297 23.9633 11.9401 23.8865 11.9608L20.8581 12.773C20.7002 12.8145 20.5652 12.8976 20.4572 13.0035C20.237 13.2216 20.1394 13.5498 20.2246 13.8697L20.8851 16.3373C19.8216 16.8046 18.7976 17.3924 17.8338 18.1007L16.0268 16.2937C15.8523 16.1192 15.6217 16.0319 15.3932 16.0319C15.1648 16.0319 14.9342 16.1192 14.7597 16.2937L12.5435 18.512C12.1924 18.8609 12.1924 19.4301 12.5435 19.779L14.3505 21.5861C13.6423 22.5498 13.0544 23.5739 12.5871 24.6373L10.1195 23.9768C10.0427 23.956 9.96373 23.9457 9.88688 23.9457C9.64594 23.9457 9.41953 24.0433 9.25337 24.2094C9.14536 24.3175 9.06435 24.4525 9.02281 24.6103L8.21067 27.6387C8.08189 28.1164 8.36645 28.6087 8.84418 28.7354L11.3159 29.398C11.1892 30.5674 11.1892 31.7493 11.3159 32.9208L8.84418 33.5833C8.68632 33.6249 8.55131 33.708 8.4433 33.8139C8.22313 34.032 8.12551 34.3602 8.21067 34.6801L9.02281 37.7084C9.13082 38.1093 9.49223 38.3731 9.88688 38.3731C9.96373 38.3731 10.0427 38.3627 10.1195 38.342L12.5871 37.6814C13.0544 38.7449 13.6423 39.7689 14.3505 40.7327L12.5435 42.5398C12.1924 42.8908 12.1924 43.4578 12.5435 43.8068L14.7618 46.0251C14.9363 46.1996 15.1668 46.2868 15.3953 46.2868C15.6238 46.2868 15.8544 46.1996 16.0288 46.0251L17.8359 44.218C18.7997 44.9263 19.8237 45.5142 20.8871 45.9815L20.2266 48.4491C20.0979 48.9268 20.3824 49.4191 20.8601 49.5458L23.8885 50.3579C23.9654 50.3787 24.0443 50.3891 24.1212 50.3891C24.3621 50.3891 24.5885 50.2915 24.7547 50.1253C24.8627 50.0173 24.9437 49.8823 24.9852 49.7244L25.6478 47.2527C26.2336 47.3171 26.8214 47.3482 27.4092 47.3482C27.997 47.3482 28.5848 47.3171 29.1706 47.2527L29.8332 49.7244C29.9412 50.1253 30.3026 50.3891 30.6972 50.3891C30.7741 50.3891 30.853 50.3787 30.9299 50.3579L33.9583 49.5458C34.1161 49.5042 34.2511 49.4212 34.3591 49.3152C34.5793 49.0971 34.6769 48.7689 34.5918 48.4491L33.9313 45.9815C34.9947 45.5142 36.0187 44.9263 36.9825 44.218L38.7896 46.0251C38.9641 46.1996 39.1946 46.2868 39.4231 46.2868C39.6516 46.2868 39.8821 46.1996 40.0566 46.0251L42.2749 43.8068C42.626 43.4558 42.626 42.8887 42.2749 42.5398L40.4679 40.7327C41.1762 39.7689 41.764 38.7449 42.2313 37.6814L44.6989 38.342C44.7757 38.3627 44.8547 38.3731 44.9315 38.3731C45.1725 38.3731 45.3989 38.2755 45.565 38.1093C45.6731 38.0013 45.7541 37.8663 45.7956 37.7084L46.6077 34.6801C46.7344 34.2023 46.4499 33.71 45.9722 33.5833Z" fill="#30BC90"/>
<path d="M41.6869 23.5239L43.3133 21.7937L45.6624 24.0224L47.7333 15.3921L41.1157 17.3529L39.2255 17.9137L41.5685 20.1362L36.7704 25.2437L32.1801 30.1311L30.6015 24.5479C30.4852 24.1366 30.1611 23.8188 29.7478 23.7108C29.6481 23.6838 29.5463 23.6714 29.4445 23.6714C29.1288 23.6714 28.8214 23.796 28.5929 24.0245L18.9365 33.6809C18.4671 34.1503 18.4671 34.9126 18.9365 35.382C19.1713 35.6167 19.4807 35.7351 19.7881 35.7351C20.0956 35.7351 20.405 35.6167 20.6398 35.382L28.8463 27.1754L30.4457 32.8334C30.5641 33.2509 30.8964 33.5729 31.3181 33.6746C31.4136 33.6975 31.5092 33.7079 31.6026 33.7079C31.9308 33.7079 32.2507 33.5729 32.4812 33.3278L37.8879 27.5701L41.6869 23.5239Z" fill="#30BC90"/>
<path d="M47.1767 31.9216L45.2305 31.4003C45.2949 30.5487 45.2949 29.6929 45.2305 28.8413L47.1767 28.3199C47.4384 28.2493 47.6752 28.1122 47.8663 27.9211C48.2547 27.5327 48.4084 26.9636 48.2651 26.4339C48.1571 26.0289 47.9369 25.6613 47.6337 25.3726L45.9512 23.7753L45.9492 23.7732L45.9471 23.7711L44.8525 22.7554L44.3934 22.3296L43.9552 22.7762L43.8659 22.8676L43.8617 22.8717L43.8575 22.878L38.9411 28.1122L38.7292 28.3386L38.7728 28.644C39.2402 31.9279 38.1663 35.1556 35.8234 37.4986C33.8543 39.4677 31.2351 40.554 28.4476 40.554C25.6622 40.554 23.043 39.4698 21.0719 37.4986C20.4301 36.8568 19.8755 36.136 19.4227 35.3592C19.0405 34.7028 18.731 34.0029 18.5025 33.278C17.3227 29.5475 18.3073 25.5138 21.0719 22.7492C23.041 20.7801 25.6602 19.6938 28.4476 19.6938C31.233 19.6938 33.8522 20.778 35.8234 22.7492C35.9771 22.9029 36.1287 23.0628 36.272 23.2269L36.7394 23.7566L37.2233 23.2415L40.6318 19.6128L41.0701 19.1434L40.6048 18.703L39.5123 17.6666L38.5797 16.7817C38.2162 16.4369 37.8153 16.1254 37.3895 15.8574C36.8557 15.523 36.3011 15.2156 35.7299 14.9414L36.2512 12.9993C36.3572 12.6026 36.3032 12.1872 36.0975 11.8299C35.8919 11.4727 35.5596 11.2193 35.1628 11.1133L32.1345 10.3012C32.0036 10.2659 31.8707 10.2493 31.7357 10.2493C31.3306 10.2493 30.9339 10.4134 30.6473 10.7C30.4582 10.889 30.3191 11.1279 30.2485 11.3896L29.7271 13.3379C29.3013 13.3047 28.8734 13.2901 28.4476 13.2901C28.0218 13.2901 27.5939 13.3067 27.1681 13.3379L26.6468 11.3917C26.4661 10.7187 25.8554 10.2493 25.1596 10.2493C25.0246 10.2493 24.8916 10.268 24.7608 10.3012L21.7324 11.1133C21.4707 11.184 21.2339 11.321 21.0428 11.5121C20.6544 11.9006 20.5007 12.4697 20.644 12.9993L21.1653 14.9414C20.3947 15.3111 19.6532 15.7411 18.9491 16.223L17.5263 14.8002C17.2355 14.5094 16.8492 14.3494 16.4379 14.3494C16.0266 14.3494 15.6403 14.5094 15.3495 14.8002L13.127 17.0185C12.8362 17.3093 12.6763 17.6956 12.6763 18.1069C12.6763 18.5182 12.8362 18.9045 13.127 19.1953L14.5498 20.6181C14.0679 21.3222 13.638 22.0658 13.2683 22.8364L11.3262 22.3151C11.1953 22.2798 11.0624 22.2632 10.9274 22.2632C10.5223 22.2632 10.1256 22.4272 9.83898 22.7139C9.64996 22.9029 9.5108 23.1418 9.44018 23.4035L8.62803 26.4339C8.40786 27.2544 8.89598 28.0998 9.71643 28.3199L11.6627 28.8413C11.5983 29.6929 11.5983 30.5487 11.6627 31.4003L9.71643 31.9216C9.45471 31.9922 9.21793 32.1293 9.02683 32.3204C8.63842 32.7088 8.48471 33.278 8.62803 33.8076L9.44018 36.836C9.62088 37.509 10.2315 37.9784 10.9274 37.9784C11.0624 37.9784 11.1953 37.9597 11.3262 37.9265L13.2683 37.4051C13.638 38.1757 14.0679 38.9173 14.5498 39.6235L13.127 41.0463C12.8362 41.3371 12.6763 41.7234 12.6763 42.1347C12.6763 42.5459 12.8362 42.9323 13.127 43.2231L15.3453 45.4414C15.6361 45.7322 16.0225 45.8921 16.4337 45.8921C16.845 45.8921 17.2313 45.7322 17.5221 45.4414L18.9449 44.0186C19.6491 44.5026 20.3927 44.9304 21.1612 45.3002L20.6398 47.2422C20.5339 47.639 20.5879 48.0544 20.7935 48.4116C20.9992 48.7689 21.3315 49.0223 21.7282 49.1282L24.7566 49.9404C24.8875 49.9757 25.0204 49.9923 25.1554 49.9923C25.5605 49.9923 25.9572 49.8282 26.2438 49.5416C26.4328 49.3526 26.572 49.1137 26.6426 48.852L27.164 46.9037C27.5898 46.9369 28.0177 46.9514 28.4435 46.9514C28.8693 46.9514 29.2971 46.9348 29.7229 46.9037L30.2443 48.8499C30.425 49.5229 31.0357 49.9923 31.7315 49.9923C31.8665 49.9923 31.9994 49.9736 32.1303 49.9404L35.1587 49.1282C35.4204 49.0576 35.6572 48.9205 35.8483 48.7294C36.2367 48.341 36.3904 47.7719 36.2471 47.2422L35.7257 45.3002C36.4963 44.9304 37.2379 44.5005 37.9441 44.0186L39.3669 45.4414C39.6577 45.7322 40.044 45.8921 40.4553 45.8921C40.8665 45.8921 41.2529 45.7322 41.5437 45.4414L43.762 43.2231C44.0528 42.9323 44.2127 42.5459 44.2127 42.1347C44.2127 41.7234 44.0528 41.3371 43.762 41.0463L42.3392 39.6235C42.8211 38.9193 43.251 38.1757 43.6208 37.4051L45.5628 37.9265C45.6937 37.9618 45.8266 37.9784 45.9616 37.9784C46.3667 37.9784 46.7634 37.8143 47.05 37.5277C47.239 37.3387 47.3782 37.0998 47.4488 36.8381L48.261 33.8076C48.4853 32.9872 47.9972 32.1418 47.1767 31.9216ZM47.6441 33.6414L46.8319 36.6698C46.7904 36.8277 46.7073 36.9627 46.6014 37.0707C46.4352 37.2369 46.2088 37.3345 45.9679 37.3345C45.891 37.3345 45.8121 37.3241 45.7352 37.3034L43.2677 36.6428C42.8003 37.7063 42.2125 38.7303 41.5042 39.6941L43.3113 41.5012C43.6623 41.8522 43.6623 42.4192 43.3113 42.7682L41.0929 44.9865C40.9185 45.161 40.6879 45.2482 40.4594 45.2482C40.2309 45.2482 40.0004 45.161 39.8259 44.9865L38.0188 43.1794C37.0551 43.8877 36.0311 44.4755 34.9676 44.9429L35.6281 47.4105C35.7133 47.7303 35.6157 48.0585 35.3955 48.2766C35.2875 48.3846 35.1525 48.4656 34.9946 48.5072L31.9662 49.3193C31.8894 49.3401 31.8104 49.3505 31.7336 49.3505C31.3389 49.3505 30.9754 49.0867 30.8695 48.6858L30.2069 46.2141C29.6212 46.2785 29.0334 46.3096 28.4455 46.3096C27.8577 46.3096 27.2699 46.2785 26.6842 46.2141L26.0216 48.6858C25.98 48.8437 25.897 48.9787 25.791 49.0867C25.6249 49.2529 25.3985 49.3505 25.1575 49.3505C25.0807 49.3505 25.0017 49.3401 24.9249 49.3193L21.8965 48.5072C21.4187 48.3784 21.1342 47.8882 21.263 47.4105L21.9235 44.9429C20.86 44.4755 19.836 43.8877 18.8722 43.1794L17.0652 44.9865C16.8907 45.161 16.6601 45.2482 16.4317 45.2482C16.2032 45.2482 15.9726 45.161 15.7981 44.9865L13.5798 42.7682C13.2288 42.4171 13.2288 41.8501 13.5798 41.5012L15.3869 39.6941C14.6786 38.7303 14.0908 37.7063 13.6234 36.6428L11.1559 37.3034C11.079 37.3241 11.0001 37.3345 10.9232 37.3345C10.5286 37.3345 10.1651 37.0707 10.0591 36.6698L9.24908 33.6414C9.16392 33.3216 9.26155 32.9934 9.48172 32.7753C9.58973 32.6673 9.72474 32.5863 9.88259 32.5447L12.3543 31.8822C12.2276 30.7128 12.2276 29.5309 12.3543 28.3594L9.88259 27.6968C9.40486 27.568 9.1203 27.0778 9.24908 26.6001L10.0612 23.5717C10.1028 23.4139 10.1859 23.2789 10.2918 23.1708C10.4579 23.0047 10.6844 22.9071 10.9253 22.9071C11.0021 22.9071 11.0811 22.9174 11.1579 22.9382L13.6255 23.5987C14.0929 22.5353 14.6807 21.5112 15.389 20.5475L13.5819 18.7404C13.2309 18.3894 13.2309 17.8223 13.5819 17.4734L15.8002 15.2551C15.9747 15.0806 16.2053 14.9933 16.4337 14.9933C16.6622 14.9933 16.8928 15.0806 17.0672 15.2551L18.8743 17.0621C19.8381 16.3538 20.8621 15.766 21.9256 15.2987L21.265 12.8311C21.1799 12.5112 21.2775 12.183 21.4977 11.9649C21.6057 11.8569 21.7407 11.7759 21.8986 11.7344L24.927 10.9222C25.0038 10.9015 25.0827 10.8911 25.1596 10.8911C25.5542 10.8911 25.9177 11.1549 26.0237 11.5558L26.6862 14.0275C27.272 13.9631 27.8598 13.9319 28.4476 13.9319C29.0354 13.9319 29.6233 13.9631 30.209 14.0275L30.8716 11.5558C30.9131 11.3979 30.9962 11.2629 31.1021 11.1549C31.2683 10.9887 31.4947 10.8911 31.7357 10.8911C31.8125 10.8911 31.8914 10.9015 31.9683 10.9222L34.9967 11.7344C35.4744 11.8632 35.759 12.3534 35.6302 12.8311L34.9697 15.3007C35.6821 15.6144 36.3779 15.982 37.0488 16.4037C37.4393 16.6488 37.8028 16.9313 38.1372 17.2491L39.0699 18.1339L40.1624 19.1704L36.7539 22.799C36.6023 22.6266 36.4423 22.4563 36.2782 22.2922C34.116 20.13 31.2828 19.0499 28.4476 19.0499C25.6145 19.0499 22.7792 20.13 20.617 22.2922C17.5907 25.3144 16.683 29.6534 17.8898 33.469C18.1307 34.2313 18.4568 34.9729 18.866 35.6791C19.3375 36.4912 19.9212 37.2556 20.617 37.9514C22.7792 40.1137 25.6124 41.1937 28.4476 41.1937C31.2808 41.1937 34.116 40.1137 36.2782 37.9514C38.8414 35.3883 39.8861 31.8822 39.4105 28.5505L44.327 23.3162L44.4163 23.2248L45.5109 24.2405L47.1934 25.8378C47.4114 26.0455 47.5693 26.3093 47.6462 26.6001C47.7313 26.92 47.6337 27.2482 47.4135 27.4663C47.3055 27.5743 47.1705 27.6553 47.0126 27.6968L44.5409 28.3594C44.6676 29.5288 44.6676 30.7107 44.5409 31.8822L47.0126 32.5447C47.4883 32.6714 47.7729 33.1637 47.6441 33.6414Z" fill="#114232"/>
<path d="M48.5889 13.7367L41.9713 15.6975L40.0791 16.2583L39.0094 16.5761L39.8174 17.3446L41.6951 19.1268L37.3373 23.7649L33.53 27.8215L32.2609 23.3329C32.0844 22.7056 31.5817 22.2133 30.9482 22.0472C30.7966 22.0077 30.6387 21.9869 30.4829 21.9869C29.9886 21.9869 29.5254 22.1801 29.1764 22.5291L19.5201 32.1854C18.7993 32.9062 18.7993 34.0777 19.5201 34.7984C19.869 35.1474 20.3343 35.3405 20.8265 35.3405C21.3188 35.3405 21.7841 35.1495 22.133 34.8005L29.5628 27.3687L30.863 31.9694C31.0437 32.6092 31.5568 33.1035 32.2028 33.2614C32.3461 33.2967 32.4936 33.3133 32.639 33.3133C33.1478 33.3133 33.638 33.1014 33.9849 32.7317L39.3936 26.974L43.1947 22.9279L44.3766 21.6691L46.2563 23.4534L47.0664 24.2219L47.326 23.1376L49.3969 14.5073L49.6565 13.4231L48.5889 13.7367ZM46.7008 22.9839L44.3517 20.7552L42.7253 22.4854L38.9242 26.5316L33.5176 32.2914C33.287 32.5365 32.9692 32.6715 32.639 32.6715C32.5434 32.6715 32.4479 32.6611 32.3544 32.6382C31.9327 32.5344 31.6004 32.2145 31.482 31.797L29.8827 26.139L21.6761 34.3456C21.4414 34.5803 21.1319 34.6987 20.8245 34.6987C20.5171 34.6987 20.2076 34.5803 19.9729 34.3456C19.5034 33.8762 19.5034 33.1139 19.9729 32.6445L29.6292 22.9881C29.8577 22.7596 30.1651 22.635 30.4809 22.635C30.5826 22.635 30.6844 22.6474 30.7841 22.6745C31.1975 22.7825 31.5236 23.1003 31.6378 23.5115L33.2164 29.0947L37.8068 24.2073L42.6028 19.1019L40.2598 16.8794L42.1499 16.3186L48.7676 14.3578L46.7008 22.9839Z" fill="#114232"/>
</svg>
