<svg xmlns="http://www.w3.org/2000/svg" width="69" height="50" viewBox="0 0 69 50">
    <defs>
        <filter id="prefix__a" width="103.8%" height="105.3%" x="-1.9%" y="-2.6%" filterUnits="objectBoundingBox">
            <feGaussianBlur in="SourceGraphic"/>
        </filter>
        <filter id="prefix__c" width="134.1%" height="133.8%" x="-17.1%" y="-16.9%" filterUnits="objectBoundingBox">
            <feGaussianBlur in="SourceGraphic"/>
        </filter>
        <radialGradient id="prefix__b" cx="68.166%" cy="65.098%" r="62.366%" fx="68.166%" fy="65.098%" gradientTransform="matrix(1 0 0 .98947 0 .007)">
            <stop offset="0%" stop-color="#FFCC4C"/>
            <stop offset="100%" stop-color="#FFE367"/>
        </radialGradient>
    </defs>
    <g fill="none" fill-rule="evenodd" transform="translate(-11 3)">
        <rect width="52" height="38" x="12" y="8" fill-rule="nonzero" stroke="#CFCFCF" stroke-width="2" filter="url(#prefix__a)" rx="4"/>
        <rect width="14" height="14" x="18" y="14" stroke="#CFCFCF" stroke-width="2" rx="2"/>
        <path fill="#191919" d="M36 21H51V23H36z"/>
        <path fill="#CFCFCF" d="M18 33H58V35H18z"/>
        <path fill="#191919" d="M36 26H58V28H36z"/>
        <path fill="#CFCFCF" d="M18 38H58V40H18z"/>
        <path fill="#191919" d="M38 17.5l-1.225.644c-.147.077-.328.02-.405-.126-.031-.058-.042-.125-.03-.19l.233-1.364-.99-.967c-.12-.115-.122-.305-.006-.424.046-.047.106-.078.171-.087l1.37-.2.613-1.24c.073-.15.253-.21.402-.137.059.029.107.077.136.136l.613 1.241 1.37.2c.164.023.277.176.253.34-.01.065-.04.125-.087.171l-.991.967.234 1.364c.028.163-.082.318-.245.346-.065.011-.132 0-.19-.03L38 17.5zM45 17.5l-1.225.644c-.147.077-.328.02-.405-.126-.031-.058-.042-.125-.03-.19l.233-1.364-.99-.967c-.12-.115-.122-.305-.006-.424.046-.047.106-.078.171-.087l1.37-.2.613-1.24c.073-.15.253-.21.402-.137.059.029.107.077.136.136l.613 1.241 1.37.2c.164.023.277.176.253.34-.01.065-.04.125-.087.171l-.991.967.234 1.364c.028.163-.082.318-.245.346-.065.011-.132 0-.19-.03L45 17.5z"/>
        <path fill="url(#prefix__b)" fill-rule="nonzero" stroke="#FFF" stroke-width="4" d="M71.163 24.302l-8.168 2.189c-.96.257-1.952.246-2.88-.008-.924-.253-1.785-.746-2.488-1.456l-6-6.064c-1.398-1.41-1.948-3.462-1.443-5.381l2.165-8.255c.254-.965.753-1.822 1.426-2.502.677-.685 1.531-1.19 2.491-1.448l8.17-2.19c.96-.257 1.953-.245 2.882.009.923.253 1.784.746 2.487 1.456l5.997 6.064c1.399 1.411 1.948 3.462 1.443 5.382l-2.164 8.25c-.252.966-.751 1.824-1.425 2.506-.678.685-1.533 1.191-2.493 1.448z" filter="url(#prefix__c)"/>
        <g transform="translate(57.715 6.84)">
            <path stroke="#191919" stroke-linejoin="round" stroke-width="1.5" d="M10.243 4.243L12 6h0l-1.757 1.757c-2.344 2.344-6.142 2.344-8.486 0L0 6h0l1.757-1.757c2.344-2.344 6.142-2.344 8.486 0z"/>
            <circle cx="6" cy="6" r="2" fill="#191919"/>
        </g>
    </g>
</svg>
