<svg width="64" height="65" viewBox="0 0 64 65" fill="none" xmlns="http://www.w3.org/2000/svg">
<path d="M54.7422 5.18262H51.2749V8.64992H54.7422V5.18262Z" fill="#30BC90"/>
<path d="M9.09442 5.71582L6.36523 10.4441H11.8236L9.09442 5.71582Z" fill="#30BC90"/>
<path d="M57.1883 57.8959C57.9344 57.1498 57.9344 55.9401 57.1883 55.1939C56.4421 54.4478 55.2324 54.4478 54.4863 55.1939C53.7401 55.9401 53.7401 57.1498 54.4863 57.8959C55.2324 58.6421 56.4421 58.6421 57.1883 57.8959Z" fill="#30BC90"/>
<path d="M5.9104 38.2429L4.74854 39.4048L5.18939 39.8456L6.35126 38.6838L5.9104 38.2429Z" fill="#114232"/>
<path d="M8.05347 36.0979L6.8916 37.2598L7.33246 37.7006L8.49433 36.5388L8.05347 36.0979Z" fill="#114232"/>
<path d="M7.33343 38.242L6.89258 38.6829L8.05445 39.8447L8.4953 39.4039L7.33343 38.242Z" fill="#114232"/>
<path d="M5.18841 36.0994L4.74756 36.5403L5.90943 37.7022L6.35028 37.2613L5.18841 36.0994Z" fill="#114232"/>
<path d="M56.8151 29.1756L55.6519 30.3389L56.0927 30.7797L57.256 29.6164L56.8151 29.1756Z" fill="#114232"/>
<path d="M58.9597 27.032L57.7964 28.1953L58.2372 28.6362L59.4005 27.4729L58.9597 27.032Z" fill="#114232"/>
<path d="M58.2368 29.1751L57.7959 29.616L58.9592 30.7793L59.4 30.3384L58.2368 29.1751Z" fill="#114232"/>
<path d="M56.0927 27.0306L55.6519 27.4714L56.8151 28.6347L57.256 28.1939L56.0927 27.0306Z" fill="#114232"/>
<path d="M29.2361 6.02514L28.0742 7.18701L28.5151 7.62787L29.6769 6.466L29.2361 6.02514Z" fill="#114232"/>
<path d="M31.3801 3.88134L30.2183 5.04321L30.6591 5.48407L31.821 4.3222L31.3801 3.88134Z" fill="#114232"/>
<path d="M30.6591 6.02399L30.2183 6.46484L31.3801 7.62671L31.821 7.18586L30.6591 6.02399Z" fill="#114232"/>
<path d="M28.5156 3.8797L28.0747 4.32056L29.238 5.48385L29.6789 5.04299L28.5156 3.8797Z" fill="#114232"/>
<path d="M17.7607 55.9431H17.1372V60.0097H17.7607V55.9431Z" fill="#114232"/>
<path d="M19.4827 57.6648H15.416V58.2883H19.4827V57.6648Z" fill="#114232"/>
<path d="M55.9695 7.75507H52.5022C52.3292 7.75507 52.1904 7.6163 52.1904 7.44334V3.97604C52.1904 3.80308 52.3292 3.66431 52.5022 3.66431H55.9695C56.1424 3.66431 56.2812 3.80308 56.2812 3.97604V7.44334C56.2812 7.6163 56.1424 7.75507 55.9695 7.75507ZM52.8139 7.1316H55.6577V4.28778H52.8139V7.1316Z" fill="#114232"/>
<path d="M13.0504 9.54911H7.59201C7.48139 9.54911 7.37681 9.48877 7.32251 9.39224C7.2662 9.2957 7.2662 9.17704 7.32251 9.0805L10.0517 4.35219C10.108 4.25565 10.2106 4.19531 10.3212 4.19531C10.4318 4.19531 10.5364 4.25565 10.5907 4.35219L13.3219 9.0805C13.3782 9.17704 13.3782 9.2957 13.3219 9.39224C13.2656 9.48877 13.163 9.54911 13.0504 9.54911ZM8.13302 8.92564H12.5114L10.3212 5.13253L8.13302 8.92564Z" fill="#114232"/>
<path d="M57.0651 57.5624C55.8383 57.5624 54.8428 56.5649 54.8428 55.34C54.8428 54.1132 55.8403 53.1177 57.0651 53.1177C58.292 53.1177 59.2875 54.1152 59.2875 55.34C59.2895 56.5649 58.292 57.5624 57.0651 57.5624ZM57.0651 53.7391C56.1822 53.7391 55.4662 54.4571 55.4662 55.338C55.4662 56.2189 56.1842 56.9369 57.0651 56.9369C57.946 56.9369 58.664 56.2189 58.664 55.338C58.664 54.4571 57.9481 53.7391 57.0651 53.7391Z" fill="#114232"/>
<path d="M19.9087 20.6246C19.8866 20.6527 19.8624 20.6809 19.8383 20.709C19.7558 20.8056 19.6694 20.9001 19.5789 20.9906C19.4642 21.1032 19.3456 21.2118 19.2209 21.3124C19.1907 21.3365 19.1625 21.3586 19.1364 21.3788C19.0519 21.4431 18.9654 21.5055 18.877 21.5638L24.2549 27.0584C24.4158 26.8492 24.5887 26.6501 24.7778 26.461C24.997 26.2418 25.2303 26.0427 25.4777 25.8617L20.0998 20.3691C20.0394 20.4576 19.9751 20.5421 19.9087 20.6246Z" fill="#30BC90"/>
<path d="M33.752 27.1446L36.3666 24.5642C36.1393 24.4074 35.9261 24.2304 35.729 24.0333C35.5178 23.8221 35.3288 23.5908 35.1639 23.3455L32.5493 25.9258C32.7665 26.0907 32.9717 26.2697 33.1668 26.4648C33.3799 26.678 33.575 26.9053 33.752 27.1446Z" fill="#30BC90"/>
<path d="M34.4377 32.969C34.3733 33.1199 34.3049 33.2667 34.2285 33.4095L43.6127 36.6998C43.6691 36.3217 43.7716 35.9536 43.9205 35.5997C43.9949 35.4207 44.0814 35.2497 44.1779 35.0828L34.7937 31.7925C34.7192 32.1967 34.5986 32.5889 34.4377 32.969Z" fill="#30BC90"/>
<path d="M29.8278 43.5724V36.5312C29.5462 36.5715 29.2606 36.5936 28.971 36.5936C28.6814 36.5936 28.3958 36.5735 28.1143 36.5312V43.5724C28.3938 43.5181 28.6794 43.492 28.971 43.492C29.2606 43.492 29.5482 43.5181 29.8278 43.5724Z" fill="#30BC90"/>
<path d="M23.2854 32.3557L18.2051 34.7148C18.4042 34.9904 18.5711 35.286 18.7039 35.6018C18.7964 35.819 18.8688 36.0422 18.9271 36.2675L24.0074 33.9084C23.8123 33.6127 23.6454 33.299 23.5066 32.9691C23.4201 32.768 23.3477 32.5629 23.2854 32.3557Z" fill="#30BC90"/>
<path d="M18.4325 37.1827C18.4284 37.0721 18.4184 36.9615 18.4043 36.8529C18.3902 36.7463 18.3721 36.6397 18.35 36.5351C18.2997 36.2998 18.2253 36.0685 18.1308 35.8433C18 35.5336 17.8311 35.246 17.628 34.9825C17.5616 34.898 17.4932 34.8156 17.4208 34.7351C17.3786 34.6889 17.3364 34.6446 17.2941 34.6024C17.2599 34.5682 17.2237 34.534 17.1875 34.4998C16.8537 34.1901 16.4715 33.9427 16.0512 33.7657C15.5705 33.5626 15.0577 33.458 14.5307 33.458C14.0038 33.458 13.493 33.5606 13.0103 33.7657C12.5457 33.9628 12.1274 34.2444 11.7694 34.6024C11.4114 34.9604 11.1298 35.3787 10.9327 35.8433C10.7296 36.324 10.625 36.8368 10.625 37.3637C10.625 37.8907 10.7276 38.4015 10.9327 38.8842C11.1298 39.3488 11.4114 39.7671 11.7694 40.1251C12.1274 40.4831 12.5457 40.7647 13.0103 40.9618C13.491 41.1649 14.0038 41.2695 14.5307 41.2695C15.0577 41.2695 15.5705 41.1669 16.0512 40.9618C16.3589 40.831 16.6465 40.6641 16.91 40.461C16.9341 40.4429 16.9603 40.4228 16.9844 40.4027C17.091 40.3162 17.1956 40.2237 17.2941 40.1251C17.3726 40.0467 17.447 39.9662 17.5194 39.8818C17.5395 39.8576 17.5596 39.8335 17.5797 39.8094C17.807 39.5278 17.992 39.2181 18.1328 38.8842C18.3359 38.4035 18.4405 37.8907 18.4405 37.3637C18.4365 37.3034 18.4345 37.2431 18.4325 37.1827ZM14.5307 35.1333C15.0496 35.1333 15.47 35.5537 15.47 36.0726C15.47 36.3119 15.3795 36.5291 15.2326 36.696C15.1301 36.8107 14.9993 36.9012 14.8505 36.9555C14.75 36.9917 14.6414 37.0118 14.5287 37.0118C14.402 37.0118 14.2834 36.9877 14.1727 36.9414C14.0279 36.8831 13.9032 36.7885 13.8047 36.6699C13.6699 36.507 13.5895 36.2978 13.5895 36.0705C13.5915 35.5537 14.0119 35.1333 14.5307 35.1333ZM16.5339 38.7776C16.5319 38.9486 16.3911 39.0873 16.2201 39.0873H12.8393C12.6684 39.0873 12.5276 38.9486 12.5256 38.7776C12.5256 38.7072 12.5236 38.4317 12.5236 38.4136C12.5236 37.8726 12.9721 37.5086 13.6237 37.3436C13.8791 37.5267 14.1908 37.6332 14.5287 37.6332C14.8545 37.6332 15.1582 37.5327 15.4096 37.3617C15.5665 37.3919 15.6912 37.4221 15.7375 37.4402C16.2222 37.6332 16.5339 37.9611 16.5339 38.4136C16.5359 38.4317 16.5359 38.7072 16.5339 38.7776Z" fill="#30BC90"/>
<path d="M42.5306 19.3113C42.3335 18.8467 42.052 18.4284 41.694 18.0704C41.336 17.7124 40.9176 17.4308 40.4531 17.2337C39.9724 17.0306 39.4595 16.926 38.9326 16.926C38.4057 16.926 37.8948 17.0286 37.4121 17.2337C36.9475 17.4308 36.5292 17.7124 36.1712 18.0704C35.8132 18.4284 35.5317 18.8467 35.3346 19.3113C35.1314 19.792 35.0269 20.3048 35.0269 20.8318C35.0269 21.3466 35.1254 21.8474 35.3205 22.318C35.3245 22.3301 35.3285 22.3402 35.3346 22.3522C35.3728 22.4427 35.415 22.5332 35.4593 22.6197C35.5095 22.7163 35.5618 22.8088 35.6181 22.8993C35.775 23.1487 35.958 23.382 36.1712 23.5931C36.3703 23.7922 36.5875 23.9672 36.8208 24.1181C36.9113 24.1764 37.0039 24.2307 37.0984 24.281C37.1949 24.3333 37.2955 24.3795 37.3981 24.4238C37.4021 24.4258 37.4081 24.4278 37.4121 24.4298C37.8928 24.6329 38.4057 24.7375 38.9326 24.7375C39.4595 24.7375 39.9724 24.6349 40.4531 24.4298C40.7608 24.2991 41.0484 24.1321 41.3118 23.929C41.336 23.9109 41.3621 23.8908 41.3863 23.8707C41.4928 23.7842 41.5974 23.6917 41.696 23.5931C41.7744 23.5147 41.8488 23.4342 41.9212 23.3498C41.9413 23.3256 41.9615 23.3015 41.9816 23.2774C42.2088 22.9958 42.3939 22.6861 42.5346 22.3522C42.7378 21.8716 42.8424 21.3587 42.8424 20.8318C42.8363 20.3028 42.7338 19.792 42.5306 19.3113ZM38.9306 18.5993C39.4495 18.5993 39.8698 19.0197 39.8698 19.5386C39.8698 19.7779 39.7793 19.9951 39.6325 20.162C39.5299 20.2767 39.3992 20.3672 39.2504 20.4215C39.1498 20.4577 39.0412 20.4778 38.9286 20.4778C38.8019 20.4778 38.6832 20.4537 38.5726 20.4074C38.4278 20.3491 38.3031 20.2546 38.2045 20.1359C38.0698 19.973 37.9893 19.7638 37.9893 19.5366C37.9914 19.0197 38.4117 18.5993 38.9306 18.5993ZM40.9357 22.2456C40.9337 22.4166 40.7929 22.5554 40.622 22.5554H37.5529H37.2392C37.0682 22.5554 36.9274 22.4166 36.9254 22.2456C36.9254 22.1752 36.9234 21.8997 36.9234 21.8816C36.9234 21.8716 36.9234 21.8615 36.9234 21.8514C36.9395 21.3265 37.382 20.9746 38.0235 20.8117C38.279 20.9947 38.5907 21.1013 38.9286 21.1013C39.2544 21.1013 39.5581 21.0007 39.8095 20.8298C39.9663 20.8599 40.091 20.8901 40.1373 20.9082C40.622 21.1013 40.9337 21.4291 40.9337 21.8816C40.9378 21.8997 40.9357 22.1732 40.9357 22.2456Z" fill="#30BC90"/>
<path d="M19.9754 16.2683C19.7783 15.8037 19.4968 15.3854 19.1388 15.0274C18.7808 14.6694 18.3625 14.3879 17.8979 14.1908C17.4172 13.9876 16.9044 13.8831 16.3774 13.8831C15.8505 13.8831 15.3396 13.9856 14.857 14.1908C14.3924 14.3879 13.974 14.6694 13.616 15.0274C13.2581 15.3854 12.9765 15.8037 12.7794 16.2683C12.5763 16.749 12.4717 17.2619 12.4717 17.7888C12.4717 18.3157 12.5743 18.8266 12.7794 19.3093C12.9765 19.7738 13.2581 20.1922 13.616 20.5502C13.974 20.9082 14.3924 21.1897 14.857 21.3868C15.3376 21.59 15.8505 21.6945 16.3774 21.6945C16.8863 21.6945 17.381 21.598 17.8496 21.4069C17.8657 21.4009 17.8818 21.3929 17.8979 21.3868C17.9844 21.3506 18.0668 21.3104 18.1493 21.2682C18.2458 21.2199 18.3383 21.1656 18.4308 21.1093C18.5435 21.0409 18.6521 20.9645 18.7567 20.884C18.7808 20.8659 18.8069 20.8458 18.8311 20.8257C18.9377 20.7392 19.0423 20.6467 19.1408 20.5482C19.2192 20.4697 19.2936 20.3893 19.3661 20.3048C19.3862 20.2807 19.4063 20.2565 19.4264 20.2324C19.5088 20.1298 19.5873 20.0232 19.6577 19.9126C19.716 19.8221 19.7703 19.7296 19.8226 19.6351C19.8749 19.5385 19.9232 19.438 19.9674 19.3374C19.9714 19.3274 19.9754 19.3173 19.9795 19.3093C20.1826 18.8286 20.2872 18.3157 20.2872 17.7888C20.2832 17.2619 20.1806 16.751 19.9754 16.2683ZM16.3774 15.5584C16.8963 15.5584 17.3166 15.9787 17.3166 16.4976C17.3166 16.7369 17.2261 16.9541 17.0793 17.1211C16.9768 17.2357 16.846 17.3262 16.6972 17.3805C16.5966 17.4167 16.488 17.4368 16.3754 17.4368C16.2487 17.4368 16.13 17.4127 16.0194 17.3664C15.8746 17.3081 15.7499 17.2136 15.6514 17.0949C15.5166 16.932 15.4362 16.7229 15.4362 16.4956C15.4382 15.9787 15.8585 15.5584 16.3774 15.5584ZM18.3826 19.2027C18.3806 19.3736 18.2398 19.5124 18.0688 19.5124H17.7551H14.686C14.5151 19.5124 14.3743 19.3736 14.3723 19.2027C14.3723 19.1323 14.3702 18.8567 14.3702 18.8386C14.3702 18.2976 14.8187 17.9336 15.4704 17.7687C15.7258 17.9517 16.0375 18.0583 16.3754 18.0583C16.7012 18.0583 17.0049 17.9577 17.2563 17.7868C17.4132 17.817 17.5379 17.8471 17.5841 17.8652C18.0628 18.0543 18.3725 18.3761 18.3806 18.8205C18.3806 18.8266 18.3806 18.8326 18.3806 18.8386C18.3826 18.8567 18.3826 19.1323 18.3826 19.2027Z" fill="#30BC90"/>
<path d="M33.864 28.5928C33.7976 28.4339 33.7232 28.2791 33.6407 28.1302C33.5905 28.0357 33.5362 27.9432 33.4778 27.8527C33.4215 27.7622 33.3632 27.6737 33.3029 27.5892C33.1319 27.3479 32.9388 27.1186 32.7256 26.9074C32.5306 26.7124 32.3214 26.5334 32.1002 26.3725C32.0137 26.3101 31.9272 26.2498 31.8387 26.1935C31.7482 26.1351 31.6557 26.0808 31.5632 26.0285C31.3942 25.934 31.2193 25.8475 31.0383 25.7711C30.3826 25.4936 29.6887 25.3528 28.9707 25.3528C28.2548 25.3528 27.5589 25.4936 26.9032 25.7711C26.7524 25.8355 26.6036 25.9059 26.4608 25.9823C26.3662 26.0326 26.2737 26.0869 26.1812 26.1432C26.0907 26.1995 26.0022 26.2578 25.9157 26.3182C25.6664 26.4931 25.4331 26.6902 25.2158 26.9074C25.0248 27.0985 24.8518 27.3016 24.6929 27.5148C24.6306 27.5993 24.5703 27.6878 24.5119 27.7763C24.4536 27.8668 24.3973 27.9573 24.345 28.0518C24.2464 28.2268 24.1559 28.4078 24.0775 28.5948C23.8 29.2505 23.6592 29.9443 23.6592 30.6623C23.6592 30.9338 23.6793 31.2033 23.7195 31.4688C23.7356 31.5754 23.7557 31.68 23.7778 31.7846C23.8 31.8872 23.8261 31.9917 23.8543 32.0923C23.9146 32.3075 23.989 32.5207 24.0775 32.7278C24.2143 33.0516 24.3812 33.3573 24.5763 33.6449C24.6366 33.7314 24.699 33.8179 24.7633 33.9024C24.8297 33.9868 24.8961 34.0693 24.9685 34.1518C25.0469 34.2423 25.1294 34.3308 25.2158 34.4172C25.7026 34.9039 26.2717 35.2881 26.9032 35.5556C27.0963 35.636 27.2914 35.7064 27.4905 35.7647C27.5931 35.7949 27.6977 35.821 27.8022 35.8452C27.9048 35.8693 28.0094 35.8874 28.114 35.9055C28.3955 35.9518 28.6811 35.9739 28.9707 35.9739C29.2604 35.9739 29.5459 35.9498 29.8275 35.9055C29.9321 35.8894 30.0367 35.8693 30.1392 35.8452C30.2438 35.821 30.3484 35.7949 30.451 35.7647C30.6501 35.7064 30.8452 35.638 31.0383 35.5556C31.4566 35.3786 31.8468 35.1513 32.2047 34.8758C32.2389 34.8496 32.2711 34.8235 32.3053 34.7973C32.4521 34.6787 32.5909 34.552 32.7256 34.4192C32.8322 34.3127 32.9348 34.202 33.0313 34.0874C33.0595 34.0552 33.0856 34.023 33.1118 33.9889C33.1741 33.9104 33.2365 33.83 33.2948 33.7475C33.3572 33.661 33.4175 33.5705 33.4738 33.48C33.5301 33.3895 33.5824 33.299 33.6347 33.2065C33.7192 33.0516 33.7956 32.8948 33.864 32.7319C34.0188 32.3638 34.1315 31.9817 34.2019 31.5915C34.22 31.4869 34.234 31.3823 34.2461 31.2778C34.2582 31.1712 34.2682 31.0646 34.2723 30.956C34.2783 30.8594 34.2803 30.7629 34.2803 30.6643C34.2803 29.9423 34.1395 29.2485 33.864 28.5928ZM28.9707 27.6274C29.6747 27.6274 30.2479 28.1986 30.2479 28.9046C30.2479 29.3329 30.0367 29.7131 29.7109 29.9443C29.5097 30.0871 29.2664 30.1736 29.0029 30.1796C28.9929 30.1796 28.9828 30.1796 28.9728 30.1796C28.9627 30.1796 28.9506 30.1796 28.9406 30.1796C28.659 30.1736 28.4016 30.0751 28.1944 29.9142C27.8927 29.6809 27.6977 29.3148 27.6977 28.9025C27.6956 28.1986 28.2668 27.6274 28.9707 27.6274ZM31.6959 32.581C31.6919 32.8143 31.5028 33.0014 31.2695 33.0014H26.674C26.4407 33.0014 26.2516 32.8143 26.2476 32.581C26.2456 32.4845 26.2456 32.1104 26.2456 32.0863C26.2456 31.2657 26.9998 30.7488 28.0536 30.5638C28.3252 30.7146 28.6389 30.8011 28.9728 30.8011C29.2825 30.8011 29.5761 30.7267 29.8356 30.594C30.1875 30.6543 30.5194 30.7267 30.6159 30.7629C31.2736 31.0244 31.6999 31.4708 31.6999 32.0863C31.6979 32.1124 31.6979 32.4845 31.6959 32.581Z" fill="#30BC90"/>
<path d="M51.6937 35.8433C51.4966 35.3787 51.215 34.9604 50.857 34.6024C50.4991 34.2444 50.0807 33.9628 49.6161 33.7657C49.1355 33.5626 48.6226 33.458 48.0957 33.458C47.5687 33.458 47.0579 33.5606 46.5752 33.7657C46.1106 33.9628 45.6923 34.2444 45.3343 34.6024C45.28 34.6567 45.2257 34.715 45.1754 34.7713C45.101 34.8538 45.0306 34.9403 44.9663 35.0287C44.9019 35.1152 44.8416 35.2037 44.7832 35.2962C44.6746 35.4712 44.5781 35.6542 44.4977 35.8453C44.3528 36.1872 44.2583 36.5452 44.2161 36.9132C44.204 37.0198 44.196 37.1264 44.1919 37.235C44.1899 37.2793 44.1899 37.3215 44.1899 37.3658C44.1899 37.4321 44.192 37.4985 44.196 37.5669C44.2181 38.0234 44.3207 38.4659 44.4977 38.8862C44.6948 39.3508 44.9763 39.7691 45.3343 40.1271C45.6923 40.4851 46.1106 40.7667 46.5752 40.9638C47.0559 41.1669 47.5687 41.2715 48.0957 41.2715C48.6226 41.2715 49.1355 41.1689 49.6161 40.9638C49.9239 40.8331 50.2115 40.6661 50.4749 40.463C50.4991 40.4449 50.5252 40.4248 50.5493 40.4047C50.6559 40.3182 50.7605 40.2257 50.8591 40.1271C50.9375 40.0487 51.0119 39.9682 51.0843 39.8838C51.1044 39.8596 51.1245 39.8355 51.1447 39.8114C51.3719 39.5298 51.5569 39.2201 51.6977 38.8862C51.9009 38.4055 52.0054 37.8927 52.0054 37.3658C51.9994 36.8368 51.8968 36.326 51.6937 35.8433ZM48.0937 35.1333C48.6126 35.1333 49.0329 35.5537 49.0329 36.0726C49.0329 36.3119 48.9424 36.5291 48.7956 36.696C48.693 36.8107 48.5623 36.9012 48.4134 36.9555C48.3129 36.9917 48.2043 37.0118 48.0917 37.0118C47.965 37.0118 47.8463 36.9877 47.7357 36.9414C47.5909 36.8831 47.4662 36.7885 47.3676 36.6699C47.2329 36.507 47.1524 36.2978 47.1524 36.0705C47.1544 35.5537 47.5748 35.1333 48.0937 35.1333ZM50.0988 38.7776C50.0968 38.9486 49.956 39.0873 49.7851 39.0873H46.4043C46.2333 39.0873 46.0925 38.9486 46.0905 38.7776C46.0905 38.7072 46.0885 38.4317 46.0885 38.4136C46.0885 37.8726 46.537 37.5086 47.1886 37.3436C47.4441 37.5267 47.7558 37.6332 48.0937 37.6332C48.4195 37.6332 48.7232 37.5327 48.9746 37.3617C49.1314 37.3919 49.2561 37.4221 49.3024 37.4402C49.7871 37.6332 50.0988 37.9611 50.0988 38.4136C50.1008 38.4317 50.0988 38.7072 50.0988 38.7776Z" fill="#30BC90"/>
<path d="M32.5716 46.5008C32.3745 46.0362 32.093 45.6178 31.735 45.2599C31.377 44.9019 30.9587 44.6203 30.4941 44.4232C30.48 44.4172 30.4659 44.4111 30.4538 44.4071C30.3513 44.3649 30.2467 44.3267 30.1421 44.2945C30.0395 44.2623 29.935 44.2341 29.8304 44.21C29.5508 44.1477 29.2652 44.1155 28.9736 44.1155C28.682 44.1155 28.3964 44.1477 28.1168 44.21C28.0123 44.2341 27.9077 44.2623 27.8051 44.2945C27.7005 44.3267 27.5959 44.3649 27.4934 44.4071C27.4793 44.4131 27.4652 44.4172 27.4531 44.4232C26.9886 44.6203 26.5702 44.9019 26.2122 45.2599C25.8542 45.6178 25.5727 46.0362 25.3756 46.5008C25.1725 46.9814 25.0679 47.4943 25.0679 48.0212C25.0679 48.5482 25.1704 49.059 25.3756 49.5417C25.5727 50.0063 25.8542 50.4246 26.2122 50.7826C26.5702 51.1406 26.9886 51.4221 27.4531 51.6192C27.9338 51.8224 28.4467 51.927 28.9736 51.927C29.5005 51.927 30.0134 51.8244 30.4941 51.6192C30.8018 51.4885 31.0894 51.3216 31.3529 51.1185C31.377 51.1004 31.4031 51.0802 31.4273 51.0601C31.5339 50.9737 31.6384 50.8811 31.737 50.7826C31.8154 50.7041 31.8898 50.6237 31.9622 50.5392C31.9824 50.5151 32.0025 50.491 32.0226 50.4668C32.2498 50.1853 32.4349 49.8755 32.5757 49.5417C32.7788 49.061 32.8834 48.5482 32.8834 48.0212C32.8834 47.4943 32.7748 46.9814 32.5716 46.5008ZM28.692 45.831C28.7805 45.8029 28.8751 45.7888 28.9736 45.7888C29.0722 45.7888 29.1647 45.8029 29.2552 45.831C29.6373 45.9497 29.9128 46.3057 29.9128 46.728C29.9128 46.9674 29.8223 47.1846 29.6755 47.3515C29.5729 47.4661 29.4422 47.5566 29.2934 47.6109C29.1928 47.6471 29.0842 47.6672 28.9716 47.6672C28.8449 47.6672 28.7262 47.6431 28.6156 47.5969C28.4708 47.5385 28.3461 47.444 28.2476 47.3253C28.1128 47.1624 28.0324 46.9533 28.0324 46.726C28.0324 46.3077 28.3099 45.9517 28.692 45.831ZM30.9768 49.4351C30.9747 49.606 30.834 49.7448 30.663 49.7448H27.2822C27.1112 49.7448 26.9705 49.606 26.9684 49.4351C26.9684 49.3647 26.9664 49.0892 26.9664 49.0711C26.9664 48.5301 27.4149 48.166 28.0666 48.0011C28.322 48.1841 28.6337 48.2907 28.9716 48.2907C29.2974 48.2907 29.6011 48.1902 29.8525 48.0192C30.0094 48.0494 30.1341 48.0795 30.1803 48.0976C30.665 48.2907 30.9768 48.6185 30.9768 49.0711C30.9788 49.0892 30.9768 49.3627 30.9768 49.4351Z" fill="#30BC90"/>
<path d="M53.2727 34.5945C53.0455 34.0555 52.7177 33.5708 52.3013 33.1545C51.885 32.7382 51.4003 32.4123 50.8613 32.1851C50.3022 31.9478 49.7089 31.8291 49.0975 31.8291C48.4861 31.8291 47.8928 31.9498 47.3337 32.1851C46.7947 32.4123 46.31 32.7402 45.8937 33.1545C45.769 33.2792 45.6543 33.4099 45.5457 33.5447L35.89 30.1598C35.9041 29.9929 35.9121 29.8239 35.9121 29.655C35.9121 28.8545 35.7552 28.0782 35.4455 27.3462C35.347 27.1129 35.2343 26.8896 35.1076 26.6724L37.9293 23.8869C38.0098 23.9271 38.0902 23.9653 38.1747 23.9995C38.7338 24.2368 39.3271 24.3555 39.9385 24.3555C40.5499 24.3555 41.1432 24.2348 41.7023 23.9995C42.0583 23.8487 42.3942 23.6536 42.6979 23.4183C42.724 23.3982 42.7522 23.3761 42.7824 23.3519C42.905 23.2514 43.0257 23.1428 43.1404 23.0301C43.2309 22.9396 43.3193 22.8451 43.3998 22.7466C43.4219 22.7184 43.446 22.6902 43.4682 22.6621C43.7296 22.3363 43.9468 21.9763 44.1097 21.5881C44.3471 21.029 44.4657 20.4357 44.4657 19.8243C44.4657 19.2129 44.3451 18.6196 44.1097 18.0605C43.8825 17.5215 43.5547 17.0368 43.1383 16.6205C42.722 16.2041 42.2373 15.8783 41.6983 15.6511C41.1392 15.4137 40.5459 15.2951 39.9345 15.2951C39.3231 15.2951 38.7298 15.4157 38.1707 15.6511C37.6317 15.8783 37.147 16.2061 36.7307 16.6205C36.3144 17.0368 35.9885 17.5215 35.7593 18.0605C35.5219 18.6196 35.4033 19.2129 35.4033 19.8243C35.4033 20.4357 35.524 21.029 35.7593 21.5881C35.7874 21.6525 35.8156 21.7168 35.8457 21.7792L33.024 24.5647C32.7867 24.4219 32.5393 24.2972 32.2819 24.1886C31.5498 23.8789 30.7735 23.722 29.9731 23.722C29.1726 23.722 28.3963 23.8789 27.6642 24.1886C27.439 24.2831 27.2217 24.3917 27.0126 24.5124L21.4355 18.8086C21.4778 18.7221 21.52 18.6357 21.5562 18.5472C21.7935 17.9881 21.9122 17.3948 21.9122 16.7834C21.9122 16.172 21.7915 15.5787 21.5562 15.0195C21.3289 14.4805 21.0011 13.9958 20.5848 13.5795C20.1685 13.1632 19.6838 12.8374 19.1448 12.6101C18.5857 12.3728 17.9924 12.2542 17.381 12.2542C16.7696 12.2542 16.1763 12.3748 15.6172 12.6101C15.0782 12.8374 14.5935 13.1652 14.1771 13.5795C13.7608 13.9958 13.435 14.4805 13.2057 15.0195C12.9684 15.5787 12.8498 16.172 12.8498 16.7834C12.8498 17.3948 12.9704 17.9881 13.2057 18.5472C13.433 19.0862 13.7608 19.5709 14.1751 19.9872C14.5914 20.4035 15.0741 20.7293 15.6151 20.9586C16.1743 21.1959 16.7676 21.3146 17.379 21.3146C17.9904 21.3146 18.5837 21.1939 19.1428 20.9586C19.2011 20.9345 19.2594 20.9083 19.3157 20.8802L24.8968 26.5839C24.75 26.8273 24.6193 27.0827 24.5066 27.3462C24.1969 28.0782 24.04 28.8545 24.04 29.655C24.04 30.019 24.0722 30.379 24.1386 30.733L18.7928 33.2148C18.7747 33.1947 18.7546 33.1766 18.7365 33.1565C18.3202 32.7402 17.8355 32.4144 17.2965 32.1871C16.7374 31.9498 16.1441 31.8311 15.5327 31.8311C14.9213 31.8311 14.328 31.9518 13.7689 32.1871C13.2299 32.4144 12.7452 32.7422 12.3289 33.1565C11.9125 33.5728 11.5867 34.0575 11.3574 34.5965C11.1201 35.1556 11.0015 35.7489 11.0015 36.3603C11.0015 36.9717 11.1221 37.565 11.3574 38.1241C11.5847 38.6631 11.9125 39.1478 12.3268 39.5642C12.7432 39.9805 13.2279 40.3063 13.7669 40.5356C14.326 40.7729 14.9193 40.8915 15.5307 40.8915C16.1421 40.8915 16.7354 40.7709 17.2945 40.5356C17.6505 40.3847 17.9863 40.1896 18.29 39.9543C18.3162 39.9342 18.3443 39.9121 18.3745 39.888C18.4972 39.7874 18.6179 39.6808 18.7325 39.5662C18.823 39.4757 18.9115 39.3811 18.9919 39.2826C19.0141 39.2564 19.0382 39.2263 19.0603 39.1981C19.3218 38.8723 19.539 38.5123 19.7019 38.1241C19.9392 37.565 20.0579 36.9717 20.0579 36.3603C20.0579 36.2055 20.0498 36.0526 20.0357 35.8998L25.3815 33.4179C25.5042 33.5688 25.6369 33.7136 25.7757 33.8524C26.3207 34.3974 26.9543 34.8238 27.6622 35.1234C27.9337 35.2381 28.2113 35.3306 28.4928 35.405V42.7358C28.3983 42.768 28.3018 42.8042 28.2092 42.8444C27.6702 43.0717 27.1855 43.3995 26.7692 43.8138C26.3529 44.2301 26.0271 44.7148 25.7978 45.2538C25.5605 45.8129 25.4418 46.4062 25.4418 47.0176C25.4418 47.629 25.5625 48.2223 25.7978 48.7815C26.0251 49.3205 26.3529 49.8052 26.7672 50.2215C27.1835 50.6378 27.6682 50.9636 28.2072 51.1929C28.7663 51.4302 29.3596 51.5489 29.9711 51.5489C30.5825 51.5489 31.1758 51.4282 31.7349 51.1929C32.0908 51.042 32.4267 50.847 32.7304 50.6116C32.7566 50.5915 32.7847 50.5694 32.8149 50.5453C32.9376 50.4447 33.0582 50.3361 33.1729 50.2235C33.2634 50.133 33.3499 50.0385 33.4323 49.9419C33.4564 49.9138 33.4786 49.8856 33.5027 49.8574C33.7642 49.5316 33.9814 49.1716 34.1443 48.7835C34.3816 48.2244 34.5003 47.6311 34.5003 47.0197C34.5003 46.4082 34.3796 45.8149 34.1443 45.2558C33.915 44.7168 33.5892 44.2321 33.1729 43.8158C32.7566 43.3995 32.2719 43.0737 31.7329 42.8464C31.6383 42.8062 31.5438 42.77 31.4493 42.7378V35.407C31.7308 35.3346 32.0084 35.2401 32.2799 35.1275C32.7465 34.9304 33.1849 34.6749 33.5852 34.3672C33.6214 34.3391 33.6576 34.3109 33.6958 34.2807C33.8567 34.15 34.0156 34.0072 34.1644 33.8584C34.2831 33.7397 34.3977 33.615 34.5043 33.4883C34.5344 33.4521 34.5646 33.4159 34.5948 33.3777C34.7034 33.243 34.806 33.1042 34.9005 32.9614L44.5603 36.3483C44.5603 36.3543 44.5603 36.3623 44.5603 36.3684C44.5603 36.9798 44.6809 37.5731 44.9162 38.1322C45.1435 38.6712 45.4713 39.1559 45.8856 39.5722C46.3019 39.9885 46.7866 40.3143 47.3256 40.5436C47.8848 40.7809 48.4781 40.8996 49.0895 40.8996C49.7009 40.8996 50.2942 40.7789 50.8533 40.5436C51.2093 40.3928 51.5451 40.1977 51.8488 39.9624C51.877 39.9423 51.9031 39.9201 51.9333 39.896C52.056 39.7954 52.1766 39.6868 52.2913 39.5742C52.3818 39.4837 52.4703 39.3892 52.5507 39.2906C52.5728 39.2645 52.597 39.2343 52.6191 39.2062C52.8806 38.8804 53.0978 38.5203 53.2607 38.1322C53.498 37.5731 53.6167 36.9798 53.6167 36.3684C53.6287 35.7469 53.5101 35.1536 53.2727 34.5945ZM52.0861 38.8763C52.0157 38.9608 51.9393 39.0412 51.8609 39.1197C51.7623 39.2182 51.6598 39.3107 51.5512 39.3972C51.527 39.4173 51.5029 39.4354 51.4768 39.4556C51.2133 39.6587 50.9257 39.8256 50.618 39.9563C50.1373 40.1595 49.6244 40.264 49.0975 40.264C48.5706 40.264 48.0597 40.1615 47.577 39.9563C47.1125 39.7592 46.6941 39.4777 46.3361 39.1197C45.9781 38.7617 45.6966 38.3434 45.4995 37.8788C45.3225 37.4584 45.2199 37.016 45.1978 36.5594C45.1938 36.4931 45.1918 36.4267 45.1918 36.3583C45.1918 36.3141 45.1918 36.2698 45.1938 36.2276C45.1978 36.119 45.2058 36.0124 45.2179 35.9058C45.2601 35.5377 45.3547 35.1818 45.4995 34.8378C45.5799 34.6468 45.6765 34.4638 45.7851 34.2888C45.8414 34.1983 45.9017 34.1078 45.9681 34.0213C46.0345 33.9328 46.1049 33.8483 46.1773 33.7639C46.2295 33.7055 46.2818 33.6492 46.3361 33.5949C46.6941 33.2369 47.1125 32.9554 47.577 32.7583C48.0577 32.5551 48.5706 32.4506 49.0975 32.4506C49.6244 32.4506 50.1373 32.5531 50.618 32.7583C51.0826 32.9554 51.5009 33.2369 51.8589 33.5949C52.2169 33.9529 52.4984 34.3713 52.6955 34.8358C52.8987 35.3165 53.0032 35.8294 53.0032 36.3563C53.0032 36.8832 52.9007 37.3941 52.6955 37.8768C52.5547 38.2106 52.3697 38.5203 52.1425 38.8019C52.1264 38.8281 52.1063 38.8522 52.0861 38.8763ZM34.0377 33.0781C33.9411 33.1927 33.8386 33.3033 33.732 33.4099C33.5972 33.5446 33.4585 33.6693 33.3116 33.788C33.2795 33.8141 33.2453 33.8403 33.2111 33.8664C32.8531 34.142 32.4629 34.3692 32.0446 34.5462C31.8515 34.6267 31.6564 34.6971 31.4573 34.7554C31.3547 34.7856 31.2502 34.8117 31.1456 34.8358C31.043 34.86 30.9384 34.8781 30.8339 34.8962C30.5523 34.9424 30.2667 34.9646 29.9771 34.9646C29.6875 34.9646 29.4019 34.9404 29.1203 34.8962C29.0157 34.8801 28.9111 34.86 28.8086 34.8358C28.704 34.8117 28.5994 34.7856 28.4968 34.7554C28.2977 34.6971 28.1027 34.6287 27.9096 34.5462C27.2781 34.2787 26.7089 33.8966 26.2222 33.4079C26.1357 33.3214 26.0532 33.2329 25.9748 33.1424C25.9044 33.062 25.836 32.9775 25.7697 32.893C25.7053 32.8086 25.643 32.7241 25.5826 32.6356C25.3875 32.348 25.2206 32.0423 25.0838 31.7185C24.9954 31.5113 24.9209 31.2981 24.8606 31.0829C24.8324 30.9804 24.8063 30.8778 24.7842 30.7752C24.7621 30.6707 24.7419 30.5641 24.7259 30.4595C24.6856 30.194 24.6655 29.9265 24.6655 29.653C24.6655 28.937 24.8063 28.2411 25.0838 27.5855C25.1623 27.3984 25.2528 27.2174 25.3513 27.0425C25.4036 26.9499 25.4599 26.8574 25.5183 26.7669C25.5766 26.6784 25.6369 26.592 25.6993 26.5055C25.8561 26.2923 26.0311 26.0892 26.2222 25.8981C26.4394 25.6809 26.6747 25.4838 26.9221 25.3088C27.0086 25.2485 27.0971 25.1902 27.1876 25.1338C27.2781 25.0775 27.3726 25.0232 27.4671 24.9729C27.6119 24.8965 27.7587 24.8241 27.9096 24.7618C28.5652 24.4842 29.2591 24.3434 29.9771 24.3434C30.6931 24.3434 31.3889 24.4842 32.0446 24.7618C32.2256 24.8382 32.3986 24.9247 32.5695 25.0192C32.664 25.0715 32.7545 25.1258 32.845 25.1841C32.9335 25.2404 33.022 25.3008 33.1065 25.3631C33.3277 25.524 33.5369 25.703 33.732 25.8981C33.9452 26.1113 34.1382 26.3385 34.3092 26.5799C34.3715 26.6664 34.4299 26.7549 34.4842 26.8434C34.5405 26.9339 34.5948 27.0264 34.6471 27.1209C34.7275 27.2717 34.8019 27.4246 34.8703 27.5835C35.1479 28.2391 35.2866 28.933 35.2866 29.651C35.2866 29.7475 35.2846 29.8461 35.2786 29.9426C35.2726 30.0492 35.2645 30.1578 35.2524 30.2644C35.2404 30.369 35.2263 30.4756 35.2082 30.5781C35.1398 30.9683 35.0272 31.3504 34.8703 31.7185C34.8019 31.8814 34.7255 32.0403 34.641 32.1931C34.5908 32.2856 34.5365 32.3782 34.4801 32.4667C34.4238 32.5572 34.3635 32.6477 34.3012 32.7341C34.2428 32.8166 34.1825 32.897 34.1181 32.9755C34.092 33.0117 34.0638 33.0459 34.0377 33.0781ZM32.9637 49.5336C32.8933 49.6181 32.8169 49.6986 32.7385 49.777C32.6399 49.8755 32.5373 49.9681 32.4287 50.0545C32.4046 50.0747 32.3805 50.0928 32.3543 50.1129C32.0908 50.316 31.8032 50.4829 31.4955 50.6137C31.0149 50.8168 30.502 50.9214 29.9751 50.9214C29.4481 50.9214 28.9373 50.8188 28.4546 50.6137C27.99 50.4166 27.5717 50.135 27.2137 49.777C26.8557 49.419 26.5741 49.0007 26.377 48.5361C26.1739 48.0554 26.0693 47.5426 26.0693 47.0156C26.0693 46.4887 26.1719 45.9758 26.377 45.4952C26.5741 45.0306 26.8557 44.6123 27.2137 44.2543C27.5717 43.8963 27.99 43.6147 28.4546 43.4176C28.4687 43.4116 28.4828 43.4055 28.4948 43.4015C28.5974 43.3593 28.702 43.3211 28.8066 43.2889C28.9091 43.2567 29.0137 43.2286 29.1183 43.2044C29.3979 43.1421 29.6834 43.1099 29.9751 43.1099C30.2667 43.1099 30.5523 43.1421 30.8318 43.2044C30.9364 43.2286 31.041 43.2567 31.1436 43.2889C31.2482 43.3211 31.3527 43.3593 31.4553 43.4015C31.4694 43.4075 31.4835 43.4116 31.4955 43.4176C31.9601 43.6147 32.3785 43.8963 32.7364 44.2543C33.0944 44.6123 33.376 45.0306 33.5731 45.4952C33.7762 45.9758 33.8808 46.4887 33.8808 47.0156C33.8808 47.5426 33.7782 48.0534 33.5731 48.5361C33.4323 48.8699 33.2473 49.1797 33.02 49.4612C33.0039 49.4854 32.9838 49.5095 32.9637 49.5336ZM30.8339 42.5669C30.5543 42.5126 30.2687 42.4864 29.9771 42.4864C29.6875 42.4864 29.4019 42.5146 29.1203 42.5669V35.5257C29.4019 35.5659 29.6875 35.588 29.9771 35.588C30.2667 35.588 30.5523 35.5679 30.8339 35.5257V42.5669ZM19.4424 36.3583C19.4424 36.8852 19.3399 37.3961 19.1347 37.8788C18.994 38.2126 18.8089 38.5224 18.5817 38.8039C18.5615 38.8281 18.5414 38.8522 18.5213 38.8763C18.4509 38.9608 18.3745 39.0412 18.2961 39.1197C18.1975 39.2182 18.0949 39.3107 17.9863 39.3972C17.9622 39.4173 17.9381 39.4354 17.9119 39.4556C17.6485 39.6587 17.3609 39.8256 17.0531 39.9563C16.5725 40.1595 16.0596 40.264 15.5327 40.264C15.0058 40.264 14.4949 40.1615 14.0122 39.9563C13.5476 39.7592 13.1293 39.4777 12.7713 39.1197C12.4133 38.7617 12.1318 38.3434 11.9347 37.8788C11.7315 37.3981 11.6269 36.8852 11.6269 36.3583C11.6269 35.8314 11.7295 35.3185 11.9347 34.8378C12.1318 34.3733 12.4133 33.9549 12.7713 33.5969C13.1293 33.2389 13.5476 32.9574 14.0122 32.7603C14.4929 32.5572 15.0058 32.4526 15.5327 32.4526C16.0596 32.4526 16.5725 32.5551 17.0531 32.7603C17.4735 32.9373 17.8536 33.1846 18.1895 33.4944C18.2257 33.5286 18.2599 33.5607 18.2961 33.5969C18.3403 33.6412 18.3825 33.6854 18.4228 33.7297C18.4952 33.8101 18.5636 33.8926 18.6299 33.9771C18.8331 34.2405 19.002 34.5281 19.1327 34.8378C19.2273 35.0631 19.2997 35.2944 19.3519 35.5297C19.3741 35.6343 19.3922 35.7409 19.4062 35.8475C19.4203 35.9561 19.4304 36.0667 19.4344 36.1773C19.4404 36.2376 19.4424 36.298 19.4424 36.3583ZM19.7099 34.5945C19.5772 34.2787 19.4103 33.9831 19.2112 33.7076L24.2914 31.3484C24.3538 31.5556 24.4262 31.7607 24.5107 31.9618C24.6494 32.2917 24.8184 32.6054 25.0114 32.9011L19.9312 35.2602C19.8749 35.0349 19.8004 34.8117 19.7099 34.5945ZM18.9034 20.3834C18.8874 20.3894 18.8713 20.3975 18.8552 20.4035C18.3886 20.5946 17.8938 20.6911 17.383 20.6911C16.8561 20.6911 16.3452 20.5885 15.8625 20.3834C15.3979 20.1863 14.9796 19.9047 14.6216 19.5467C14.2636 19.1887 13.9821 18.7704 13.785 18.3058C13.5818 17.8252 13.4772 17.3123 13.4772 16.7854C13.4772 16.2584 13.5798 15.7456 13.785 15.2649C13.9821 14.8003 14.2636 14.382 14.6216 14.024C14.9796 13.666 15.3979 13.3844 15.8625 13.1873C16.3432 12.9842 16.8561 12.8796 17.383 12.8796C17.9099 12.8796 18.4228 12.9822 18.9034 13.1873C19.368 13.3844 19.7864 13.666 20.1444 14.024C20.5023 14.382 20.7839 14.8003 20.981 15.2649C21.1841 15.7456 21.2887 16.2584 21.2887 16.7854C21.2887 17.3123 21.1862 17.8231 20.981 18.3058C20.977 18.3159 20.973 18.3259 20.9689 18.334C20.9247 18.4366 20.8764 18.5351 20.8241 18.6316C20.7739 18.7262 20.7196 18.8187 20.6592 18.9092C20.5868 19.0198 20.5104 19.1264 20.4279 19.229C20.4078 19.2531 20.3877 19.2772 20.3676 19.3014C20.2972 19.3858 20.2208 19.4663 20.1423 19.5447C20.0438 19.6433 19.9412 19.7358 19.8326 19.8223C19.8085 19.8424 19.7844 19.8605 19.7582 19.8806C19.6536 19.961 19.545 20.0355 19.4324 20.1059C19.3419 20.1622 19.2474 20.2145 19.1508 20.2647C19.0724 20.307 18.9899 20.3472 18.9034 20.3834ZM20.1423 20.3754C20.1685 20.3552 20.1966 20.3331 20.2268 20.309C20.3495 20.2084 20.4702 20.0998 20.5848 19.9872C20.6753 19.8967 20.7618 19.8022 20.8442 19.7056C20.8684 19.6775 20.8925 19.6493 20.9146 19.6212C20.981 19.5387 21.0454 19.4542 21.1057 19.3657L26.4836 24.8603C26.2363 25.0413 26.003 25.2404 25.7837 25.4597C25.5947 25.6487 25.4217 25.8478 25.2608 26.057L19.8829 20.5624C19.9714 20.5021 20.0579 20.4417 20.1423 20.3754ZM36.0308 19.8263C36.0308 19.2994 36.1333 18.7865 36.3385 18.3058C36.5356 17.8412 36.8172 17.4229 37.1751 17.0649C37.5331 16.7069 37.9515 16.4254 38.4161 16.2283C38.8967 16.0251 39.4096 15.9206 39.9365 15.9206C40.4635 15.9206 40.9763 16.0231 41.457 16.2283C41.9216 16.4254 42.3399 16.7069 42.6979 17.0649C43.0559 17.4229 43.3374 17.8412 43.5345 18.3058C43.7377 18.7865 43.8423 19.2994 43.8423 19.8263C43.8423 20.3532 43.7397 20.8641 43.5345 21.3468C43.3938 21.6806 43.2087 21.9903 42.9815 22.2719C42.9614 22.296 42.9412 22.3202 42.9211 22.3443C42.8507 22.4288 42.7743 22.5092 42.6959 22.5877C42.5973 22.6862 42.4948 22.7787 42.3862 22.8652C42.362 22.8853 42.3379 22.9034 42.3117 22.9235C42.0483 23.1267 41.7607 23.2936 41.453 23.4243C40.9723 23.6275 40.4594 23.732 39.9325 23.732C39.4056 23.732 38.8947 23.6295 38.412 23.4243C38.408 23.4223 38.402 23.4203 38.398 23.4183C38.2954 23.374 38.1968 23.3278 38.0983 23.2755C38.0038 23.2252 37.9092 23.1709 37.8207 23.1126C37.5874 22.9617 37.3702 22.7868 37.1711 22.5877C36.96 22.3765 36.7749 22.1432 36.618 21.8938C36.5617 21.8033 36.5074 21.7088 36.4592 21.6142C36.4149 21.5278 36.3727 21.4373 36.3345 21.3468C36.3304 21.3347 36.3244 21.3246 36.3204 21.3126C36.1293 20.8399 36.0308 20.3412 36.0308 19.8263ZM36.7347 23.0281C36.9318 23.2252 37.145 23.4022 37.3722 23.5591L34.7577 26.1394C34.5807 25.9001 34.3856 25.6728 34.1724 25.4597C33.9773 25.2646 33.7722 25.0856 33.555 24.9207L36.1695 22.3403C36.3345 22.5877 36.5215 22.8169 36.7347 23.0281ZM35.4435 31.9639C35.6044 31.5837 35.7231 31.1916 35.8015 30.7893L45.1857 34.0796C45.0892 34.2445 45.0027 34.4175 44.9283 34.5965C44.7795 34.9505 44.6749 35.3185 44.6206 35.6966L35.2364 32.4063C35.3108 32.2615 35.3812 32.1147 35.4435 31.9639Z" fill="#114232"/>
<path d="M17.9543 36.6356C17.7552 36.3038 17.4213 36.0343 16.9748 35.8553C16.9547 35.8472 16.9286 35.8372 16.8984 35.8291C17.0251 35.6039 17.0995 35.3424 17.0995 35.0649C17.0995 34.8738 17.0653 34.6928 17.003 34.5239C16.9527 34.3871 16.8823 34.2584 16.7979 34.1418C16.5123 33.7536 16.0557 33.5022 15.5388 33.5022C14.6781 33.5022 13.9761 34.2041 13.9761 35.0649C13.9761 35.3404 14.0486 35.6019 14.1753 35.8271C14.0506 35.8734 13.9319 35.9257 13.8213 35.986C13.5498 36.1349 13.3326 36.3219 13.1777 36.5451C13.0027 36.7985 12.9082 37.0962 12.9082 37.4079C12.9082 37.424 12.9082 37.7016 12.9102 37.78C12.9142 38.0274 13.0128 38.2607 13.1898 38.4336C13.3668 38.6086 13.6001 38.7031 13.8474 38.7031H17.2282C17.4756 38.7031 17.7089 38.6066 17.8859 38.4336C18.0629 38.2587 18.1614 38.0274 18.1655 37.78C18.1675 37.7036 18.1675 37.424 18.1675 37.4079C18.1675 37.2008 18.1272 37.0037 18.0508 36.8227C18.0227 36.7583 17.9905 36.696 17.9543 36.6356ZM17.54 37.772C17.538 37.9429 17.3972 38.0817 17.2262 38.0817H13.8454C13.6745 38.0817 13.5337 37.9429 13.5317 37.772C13.5317 37.7016 13.5297 37.426 13.5297 37.4079C13.5297 36.8669 13.9782 36.5029 14.6298 36.338C14.8852 36.521 15.1969 36.6276 15.5348 36.6276C15.8606 36.6276 16.1643 36.527 16.4157 36.3561C16.5726 36.3862 16.6973 36.4164 16.7435 36.4345C17.2282 36.6276 17.54 36.9554 17.54 37.4079C17.542 37.426 17.542 37.7016 17.54 37.772ZM14.5976 35.0649C14.5976 34.546 15.0179 34.1257 15.5368 34.1257C16.0557 34.1257 16.4761 34.546 16.4761 35.0649C16.4761 35.3042 16.3856 35.5214 16.2387 35.6884C16.1362 35.803 16.0054 35.8935 15.8566 35.9478C15.7561 35.984 15.6474 36.0041 15.5348 36.0041C15.4081 36.0041 15.2895 35.98 15.1788 35.9337C15.034 35.8754 14.9093 35.7809 14.8108 35.6622C14.6781 35.5013 14.5976 35.2942 14.5976 35.0649Z" fill="#114232"/>
<path d="M37.3097 21.248C37.3137 21.4954 37.4123 21.7287 37.5892 21.9017C37.7662 22.0766 37.9995 22.1712 38.2469 22.1712H38.3394H38.8342H39.3289H41.6257C41.8731 22.1712 42.1064 22.0746 42.2834 21.9017C42.4604 21.7267 42.5589 21.4954 42.5629 21.248C42.5649 21.1716 42.5649 20.892 42.5649 20.876C42.5649 20.1901 42.1305 19.625 41.3743 19.3233C41.3542 19.3153 41.3281 19.3052 41.2979 19.2972C41.4246 19.0719 41.499 18.8105 41.499 18.5329C41.499 17.6721 40.7971 16.9702 39.9363 16.9702C39.0755 16.9702 38.3736 17.6721 38.3736 18.5329C38.3736 18.8084 38.446 19.0699 38.5727 19.2952C38.448 19.3414 38.3294 19.3937 38.2187 19.454C37.9472 19.6029 37.73 19.7899 37.5752 20.0132C37.5269 20.0835 37.4847 20.158 37.4485 20.2344C37.368 20.4033 37.3218 20.5884 37.3097 20.7774C37.3077 20.8096 37.3057 20.8438 37.3057 20.876C37.3057 20.89 37.3057 21.1133 37.3077 21.2158C37.3097 21.2279 37.3097 21.24 37.3097 21.248ZM38.9971 18.5329C38.9971 18.014 39.4174 17.5937 39.9363 17.5937C40.4552 17.5937 40.8755 18.014 40.8755 18.5329C40.8755 18.7722 40.785 18.9895 40.6382 19.1564C40.5356 19.271 40.4049 19.3615 40.2561 19.4158C40.1555 19.452 40.0469 19.4721 39.9343 19.4721C39.8076 19.4721 39.6889 19.448 39.5783 19.4017C39.4335 19.3434 39.3088 19.2489 39.2103 19.1302C39.0795 18.9693 38.9971 18.7602 38.9971 18.5329ZM39.0313 19.804C39.2867 19.987 39.5984 20.0936 39.9363 20.0936C40.2621 20.0936 40.5658 19.993 40.8172 19.8221C40.9741 19.8523 41.0988 19.8824 41.145 19.9005C41.6297 20.0936 41.9415 20.4214 41.9415 20.8739C41.9415 20.892 41.9415 21.1656 41.9395 21.238C41.9374 21.4089 41.7967 21.5477 41.6257 21.5477H38.5566H38.2429C38.0719 21.5477 37.9311 21.4089 37.9291 21.238C37.9291 21.1676 37.9271 20.892 37.9271 20.8739C37.9271 20.8639 37.9271 20.8538 37.9271 20.8438C37.9472 20.3209 38.3917 19.9689 39.0313 19.804Z" fill="#114232"/>
<path d="M20.0092 18.2433C20.0092 18.2312 20.0112 18.2191 20.0112 18.2051C20.0132 18.1286 20.0132 17.8491 20.0132 17.833C20.0132 17.8209 20.0132 17.8109 20.0132 17.7988C20.0092 17.5957 19.9669 17.4026 19.8885 17.2256C19.7095 16.8173 19.3414 16.4855 18.8226 16.2803C18.8024 16.2723 18.7763 16.2622 18.7461 16.2542C18.8728 16.0289 18.9472 15.7675 18.9472 15.4899C18.9472 14.6292 18.2453 13.9272 17.3845 13.9272C16.5238 13.9272 15.8218 14.6292 15.8218 15.4899C15.8218 15.7655 15.8943 16.0269 16.021 16.2522C15.8963 16.2984 15.7776 16.3507 15.667 16.4111C15.3955 16.5599 15.1783 16.7469 15.0234 16.9702C14.8484 17.2236 14.7539 17.5212 14.7539 17.833C14.7539 17.8491 14.7539 18.1266 14.7559 18.2051C14.7599 18.4524 14.8585 18.6857 15.0355 18.8587C15.2125 19.0337 15.4458 19.1282 15.6931 19.1282H17.9638H18.4706H18.9774H19.076C19.3233 19.1282 19.5566 19.0317 19.7336 18.8587C19.8985 18.6958 19.9971 18.4766 20.0092 18.2433ZM15.6911 18.5067C15.5202 18.5067 15.3794 18.368 15.3774 18.197C15.3774 18.1266 15.3754 17.8511 15.3754 17.833C15.3754 17.292 15.8239 16.9279 16.4755 16.763C16.7309 16.946 17.0426 17.0526 17.3805 17.0526C17.7063 17.0526 18.01 16.9521 18.2614 16.7811C18.4183 16.8113 18.543 16.8415 18.5893 16.8596C19.0679 17.0486 19.3776 17.3704 19.3857 17.8149C19.3857 17.8209 19.3857 17.8269 19.3857 17.833C19.3857 17.8511 19.3857 18.1246 19.3837 18.197C19.3817 18.368 19.2409 18.5067 19.0699 18.5067H18.7562H15.6911ZM16.4433 15.4899C16.4433 14.9711 16.8636 14.5507 17.3825 14.5507C17.9014 14.5507 18.3218 14.9711 18.3218 15.4899C18.3218 15.7293 18.2313 15.9465 18.0844 16.1134C17.9819 16.2281 17.8511 16.3186 17.7023 16.3729C17.6018 16.4091 17.4932 16.4292 17.3805 16.4292C17.2538 16.4292 17.1352 16.405 17.0245 16.3588C16.8797 16.3005 16.755 16.2059 16.6565 16.0873C16.5238 15.9264 16.4433 15.7192 16.4433 15.4899Z" fill="#114232"/>
<path d="M32.8827 29.884C32.6313 29.5903 32.2834 29.353 31.851 29.1801C31.7645 29.1459 31.6217 29.1097 31.4669 29.0755C31.7243 28.7517 31.8771 28.3414 31.8771 27.8969C31.8771 26.8491 31.0244 25.9963 29.9766 25.9963C28.9287 25.9963 28.076 26.8491 28.076 27.8969C28.076 28.3313 28.2228 28.7336 28.4702 29.0534C28.2067 29.1298 27.9654 29.2263 27.7502 29.343C27.1167 29.6889 26.7325 30.2038 26.646 30.8131C26.634 30.8996 26.6279 30.9901 26.6279 31.0806C26.6279 31.0987 26.6279 31.3863 26.6299 31.5291C26.6299 31.5513 26.6299 31.5694 26.6299 31.5834C26.634 31.861 26.7446 32.1224 26.9417 32.3175C26.9497 32.3256 26.9578 32.3316 26.9658 32.3396C27.0583 32.4241 27.1629 32.4925 27.2755 32.5388C27.4022 32.591 27.539 32.6192 27.6798 32.6192H32.2754C32.5529 32.6192 32.8144 32.5126 33.0135 32.3175C33.0215 32.3095 33.0296 32.3014 33.0356 32.2934C33.112 32.2129 33.1744 32.1244 33.2206 32.0279C33.287 31.8911 33.3232 31.7403 33.3252 31.5834C33.3252 31.5794 33.3252 31.5754 33.3252 31.5714C33.3272 31.4547 33.3272 31.1007 33.3272 31.0806C33.3272 30.9901 33.3212 30.9016 33.3071 30.8131C33.2588 30.4733 33.114 30.1535 32.8827 29.884ZM27.2534 31.5754C27.2514 31.4789 27.2514 31.1048 27.2514 31.0806C27.2514 30.2601 28.0056 29.7432 29.0595 29.5582C29.331 29.709 29.6447 29.7955 29.9786 29.7955C30.2883 29.7955 30.5819 29.7211 30.8414 29.5883C31.1933 29.6487 31.5252 29.7211 31.6217 29.7573C32.2794 30.0187 32.7058 30.4652 32.7058 31.0806C32.7058 31.1048 32.7058 31.4768 32.7037 31.5754C32.6997 31.8087 32.5107 31.9957 32.2774 31.9957H27.6818C27.4465 31.9977 27.2554 31.8087 27.2534 31.5754ZM28.7015 27.8969C28.7015 27.191 29.2726 26.6198 29.9786 26.6198C30.6845 26.6198 31.2557 27.191 31.2557 27.8969C31.2557 28.3253 31.0445 28.7054 30.7187 28.9367C30.5176 29.0795 30.2742 29.166 30.0108 29.172C30.0007 29.172 29.9906 29.172 29.9806 29.172C29.9705 29.172 29.9585 29.172 29.9484 29.172C29.6668 29.166 29.4094 29.0674 29.2023 28.9065C28.8966 28.6752 28.7015 28.3092 28.7015 27.8969Z" fill="#114232"/>
<path d="M50.5393 35.8553C50.5192 35.8472 50.493 35.8372 50.4629 35.8292C50.5896 35.6039 50.664 35.3424 50.664 35.0649C50.664 34.2041 49.9621 33.5022 49.1013 33.5022C48.2405 33.5022 47.5386 34.2041 47.5386 35.0649C47.5386 35.3404 47.611 35.6019 47.7377 35.8271C47.613 35.8734 47.4943 35.9257 47.3837 35.986C47.1545 36.1107 46.9654 36.2656 46.8186 36.4446C46.7904 36.4768 46.7663 36.5109 46.7422 36.5471C46.6416 36.692 46.5672 36.8528 46.5229 37.0238C46.4908 37.1485 46.4727 37.2792 46.4727 37.4099C46.4727 37.426 46.4727 37.7036 46.4747 37.782C46.4787 38.0294 46.5772 38.2627 46.7542 38.4357C46.9312 38.6106 47.1645 38.7052 47.4119 38.7052H50.7907C51.0381 38.7052 51.2714 38.6086 51.4483 38.4357C51.6253 38.2607 51.7239 38.0294 51.7279 37.782C51.7299 37.7036 51.7299 37.426 51.7299 37.4099C51.7299 36.7221 51.2955 36.157 50.5393 35.8553ZM51.1044 37.772C51.1024 37.9429 50.9616 38.0817 50.7907 38.0817H47.4099C47.2389 38.0817 47.0981 37.9429 47.0961 37.772C47.0961 37.7016 47.0941 37.426 47.0941 37.4079C47.0941 36.8669 47.5426 36.5029 48.1942 36.338C48.4497 36.521 48.7614 36.6276 49.0993 36.6276C49.4251 36.6276 49.7288 36.527 49.9802 36.3561C50.1371 36.3863 50.2617 36.4164 50.308 36.4345C50.7927 36.6276 51.1044 36.9554 51.1044 37.4079C51.1064 37.426 51.1044 37.7016 51.1044 37.772ZM48.16 35.0649C48.16 34.546 48.5804 34.1257 49.0993 34.1257C49.6182 34.1257 50.0385 34.546 50.0385 35.0649C50.0385 35.3042 49.948 35.5214 49.8012 35.6884C49.6986 35.803 49.5679 35.8935 49.4191 35.9478C49.3185 35.984 49.2099 36.0041 49.0973 36.0041C48.9706 36.0041 48.8519 35.98 48.7413 35.9337C48.5965 35.8754 48.4718 35.7809 48.3732 35.6622C48.2425 35.5013 48.16 35.2942 48.16 35.0649Z" fill="#114232"/>
<path d="M31.4163 46.5125C31.3962 46.5045 31.37 46.4944 31.3399 46.4864C31.4666 46.2611 31.541 45.9997 31.541 45.7221C31.541 45.4385 31.4646 45.1751 31.3338 44.9458C31.2614 44.8191 31.1709 44.7045 31.0664 44.6019C30.8773 44.4189 30.642 44.2821 30.3785 44.2117C30.2498 44.1775 30.1171 44.1594 29.9783 44.1594C29.8395 44.1594 29.7068 44.1775 29.5781 44.2117C29.3146 44.2821 29.0793 44.4189 28.8902 44.6019C28.7857 44.7024 28.6952 44.8191 28.6228 44.9458C28.49 45.1751 28.4156 45.4406 28.4156 45.7221C28.4156 45.9977 28.488 46.2591 28.6147 46.4844C28.49 46.5306 28.3714 46.5829 28.2607 46.6432C27.9892 46.7921 27.772 46.9791 27.6172 47.2024C27.4422 47.4558 27.3477 47.7534 27.3477 48.0652C27.3477 48.0813 27.3477 48.3588 27.3497 48.4372C27.3537 48.6846 27.4522 48.9179 27.6292 49.0909C27.8062 49.2658 28.0395 49.3604 28.2869 49.3604H31.6677C31.9151 49.3604 32.1484 49.2638 32.3254 49.0909C32.5023 48.9159 32.6009 48.6846 32.6049 48.4372C32.6069 48.3608 32.6069 48.0813 32.6069 48.0652C32.6069 47.3793 32.1725 46.8142 31.4163 46.5125ZM31.9814 48.4292C31.9794 48.6001 31.8387 48.7389 31.6677 48.7389H28.2869C28.1159 48.7389 27.9751 48.6001 27.9731 48.4292C27.9731 48.3588 27.9711 48.0833 27.9711 48.0652C27.9711 47.5242 28.4196 47.1601 29.0712 46.9952C29.3267 47.1782 29.6384 47.2848 29.9763 47.2848C30.3021 47.2848 30.6058 47.1843 30.8572 47.0133C31.0141 47.0435 31.1388 47.0736 31.185 47.0917C31.6697 47.2848 31.9814 47.6126 31.9814 48.0652C31.9835 48.0833 31.9814 48.3568 31.9814 48.4292ZM29.0371 45.7221C29.0371 45.3018 29.3146 44.9458 29.6947 44.8251C29.7832 44.797 29.8777 44.7829 29.9763 44.7829C30.0748 44.7829 30.1673 44.797 30.2579 44.8251C30.64 44.9438 30.9155 45.2998 30.9155 45.7221C30.9155 45.9615 30.825 46.1787 30.6782 46.3456C30.5756 46.4602 30.4449 46.5507 30.2961 46.605C30.1955 46.6412 30.0869 46.6613 29.9743 46.6613C29.8476 46.6613 29.7289 46.6372 29.6183 46.591C29.4735 46.5326 29.3488 46.4381 29.2502 46.3194C29.1195 46.1585 29.0371 45.9494 29.0371 45.7221Z" fill="#114232"/>
</svg>
