<svg width="64" height="65" viewBox="0 0 64 65" fill="none" xmlns="http://www.w3.org/2000/svg">
<path d="M55.034 4.98218H51.5107V8.50545H55.034V4.98218Z" fill="#30BC90"/>
<path d="M8.64923 5.52368L5.87598 10.3283H11.4225L8.64923 5.52368Z" fill="#30BC90"/>
<path d="M57.5198 58.5466C58.278 57.7885 58.278 56.5592 57.5198 55.801C56.7616 55.0428 55.5324 55.0428 54.7742 55.801C54.016 56.5592 54.016 57.7885 54.7742 58.5466C55.5324 59.3048 56.7616 59.3048 57.5198 58.5466Z" fill="#30BC90"/>
<path d="M5.41402 38.5762L4.2334 39.7568L4.68137 40.2048L5.862 39.0242L5.41402 38.5762Z" fill="#114232"/>
<path d="M7.59127 36.3965L6.41064 37.5771L6.85862 38.0251L8.03924 36.8445L7.59127 36.3965Z" fill="#114232"/>
<path d="M6.85959 38.5752L6.41162 39.0232L7.59225 40.2038L8.04022 39.7558L6.85959 38.5752Z" fill="#114232"/>
<path d="M4.67991 36.3977L4.23193 36.8457L5.41256 38.0263L5.86053 37.5784L4.67991 36.3977Z" fill="#114232"/>
<path d="M57.1401 29.3621L55.958 30.5442L56.406 30.9922L57.5881 29.8101L57.1401 29.3621Z" fill="#114232"/>
<path d="M59.3193 27.1839L58.1372 28.366L58.5852 28.8139L59.7673 27.6319L59.3193 27.1839Z" fill="#114232"/>
<path d="M58.5847 29.3618L58.1367 29.8098L59.3188 30.9919L59.7668 30.5439L58.5847 29.3618Z" fill="#114232"/>
<path d="M56.406 27.1829L55.958 27.6309L57.1401 28.8129L57.588 28.365L56.406 27.1829Z" fill="#114232"/>
<path d="M29.1162 5.83817L27.9355 7.0188L28.3835 7.46677L29.5641 6.28615L29.1162 5.83817Z" fill="#114232"/>
<path d="M31.2949 3.65995L30.1143 4.84058L30.5622 5.28855L31.7429 4.10792L31.2949 3.65995Z" fill="#114232"/>
<path d="M30.5617 5.83694L30.1138 6.28491L31.2944 7.46554L31.7424 7.01756L30.5617 5.83694Z" fill="#114232"/>
<path d="M28.3835 3.65823L27.9355 4.1062L29.1176 5.28827L29.5656 4.8403L28.3835 3.65823Z" fill="#114232"/>
<path d="M17.4553 56.5623H16.8218V60.6945H17.4553V56.5623Z" fill="#114232"/>
<path d="M19.2046 58.3115H15.0723V58.9451H19.2046V58.3115Z" fill="#114232"/>
<path d="M56.2805 7.59602H52.7572C52.5814 7.59602 52.4404 7.45501 52.4404 7.27925V3.75598C52.4404 3.58022 52.5814 3.43921 52.7572 3.43921H56.2805C56.4562 3.43921 56.5972 3.58022 56.5972 3.75598V7.27925C56.5972 7.45501 56.4562 7.59602 56.2805 7.59602ZM53.074 6.96248H55.9637V4.07274H53.074V6.96248Z" fill="#114232"/>
<path d="M12.6689 9.41899H7.12243C7.01003 9.41899 6.90376 9.35768 6.84858 9.25958C6.79136 9.16149 6.79136 9.04091 6.84858 8.94282L9.62183 4.13817C9.67905 4.04007 9.78328 3.97876 9.89568 3.97876C10.0081 3.97876 10.1144 4.04007 10.1695 4.13817L12.9448 8.94282C13.002 9.04091 13.002 9.16149 12.9448 9.25958C12.8876 9.35768 12.7834 9.41899 12.6689 9.41899ZM7.67218 8.78545H12.1212L9.89568 4.93111L7.67218 8.78545Z" fill="#114232"/>
<path d="M57.3945 58.2072C56.1478 58.2072 55.1362 57.1935 55.1362 55.9489C55.1362 54.7023 56.1499 53.6907 57.3945 53.6907C58.6411 53.6907 59.6527 54.7043 59.6527 55.9489C59.6548 57.1935 58.6411 58.2072 57.3945 58.2072ZM57.3945 54.3222C56.4973 54.3222 55.7698 55.0518 55.7698 55.9469C55.7698 56.842 56.4994 57.5716 57.3945 57.5716C58.2896 57.5716 59.0192 56.842 59.0192 55.9469C59.0192 55.0518 58.2916 54.3222 57.3945 54.3222Z" fill="#114232"/>
<path d="M19.2413 16.7842L18.5935 18.0962L17.1445 18.3067L18.1929 19.3285L17.9456 20.7714L19.2413 20.0908L20.537 20.7714L20.2897 19.3285L21.3381 18.3067L19.8892 18.0962L19.2413 16.7842Z" fill="#30BC90"/>
<path d="M23.7351 20.7714L25.0308 20.0908L26.3285 20.7714L26.0792 19.3285L27.1276 18.3067L25.6807 18.0962L25.0308 16.7842L24.3829 18.0962L22.936 18.3067L23.9844 19.3285L23.7351 20.7714Z" fill="#30BC90"/>
<path d="M29.325 20.7716L31.2256 19.7722L33.1262 20.7716L32.7624 18.6543L34.3013 17.1563L32.1759 16.8477L31.2256 14.9226L30.2753 16.8477L28.1499 17.1563L29.6888 18.6543L29.325 20.7716Z" fill="#30BC90"/>
<path d="M36.1223 20.7714L37.42 20.0908L38.7157 20.7714L38.4664 19.3285L39.5148 18.3067L38.0679 18.0962L37.42 16.7842L36.7702 18.0962L35.3232 18.3067L36.3716 19.3285L36.1223 20.7714Z" fill="#30BC90"/>
<path d="M41.9139 20.7714L43.2096 20.0908L44.5053 20.7714L44.258 19.3285L45.3064 18.3067L43.8574 18.0962L43.2096 16.7842L42.5617 18.0962L41.1128 18.3067L42.1612 19.3285L41.9139 20.7714Z" fill="#30BC90"/>
<path d="M30.9024 45.4753H28.2334V51.3815H30.9024V45.4753Z" fill="#30BC90"/>
<path d="M31.5381 45.4753V51.3815H31.5463H34.2173V45.4753H31.5463H31.5381Z" fill="#30BC90"/>
<path d="M38.9647 22.3103H23.486C22.6563 22.3103 21.9839 22.9827 21.9839 23.8124V51.3794H27.5917H27.6019V44.8396H30.9045H31.5482H34.8508V51.3794H34.861H40.4688V23.8144C40.4668 22.9847 39.7944 22.3103 38.9647 22.3103ZM30.5714 23.4384H32.85V23.7572H31.8997V26.2873H31.5217V23.7572H30.5714V23.4384ZM34.2173 36.9818V38.6698H32.5292V36.9818H34.2173ZM32.5292 34.3761V32.688H34.2173V34.3761H32.5292ZM34.2173 41.2755V42.9636H32.5292V41.2755H34.2173ZM34.2173 30.0824H32.5292V28.3943H34.2173V30.0824ZM29.9215 32.688V34.3761H28.2334V32.688H29.9215ZM28.2334 30.0824V28.3943H29.9215V30.0824H28.2334ZM29.9215 36.9818V38.6698H28.2334V36.9818H29.9215ZM29.9215 41.2755V42.9636H28.2334V41.2755H29.9215ZM25.6277 47.1633H23.9397V45.4752H25.6277V47.1633ZM25.6277 42.9636H23.9397V41.2755H25.6277V42.9636ZM25.6277 38.6698H23.9397V36.9818H25.6277V38.6698ZM25.6277 34.3761H23.9397V32.688H25.6277V34.3761ZM25.6277 30.0824H23.9397V28.3943H25.6277V30.0824ZM26.4002 26.2893H26.0201V24.9834H24.5201V26.2893H24.14V23.4404H24.5201V24.6666H26.0201V23.4404H26.4002V26.2893ZM27.2729 24.8649C27.2729 24.0862 27.7327 23.373 28.6381 23.373C29.3472 23.373 29.7825 23.8104 29.9378 24.3724C29.9399 24.3785 29.9419 24.3867 29.944 24.3928C29.9828 24.544 30.0032 24.7034 30.0032 24.8649C30.0032 25.6435 29.5434 26.3568 28.6381 26.3568C27.7307 26.3568 27.2729 25.6435 27.2729 24.8649ZM35.5538 26.2893H33.5735V23.4404H35.5415V23.7593H33.9536V24.6646H35.4353V24.9834H33.9536V25.9685H35.5538V26.2893ZM36.4203 23.4384H36.8004V25.9685H38.3087V26.2873H36.4203V23.4384ZM38.513 47.1633H36.825V45.4752H38.513V47.1633ZM38.513 42.9636H36.825V41.2755H38.513V42.9636ZM38.513 38.6698H36.825V36.9818H38.513V38.6698ZM38.513 34.3761H36.825V32.688H38.513V34.3761ZM38.513 30.0824H36.825V28.3943H38.513V30.0824Z" fill="#30BC90"/>
<path d="M28.6379 26.038C29.1819 26.038 29.6229 25.5128 29.6229 24.865C29.6229 24.2171 29.1819 23.6919 28.6379 23.6919C28.0939 23.6919 27.6528 24.2171 27.6528 24.865C27.6528 25.5128 28.0939 26.038 28.6379 26.038Z" fill="#30BC90"/>
<path d="M20.1221 35.7925H12.5054C11.8718 35.7925 11.3589 36.3054 11.3589 36.939V51.3795H21.2707V36.939C21.2707 36.3075 20.7556 35.7925 20.1221 35.7925ZM15.06 48.2956H13.5926V46.8283H15.06V48.2956ZM15.06 44.3207H13.5926V42.8533H15.06V44.3207ZM15.06 40.3478H13.5926V38.8805H15.06V40.3478ZM19.0349 48.2956H17.5675V46.8283H19.0349V48.2956ZM19.0349 44.3207H17.5675V42.8533H19.0349V44.3207ZM19.0349 40.3478H17.5675V38.8805H19.0349V40.3478Z" fill="#30BC90"/>
<path d="M49.9454 35.7925H42.3267C41.6931 35.7925 41.1802 36.3054 41.1802 36.939V51.3795H51.0919V36.939C51.0919 36.3075 50.579 35.7925 49.9454 35.7925ZM44.8833 48.2956H43.4159V46.8283H44.8833V48.2956ZM44.8833 44.3207H43.4159V42.8533H44.8833V44.3207ZM44.8833 40.3478H43.4159V38.8805H44.8833V40.3478ZM48.8582 48.2956H47.3909V46.8283H48.8582V48.2956ZM48.8582 44.3207H47.3909V42.8533H48.8582V44.3207ZM48.8582 40.3478H47.3909V38.8805H48.8582V40.3478Z" fill="#30BC90"/>
<path d="M18.5348 18.5276L18.3427 19.6414C18.3019 19.8785 18.3999 20.1196 18.5941 20.2606C18.7045 20.3403 18.8352 20.3812 18.966 20.3812C19.0662 20.3812 19.1684 20.3567 19.2603 20.3076L20.2617 19.7804L21.2631 20.3076C21.3551 20.3567 21.4573 20.3812 21.5574 20.3812C21.6882 20.3812 21.819 20.3403 21.9294 20.2606C22.1235 20.1196 22.2216 19.8785 22.1807 19.6414L21.9886 18.5276L22.7979 17.7388C22.9696 17.5712 23.0329 17.3178 22.9573 17.0889C22.8837 16.86 22.6855 16.6924 22.4464 16.6577L21.3265 16.4942L20.8258 15.4805C20.7195 15.2639 20.4988 15.127 20.2576 15.127C20.0165 15.127 19.7958 15.2639 19.6895 15.4805L19.1888 16.4942L18.0689 16.6577C17.8298 16.6924 17.6315 16.86 17.558 17.0889C17.4844 17.3178 17.5457 17.5691 17.7174 17.7388L18.5348 18.5276ZM21.3122 18.3069L21.5594 19.7497L20.2638 19.0692L18.9681 19.7497L19.2154 18.3069L18.167 17.2851L19.6159 17.0746L20.2638 15.7625L20.9116 17.0746L22.3606 17.2851L21.3122 18.3069Z" fill="#114232"/>
<path d="M24.3244 18.5276L24.1323 19.6414C24.0914 19.8785 24.1895 20.1196 24.3836 20.2606C24.494 20.3403 24.6248 20.3812 24.7556 20.3812C24.8557 20.3812 24.9579 20.3567 25.0499 20.3076L26.0513 19.7804L27.0527 20.3076C27.1446 20.3567 27.2468 20.3812 27.347 20.3812C27.4777 20.3812 27.6085 20.3403 27.7189 20.2606C27.9131 20.1196 28.0111 19.8785 27.9703 19.6414L27.7782 18.5276L28.5875 17.7388C28.7591 17.5712 28.8225 17.3178 28.7469 17.0889C28.6733 16.86 28.4751 16.6924 28.2359 16.6577L27.116 16.4942L26.6153 15.4805C26.5091 15.2639 26.2883 15.127 26.0472 15.127C25.806 15.127 25.5853 15.2639 25.479 15.4805L24.9784 16.4942L23.8584 16.6577C23.6193 16.6924 23.4211 16.86 23.3475 17.0889C23.2739 17.3178 23.3352 17.5691 23.5069 17.7388L24.3244 18.5276ZM27.1017 18.3069L27.349 19.7497L26.0533 19.0692L24.7576 19.7497L25.0049 18.3069L23.9565 17.2851L25.4055 17.0746L26.0533 15.7625L26.7012 17.0746L28.1501 17.2851L27.1017 18.3069Z" fill="#114232"/>
<path d="M30.0303 17.8552L29.7238 19.6434C29.6829 19.8805 29.781 20.1216 29.9751 20.2626C30.0855 20.3423 30.2163 20.3832 30.3471 20.3832C30.4472 20.3832 30.5494 20.3587 30.6414 20.3096L32.2477 19.4656L33.854 20.3096C33.946 20.3587 34.0482 20.3832 34.1483 20.3832C34.2791 20.3832 34.4099 20.3423 34.5202 20.2626C34.7144 20.1216 34.8125 19.8805 34.7716 19.6434L34.4651 17.8552L35.7648 16.5881C35.9365 16.4206 35.9999 16.1671 35.9242 15.9382C35.8507 15.7094 35.6524 15.5418 35.4133 15.507L33.619 15.2454L32.8158 13.6187C32.7096 13.4021 32.4888 13.2651 32.2477 13.2651C32.0065 13.2651 31.7858 13.4021 31.6796 13.6187L30.8764 15.2454L29.0821 15.507C28.8429 15.5418 28.6447 15.7094 28.5711 15.9382C28.4976 16.1671 28.5589 16.4185 28.7305 16.5881L30.0303 17.8552ZM33.7845 17.6324L34.1483 19.7476L32.2477 18.7483L30.3471 19.7476L30.7109 17.6324L29.174 16.1344L31.2994 15.8258L32.2497 13.9007L33.2 15.8258L35.3254 16.1344L33.7845 17.6324Z" fill="#114232"/>
<path d="M35.7425 17.0889C35.669 17.3178 35.7303 17.5691 35.9019 17.7388L36.7112 18.5276L36.5191 19.6414C36.4782 19.8785 36.5763 20.1196 36.7705 20.2606C36.8808 20.3403 37.0116 20.3812 37.1424 20.3812C37.2426 20.3812 37.3448 20.3567 37.4367 20.3076L38.4381 19.7804L39.4395 20.3076C39.5315 20.3567 39.6337 20.3812 39.7338 20.3812C39.8646 20.3812 39.9954 20.3403 40.1057 20.2606C40.2999 20.1196 40.398 19.8785 40.3571 19.6414L40.165 18.5276L40.9743 17.7388C41.146 17.5712 41.2093 17.3178 41.1337 17.0889C41.0601 16.86 40.8619 16.6924 40.6228 16.6577L39.5029 16.4942L39.0022 15.4805C38.8959 15.2639 38.6752 15.127 38.434 15.127C38.1929 15.127 37.9722 15.2639 37.8659 15.4805L37.3652 16.4942L36.2453 16.6577C36.0143 16.6924 35.8161 16.86 35.7425 17.0889ZM39.4886 18.3069L39.7358 19.7497L38.4402 19.0692L37.1445 19.7497L37.3918 18.3069L36.3434 17.2851L37.7923 17.0746L38.4402 15.7625L39.088 17.0746L40.537 17.2851L39.4886 18.3069Z" fill="#114232"/>
<path d="M42.5026 18.5276L42.3105 19.6414C42.2696 19.8785 42.3677 20.1196 42.5619 20.2606C42.6722 20.3403 42.803 20.3812 42.9338 20.3812C43.034 20.3812 43.1361 20.3567 43.2281 20.3076L44.2295 19.7804L45.2309 20.3076C45.3229 20.3567 45.425 20.3812 45.5252 20.3812C45.656 20.3812 45.7868 20.3403 45.8971 20.2606C46.0913 20.1196 46.1894 19.8785 46.1485 19.6414L45.9564 18.5276L46.7657 17.7388C46.9373 17.5712 47.0007 17.3178 46.9251 17.0889C46.8515 16.86 46.6533 16.6924 46.4142 16.6577L45.2942 16.4942L44.7935 15.4805C44.6873 15.2639 44.4666 15.127 44.2254 15.127C43.9843 15.127 43.7635 15.2639 43.6573 15.4805L43.1566 16.4942L42.0366 16.6577C41.7975 16.6924 41.5993 16.86 41.5257 17.0889C41.4522 17.3178 41.5135 17.5691 41.6851 17.7388L42.5026 18.5276ZM45.2799 18.3069L45.5272 19.7497L44.2315 19.0692L42.9359 19.7497L43.1831 18.3069L42.1347 17.2851L43.5837 17.0746L44.2315 15.7625L44.8794 17.0746L46.3283 17.2851L45.2799 18.3069Z" fill="#114232"/>
<path d="M24.3262 46.775H27.2813V43.8198H24.3262V46.775ZM24.9597 44.4534H26.6478V46.1414H24.9597V44.4534Z" fill="#114232"/>
<path d="M24.3262 42.5755H27.2813V39.6204H24.3262V42.5755ZM24.9597 40.2539H26.6478V41.942H24.9597V40.2539Z" fill="#114232"/>
<path d="M24.3262 38.2818H27.2813V35.3267H24.3262V38.2818ZM24.9597 35.9602H26.6478V37.6483H24.9597V35.9602Z" fill="#114232"/>
<path d="M24.3262 33.9879H27.2813V31.0327H24.3262V33.9879ZM24.9597 31.6663H26.6478V33.3543H24.9597V31.6663Z" fill="#114232"/>
<path d="M24.3262 29.6942H27.2813V26.739H24.3262V29.6942ZM24.9597 27.3725H26.6478V29.0606H24.9597V27.3725Z" fill="#114232"/>
<path d="M28.6221 42.5755H31.5772V39.6204H28.6221V42.5755ZM29.2556 40.2539H30.9437V41.942H29.2556V40.2539Z" fill="#114232"/>
<path d="M28.6221 38.2818H31.5772V35.3267H28.6221V38.2818ZM29.2556 35.9602H30.9437V37.6483H29.2556V35.9602Z" fill="#114232"/>
<path d="M28.6221 33.9879H31.5772V31.0327H28.6221V33.9879ZM29.2556 31.6663H30.9437V33.3543H29.2556V31.6663Z" fill="#114232"/>
<path d="M28.6221 29.6942H31.5772V26.739H28.6221V29.6942ZM29.2556 27.3725H30.9437V29.0606H29.2556V27.3725Z" fill="#114232"/>
<path d="M32.9185 42.5755H35.8736V39.6204H32.9185V42.5755ZM33.552 40.2539H35.2401V41.942H33.552V40.2539Z" fill="#114232"/>
<path d="M32.9185 38.2818H35.8736V35.3267H32.9185V38.2818ZM33.552 35.9602H35.2401V37.6483H33.552V35.9602Z" fill="#114232"/>
<path d="M32.9185 33.9881H35.8736V31.033H32.9185V33.9881ZM33.552 31.6665H35.2401V33.3546H33.552V31.6665Z" fill="#114232"/>
<path d="M32.9185 29.6942H35.8736V26.739H32.9185V29.6942ZM33.552 27.3725H35.2401V29.0606H33.552V27.3725Z" fill="#114232"/>
<path d="M37.2119 46.775H40.167V43.8198H37.2119V46.775ZM37.8454 44.4534H39.5335V46.1414H37.8454V44.4534Z" fill="#114232"/>
<path d="M37.2119 42.5755H40.167V39.6204H37.2119V42.5755ZM37.8454 40.2539H39.5335V41.942H37.8454V40.2539Z" fill="#114232"/>
<path d="M37.2119 38.2818H40.167V35.3267H37.2119V38.2818ZM37.8454 35.9602H39.5335V37.6483H37.8454V35.9602Z" fill="#114232"/>
<path d="M37.2119 33.9879H40.167V31.0327H37.2119V33.9879ZM37.8454 31.6663H39.5335V33.3543H37.8454V31.6663Z" fill="#114232"/>
<path d="M37.2119 29.6942H40.167V26.739H37.2119V29.6942ZM37.8454 27.3725H39.5335V29.0606H37.8454V27.3725Z" fill="#114232"/>
<path d="M39.331 25.9011H39.9645V25.2676V24.9488V24.3153H39.331H38.4563V22.4187V21.7852H37.8227H37.4426H37.1974H36.8091H36.5638H34.5958H34.5059H33.9623H33.8723H31.5937H30.9601V22.1858C30.6127 21.8813 30.1611 21.7178 29.6604 21.7178C29.0513 21.7178 28.5139 21.961 28.1501 22.4024C28.1174 22.4412 28.0867 22.4821 28.0581 22.525V22.4187V21.7852H27.4246H27.0445H26.4109V22.4187V23.0114H26.178V22.4187V21.7852H25.5444H25.1643H24.5308V22.4187V25.2676V25.9011H25.1643H25.5444H26.178V25.2676V24.5953H26.4109V25.2676V25.9011H27.0445H27.4246H28.0581V25.2676V25.1613C28.0867 25.2043 28.1174 25.2451 28.1501 25.284C28.5139 25.7254 29.0513 25.9686 29.6604 25.9686C30.2694 25.9686 30.8068 25.7254 31.1706 25.284C31.4853 24.9038 31.6591 24.3909 31.6591 23.8411C31.6591 23.6797 31.6427 23.5223 31.6141 23.3691H31.9104V25.2656V25.8991H32.544H32.9241H33.5576V25.2656V23.3691H33.8744H33.9643V25.2656V25.8991H34.5978H36.5782H36.8132H37.2117H37.4467H39.331V25.9011ZM39.331 24.9488V25.2676H37.4426V22.4187H37.8227V24.9488H39.331ZM36.5761 25.2676H34.5958V22.4187H36.5638V22.7376H34.9759V23.6429H36.4576V23.9617H34.9759V24.9468H36.5761V25.2676ZM33.8723 22.7376H32.922V25.2676H32.544V22.7376H31.5937V22.4187H33.8723V22.7376ZM29.6604 25.3351C28.755 25.3351 28.2952 24.6198 28.2952 23.8432C28.2952 23.0666 28.755 22.3513 29.6604 22.3513C30.3695 22.3513 30.8048 22.7887 30.9601 23.3507C30.9622 23.3568 30.9642 23.365 30.9663 23.3711C31.0051 23.5223 31.0255 23.6817 31.0255 23.8432C31.0255 24.6218 30.5657 25.3351 29.6604 25.3351ZM25.5424 25.2676H25.1623V22.4187H25.5424V23.6449H27.0424V22.4187H27.4225V25.2676H27.0424V23.9617H25.5424V25.2676Z" fill="#114232"/>
<path d="M29.6603 22.6699C28.9655 22.6699 28.6753 23.2687 28.6753 23.843C28.6753 24.4173 28.9675 25.016 29.6603 25.016C30.3531 25.016 30.6454 24.4173 30.6454 23.843C30.6454 23.2687 30.3531 22.6699 29.6603 22.6699ZM29.6603 24.3825C29.3538 24.3825 29.3088 24.0433 29.3088 23.843C29.3088 23.6427 29.3538 23.3035 29.6603 23.3035C29.9669 23.3035 30.0118 23.6427 30.0118 23.843C30.0118 24.0433 29.9669 24.3825 29.6603 24.3825Z" fill="#114232"/>
<path d="M17.9565 39.9595H20.691V37.2251H17.9565V39.9595ZM18.5901 37.8586H20.0574V39.326H18.5901V37.8586Z" fill="#114232"/>
<path d="M17.9565 43.9324H20.691V41.198H17.9565V43.9324ZM18.5901 41.8315H20.0574V43.2989H18.5901V41.8315Z" fill="#114232"/>
<path d="M17.9565 47.9073H20.691V45.1729H17.9565V47.9073ZM18.5901 45.8043H20.0574V47.2717H18.5901V45.8043Z" fill="#114232"/>
<path d="M13.9814 39.9595H16.7159V37.2251H13.9814V39.9595ZM14.615 37.8586H16.0823V39.326H14.615V37.8586Z" fill="#114232"/>
<path d="M13.9814 43.9324H16.7159V41.198H13.9814V43.9324ZM14.615 41.8315H16.0823V43.2989H14.615V41.8315Z" fill="#114232"/>
<path d="M13.9814 47.9073H16.7159V45.1729H13.9814V47.9073ZM14.615 45.8043H16.0823V47.2717H14.615V45.8043Z" fill="#114232"/>
<path d="M50.9675 34.1371H43.3487C42.8746 34.1371 42.4413 34.323 42.1225 34.6275V22.7907C42.1225 21.6135 41.164 20.655 39.9869 20.655H24.5082C23.331 20.655 22.3726 21.6135 22.3726 22.7907V34.6275C22.0537 34.323 21.6205 34.1371 21.1464 34.1371H13.5276C12.5466 34.1371 11.7476 34.9361 11.7476 35.9171V50.3576V50.9912H12.3811H22.2929H22.3726H22.9264H23.0061H28.6139H28.6241H29.2474H29.2577H31.9267H31.9369H32.5602H32.5704H35.2395H35.2497H35.873H35.8832H41.491H41.5707H42.1246H42.2043H52.116H52.7496V50.3576V35.9171C52.7475 34.9361 51.9505 34.1371 50.9675 34.1371ZM52.114 50.3597H42.2022V35.9191C42.2022 35.2856 42.7152 34.7727 43.3487 34.7727H50.9675C51.601 34.7727 52.114 35.2856 52.114 35.9191V50.3597ZM41.489 50.3597H35.8812H35.871V43.8199H32.5684H31.9246H28.6221V50.3597H28.6119H23.004V22.7927C23.004 21.963 23.6764 21.2906 24.5061 21.2906H39.9848C40.8146 21.2906 41.4869 21.963 41.4869 22.7927V50.3597H41.489ZM29.2556 44.4535H31.9246V50.3597H29.2556V44.4535ZM32.5602 44.4535H32.5704H35.2395V50.3597H32.5704H32.5602V44.4535ZM22.2929 50.3597H12.3811V35.9191C12.3811 35.2856 12.8941 34.7727 13.5276 34.7727H21.1464C21.7799 34.7727 22.2929 35.2856 22.2929 35.9191V50.3597Z" fill="#114232"/>
<path d="M47.7793 39.9595H50.5137V37.2251H47.7793V39.9595ZM48.4128 37.8586H49.8802V39.326H48.4128V37.8586Z" fill="#114232"/>
<path d="M47.7793 43.9324H50.5137V41.198H47.7793V43.9324ZM48.4128 41.8315H49.8802V43.2989H48.4128V41.8315Z" fill="#114232"/>
<path d="M47.7793 47.9073H50.5137V45.1729H47.7793V47.9073ZM48.4128 45.8043H49.8802V47.2717H48.4128V45.8043Z" fill="#114232"/>
<path d="M43.8047 39.9595H46.5391V37.2251H43.8047V39.9595ZM44.4382 37.8586H45.9056V39.326H44.4382V37.8586Z" fill="#114232"/>
<path d="M43.8047 43.9324H46.5391V41.198H43.8047V43.9324ZM44.4382 41.8315H45.9056V43.2989H44.4382V41.8315Z" fill="#114232"/>
<path d="M43.8047 47.9073H46.5391V45.1729H43.8047V47.9073ZM44.4382 45.8043H45.9056V47.2717H44.4382V45.8043Z" fill="#114232"/>
</svg>
