<svg width="64" height="65" viewBox="0 0 64 65" fill="none" xmlns="http://www.w3.org/2000/svg">
<path d="M55.0282 4.98975H51.5059V8.51206H55.0282V4.98975Z" fill="#30BC90"/>
<path d="M8.6553 5.53125L5.88281 10.3346H11.4278L8.6553 5.53125Z" fill="#30BC90"/>
<path d="M57.5128 58.5394C58.2708 57.7815 58.2708 56.5525 57.5128 55.7945C56.7549 55.0366 55.5259 55.0366 54.768 55.7945C54.01 56.5525 54.01 57.7815 54.768 58.5394C55.5259 59.2974 56.7549 59.2974 57.5128 58.5394Z" fill="#30BC90"/>
<path d="M5.42102 38.5746L4.24072 39.7549L4.68857 40.2027L5.86888 39.0224L5.42102 38.5746Z" fill="#114232"/>
<path d="M7.59827 36.3956L6.41797 37.5759L6.86582 38.0238L8.04612 36.8435L7.59827 36.3956Z" fill="#114232"/>
<path d="M6.8668 38.5736L6.41895 39.0215L7.59925 40.2018L8.0471 39.7539L6.8668 38.5736Z" fill="#114232"/>
<path d="M4.6876 36.3969L4.23975 36.8447L5.42005 38.025L5.8679 37.5772L4.6876 36.3969Z" fill="#114232"/>
<path d="M57.1334 29.3629L55.9517 30.5447L56.3995 30.9925L57.5813 29.8108L57.1334 29.3629Z" fill="#114232"/>
<path d="M59.3121 27.1852L58.1304 28.3669L58.5782 28.8148L59.76 27.633L59.3121 27.1852Z" fill="#114232"/>
<path d="M58.5772 29.3627L58.1294 29.8105L59.3111 30.9923L59.759 30.5444L58.5772 29.3627Z" fill="#114232"/>
<path d="M56.3995 27.1845L55.9517 27.6323L57.1334 28.8141L57.5813 28.3662L56.3995 27.1845Z" fill="#114232"/>
<path d="M29.1173 5.84582L27.937 7.02612L28.3849 7.47397L29.5652 6.29367L29.1173 5.84582Z" fill="#114232"/>
<path d="M31.2955 3.66809L30.1152 4.84839L30.5631 5.29624L31.7434 4.11594L31.2955 3.66809Z" fill="#114232"/>
<path d="M30.5631 5.84439L30.1152 6.29224L31.2955 7.47254L31.7434 7.02469L30.5631 5.84439Z" fill="#114232"/>
<path d="M28.3849 3.66641L27.937 4.11426L29.1188 5.296L29.5666 4.84815L28.3849 3.66641Z" fill="#114232"/>
<path d="M17.459 56.5557H16.8257V60.6868H17.459V56.5557Z" fill="#114232"/>
<path d="M19.2083 58.3047H15.0771V58.938H19.2083V58.3047Z" fill="#114232"/>
<path d="M56.274 7.60294H52.7517C52.576 7.60294 52.4351 7.46196 52.4351 7.28626V3.76395C52.4351 3.58824 52.576 3.44727 52.7517 3.44727H56.274C56.4498 3.44727 56.5907 3.58824 56.5907 3.76395V7.28626C56.5907 7.46196 56.4498 7.60294 56.274 7.60294ZM53.0684 6.96958H55.9574V4.08063H53.0684V6.96958Z" fill="#114232"/>
<path d="M12.6747 9.42531H7.12967C7.0173 9.42531 6.91106 9.36402 6.85589 9.26595C6.79869 9.16788 6.79869 9.04734 6.85589 8.94927L9.62838 4.14593C9.68559 4.04787 9.78979 3.98657 9.90216 3.98657C10.0145 3.98657 10.1208 4.04787 10.1759 4.14593L12.9505 8.94927C13.0077 9.04734 13.0077 9.16788 12.9505 9.26595C12.8933 9.36402 12.7891 9.42531 12.6747 9.42531ZM7.67926 8.79195H12.1271L9.90216 4.93866L7.67926 8.79195Z" fill="#114232"/>
<path d="M57.3875 58.2003C56.1412 58.2003 55.1299 57.1869 55.1299 55.9427C55.1299 54.6964 56.1433 53.6851 57.3875 53.6851C58.6338 53.6851 59.6451 54.6984 59.6451 55.9427C59.6472 57.1869 58.6338 58.2003 57.3875 58.2003ZM57.3875 54.3164C56.4906 54.3164 55.7632 55.0458 55.7632 55.9406C55.7632 56.8355 56.4926 57.5649 57.3875 57.5649C58.2824 57.5649 59.0118 56.8355 59.0118 55.9406C59.0118 55.0458 58.2844 54.3164 57.3875 54.3164Z" fill="#114232"/>
<path d="M25.2007 46.579L28.9232 50.2995C28.9825 50.2403 29.0417 50.181 29.103 50.1218C32.8889 46.3339 35.2037 41.8329 35.8371 37.7161C34.1495 39.3628 32.4353 40.9217 30.7252 42.358C28.8272 43.9537 26.97 45.3736 25.2007 46.579Z" fill="#30BC90"/>
<path d="M17.1776 38.5498C18.383 36.7825 19.8009 34.9253 21.3966 33.0293C22.8166 31.3417 24.355 29.6459 25.9793 27.9788C21.891 28.6326 17.435 30.9351 13.6777 34.6842C13.6246 34.7373 13.5736 34.7884 13.5225 34.8415C13.5143 34.8497 13.5082 34.8558 13.5 34.864L13.5225 34.8865L17.1776 38.5498Z" fill="#30BC90"/>
<path d="M21.6906 44.5707C21.6906 44.5707 21.6906 44.5687 21.6886 44.5687C21.6845 44.5584 21.6784 44.5482 21.6723 44.536C21.4455 44.0722 21.0838 43.5675 20.616 43.0997C20.1604 42.644 19.6721 42.2906 19.2185 42.0638C18.9651 41.9371 18.722 41.8493 18.5014 41.8064H18.4993C18.4442 41.7921 18.391 41.7819 18.3359 41.7716C18.0784 41.7246 17.7985 41.696 17.5105 41.696C17.0896 41.696 16.6462 41.7533 16.211 41.8922C14.3416 42.4867 13.0953 46.8079 12.8461 49.7071C12.7848 50.416 12.7827 51.0412 12.8461 51.505C12.889 51.8176 12.9605 52.0587 13.0647 52.2017C12.7705 50.4446 17.917 50.4324 20.855 48.7468C21.6804 48.2728 22.1667 47.2043 22.1238 46.2399C22.0993 45.6617 21.944 45.0937 21.6906 44.5707ZM20.665 46.2031C20.5649 46.34 20.4403 46.4565 20.2973 46.5402C18.7486 47.431 16.0353 47.4372 16.1906 48.3627C15.7616 47.7702 16.35 44.0354 17.5309 43.1017C17.633 43.022 17.7393 42.9607 17.8496 42.926C18.0784 42.8524 18.3114 42.8218 18.5341 42.8218C18.6873 42.8218 18.8344 42.8361 18.9692 42.8606C19.4861 42.9566 19.9152 43.3101 20.2727 43.6758C20.6711 44.0824 20.9408 44.6422 20.9674 45.2163C20.9796 45.5596 20.8693 45.9253 20.665 46.2031Z" fill="#30BC90"/>
<path d="M42.4077 17.1073L46.6492 21.3488C48.5758 17.2687 49.3767 14.3818 49.3767 14.3818C49.3767 14.3818 46.4878 15.1807 42.4077 17.1073Z" fill="#30BC90"/>
<path d="M41.7639 17.416C37.6062 19.4387 32.3656 22.583 27.6849 27.1616C27.5684 27.274 27.454 27.3884 27.3396 27.5028C27.3376 27.5049 27.3335 27.5089 27.3314 27.511C27.2191 27.6234 27.1067 27.7357 26.9964 27.8481C26.5203 28.3303 26.0524 28.8104 25.5948 29.2926C23.3126 31.6932 21.2798 34.0755 19.5697 36.3229C19.0793 36.9665 18.6155 37.5998 18.1783 38.2209C17.9924 38.4865 17.8106 38.7481 17.6328 39.0096L17.69 39.0668L17.9229 39.2997L24.4956 45.8724L24.7285 46.1053L24.7469 46.1237C24.8266 46.0685 24.9083 46.0133 24.988 45.9582C26.2629 45.0817 27.6011 44.0846 28.9782 42.9773C30.9579 41.3857 33.0153 39.5694 35.0809 37.5712C35.3751 37.2872 35.6673 36.9992 35.9615 36.709C36.0555 36.6151 36.1495 36.5211 36.2455 36.4271C36.2659 36.4067 36.2863 36.3862 36.3068 36.3658C36.4212 36.2493 36.5356 36.1349 36.65 36.0185C41.2 31.35 44.328 26.1339 46.3425 21.9926L41.7639 17.416ZM37.5572 30.7493C36.9279 31.3786 36.1045 31.6912 35.2811 31.6912C34.4578 31.6912 33.6344 31.3765 33.0051 30.7493C31.7486 29.4928 31.7486 27.4538 33.0051 26.1973C33.6344 25.568 34.4578 25.2554 35.2811 25.2554C36.1045 25.2554 36.9279 25.57 37.5572 26.1973C38.8137 27.4538 38.8137 29.4928 37.5572 30.7493Z" fill="#30BC90"/>
<path d="M21.2919 42.6585C20.9344 42.2927 20.5074 41.9393 19.9884 41.8433C19.8515 41.8187 19.7044 41.8044 19.5532 41.8044C19.3305 41.8044 19.0976 41.8351 18.8688 41.9086C18.7585 41.9434 18.6522 42.0026 18.5501 42.0843C17.3692 43.018 16.7807 46.7528 17.2098 47.3453C17.0545 46.4198 19.7678 46.4137 21.3164 45.5229C21.4594 45.4412 21.5841 45.3247 21.6842 45.1858C21.8885 44.9079 21.9988 44.5422 21.9845 44.201C21.96 43.6248 21.6903 43.065 21.2919 42.6585ZM21.1755 44.8078C21.1244 44.8773 21.0651 44.9345 21.0018 44.9692C20.4318 45.2981 19.6227 45.5045 18.9097 45.6884C18.4847 45.7967 18.0761 45.9029 17.7308 46.0275C17.7655 45.6536 17.8329 45.2389 17.9269 44.8344C18.0495 44.3011 18.2089 43.8087 18.3887 43.4103C18.6297 42.8771 18.8402 42.6605 18.9444 42.5767C18.9873 42.542 19.0282 42.5195 19.0629 42.5073C19.2161 42.4582 19.3816 42.4337 19.5553 42.4337C19.6636 42.4337 19.7718 42.4439 19.876 42.4623C20.254 42.5318 20.6075 42.8587 20.8404 43.0977C21.1448 43.4103 21.3369 43.8292 21.3552 44.2235C21.3614 44.4237 21.294 44.6464 21.1755 44.8078Z" fill="#114232"/>
<path d="M50.2265 12.7474C50.1959 12.7556 49.4685 12.9579 48.2284 13.4033C47.0903 13.8098 45.2883 14.5065 43.1574 15.5117L42.9142 15.6262L42.8325 15.665L42.3442 15.8958L42.3503 15.902C39.9191 17.0951 37.5817 18.4395 35.4058 19.9065C32.6374 21.7698 30.1122 23.8353 27.9036 26.0439C27.8443 26.1032 27.7851 26.1624 27.7258 26.2217C26.7431 26.3279 25.7358 26.5302 24.7204 26.8224C23.5211 27.1676 22.3095 27.6437 21.1205 28.2321C19.913 28.8307 18.7239 29.5519 17.5859 30.3733C16.4172 31.2171 15.2956 32.1733 14.2495 33.2152C14.2005 33.2643 14.1494 33.3174 14.0922 33.3746C14.084 33.3828 14.0758 33.3909 14.0677 33.3991L13.6264 33.8466L14.0697 34.292L14.0922 34.3144L17.8331 38.0656L17.8311 38.0696L18.2009 38.4394L20.0356 40.2742C19.9069 40.2292 19.7802 40.1945 19.6576 40.17C19.5983 40.1557 19.535 40.1414 19.4696 40.1291C19.1632 40.0719 18.8444 40.0433 18.5278 40.0433C18.0109 40.0433 17.5103 40.1189 17.0383 40.268C16.4622 40.4519 15.9228 40.8871 15.4365 41.5654C15.0402 42.117 14.6745 42.8321 14.3476 43.6902C13.7898 45.1572 13.3751 47.0041 13.2341 48.6325C13.1687 49.3966 13.1687 50.0668 13.2382 50.5694C13.2974 51.0025 13.4057 51.3233 13.5712 51.5521C13.6938 51.7196 13.8858 51.8136 14.084 51.8136C14.1657 51.8136 14.2495 51.7973 14.3292 51.7646C14.6009 51.6502 14.7582 51.3662 14.7092 51.076C14.701 51.0291 14.701 50.9943 14.7603 50.9249C14.8257 50.8493 14.9707 50.7287 15.2915 50.5796C15.8901 50.3038 16.7993 50.0708 17.7636 49.8236C19.2306 49.4477 20.8916 49.0207 22.189 48.2749C22.6957 47.9848 23.1145 47.521 23.4026 46.9347C23.6682 46.3912 23.801 45.7721 23.7745 45.1899C23.752 44.6954 23.6437 44.1847 23.4578 43.6943L24.937 45.1735L25.5254 45.7619L25.6827 45.9193L29.4911 49.7256L29.9344 50.1689L30.3818 49.7296C30.4452 49.6683 30.5065 49.6071 30.5657 49.5478C31.6118 48.5017 32.57 47.376 33.4179 46.2053C34.2413 45.0652 34.9645 43.8741 35.5632 42.6646C36.1536 41.4735 36.6297 40.2599 36.9749 39.0565C37.2753 38.0145 37.4775 36.9807 37.5817 35.9734C37.6226 35.9326 37.6635 35.8917 37.7043 35.8508C39.9129 33.6422 41.9785 31.119 43.8418 28.3486C45.3067 26.1706 46.6531 23.8353 47.8463 21.4041L47.8524 21.4102L48.0833 20.9219L48.1221 20.8422L48.2365 20.5991C49.2417 18.4681 49.9384 16.6661 50.345 15.5281C50.7884 14.2879 50.9906 13.5606 51.0008 13.5299L51.2991 12.4512L50.2265 12.7474ZM47.6685 20.3253L43.4271 16.0838C47.5071 14.1572 50.394 13.3563 50.394 13.3563C50.394 13.3563 49.5952 16.2452 47.6685 20.3253ZM29.9446 49.2781L26.2221 45.5576C27.9894 44.3522 29.8486 42.9322 31.7466 41.3366C33.4547 39.9003 35.1709 38.3414 36.8585 36.6946C36.2251 40.8115 33.9103 45.3125 30.1244 49.1004C30.0652 49.1596 30.0059 49.2189 29.9446 49.2781ZM37.3243 35.3421C37.3039 35.3625 37.2835 35.383 37.263 35.4034C37.169 35.4974 37.0751 35.5914 36.979 35.6853C36.6848 35.9755 36.3927 36.2635 36.0985 36.5475C34.0329 38.5457 31.9755 40.362 29.9957 41.9536C28.6187 43.0609 27.2804 44.06 26.0055 44.9345C25.9258 44.9896 25.8441 45.0448 25.7644 45.1L25.746 45.0816L25.5131 44.8487L18.9405 38.276L18.7076 38.0431L18.6503 37.9859C18.8261 37.7264 19.0079 37.4628 19.1959 37.1972C19.6331 36.5782 20.0969 35.9448 20.5872 35.2992C22.2993 33.0497 24.3302 30.6695 26.6123 28.2689C27.07 27.7888 27.5358 27.3066 28.0139 26.8244C28.1242 26.712 28.2366 26.5997 28.349 26.4873C28.351 26.4853 28.3551 26.4812 28.3571 26.4791C28.4715 26.3647 28.588 26.2503 28.7024 26.1379C33.3852 21.5593 38.6237 18.415 42.7814 16.3923L47.358 20.9689C45.3435 25.1102 42.2155 30.3263 37.6655 34.9948C37.5552 35.1112 37.4408 35.2256 37.3243 35.3421ZM23.1472 45.2164C23.1901 46.1828 22.7039 47.2493 21.8785 47.7233C18.9405 49.4109 13.7939 49.4232 14.0881 51.1782C13.9839 51.0352 13.9124 50.7941 13.8695 50.4815C13.8062 50.0177 13.8082 49.3946 13.8695 48.6836C14.1187 45.7844 15.365 41.4612 17.2345 40.8687C17.6697 40.7318 18.113 40.6726 18.5339 40.6726C18.824 40.6726 19.1019 40.6991 19.3593 40.7482C19.4145 40.7584 19.4696 40.7706 19.5228 40.7829H19.5248C19.7455 40.8278 19.9886 40.9136 20.2419 41.0403C20.6955 41.2671 21.1838 41.6206 21.6394 42.0762C22.1073 42.544 22.4689 43.0466 22.6957 43.5125C22.7018 43.5227 22.7059 43.5329 22.712 43.5452C22.712 43.5452 22.712 43.5472 22.7141 43.5472C22.9654 44.0723 23.1207 44.6403 23.1472 45.2164ZM14.5212 33.8404C14.5294 33.8322 14.5355 33.8261 14.5437 33.818C14.5948 33.7648 14.6479 33.7138 14.699 33.6606C18.4563 29.9115 22.9143 27.609 27.0005 26.9552C25.3742 28.6223 23.8357 30.3181 22.4178 32.0057C20.8222 33.9038 19.4043 35.7589 18.1988 37.5262L14.5437 33.8629L14.5212 33.8404Z" fill="#114232"/>
<path d="M39.0264 30.175C39.3941 29.8073 39.6781 29.3782 39.8722 28.9002C40.0602 28.4384 40.1542 27.9501 40.1542 27.4516C40.1542 26.951 40.0602 26.4648 39.8722 26.003C39.6781 25.5249 39.3941 25.0959 39.0264 24.7281C38.6586 24.3604 38.2296 24.0764 37.7515 23.8823C37.2897 23.6943 36.8014 23.6003 36.3029 23.6003C35.8023 23.6003 35.3161 23.6943 34.8543 23.8823C34.3763 24.0764 33.9472 24.3604 33.5795 24.7281C33.2117 25.0959 32.9277 25.5249 32.7336 26.003C32.5456 26.4648 32.4517 26.9531 32.4517 27.4516C32.4517 27.9522 32.5456 28.4384 32.7336 28.9002C32.9277 29.3782 33.2117 29.8073 33.5795 30.175C33.9472 30.5428 34.3763 30.8268 34.8543 31.0209C35.3161 31.2089 35.8044 31.3028 36.3029 31.3028C36.8035 31.3028 37.2897 31.2089 37.7515 31.0209C38.2296 30.8268 38.6586 30.5428 39.0264 30.175ZM38.5789 25.1756C39.8354 26.4321 39.8354 28.4711 38.5789 29.7276C37.9497 30.3569 37.1263 30.6695 36.3029 30.6695C35.4795 30.6695 34.6562 30.3548 34.0269 29.7276C32.7704 28.4711 32.7704 26.4321 34.0269 25.1756C34.6562 24.5463 35.4795 24.2337 36.3029 24.2337C37.1263 24.2337 37.9497 24.5483 38.5789 25.1756Z" fill="#114232"/>
</svg>
