<svg width="64" height="65" viewBox="0 0 64 65" fill="none" xmlns="http://www.w3.org/2000/svg">
<path d="M55.4461 4.49829H51.8599V8.08451H55.4461V4.49829Z" fill="#30BC90"/>
<path d="M8.23246 5.04956L5.40967 9.94004H11.0553L8.23246 5.04956Z" fill="#30BC90"/>
<path d="M57.9762 59.0194C58.7479 58.2477 58.7479 56.9965 57.9762 56.2247C57.2045 55.453 55.9533 55.453 55.1815 56.2247C54.4098 56.9965 54.4098 58.2477 55.1815 59.0194C55.9533 59.7911 57.2045 59.7911 57.9762 59.0194Z" fill="#30BC90"/>
<path d="M4.93951 38.6926L3.73779 39.8943L4.19377 40.3503L5.39548 39.1485L4.93951 38.6926Z" fill="#114232"/>
<path d="M7.15582 36.4738L5.9541 37.6755L6.41008 38.1315L7.61179 36.9298L7.15582 36.4738Z" fill="#114232"/>
<path d="M6.41105 38.6915L5.95508 39.1475L7.15679 40.3492L7.61277 39.8932L6.41105 38.6915Z" fill="#114232"/>
<path d="M4.1923 36.4752L3.73633 36.9312L4.93804 38.1329L5.39402 37.6769L4.1923 36.4752Z" fill="#114232"/>
<path d="M57.5899 29.3139L56.3867 30.5171L56.8427 30.9731L58.0459 29.7699L57.5899 29.3139Z" fill="#114232"/>
<path d="M59.8077 27.0966L58.6045 28.2998L59.0605 28.7558L60.2637 27.5526L59.8077 27.0966Z" fill="#114232"/>
<path d="M59.06 29.3136L58.604 29.7695L59.8072 30.9727L60.2632 30.5167L59.06 29.3136Z" fill="#114232"/>
<path d="M56.8427 27.0958L56.3867 27.5518L57.5899 28.7549L58.0459 28.299L56.8427 27.0958Z" fill="#114232"/>
<path d="M29.0655 5.36957L27.8638 6.57129L28.3197 7.02726L29.5215 5.82555L29.0655 5.36957Z" fill="#114232"/>
<path d="M31.2833 3.15229L30.0815 4.354L30.5375 4.80998L31.7392 3.60826L31.2833 3.15229Z" fill="#114232"/>
<path d="M30.5375 5.36849L30.0815 5.82446L31.2833 7.02618L31.7392 6.5702L30.5375 5.36849Z" fill="#114232"/>
<path d="M28.3202 3.15071L27.8643 3.60669L29.0674 4.80988L29.5234 4.3539L28.3202 3.15071Z" fill="#114232"/>
<path d="M17.1961 56.9998H16.5513V61.2059H17.1961V56.9998Z" fill="#114232"/>
<path d="M18.9761 58.7803H14.77V59.4251H18.9761V58.7803Z" fill="#114232"/>
<path d="M56.7148 7.1588H53.1286C52.9497 7.1588 52.8062 7.01527 52.8062 6.83638V3.25016C52.8062 3.07127 52.9497 2.92773 53.1286 2.92773H56.7148C56.8937 2.92773 57.0372 3.07127 57.0372 3.25016V6.83638C57.0372 7.01527 56.8937 7.1588 56.7148 7.1588ZM53.451 6.51395H56.3924V3.57259H53.451V6.51395Z" fill="#114232"/>
<path d="M12.3245 9.01422H6.67887C6.56446 9.01422 6.45629 8.95182 6.40013 8.85197C6.34188 8.75212 6.34188 8.62939 6.40013 8.52954L9.22292 3.63906C9.28117 3.53921 9.38725 3.47681 9.50166 3.47681C9.61607 3.47681 9.72424 3.53921 9.78041 3.63906L12.6053 8.52954C12.6635 8.62939 12.6635 8.75212 12.6053 8.85197C12.547 8.95182 12.4409 9.01422 12.3245 9.01422ZM7.23844 8.36937H11.767L9.50166 4.44617L7.23844 8.36937Z" fill="#114232"/>
<path d="M57.8484 58.6743C56.5795 58.6743 55.5498 57.6426 55.5498 56.3757C55.5498 55.1068 56.5816 54.0771 57.8484 54.0771C59.1173 54.0771 60.147 55.1089 60.147 56.3757C60.1491 57.6426 59.1173 58.6743 57.8484 58.6743ZM57.8484 54.7199C56.9352 54.7199 56.1947 55.4625 56.1947 56.3737C56.1947 57.2848 56.9373 58.0274 57.8484 58.0274C58.7595 58.0274 59.5021 57.2848 59.5021 56.3737C59.5021 55.4625 58.7616 54.7199 57.8484 54.7199Z" fill="#114232"/>
<path d="M10.5142 47.1853L22.4564 42.4134V18.9158L10.5142 23.6877V47.1853Z" fill="#30BC90"/>
<path d="M32.2603 33.0424C32.2603 34.9812 33.4168 36.6536 35.0747 37.4087V28.6741C33.4168 29.4313 32.2603 31.1037 32.2603 33.0424Z" fill="#30BC90"/>
<path d="M31.2912 38.8067C30.5423 38.0579 29.9557 37.1863 29.5438 36.2148C29.1174 35.208 28.9031 34.1409 28.9031 33.0405C28.9031 31.9401 29.1195 30.873 29.5438 29.8662C29.9536 28.8947 30.5423 28.0231 31.2912 27.2743C32.04 26.5254 32.9116 25.9388 33.883 25.5269C34.2658 25.3647 34.659 25.2336 35.0604 25.1317V23.686L23.1182 18.9141V42.4096L35.0604 47.1815V40.9472C34.661 40.8453 34.2679 40.7143 33.883 40.552C32.9116 40.1443 32.04 39.5556 31.2912 38.8067Z" fill="#30BC90"/>
<path d="M37.0573 28.2456C36.5934 28.2456 36.1441 28.3122 35.7197 28.4349V37.648C36.1441 37.7707 36.5934 37.8373 37.0573 37.8373C39.7012 37.8373 41.8542 35.6864 41.8542 33.0404C41.8521 30.3965 39.7012 28.2456 37.0573 28.2456Z" fill="#30BC90"/>
<path d="M40.2316 25.5286C41.2031 25.9384 42.0746 26.5271 42.8235 27.276C43.5724 28.0248 44.159 28.8964 44.5709 29.8679C44.9973 30.8747 45.2115 31.9418 45.2115 33.0422C45.2115 34.1426 44.9952 35.2097 44.5709 36.2166C44.4294 36.5515 44.2651 36.876 44.0799 37.188L47.662 40.77V18.9158L35.7197 23.6877V24.9961C36.1586 24.9233 36.6059 24.8879 37.0573 24.8879C38.1577 24.8879 39.2248 25.1043 40.2316 25.5286Z" fill="#30BC90"/>
<path d="M40.2316 40.5538C39.2248 40.9803 38.1577 41.1945 37.0573 41.1945C36.6059 41.1945 36.1586 41.1571 35.7197 41.0864V47.1834L44.575 43.645L41.0699 40.1399C40.7995 40.2959 40.5187 40.4332 40.2316 40.5538Z" fill="#30BC90"/>
<path d="M48.3071 42.3282L43.2585 37.2797C43.5393 36.8678 43.7806 36.4268 43.9762 35.9671C44.3672 35.0414 44.5669 34.0575 44.5669 33.0444C44.5669 32.0314 44.3693 31.0475 43.9762 30.1218C43.5976 29.2273 43.0567 28.4244 42.3682 27.7358C41.6796 27.0473 40.8767 26.5044 39.9822 26.1279C39.0565 25.7368 38.0726 25.5371 37.0596 25.5371C36.6019 25.5371 36.1505 25.5787 35.7054 25.6578C35.4932 25.6973 35.2852 25.7451 35.0772 25.8013C34.7756 25.8845 34.4781 25.9864 34.1848 26.1071C34.1681 26.1133 34.1515 26.1196 34.1369 26.1279C33.2425 26.5065 32.4395 27.0473 31.751 27.7358C31.0625 28.4244 30.5195 29.2273 30.143 30.1218C29.7519 31.0475 29.5522 32.0314 29.5522 33.0444C29.5522 34.0575 29.7499 35.0414 30.143 35.9671C30.5216 36.8616 31.0625 37.6645 31.751 38.353C32.4395 39.0416 33.2425 39.5845 34.1369 39.961C34.1536 39.9673 34.1681 39.9735 34.1848 39.9797C34.4781 40.1004 34.7756 40.2023 35.0772 40.2855C35.2852 40.3417 35.4953 40.3895 35.7054 40.4291C36.1485 40.5102 36.5999 40.5497 37.0596 40.5497C38.0726 40.5497 39.0565 40.3521 39.9822 39.9589C40.3962 39.7842 40.7956 39.572 41.17 39.3266L49.576 47.7325L51.6457 45.6628L48.3071 42.3282ZM37.0575 38.482C36.5957 38.482 36.1485 38.4238 35.72 38.3156C35.6118 38.2886 35.5036 38.2574 35.3975 38.222C35.2894 38.1866 35.1812 38.1492 35.0751 38.1076C34.1702 37.7519 33.3818 37.1611 32.789 36.4102C32.0547 35.4824 31.6179 34.3113 31.6179 33.0403C31.6179 31.7693 32.0568 30.5982 32.789 29.6704C33.3839 28.9195 34.1702 28.3287 35.0751 27.973C35.1812 27.9314 35.2894 27.8939 35.3975 27.8586C35.5036 27.8253 35.6118 27.7941 35.72 27.7671C36.1485 27.6589 36.5957 27.6006 37.0575 27.6006C40.0571 27.6006 42.4992 30.0407 42.4992 33.0424C42.4971 36.042 40.0571 38.482 37.0575 38.482Z" fill="#30BC90"/>
<path d="M53.1392 44.167L49.3471 40.3748V40.094V17.8778V16.925L48.463 17.2787L36.5207 22.0506L36.4292 22.088L36.3377 22.0506L24.3954 17.2787L24.1396 17.1767L23.8255 17.0519L23.5113 17.1767L23.2555 17.2787L11.3153 22.0485L10.9097 22.2108V22.6476V46.1431V47.0958L11.7937 46.7422L23.8275 41.9349L23.9191 41.9724L36.4313 46.971L46.1124 43.104L50.1583 47.1499L50.6139 47.6055L51.0695 47.1499L53.1392 45.0802L53.5948 44.6246L53.1392 44.167ZM23.4968 41.3733L11.5545 46.1452V22.6476L23.4968 17.8757V41.3733ZM36.76 22.6476L48.7022 17.8757V39.73L45.1202 36.1479C45.3053 35.8359 45.4696 35.5093 45.6111 35.1765C46.0375 34.1697 46.2518 33.1025 46.2518 32.0021C46.2518 30.9017 46.0354 29.8346 45.6111 28.8278C45.2013 27.8563 44.6126 26.9848 43.8637 26.2359C43.1149 25.487 42.2433 24.9004 41.2718 24.4886C40.265 24.0621 39.1979 23.8479 38.0975 23.8479C37.6461 23.8479 37.1989 23.8853 36.76 23.956V22.6476ZM36.0985 46.1452L24.1562 41.3733V17.8757L36.0985 22.6476V24.0933C35.6991 24.1952 35.3059 24.3263 34.9211 24.4886C33.9496 24.8983 33.0781 25.487 32.3292 26.2359C31.5803 26.9848 30.9937 27.8563 30.5818 28.8278C30.1554 29.8346 29.9412 30.9017 29.9412 32.0021C29.9412 33.1025 30.1575 34.1697 30.5818 35.1765C30.9916 36.1479 31.5803 37.0195 32.3292 37.7684C33.0781 38.5172 33.9496 39.1038 34.9211 39.5157C35.3038 39.678 35.697 39.809 36.0985 39.9109V46.1452ZM36.76 46.1452V40.0462C37.1989 40.119 37.6461 40.1543 38.0975 40.1543C39.1979 40.1543 40.265 39.938 41.2718 39.5136C41.5589 39.393 41.8397 39.2536 42.1102 39.1018L45.6152 42.6068L36.76 46.1452ZM50.6139 46.6923L46.7635 42.8419L42.2079 38.2863C41.8335 38.5318 41.4341 38.744 41.0201 38.9187C40.0945 39.3098 39.1105 39.5095 38.0975 39.5095C37.6399 39.5095 37.1885 39.4679 36.7433 39.3888C36.5311 39.3493 36.3231 39.3015 36.1151 39.2453C35.8135 39.1621 35.5139 39.0602 35.2227 38.9395C35.2061 38.9333 35.1915 38.927 35.1749 38.9208C34.2804 38.5422 33.4774 38.0013 32.7889 37.3128C32.1004 36.6243 31.5574 35.8213 31.1809 34.9269C30.7899 34.0012 30.5902 33.0173 30.5902 32.0042C30.5902 30.9912 30.7878 30.0072 31.1809 29.0816C31.5595 28.1871 32.1004 27.3841 32.7889 26.6956C33.4774 26.0071 34.2804 25.4642 35.1749 25.0876C35.1915 25.0814 35.2081 25.0752 35.2227 25.0668C35.516 24.9462 35.8135 24.8443 36.1151 24.7611C36.3231 24.7049 36.5332 24.657 36.7433 24.6175C37.1864 24.5364 37.6378 24.4969 38.0975 24.4969C39.1105 24.4969 40.0945 24.6966 41.0201 25.0876C41.9146 25.4662 42.7176 26.0071 43.4061 26.6956C44.0946 27.3841 44.6376 28.1871 45.0141 29.0816C45.4051 30.0072 45.6048 30.9912 45.6048 32.0042C45.6048 33.0173 45.4072 34.0012 45.0141 34.9269C44.8185 35.3886 44.5793 35.8296 44.2964 36.2394L49.345 41.288L52.6816 44.6246L50.6139 46.6923Z" fill="#114232"/>
<path d="M38.0974 26.5605C37.6356 26.5605 37.1883 26.6188 36.7598 26.727C36.6516 26.754 36.5435 26.7852 36.4374 26.8185C36.3292 26.8539 36.221 26.8913 36.115 26.9329C35.2101 27.2886 34.4217 27.8794 33.8289 28.6303C33.0946 29.5581 32.6577 30.7292 32.6577 32.0002C32.6577 33.2712 33.0966 34.4423 33.8289 35.3701C34.4238 36.121 35.2101 36.7118 36.115 37.0675C36.221 37.1091 36.3292 37.1465 36.4374 37.1819C36.5435 37.2152 36.6516 37.2464 36.7598 37.2755C37.1883 37.3837 37.6356 37.4419 38.0974 37.4419C41.097 37.4419 43.5391 35.0019 43.5391 32.0002C43.537 29.0006 41.097 26.5605 38.0974 26.5605ZM36.7598 27.3947C37.1842 27.272 37.6335 27.2054 38.0974 27.2054C40.7413 27.2054 42.8942 29.3563 42.8942 32.0023C42.8942 34.6462 40.7433 36.7992 38.0974 36.7992C37.6335 36.7992 37.1842 36.7326 36.7598 36.6099V27.3947ZM36.115 27.6339V36.3686C34.4571 35.6135 33.3005 33.9389 33.3005 32.0023C33.3005 30.0636 34.4571 28.3911 36.115 27.6339Z" fill="#114232"/>
</svg>
