<svg xmlns="http://www.w3.org/2000/svg" xmlns:xlink="http://www.w3.org/1999/xlink" width="52" height="48" viewBox="0 0 52 48">
    <defs>
        <radialGradient id="prefix__d" cx="68.166%" cy="65.098%" r="62.366%" fx="68.166%" fy="65.098%" gradientTransform="matrix(1 0 0 .64516 0 .231)">
            <stop offset="0%" stop-color="#FFCC4C"/>
            <stop offset="100%" stop-color="#FFE367"/>
        </radialGradient>
        <radialGradient id="prefix__e" cx="68.166%" cy="65.098%" r="62.366%" fx="68.166%" fy="65.098%">
            <stop offset="0%" stop-color="#FFCC4C"/>
            <stop offset="100%" stop-color="#FFE367"/>
        </radialGradient>
        <filter id="prefix__b" width="115.8%" height="117.4%" x="-7.9%" y="-8.7%" filterUnits="objectBoundingBox">
            <feGaussianBlur in="SourceGraphic"/>
        </filter>
        <path id="prefix__a" d="M8.602 3.254L.869 16.714c-1.161 2.018-1.158 4.502.007 6.522l7.765 13.479c1.166 2.02 3.31 3.264 5.631 3.267L29.775 40c2.322.003 4.467-1.237 5.623-3.254l7.733-13.46c1.161-2.018 1.158-4.502-.007-6.522l-7.76-13.479c-1.166-2.02-3.31-3.264-5.631-3.267L14.225 0c-2.322-.003-4.462 1.237-5.623 3.254z"/>
    </defs>
    <g fill="none" fill-rule="evenodd">
        <g transform="translate(-14) matrix(-1 0 0 1 62 4)">
            <mask id="prefix__c" fill="#fff">
                <use xlink:href="#prefix__a"/>
            </mask>
            <g fill-rule="nonzero" filter="url(#prefix__b)">
                <path stroke="#CFCFCF" stroke-width="3.481" d="M36.909 37.611c-.734 1.28-1.78 2.312-3.012 3.025-1.233.713-2.65 1.106-4.124 1.104l-15.503-.018c-2.941-.003-5.659-1.577-7.137-4.139L-.63 24.106c-1.477-2.558-1.48-5.705-.01-8.258L7.093 2.386C7.83 1.107 8.876.076 10.107-.637c1.231-.713 2.647-1.105 4.12-1.103l15.508.018c2.941.003 5.659 1.577 7.137 4.14l7.76 13.476c1.476 2.558 1.478 5.705.009 8.258l-7.732 13.459z"/>
                <path stroke="#FFF" stroke-width="1.74" d="M36.153 37.178c-.655 1.144-1.59 2.068-2.692 2.705-1.102.638-2.37.989-3.687.987l-15.503-.018C11.64 40.85 9.21 39.44 7.887 37.15L.123 23.67c-1.321-2.289-1.324-5.105-.009-7.39l7.733-13.46C8.506 1.675 9.442.752 10.542.115c1.101-.637 2.367-.988 3.684-.986l15.508.018C32.365-.85 34.796.56 36.118 2.85l7.76 13.478c1.32 2.289 1.323 5.105.008 7.39l-7.733 13.46z"/>
            </g>
            <g mask="url(#prefix__c)">
                <g transform="translate(-2 11)">
                    <path fill="url(#prefix__d)" stroke="#FFF" stroke-width="2.533" d="M16.899 18.482l1.34 20.785H-1.35l1.34-20.785c.145-2.229 1.142-4.21 2.66-5.635 1.52-1.424 3.562-2.291 5.795-2.291 2.234 0 4.276.867 5.795 2.291 1.52 1.425 2.516 3.406 2.66 5.635zM47.299 18.482l1.34 20.785H29.05l1.34-20.785c.145-2.229 1.142-4.21 2.66-5.635 1.52-1.424 3.562-2.291 5.795-2.291 2.234 0 4.276.867 5.795 2.291 1.52 1.425 2.516 3.406 2.66 5.635z"/>
                    <circle cx="8.444" cy="8.444" r="6.067" fill="url(#prefix__e)" stroke="#FFF" stroke-width="2"/>
                    <circle cx="38.844" cy="8.444" r="6.067" fill="url(#prefix__e)" stroke="#FFF" stroke-width="2"/>
                    <path fill="#FFF" stroke="#191919" stroke-width="2" d="M31.836 19.343l1.32 20.324H14.133l1.32-20.324c.14-2.159 1.106-4.078 2.578-5.457 1.472-1.38 3.45-2.22 5.613-2.22 2.164 0 4.142.84 5.614 2.22 1.471 1.38 2.438 3.298 2.578 5.457z"/>
                    <circle cx="23.644" cy="5.067" r="6.067" fill="#FFF" stroke="#191919" stroke-width="2"/>
                </g>
            </g>
        </g>
    </g>
</svg>
