<svg width="64" height="65" viewBox="0 0 64 65" fill="none" xmlns="http://www.w3.org/2000/svg">
<path d="M55.4463 4.49829H51.8601V8.08451H55.4463V4.49829Z" fill="#30BC90"/>
<path d="M8.23246 5.04956L5.40967 9.94004H11.0553L8.23246 5.04956Z" fill="#30BC90"/>
<path d="M57.976 59.0194C58.7477 58.2477 58.7477 56.9965 57.976 56.2247C57.2042 55.453 55.953 55.453 55.1813 56.2247C54.4095 56.9965 54.4095 58.2477 55.1813 59.0194C55.953 59.7911 57.2042 59.7911 57.976 59.0194Z" fill="#30BC90"/>
<path d="M4.93951 38.6926L3.73779 39.8943L4.19377 40.3503L5.39548 39.1485L4.93951 38.6926Z" fill="#114232"/>
<path d="M7.15582 36.4738L5.9541 37.6755L6.41008 38.1315L7.61179 36.9298L7.15582 36.4738Z" fill="#114232"/>
<path d="M6.41105 38.6915L5.95508 39.1475L7.15679 40.3492L7.61277 39.8932L6.41105 38.6915Z" fill="#114232"/>
<path d="M4.1923 36.4752L3.73633 36.9312L4.93804 38.1329L5.39402 37.6769L4.1923 36.4752Z" fill="#114232"/>
<path d="M57.5897 29.3139L56.3865 30.5171L56.8425 30.9731L58.0456 29.7699L57.5897 29.3139Z" fill="#114232"/>
<path d="M59.8077 27.0966L58.6045 28.2998L59.0605 28.7558L60.2637 27.5526L59.8077 27.0966Z" fill="#114232"/>
<path d="M59.0597 29.3136L58.6038 29.7695L59.8069 30.9727L60.2629 30.5167L59.0597 29.3136Z" fill="#114232"/>
<path d="M56.8425 27.0958L56.3865 27.5518L57.5897 28.7549L58.0456 28.299L56.8425 27.0958Z" fill="#114232"/>
<path d="M29.0652 5.36957L27.8635 6.57129L28.3195 7.02726L29.5212 5.82555L29.0652 5.36957Z" fill="#114232"/>
<path d="M31.283 3.15229L30.0813 4.354L30.5373 4.80998L31.739 3.60826L31.283 3.15229Z" fill="#114232"/>
<path d="M30.5373 5.36849L30.0813 5.82446L31.283 7.02618L31.739 6.5702L30.5373 5.36849Z" fill="#114232"/>
<path d="M28.32 3.15071L27.864 3.60669L29.0672 4.80988L29.5232 4.3539L28.32 3.15071Z" fill="#114232"/>
<path d="M17.1961 56.9998H16.5513V61.2059H17.1961V56.9998Z" fill="#114232"/>
<path d="M18.9764 58.7803H14.7703V59.4251H18.9764V58.7803Z" fill="#114232"/>
<path d="M56.715 7.1588H53.1288C52.9499 7.1588 52.8064 7.01527 52.8064 6.83638V3.25016C52.8064 3.07127 52.9499 2.92773 53.1288 2.92773H56.715C56.8939 2.92773 57.0375 3.07127 57.0375 3.25016V6.83638C57.0375 7.01527 56.8939 7.1588 56.715 7.1588ZM53.4512 6.51395H56.3926V3.57259H53.4512V6.51395Z" fill="#114232"/>
<path d="M12.3242 9.01422H6.67863C6.56422 9.01422 6.45605 8.95182 6.39988 8.85197C6.34164 8.75212 6.34164 8.62939 6.39988 8.52954L9.22268 3.63906C9.28092 3.53921 9.38701 3.47681 9.50142 3.47681C9.61583 3.47681 9.724 3.53921 9.78016 3.63906L12.605 8.52954C12.6633 8.62939 12.6633 8.75212 12.605 8.85197C12.5468 8.95182 12.4407 9.01422 12.3242 9.01422ZM7.23819 8.36937H11.7667L9.50142 4.44617L7.23819 8.36937Z" fill="#114232"/>
<path d="M57.8484 58.6743C56.5795 58.6743 55.5498 57.6426 55.5498 56.3757C55.5498 55.1068 56.5816 54.0771 57.8484 54.0771C59.1173 54.0771 60.147 55.1089 60.147 56.3757C60.1491 57.6426 59.1173 58.6743 57.8484 58.6743ZM57.8484 54.7199C56.9352 54.7199 56.1947 55.4625 56.1947 56.3737C56.1947 57.2848 56.9373 58.0274 57.8484 58.0274C58.7595 58.0274 59.5021 57.2848 59.5021 56.3737C59.5021 55.4625 58.7616 54.7199 57.8484 54.7199Z" fill="#114232"/>
<path d="M10.5144 47.1853L22.4567 42.4134V18.9158L10.5144 23.6877V47.1853Z" fill="#30BC90"/>
<path d="M32.2603 33.0424C32.2603 34.9812 33.4168 36.6536 35.0747 37.4087V28.6741C33.4168 29.4313 32.2603 31.1037 32.2603 33.0424Z" fill="#30BC90"/>
<path d="M31.2914 38.8067C30.5425 38.0579 29.9559 37.1863 29.5441 36.2148C29.1176 35.208 28.9034 34.1409 28.9034 33.0405C28.9034 31.9401 29.1197 30.873 29.5441 29.8662C29.9539 28.8947 30.5425 28.0231 31.2914 27.2743C32.0403 26.5254 32.9119 25.9388 33.8833 25.5269C34.266 25.3647 34.6592 25.2336 35.0607 25.1317V23.686L23.1184 18.9141V42.4096L35.0607 47.1815V40.9472C34.6613 40.8453 34.2681 40.7143 33.8833 40.552C32.9119 40.1443 32.0403 39.5556 31.2914 38.8067Z" fill="#30BC90"/>
<path d="M37.0573 28.2456C36.5934 28.2456 36.1441 28.3122 35.7197 28.4349V37.648C36.1441 37.7707 36.5934 37.8373 37.0573 37.8373C39.7012 37.8373 41.8542 35.6864 41.8542 33.0404C41.8521 30.3965 39.7012 28.2456 37.0573 28.2456Z" fill="#30BC90"/>
<path d="M40.2316 25.5286C41.2031 25.9384 42.0746 26.5271 42.8235 27.276C43.5724 28.0248 44.159 28.8964 44.5709 29.8679C44.9973 30.8747 45.2115 31.9418 45.2115 33.0422C45.2115 34.1426 44.9952 35.2097 44.5709 36.2166C44.4294 36.5515 44.2651 36.876 44.0799 37.188L47.662 40.77V18.9158L35.7197 23.6877V24.9961C36.1586 24.9233 36.6059 24.8879 37.0573 24.8879C38.1577 24.8879 39.2248 25.1043 40.2316 25.5286Z" fill="#30BC90"/>
<path d="M40.2316 40.5538C39.2248 40.9803 38.1577 41.1945 37.0573 41.1945C36.6059 41.1945 36.1586 41.1571 35.7197 41.0864V47.1834L44.575 43.645L41.0699 40.1399C40.7995 40.2959 40.5187 40.4332 40.2316 40.5538Z" fill="#30BC90"/>
<path d="M48.3068 42.3282L43.2582 37.2797C43.5391 36.8678 43.7804 36.4268 43.9759 35.9671C44.367 35.0414 44.5667 34.0575 44.5667 33.0444C44.5667 32.0314 44.3691 31.0475 43.9759 30.1218C43.5973 29.2273 43.0565 28.4244 42.3679 27.7358C41.6794 27.0473 40.8765 26.5044 39.982 26.1279C39.0563 25.7368 38.0724 25.5371 37.0593 25.5371C36.6017 25.5371 36.1503 25.5787 35.7051 25.6578C35.493 25.6973 35.285 25.7451 35.0769 25.8013C34.7753 25.8845 34.4778 25.9864 34.1845 26.1071C34.1679 26.1133 34.1513 26.1196 34.1367 26.1279C33.2422 26.5065 32.4393 27.0473 31.7507 27.7358C31.0622 28.4244 30.5193 29.2273 30.1428 30.1218C29.7517 31.0475 29.552 32.0314 29.552 33.0444C29.552 34.0575 29.7496 35.0414 30.1428 35.9671C30.5214 36.8616 31.0622 37.6645 31.7507 38.353C32.4393 39.0416 33.2422 39.5845 34.1367 39.961C34.1533 39.9673 34.1679 39.9735 34.1845 39.9797C34.4778 40.1004 34.7753 40.2023 35.0769 40.2855C35.285 40.3417 35.4951 40.3895 35.7051 40.4291C36.1482 40.5102 36.5996 40.5497 37.0593 40.5497C38.0724 40.5497 39.0563 40.3521 39.982 39.9589C40.3959 39.7842 40.7953 39.572 41.1698 39.3266L49.5757 47.7325L51.6455 45.6628L48.3068 42.3282ZM37.0573 38.482C36.5955 38.482 36.1482 38.4238 35.7197 38.3156C35.6115 38.2886 35.5034 38.2574 35.3973 38.222C35.2891 38.1866 35.1809 38.1492 35.0749 38.1076C34.17 37.7519 33.3816 37.1611 32.7887 36.4102C32.0544 35.4824 31.6176 34.3113 31.6176 33.0403C31.6176 31.7693 32.0565 30.5982 32.7887 29.6704C33.3837 28.9195 34.17 28.3287 35.0749 27.973C35.1809 27.9314 35.2891 27.8939 35.3973 27.8586C35.5034 27.8253 35.6115 27.7941 35.7197 27.7671C36.1482 27.6589 36.5955 27.6006 37.0573 27.6006C40.0569 27.6006 42.499 30.0407 42.499 33.0424C42.4969 36.042 40.0569 38.482 37.0573 38.482Z" fill="#30BC90"/>
<path d="M53.139 44.167L49.3468 40.3748V40.094V17.8778V16.925L48.4628 17.2787L36.5205 22.0506L36.429 22.088L36.3374 22.0506L24.3952 17.2787L24.1393 17.1767L23.8252 17.0519L23.5111 17.1767L23.2552 17.2787L11.3151 22.0485L10.9094 22.2108V22.6476V46.1431V47.0958L11.7935 46.7422L23.8273 41.9349L23.9188 41.9724L36.431 46.971L46.1122 43.104L50.1581 47.1499L50.6137 47.6055L51.0692 47.1499L53.139 45.0802L53.5945 44.6246L53.139 44.167ZM23.4965 41.3733L11.5543 46.1452V22.6476L23.4965 17.8757V41.3733ZM36.7597 22.6476L48.702 17.8757V39.73L45.1199 36.1479C45.3051 35.8359 45.4694 35.5093 45.6108 35.1765C46.0373 34.1697 46.2515 33.1025 46.2515 32.0021C46.2515 30.9017 46.0352 29.8346 45.6108 28.8278C45.201 27.8563 44.6124 26.9848 43.8635 26.2359C43.1146 25.487 42.243 24.9004 41.2716 24.4886C40.2648 24.0621 39.1977 23.8479 38.0973 23.8479C37.6459 23.8479 37.1986 23.8853 36.7597 23.956V22.6476ZM36.0982 46.1452L24.156 41.3733V17.8757L36.0982 22.6476V24.0933C35.6988 24.1952 35.3057 24.3263 34.9208 24.4886C33.9494 24.8983 33.0778 25.487 32.3289 26.2359C31.5801 26.9848 30.9935 27.8563 30.5816 28.8278C30.1552 29.8346 29.9409 30.9017 29.9409 32.0021C29.9409 33.1025 30.1572 34.1697 30.5816 35.1765C30.9914 36.1479 31.5801 37.0195 32.3289 37.7684C33.0778 38.5172 33.9494 39.1038 34.9208 39.5157C35.3036 39.678 35.6967 39.809 36.0982 39.9109V46.1452ZM36.7597 46.1452V40.0462C37.1986 40.119 37.6459 40.1543 38.0973 40.1543C39.1977 40.1543 40.2648 39.938 41.2716 39.5136C41.5587 39.393 41.8395 39.2536 42.1099 39.1018L45.615 42.6068L36.7597 46.1452ZM50.6137 46.6923L46.7633 42.8419L42.2077 38.2863C41.8332 38.5318 41.4339 38.744 41.0199 38.9187C40.0942 39.3098 39.1103 39.5095 38.0973 39.5095C37.6396 39.5095 37.1882 39.4679 36.7431 39.3888C36.5309 39.3493 36.3229 39.3015 36.1149 39.2453C35.8132 39.1621 35.5137 39.0602 35.2225 38.9395C35.2058 38.9333 35.1913 38.927 35.1746 38.9208C34.2801 38.5422 33.4772 38.0013 32.7887 37.3128C32.1001 36.6243 31.5572 35.8213 31.1807 34.9269C30.7896 34.0012 30.5899 33.0173 30.5899 32.0042C30.5899 30.9912 30.7875 30.0072 31.1807 29.0816C31.5593 28.1871 32.1001 27.3841 32.7887 26.6956C33.4772 26.0071 34.2801 25.4642 35.1746 25.0876C35.1913 25.0814 35.2079 25.0752 35.2225 25.0668C35.5158 24.9462 35.8132 24.8443 36.1149 24.7611C36.3229 24.7049 36.533 24.657 36.7431 24.6175C37.1861 24.5364 37.6375 24.4969 38.0973 24.4969C39.1103 24.4969 40.0942 24.6966 41.0199 25.0876C41.9144 25.4662 42.7173 26.0071 43.4059 26.6956C44.0944 27.3841 44.6373 28.1871 45.0138 29.0816C45.4049 30.0072 45.6046 30.9912 45.6046 32.0042C45.6046 33.0173 45.407 34.0012 45.0138 34.9269C44.8183 35.3886 44.5791 35.8296 44.2962 36.2394L49.3447 41.288L52.6813 44.6246L50.6137 46.6923Z" fill="#114232"/>
<path d="M38.0974 26.5605C37.6356 26.5605 37.1883 26.6188 36.7598 26.727C36.6516 26.754 36.5435 26.7852 36.4374 26.8185C36.3292 26.8539 36.221 26.8913 36.115 26.9329C35.2101 27.2886 34.4217 27.8794 33.8289 28.6303C33.0946 29.5581 32.6577 30.7292 32.6577 32.0002C32.6577 33.2712 33.0966 34.4423 33.8289 35.3701C34.4238 36.121 35.2101 36.7118 36.115 37.0675C36.221 37.1091 36.3292 37.1465 36.4374 37.1819C36.5435 37.2152 36.6516 37.2464 36.7598 37.2755C37.1883 37.3837 37.6356 37.4419 38.0974 37.4419C41.097 37.4419 43.5391 35.0019 43.5391 32.0002C43.537 29.0006 41.097 26.5605 38.0974 26.5605ZM36.7598 27.3947C37.1842 27.272 37.6335 27.2054 38.0974 27.2054C40.7413 27.2054 42.8942 29.3563 42.8942 32.0023C42.8942 34.6462 40.7433 36.7992 38.0974 36.7992C37.6335 36.7992 37.1842 36.7326 36.7598 36.6099V27.3947ZM36.115 27.6339V36.3686C34.4571 35.6135 33.3005 33.9389 33.3005 32.0023C33.3005 30.0636 34.4571 28.3911 36.115 27.6339Z" fill="#114232"/>
</svg>
