<svg width="64" height="65" viewBox="0 0 64 65" fill="none" xmlns="http://www.w3.org/2000/svg">
<path d="M55.317 4.65039H51.7505V8.21686H55.317V4.65039Z" fill="#30BC90"/>
<path d="M8.36292 5.19849L5.55566 10.062H11.1702L8.36292 5.19849Z" fill="#30BC90"/>
<path d="M57.833 58.8713C58.6005 58.1039 58.6005 56.8595 57.833 56.092C57.0655 55.3246 55.8212 55.3246 55.0537 56.092C54.2862 56.8595 54.2862 58.1039 55.0537 58.8713C55.8212 59.6388 57.0655 59.6388 57.833 58.8713Z" fill="#30BC90"/>
<path d="M5.08817 38.6562L3.89307 39.8513L4.34653 40.3048L5.54163 39.1097L5.08817 38.6562Z" fill="#114232"/>
<path d="M7.29276 36.4497L6.09766 37.6448L6.55112 38.0982L7.74622 36.9031L7.29276 36.4497Z" fill="#114232"/>
<path d="M6.5521 38.6552L6.09863 39.1086L7.29373 40.3037L7.7472 39.8503L6.5521 38.6552Z" fill="#114232"/>
<path d="M4.34556 36.4511L3.89209 36.9045L5.08719 38.0996L5.54065 37.6462L4.34556 36.4511Z" fill="#114232"/>
<path d="M57.449 29.3291L56.2524 30.5256L56.7059 30.9791L57.9025 29.7825L57.449 29.3291Z" fill="#114232"/>
<path d="M59.6548 27.124L58.4583 28.3206L58.9117 28.774L60.1083 27.5775L59.6548 27.124Z" fill="#114232"/>
<path d="M58.9112 29.3288L58.4578 29.7822L59.6543 30.9788L60.1078 30.5253L58.9112 29.3288Z" fill="#114232"/>
<path d="M56.7059 27.123L56.2524 27.5764L57.449 28.773L57.9025 28.3195L56.7059 27.123Z" fill="#114232"/>
<path d="M29.0821 5.51681L27.887 6.71191L28.3404 7.16538L29.5355 5.97028L29.0821 5.51681Z" fill="#114232"/>
<path d="M31.2874 3.31173L30.0923 4.50684L30.5458 4.9603L31.7409 3.7652L31.2874 3.31173Z" fill="#114232"/>
<path d="M30.5455 5.51553L30.092 5.96899L31.2871 7.16409L31.7406 6.71063L30.5455 5.51553Z" fill="#114232"/>
<path d="M28.3407 3.30996L27.8872 3.76343L29.0838 4.95999L29.5372 4.50653L28.3407 3.30996Z" fill="#114232"/>
<path d="M17.2775 56.8625H16.6362V61.0455H17.2775V56.8625Z" fill="#114232"/>
<path d="M19.0482 58.6335H14.8652V59.2748H19.0482V58.6335Z" fill="#114232"/>
<path d="M56.579 7.29615H53.0125C52.8346 7.29615 52.6919 7.15341 52.6919 6.9755V3.40903C52.6919 3.23112 52.8346 3.08838 53.0125 3.08838H56.579C56.7569 3.08838 56.8997 3.23112 56.8997 3.40903V6.9755C56.8997 7.15341 56.7569 7.29615 56.579 7.29615ZM53.3332 6.65485H56.2584V3.72968H53.3332V6.65485Z" fill="#114232"/>
<path d="M12.4327 9.14145H6.81821C6.70443 9.14145 6.59686 9.07939 6.541 8.98009C6.48308 8.88079 6.48308 8.75874 6.541 8.65944L9.34825 3.79588C9.40618 3.69658 9.51168 3.63452 9.62546 3.63452C9.73924 3.63452 9.84681 3.69658 9.90267 3.79588L12.712 8.65944C12.7699 8.75874 12.7699 8.88079 12.712 8.98009C12.6541 9.07939 12.5486 9.14145 12.4327 9.14145ZM7.3747 8.50015H11.8783L9.62546 4.59854L7.3747 8.50015Z" fill="#114232"/>
<path d="M57.7063 58.5279C56.4444 58.5279 55.4204 57.5018 55.4204 56.242C55.4204 54.9801 56.4465 53.9561 57.7063 53.9561C58.9683 53.9561 59.9923 54.9821 59.9923 56.242C59.9943 57.5018 58.9683 58.5279 57.7063 58.5279ZM57.7063 54.5953C56.7982 54.5953 56.0617 55.3338 56.0617 56.2399C56.0617 57.146 56.8002 57.8845 57.7063 57.8845C58.6124 57.8845 59.351 57.146 59.351 56.2399C59.351 55.3338 58.6145 54.5953 57.7063 54.5953Z" fill="#114232"/>
<path d="M26.049 50.7246H36.3844C36.583 50.7246 36.7423 50.5591 36.7423 50.3564V50.346C36.7423 50.1433 36.5809 49.9778 36.3844 49.9778H26.049C25.8505 49.9778 25.6912 50.1433 25.6912 50.346V50.3564C25.6912 50.5612 25.8505 50.7246 26.049 50.7246Z" fill="#30BC90"/>
<path d="M25.898 47.9216H36.5354C36.7381 47.9216 36.9036 47.7561 36.9036 47.5534V47.543C36.9036 47.3403 36.7381 47.1748 36.5354 47.1748H25.898C25.6953 47.1748 25.5298 47.3403 25.5298 47.543V47.5534C25.5298 47.7561 25.6953 47.9216 25.898 47.9216Z" fill="#30BC90"/>
<path d="M26.049 49.3242H36.3844C36.583 49.3242 36.7423 49.1587 36.7423 48.956V48.9456C36.7423 48.7429 36.5809 48.5774 36.3844 48.5774H26.049C25.8505 48.5774 25.6912 48.7429 25.6912 48.9456V48.956C25.6912 49.1587 25.8505 49.3242 26.049 49.3242Z" fill="#30BC90"/>
<path d="M25.985 51.8025C26.0057 51.9887 26.1505 52.1273 26.3242 52.1273H36.1093C36.2831 52.1273 36.4279 51.9887 36.4486 51.8025C36.4486 51.7984 36.4486 51.7963 36.4506 51.7922C36.4755 51.5729 36.3162 51.3784 36.1114 51.3784H26.3242C26.1194 51.3784 25.9602 51.5729 25.985 51.7922C25.985 51.7963 25.985 51.8004 25.985 51.8025Z" fill="#30BC90"/>
<path d="M28.5523 54.2767H33.8814C34.895 54.2767 35.7784 53.6726 36.2273 52.781H26.2043C26.6553 53.6726 27.5366 54.2767 28.5523 54.2767Z" fill="#30BC90"/>
<path d="M35.0934 31.9633C35.0128 31.9488 34.93 31.9426 34.8473 31.9426C34.1398 31.9426 33.5419 32.4495 33.4219 33.1487C33.2875 33.9348 33.8191 34.6857 34.6073 34.8181C34.688 34.8326 34.7707 34.8388 34.8535 34.8388C35.561 34.8388 36.1588 34.332 36.2788 33.6328C36.343 33.2521 36.2561 32.8673 36.0326 32.5529C35.8072 32.2364 35.4741 32.0274 35.0934 31.9633Z" fill="#30BC90"/>
<path d="M31.2168 12.0542C23.8522 12.0542 17.8818 18.0245 17.8818 25.3892C17.8818 28.6102 19.0238 31.5643 20.9249 33.8688C23.8646 37.4332 25.474 41.9058 25.5299 46.5211H36.9078C36.9637 41.9058 38.5732 37.4332 41.5128 33.8688C43.414 31.5643 44.5559 28.6102 44.5559 25.3892C44.5518 18.0245 38.5814 12.0542 31.2168 12.0542Z" fill="#30BC90"/>
<path d="M31.0125 26.7754C31.969 25.8189 31.969 24.268 31.0125 23.3115C30.056 22.355 28.5051 22.355 27.5486 23.3115C26.5921 24.268 26.5921 25.8189 27.5486 26.7754C28.5051 27.7319 30.056 27.7319 31.0125 26.7754Z" fill="#30BC90"/>
<path d="M32.3318 30.2175L32.5076 30.3024L32.7352 30.412L32.7083 30.1596L32.6897 29.99L32.6524 30.0148C32.549 30.0852 32.4414 30.1534 32.3318 30.2175Z" fill="#30BC90"/>
<path d="M34.1934 15.5129C33.126 15.1819 31.9799 15.002 30.7842 15.002C25.12 15.002 20.5295 19.0442 20.5295 24.0298C20.5295 25.3228 20.8378 26.5516 21.3943 27.6625C21.326 27.1991 21.2888 26.7275 21.2888 26.2475C21.2888 20.3082 26.7564 15.4943 33.5025 15.4943C33.7342 15.4943 33.9638 15.5005 34.1934 15.5129Z" fill="white"/>
<path d="M32.5242 27.7123L33.722 28.0536C33.8668 27.8405 33.9971 27.6171 34.1109 27.3833L33.2172 26.5186C33.3124 26.2662 33.3827 26.0035 33.4282 25.7325L34.6343 25.4305C34.6426 25.3022 34.6488 25.1739 34.6488 25.0436C34.6488 24.9133 34.6446 24.783 34.6343 24.6568L33.4282 24.3547C33.3827 24.0837 33.3124 23.821 33.2172 23.5686L34.1109 22.7039C33.9971 22.4701 33.8668 22.2467 33.722 22.0336L32.5242 22.375C32.3525 22.166 32.1601 21.9736 31.9491 21.7999L32.2904 20.6021C32.0773 20.4573 31.8539 20.3269 31.6202 20.2132L30.7554 21.1068C30.503 21.0117 30.2403 20.9413 29.9693 20.8958L29.6673 19.6898C29.539 19.6815 29.4108 19.6753 29.2804 19.6753C29.1501 19.6753 29.0198 19.6794 28.8936 19.6898L28.5915 20.8958C28.3205 20.9413 28.0578 21.0117 27.8054 21.1068L26.9407 20.2132C26.7069 20.3269 26.4835 20.4573 26.2704 20.6021L26.6118 21.7999C26.4028 21.9716 26.2105 22.164 26.0367 22.375L24.8389 22.0336C24.6941 22.2467 24.5638 22.4701 24.45 22.7039L25.3437 23.5686C25.2485 23.821 25.1782 24.0837 25.1327 24.3547L23.9266 24.6568C23.9183 24.785 23.9121 24.9133 23.9121 25.0436C23.9121 25.1739 23.9162 25.3043 23.9266 25.4305L25.1327 25.7325C25.1782 26.0035 25.2485 26.2662 25.3437 26.5186L24.45 27.3833C24.5638 27.6171 24.6941 27.8405 24.8389 28.0536L26.0367 27.7123C26.2084 27.9212 26.4008 28.1136 26.6118 28.2874L26.2704 29.4852C26.4835 29.63 26.7069 29.7603 26.9407 29.8741L27.8054 28.9804C28.0578 29.0755 28.3205 29.1459 28.5915 29.1914L28.8936 30.3975C29.0218 30.4057 29.1501 30.4119 29.2804 30.4119C29.4108 30.4119 29.5411 30.4078 29.6673 30.3975L29.9693 29.1914C30.2403 29.1459 30.503 29.0755 30.7554 28.9804L31.6202 29.8741C31.8539 29.7603 32.0773 29.63 32.2904 29.4852L31.9491 28.2874C32.1601 28.1136 32.3525 27.9212 32.5242 27.7123ZM29.2804 28.1322C27.5737 28.1322 26.1898 26.7482 26.1898 25.0415C26.1898 23.3349 27.5737 21.9509 29.2804 21.9509C30.9871 21.9509 32.3711 23.3349 32.3711 25.0415C32.3711 26.7482 30.9871 28.1322 29.2804 28.1322Z" fill="white"/>
<path d="M37.8033 35.4988L37.3047 34.8203C37.3958 34.6631 37.4723 34.4955 37.5344 34.3196L38.3722 34.2555C38.3929 34.1707 38.4115 34.0859 38.426 33.999C38.4405 33.9121 38.4529 33.8252 38.4612 33.7383L37.6916 33.4011C37.6916 33.215 37.675 33.0308 37.6399 32.8529L38.335 32.3771C38.2853 32.2096 38.2253 32.0441 38.1529 31.8868L37.3172 31.9799C37.2261 31.8206 37.1186 31.6696 36.9986 31.531L37.3627 30.7718C37.2365 30.6518 37.102 30.5401 36.9593 30.4367L36.2807 30.9352C36.1235 30.8442 35.9559 30.7677 35.7801 30.7056L35.716 29.8678C35.6311 29.8471 35.5463 29.8285 35.4594 29.814C35.3726 29.7995 35.2857 29.7871 35.1988 29.7788L34.8616 30.5484C34.8574 30.5484 34.8533 30.5484 34.8471 30.5484C34.6651 30.5484 34.4871 30.5649 34.3134 30.6001L33.8376 29.905C33.67 29.9546 33.5045 30.0146 33.3473 30.087L33.4404 30.9228C33.2811 31.0138 33.1301 31.1214 32.9915 31.2414L32.2322 30.8773C32.1123 31.0035 32.0005 31.138 31.8971 31.2807L32.3957 31.9592C32.3046 32.1165 32.2281 32.284 32.166 32.4599L31.3282 32.524C31.3075 32.6088 31.2889 32.6936 31.2744 32.7805C31.2599 32.8674 31.2475 32.9543 31.2393 33.0412L32.0088 33.3784C32.0088 33.5646 32.0254 33.7487 32.0605 33.9266L31.3654 34.4024C31.4151 34.57 31.4751 34.7355 31.5475 34.8927L32.3833 34.7996C32.4743 34.9589 32.5819 35.1099 32.7018 35.2485L32.3377 36.0077C32.4639 36.1277 32.5984 36.2394 32.7411 36.3429L33.4197 35.8443C33.5769 35.9353 33.7445 36.0119 33.9203 36.0739L33.9844 36.9118C34.0693 36.9324 34.1541 36.9511 34.241 36.9655C34.3279 36.98 34.4147 36.9924 34.5016 37.0007L34.8388 36.2311C34.843 36.2311 34.8471 36.2311 34.8533 36.2311C35.0354 36.2311 35.2133 36.2146 35.387 36.1794L35.8628 36.8745C36.0304 36.8249 36.1959 36.7649 36.3531 36.6925L36.26 35.8567C36.4193 35.7657 36.5703 35.6581 36.709 35.5381L37.4682 35.9022C37.5882 35.776 37.6999 35.6416 37.8033 35.4988ZM36.9096 33.7404C36.7358 34.7582 35.8525 35.4802 34.8533 35.4802C34.7375 35.4802 34.6195 35.4699 34.4996 35.4512C33.3618 35.2568 32.5963 34.179 32.7908 33.0412C32.9646 32.0234 33.8479 31.3014 34.8471 31.3014C34.963 31.3014 35.0809 31.3117 35.2009 31.3303C36.3366 31.5248 37.102 32.6026 36.9096 33.7404Z" fill="white"/>
<path d="M45.1287 18.9141C44.7791 18.0866 44.3446 17.286 43.8399 16.5392C43.3392 15.7986 42.7662 15.1035 42.1332 14.4705C41.5002 13.8374 40.8051 13.2644 40.0645 12.7638C39.3177 12.259 38.5191 11.8246 37.6896 11.475C35.9663 10.7468 34.1355 10.3765 32.2488 10.3765C30.3622 10.3765 28.5314 10.7468 26.8081 11.475C25.9806 11.8246 25.18 12.259 24.4332 12.7638C23.6926 13.2644 22.9975 13.8374 22.3645 14.4705C21.7315 15.1035 21.1584 15.7986 20.6578 16.5392C20.153 17.286 19.7186 18.0845 19.369 18.9141C18.6408 20.6373 18.2705 22.4681 18.2705 24.3548C18.2705 26.0056 18.556 27.6213 19.1187 29.1584C19.6628 30.6437 20.4489 32.0173 21.4605 33.242C24.2801 36.6616 25.8627 41.0121 25.9186 45.493C25.9206 45.6647 25.9889 45.8198 26.1006 45.9336C25.9868 46.097 25.9206 46.2956 25.9206 46.5087V46.5191C25.9206 46.8314 26.0634 47.1128 26.2868 47.2969C26.1585 47.4665 26.0799 47.6796 26.0799 47.9113V47.9216C26.0799 48.1906 26.1854 48.4367 26.3571 48.6167C26.1854 48.7988 26.0799 49.0429 26.0799 49.3118V49.3222C26.0799 49.6738 26.2578 49.9841 26.5288 50.1641C26.4047 50.3607 26.3509 50.5944 26.3778 50.8303V50.8323L26.3799 50.8406C26.4068 51.0785 26.5144 51.2895 26.6695 51.4467C26.5723 51.6309 26.5702 51.8501 26.6633 52.0363C27.2405 53.1762 28.3576 53.8837 29.5823 53.8837H34.9113C36.136 53.8837 37.2551 53.1762 37.8302 52.0363C37.9254 51.8501 37.9213 51.6309 37.824 51.4467C37.9813 51.2895 38.0868 51.0785 38.1137 50.8406L38.1157 50.8303V50.8282C38.1426 50.5924 38.0868 50.3586 37.9647 50.1621C38.2357 49.9821 38.4136 49.6718 38.4136 49.3201V49.3097C38.4136 49.0408 38.3081 48.7946 38.1364 48.6147C38.3081 48.4326 38.4136 48.1885 38.4136 47.9196V47.9092C38.4136 47.6796 38.3371 47.4665 38.2068 47.2948C38.4302 47.1086 38.5729 46.8294 38.5729 46.517V46.5066C38.5729 46.2936 38.5067 46.095 38.3929 45.9315C38.5046 45.8178 38.5729 45.6626 38.575 45.4909C38.6288 41.0101 40.2134 36.6595 43.0331 33.2399C44.0426 32.0153 44.8308 30.6416 45.3749 29.1563C45.9376 27.6192 46.223 26.0036 46.223 24.3527C46.2272 22.4681 45.8569 20.6373 45.1287 18.9141ZM34.9154 53.2424H29.5864C28.5727 53.2424 27.6894 52.6383 27.2405 51.7467H37.2634C36.8124 52.6383 35.9312 53.2424 34.9154 53.2424ZM37.4827 50.7579C37.4827 50.762 37.4827 50.7641 37.4806 50.7682C37.4599 50.9544 37.3151 51.093 37.1414 51.093H27.3584C27.1846 51.093 27.0398 50.9544 27.0191 50.7682C27.0191 50.7641 27.0191 50.762 27.0171 50.7579C26.9922 50.5386 27.1515 50.3441 27.3563 50.3441H37.1434C37.3482 50.3462 37.5075 50.5386 37.4827 50.7579ZM37.4186 49.6904H27.0832C26.8847 49.6904 26.7254 49.5249 26.7254 49.3222V49.3118C26.7254 49.1091 26.8867 48.9436 27.0832 48.9436H37.4186C37.6172 48.9436 37.7765 49.1091 37.7765 49.3118V49.3222C37.7765 49.527 37.6172 49.6904 37.4186 49.6904ZM37.7765 47.9196C37.7765 48.1223 37.6151 48.2878 37.4186 48.2878H27.0832C26.8847 48.2878 26.7254 48.1223 26.7254 47.9196V47.9092C26.7254 47.7065 26.8867 47.541 27.0832 47.541H37.4186C37.6172 47.541 37.7765 47.7065 37.7765 47.9092V47.9196ZM37.9378 46.5191C37.9378 46.7218 37.7723 46.8873 37.5696 46.8873H26.9322C26.7295 46.8873 26.564 46.7218 26.564 46.5191V46.5087C26.564 46.306 26.7295 46.1405 26.9322 46.1405H37.5696C37.7723 46.1405 37.9378 46.306 37.9378 46.5087V46.5191ZM37.9399 45.4847H26.5619C26.5061 40.8694 24.8966 36.3968 21.957 32.8324C20.0558 30.5279 18.9139 27.5737 18.9139 24.3527C18.9139 16.9881 24.8842 11.0178 32.2488 11.0178C39.6135 11.0178 45.5838 16.9881 45.5838 24.3527C45.5838 27.5737 44.4419 30.5279 42.5407 32.8324C39.6052 36.3989 37.9957 40.8694 37.9399 45.4847Z" fill="#114232"/>
<path d="M22.9647 25.2131C22.9647 19.6379 28.1551 15.1012 34.5371 15.1012C34.7543 15.1012 34.9757 15.1075 35.197 15.1178C35.2074 15.1178 35.2177 15.1178 35.228 15.1178C35.5383 15.1178 35.8052 14.8964 35.859 14.5882C35.9149 14.2696 35.7266 13.9593 35.4184 13.8642C34.264 13.5063 33.0538 13.3242 31.8188 13.3242C30.3583 13.3242 28.9391 13.5766 27.6027 14.0731C26.3077 14.5551 25.143 15.2461 24.1438 16.1273C23.1364 17.0127 22.3461 18.0471 21.7917 19.2014C21.2145 20.4013 20.9229 21.6777 20.9229 22.9934C20.9229 24.3567 21.2373 25.6765 21.8558 26.9136C21.9676 27.135 22.191 27.2674 22.4289 27.2674C22.493 27.2674 22.5571 27.257 22.6213 27.2384C22.9212 27.1433 23.1095 26.8433 23.0619 26.533C22.9978 26.0986 22.9647 25.6538 22.9647 25.2131ZM22.4289 26.6302C21.8724 25.5193 21.5642 24.2884 21.5642 22.9975C21.5642 18.0119 26.1546 13.9697 31.8188 13.9697C33.0145 13.9697 34.1606 14.1496 35.228 14.4806C34.9984 14.4703 34.7688 14.4641 34.5371 14.4641C27.791 14.4641 22.3234 19.278 22.3234 25.2173C22.3234 25.6931 22.3585 26.1668 22.4289 26.6302Z" fill="#114232"/>
<path d="M33.4052 24.0091C33.4052 22.3024 32.0212 20.9185 30.3145 20.9185C28.6079 20.9185 27.2239 22.3024 27.2239 24.0091C27.2239 25.7158 28.6079 27.0998 30.3145 27.0998C32.0212 27.0998 33.4052 25.7137 33.4052 24.0091ZM27.8652 24.0091C27.8652 22.6583 28.9637 21.5598 30.3145 21.5598C31.6654 21.5598 32.7639 22.6583 32.7639 24.0091C32.7639 25.36 31.6654 26.4585 30.3145 26.4585C28.9637 26.4564 27.8652 25.3579 27.8652 24.0091Z" fill="#114232"/>
<path d="M39.5222 32.0151L39.7311 31.8724L40.1138 31.6096L39.9835 31.1628C39.9256 30.9663 39.8532 30.7718 39.7684 30.5856L39.576 30.1636L39.1146 30.2153L38.8623 30.2422L38.9719 30.0146L39.1726 29.5968L38.8374 29.2761C38.6885 29.1334 38.5292 29.001 38.3637 28.8831L37.9851 28.6121L37.6107 28.8872L37.4059 29.0382L37.3873 28.7858L37.3521 28.3224L36.9011 28.2128C36.8018 28.188 36.7004 28.1673 36.5991 28.1507C36.4977 28.1342 36.3963 28.1197 36.2929 28.1094L35.8295 28.0638L35.6433 28.49L35.542 28.7217L35.3992 28.5128L35.1365 28.13L34.6897 28.2604C34.4931 28.3183 34.2987 28.3907 34.1125 28.4755L34.0111 28.521L33.9408 28.2769L33.7091 27.4639C33.7277 27.4453 33.7463 27.4267 33.7649 27.4081L34.5779 27.6398L35.0248 27.768L35.2854 27.3853C35.4468 27.1453 35.5937 26.8929 35.7199 26.6344L35.9226 26.2165L35.5895 25.8938L34.9834 25.3062C34.9896 25.2814 34.9979 25.2545 35.0041 25.2276L35.8233 25.0228L36.2743 24.909L36.3074 24.4457C36.3177 24.3008 36.3239 24.156 36.3239 24.0133C36.3239 23.8705 36.3177 23.7237 36.3074 23.5809L36.2743 23.1175L35.8233 23.0038L35.0041 22.799C34.9979 22.7721 34.9896 22.7472 34.9834 22.7203L35.5895 22.1328L35.9226 21.8101L35.7199 21.3922C35.5937 21.1336 35.4468 20.8792 35.2854 20.6413L35.0248 20.2586L34.5779 20.3868L33.7649 20.6185C33.7463 20.5999 33.7277 20.5813 33.7091 20.5627L33.9408 19.7497L34.069 19.3028L33.6863 19.0422C33.4464 18.8808 33.194 18.7339 32.9354 18.6077L32.5175 18.405L32.1948 18.7381L31.6073 19.3442C31.5824 19.338 31.5555 19.3297 31.5287 19.3235L31.3238 18.5043L31.2101 18.0533L30.7467 18.0202C30.6019 18.0099 30.4571 18.0037 30.3143 18.0037C30.1716 18.0037 30.0247 18.0099 29.882 18.0202L29.4186 18.0533L29.3048 18.5043L29.1 19.3235C29.0731 19.3297 29.0483 19.338 29.0214 19.3442L28.4338 18.7381L28.1111 18.405L27.6932 18.6077C27.4347 18.7339 27.1802 18.8808 26.9423 19.0422L26.5596 19.3028L26.6879 19.7497L26.9195 20.5627C26.9009 20.5813 26.8823 20.5999 26.8637 20.6185L26.0507 20.3868L25.6038 20.2586L25.3432 20.6413C25.1818 20.8813 25.0349 21.1336 24.9088 21.3922L24.706 21.8101L25.0391 22.1328L25.6452 22.7203C25.639 22.7452 25.6307 22.7721 25.6245 22.799L24.8053 23.0038L24.3543 23.1175L24.3212 23.5809C24.3109 23.7257 24.3047 23.8705 24.3047 24.0133C24.3047 24.156 24.3109 24.3029 24.3212 24.4457L24.3543 24.909L24.8053 25.0228L25.6245 25.2276C25.6307 25.2545 25.639 25.2793 25.6452 25.3062L25.0391 25.8938L24.706 26.2165L24.9088 26.6344C25.0349 26.8929 25.1818 27.1474 25.3432 27.3853L25.6038 27.768L26.0507 27.6398L26.8637 27.4081C26.8823 27.4267 26.9009 27.4453 26.9195 27.4639L26.6879 28.2769L26.5596 28.7238L26.9423 28.9844C27.1823 29.1458 27.4347 29.2927 27.6932 29.4189L28.1111 29.6216L28.4338 29.2885L29.0214 28.6824C29.0483 28.6886 29.0731 28.6969 29.1 28.7031L29.3048 29.5223L29.4186 29.9733L29.882 30.0064C30.0268 30.0167 30.1716 30.0229 30.3143 30.0229C30.4571 30.0229 30.6039 30.0167 30.7467 30.0064L31.2101 29.9733L31.3238 29.5223L31.5287 28.7031C31.5555 28.6969 31.5804 28.6886 31.6073 28.6824L32.1948 29.2885L32.5175 29.6216L32.6747 29.545C32.5816 29.6526 32.4927 29.7643 32.4099 29.8781L32.1389 30.2567L32.4141 30.6311L32.5651 30.8359L32.3127 30.8545L31.8493 30.8897L31.7397 31.3407C31.7148 31.44 31.6942 31.5414 31.6776 31.6427C31.6611 31.7441 31.6466 31.8455 31.6362 31.9489L31.5907 32.4123L32.0169 32.5985L32.2486 32.6998L32.0396 32.8426L31.6569 33.1053L31.7872 33.5522C31.8452 33.7487 31.9176 33.9431 32.0024 34.1293L32.1948 34.5513L32.6561 34.4996L32.9085 34.4727L32.7988 34.7003L32.5982 35.1182L32.9333 35.4388C33.0823 35.5816 33.2416 35.714 33.4071 35.8319L33.7856 36.1029L34.1601 35.8277L34.3649 35.6767L34.3835 35.9291L34.4187 36.3925L34.8696 36.5021C34.9689 36.527 35.0703 36.5477 35.1717 36.5642C35.271 36.5808 35.3744 36.5952 35.4778 36.6056L35.9412 36.6511L36.1274 36.2249L36.2288 35.9932L36.3715 36.2022L36.6343 36.5849L37.0811 36.4546C37.2776 36.3966 37.4721 36.3242 37.6583 36.2394L38.0803 36.047L38.0286 35.5857L38.0017 35.3333L38.2292 35.443L38.6471 35.6436L38.9678 35.3085C39.1105 35.1595 39.2429 35.0003 39.3608 34.8348L39.6318 34.4562L39.3567 34.0817L39.2057 33.8769L39.4581 33.8583L39.9214 33.8232L40.0311 33.3722C40.0559 33.2729 40.0766 33.1715 40.0931 33.0701C40.1097 32.9688 40.1242 32.8674 40.1345 32.764L40.18 32.3006L39.7539 32.1144L39.5222 32.0151ZM39.4601 32.9646C39.4456 33.0515 39.427 33.1363 39.4063 33.2212L38.5685 33.2853C38.5085 33.4611 38.4299 33.6287 38.3389 33.7859L38.8374 34.4645C38.7361 34.6072 38.6244 34.7417 38.5023 34.8679L37.7431 34.5038C37.6045 34.6237 37.4535 34.7313 37.2942 34.8223L37.3873 35.6581C37.228 35.7305 37.0645 35.7926 36.897 35.8402L36.4212 35.1451C36.2474 35.1782 36.0695 35.1968 35.8874 35.1968C35.8833 35.1968 35.8792 35.1968 35.873 35.1968L35.5358 35.9663C35.4489 35.9581 35.362 35.9457 35.2751 35.9312C35.1882 35.9167 35.1034 35.8981 35.0186 35.8774L34.9545 35.0396C34.7786 34.9796 34.611 34.901 34.4538 34.8099L33.7753 35.3085C33.6325 35.2071 33.4981 35.0954 33.3719 34.9734L33.736 34.2141C33.616 34.0755 33.5084 33.9245 33.4174 33.7652L32.5816 33.8583C32.5092 33.699 32.4472 33.5356 32.3996 33.368L33.0947 32.8922C33.0595 32.7143 33.043 32.5302 33.043 32.344L32.2734 32.0068C32.2817 31.9199 32.2941 31.833 32.3086 31.7462C32.323 31.6593 32.3417 31.5745 32.3623 31.4896L33.2002 31.4255C33.2602 31.2497 33.3388 31.0821 33.4298 30.9249L32.9312 30.2463C33.0326 30.1036 33.1443 29.9691 33.2664 29.8429L34.0256 30.207C34.1642 30.087 34.3152 29.9795 34.4745 29.8885L34.3814 29.0527C34.5407 28.9803 34.7041 28.9182 34.8717 28.8706L35.3475 29.5657C35.5213 29.5326 35.6992 29.514 35.8812 29.514C35.8854 29.514 35.8895 29.514 35.8957 29.514L36.2329 28.7445C36.3198 28.7527 36.4067 28.7651 36.4936 28.7796C36.5805 28.7941 36.6653 28.8127 36.7501 28.8334L36.8142 29.6712C36.9901 29.7312 37.1576 29.8098 37.3149 29.9009L37.9934 29.4023C38.1361 29.5037 38.2706 29.6154 38.3968 29.7374L38.0327 30.4967C38.1527 30.6353 38.2603 30.7863 38.3513 30.9456L39.1871 30.8525C39.2595 31.0118 39.3215 31.1752 39.3691 31.3428L38.674 31.8186C38.7092 31.9965 38.7257 32.1806 38.7257 32.3668L39.4953 32.704C39.487 32.7909 39.4746 32.8778 39.4601 32.9646ZM30.3143 29.3733C30.184 29.3733 30.0537 29.3692 29.9275 29.3589L29.6254 28.1528C29.3544 28.1073 29.0917 28.0369 28.8393 27.9418L27.9746 28.8355C27.7408 28.7217 27.5174 28.5914 27.3043 28.4466L27.6457 27.2488C27.4367 27.0771 27.2443 26.8847 27.0706 26.6737L25.8728 27.015C25.728 26.8019 25.5976 26.5785 25.4839 26.3447L26.3775 25.48C26.2824 25.2276 26.212 24.9649 26.1665 24.6939L24.9605 24.3919C24.9522 24.2636 24.946 24.1353 24.946 24.005C24.946 23.8747 24.9501 23.7444 24.9605 23.6182L26.1665 23.3161C26.212 23.0451 26.2824 22.7824 26.3775 22.53L25.4839 21.6653C25.5976 21.4315 25.728 21.2081 25.8728 20.995L27.0706 21.3364C27.2423 21.1274 27.4347 20.935 27.6457 20.7613L27.3043 19.5635C27.5174 19.4187 27.7408 19.2883 27.9746 19.1746L28.8393 20.0682C29.0917 19.9731 29.3544 19.9027 29.6254 19.8572L29.9275 18.6512C30.0557 18.6429 30.184 18.6367 30.3143 18.6367C30.4446 18.6367 30.575 18.6408 30.7012 18.6512L31.0032 19.8572C31.2742 19.9027 31.5369 19.9731 31.7893 20.0682L32.654 19.1746C32.8878 19.2883 33.1112 19.4187 33.3243 19.5635L32.983 20.7613C33.1919 20.933 33.3843 21.1254 33.5581 21.3364L34.7559 20.995C34.9007 21.2081 35.031 21.4315 35.1448 21.6653L34.2511 22.53C34.3462 22.7824 34.4166 23.0451 34.4621 23.3161L35.6682 23.6182C35.6764 23.7464 35.6826 23.8747 35.6826 24.005C35.6826 24.1353 35.6785 24.2657 35.6682 24.3919L34.4621 24.6939C34.4166 24.9649 34.3462 25.2276 34.2511 25.48L35.1448 26.3447C35.031 26.5785 34.9007 26.8019 34.7559 27.015L33.5581 26.6737C33.3864 26.8826 33.194 27.075 32.983 27.2488L33.3243 28.4466C33.1112 28.5914 32.8878 28.7217 32.654 28.8355L31.7893 27.9418C31.5369 28.0369 31.2742 28.1073 31.0032 28.1528L30.7012 29.3589C30.5729 29.3692 30.4446 29.3733 30.3143 29.3733ZM33.6863 28.9803L33.7236 28.9555L33.7422 29.1251L33.7691 29.3775L33.5415 29.2678L33.3657 29.183C33.4753 29.1189 33.5829 29.0506 33.6863 28.9803Z" fill="#114232"/>
<path d="M36.2357 30.2961C36.1177 30.2754 35.9998 30.2671 35.8819 30.2671C34.8827 30.2671 33.9973 30.987 33.8256 32.0069C33.6311 33.1447 34.3966 34.2225 35.5344 34.4169C35.6523 34.4376 35.7702 34.4459 35.8881 34.4459C36.8873 34.4459 37.7727 33.726 37.9444 32.7061C38.1368 31.5683 37.3714 30.4905 36.2357 30.2961ZM37.3114 32.5985C37.1935 33.2978 36.5935 33.8046 35.886 33.8046C35.8054 33.8046 35.7226 33.7984 35.6399 33.7839C34.8538 33.6494 34.3221 32.9006 34.4545 32.1145C34.5724 31.4152 35.1723 30.9084 35.8798 30.9084C35.9605 30.9084 36.0433 30.9146 36.126 30.9291C36.5067 30.9932 36.8397 31.2042 37.0652 31.5187C37.2886 31.8331 37.3755 32.2179 37.3114 32.5985Z" fill="#114232"/>
</svg>
