<svg width="64" height="65" viewBox="0 0 64 65" fill="none" xmlns="http://www.w3.org/2000/svg">
<path d="M55.0329 4.64575H51.5029V8.17569H55.0329V4.64575Z" fill="#30BC90"/>
<path d="M8.55999 5.18848L5.78149 10.0022H11.3385L8.55999 5.18848Z" fill="#30BC90"/>
<path d="M57.523 58.3112C58.2826 57.5516 58.2826 56.32 57.523 55.5604C56.7634 54.8008 55.5318 54.8008 54.7721 55.5604C54.0125 56.32 54.0125 57.5516 54.7721 58.3112C55.5318 59.0708 56.7634 59.0708 57.523 58.3112Z" fill="#30BC90"/>
<path d="M5.3186 38.3035L4.13574 39.4863L4.58456 39.9351L5.76742 38.7523L5.3186 38.3035Z" fill="#114232"/>
<path d="M7.50024 36.1196L6.31738 37.3025L6.7662 37.7513L7.94906 36.5685L7.50024 36.1196Z" fill="#114232"/>
<path d="M6.76742 38.3026L6.3186 38.7515L7.50146 39.9343L7.95028 39.4855L6.76742 38.3026Z" fill="#114232"/>
<path d="M4.58334 36.1205L4.13452 36.5693L5.31738 37.7522L5.7662 37.3034L4.58334 36.1205Z" fill="#114232"/>
<path d="M57.1428 29.072L55.9585 30.2563L56.4073 30.7052L57.5916 29.5209L57.1428 29.072Z" fill="#114232"/>
<path d="M59.3259 26.8894L58.1416 28.0737L58.5904 28.5226L59.7747 27.3382L59.3259 26.8894Z" fill="#114232"/>
<path d="M58.5899 29.0717L58.1411 29.5205L59.3254 30.7048L59.7742 30.256L58.5899 29.0717Z" fill="#114232"/>
<path d="M56.4076 26.8886L55.9587 27.3374L57.143 28.5217L57.5919 28.0729L56.4076 26.8886Z" fill="#114232"/>
<path d="M29.0659 5.50367L27.8831 6.68652L28.3319 7.13534L29.5147 5.95249L29.0659 5.50367Z" fill="#114232"/>
<path d="M31.2488 3.32105L30.0659 4.50391L30.5147 4.95273L31.6976 3.76987L31.2488 3.32105Z" fill="#114232"/>
<path d="M30.5145 5.50235L30.0657 5.95117L31.2485 7.13403L31.6974 6.68521L30.5145 5.50235Z" fill="#114232"/>
<path d="M28.3321 3.319L27.8833 3.76782L29.0676 4.95213L29.5164 4.50331L28.3321 3.319Z" fill="#114232"/>
<path d="M17.3828 56.3232H16.748V60.4633H17.3828V56.3232Z" fill="#114232"/>
<path d="M19.1357 58.0762H14.9956V58.7109H19.1357V58.0762Z" fill="#114232"/>
<path d="M56.2816 7.26477H52.7517C52.5756 7.26477 52.4343 7.12349 52.4343 6.9474V3.41746C52.4343 3.24138 52.5756 3.1001 52.7517 3.1001H56.2816C56.4577 3.1001 56.599 3.24138 56.599 3.41746V6.9474C56.599 7.12349 56.4577 7.26477 56.2816 7.26477ZM53.0691 6.63004H55.9643V3.73483H53.0691V6.63004Z" fill="#114232"/>
<path d="M12.5875 9.0909H7.0305C6.91789 9.0909 6.81142 9.02947 6.75613 8.93119C6.6988 8.83291 6.6988 8.71211 6.75613 8.61383L9.53463 3.80009C9.59196 3.70181 9.69638 3.64038 9.809 3.64038C9.92161 3.64038 10.0281 3.70181 10.0834 3.80009L12.8639 8.61383C12.9212 8.71211 12.9212 8.83291 12.8639 8.93119C12.8066 9.02947 12.7022 9.0909 12.5875 9.0909ZM7.58129 8.45617H12.0388L9.809 4.59453L7.58129 8.45617Z" fill="#114232"/>
<path d="M57.3978 57.9718C56.1488 57.9718 55.1353 56.9562 55.1353 55.7093C55.1353 54.4603 56.1508 53.4468 57.3978 53.4468C58.6468 53.4468 59.6603 54.4624 59.6603 55.7093C59.6623 56.9562 58.6468 57.9718 57.3978 57.9718ZM57.3978 54.0795C56.4989 54.0795 55.77 54.8104 55.77 55.7072C55.77 56.6041 56.501 57.335 57.3978 57.335C58.2946 57.335 59.0256 56.6041 59.0256 55.7072C59.0256 54.8104 58.2966 54.0795 57.3978 54.0795Z" fill="#114232"/>
<path d="M31.5948 46.1696V40.0352H30.7615V46.1696C30.8987 46.1552 31.0379 46.147 31.1771 46.147C31.3164 46.147 31.4576 46.1552 31.5948 46.1696Z" fill="#30BC90"/>
<path d="M30.7634 19.5676V22.8826C30.8924 22.8273 31.0214 22.7761 31.1545 22.7311C31.2999 22.6799 31.4473 22.6369 31.5968 22.598V19.5676C31.4596 19.582 31.3204 19.5901 31.1811 19.5901C31.0419 19.5901 30.9006 19.582 30.7634 19.5676Z" fill="#30BC90"/>
<path d="M42.2769 32.4526C42.4857 32.7106 42.6679 32.9891 42.8174 33.286H44.48C44.4657 33.1488 44.4575 33.0096 44.4575 32.8703C44.4575 32.7311 44.4657 32.5919 44.48 32.4547H42.2769V32.4526Z" fill="#30BC90"/>
<path d="M19.5387 33.2843C19.6882 32.9894 19.8684 32.711 20.0793 32.4509H17.8782C17.8925 32.5881 17.9007 32.7273 17.9007 32.8666C17.9007 33.0058 17.8925 33.145 17.8782 33.2822H19.5387V33.2843Z" fill="#30BC90"/>
<path d="M21.7893 23.4784C21.691 23.5766 21.5865 23.6708 21.478 23.7568L24.1726 26.4514C24.3917 26.304 24.623 26.1791 24.8667 26.0746C24.8913 26.0644 24.9179 26.0542 24.9424 26.0439L22.0677 23.1692C21.9817 23.2757 21.8896 23.3801 21.7893 23.4784Z" fill="#30BC90"/>
<path d="M40.5688 42.2586C40.6671 42.1603 40.7715 42.0661 40.88 41.9801L38.9288 40.0288C38.8428 40.0329 38.7568 40.037 38.6687 40.037H37.7576L40.2904 42.5698C40.3764 42.4613 40.4685 42.3568 40.5688 42.2586Z" fill="#30BC90"/>
<path d="M40.8783 23.7572C40.7697 23.6712 40.6674 23.577 40.567 23.4787C40.4667 23.3804 40.3746 23.276 40.2886 23.1675L38.0752 25.3809C38.2185 25.6409 38.3434 25.9112 38.4438 26.1896L40.8783 23.7572Z" fill="#30BC90"/>
<path d="M23.4313 40.0288L21.48 41.9801C21.5885 42.0661 21.6909 42.1603 21.7912 42.2586C21.8895 42.3568 21.9837 42.4613 22.0697 42.5698L24.6025 40.037H23.6913C23.6033 40.035 23.5173 40.0329 23.4313 40.0288Z" fill="#30BC90"/>
<path d="M30.1287 18.7814C30.2331 18.8162 30.3376 18.8469 30.4461 18.8715C30.5505 18.896 30.6549 18.9145 30.7634 18.9288C30.9006 18.9472 31.0399 18.9554 31.1791 18.9554C31.3183 18.9554 31.4596 18.9472 31.5947 18.9288C31.7033 18.9145 31.8077 18.896 31.9121 18.8715C32.0206 18.8469 32.1251 18.8162 32.2295 18.7814C33.5112 18.3432 34.4347 17.129 34.4347 15.6978C34.4347 13.9001 32.9768 12.4402 31.177 12.4402C29.3773 12.4402 27.9194 13.898 27.9194 15.6978C27.9215 17.129 28.8449 18.3432 30.1287 18.7814Z" fill="#30BC90"/>
<path d="M32.2293 46.9553C32.1249 46.9205 32.0204 46.8898 31.9119 46.8652C31.8075 46.8406 31.7031 46.8222 31.5946 46.8079C31.4574 46.7894 31.3181 46.7812 31.1789 46.7812C31.0397 46.7812 30.8984 46.7894 30.7633 46.8079C30.6547 46.8222 30.5503 46.8406 30.4459 46.8652C30.3374 46.8898 30.233 46.9205 30.1285 46.9553C28.8468 47.3935 27.9233 48.6076 27.9233 50.0389C27.9233 51.8366 29.3812 53.2965 31.181 53.2965C32.9807 53.2965 34.4386 51.8386 34.4386 50.0389C34.4365 48.6076 33.5131 47.3935 32.2293 46.9553Z" fill="#30BC90"/>
<path d="M48.3497 29.6108C46.9184 29.6108 45.7043 30.5343 45.2661 31.816C45.2313 31.9205 45.2006 32.0249 45.176 32.1334C45.1514 32.2378 45.133 32.3422 45.1187 32.4508C45.1002 32.5879 45.092 32.7272 45.092 32.8664C45.092 33.0056 45.1002 33.1469 45.1187 33.2821C45.133 33.3906 45.1514 33.495 45.176 33.5994C45.2006 33.7079 45.2313 33.8124 45.2661 33.9168C45.7043 35.1985 46.9184 36.122 48.3497 36.122C50.1474 36.122 51.6073 34.6641 51.6073 32.8644C51.6073 31.0646 50.1474 29.6108 48.3497 29.6108Z" fill="#30BC90"/>
<path d="M17.0922 33.919C17.127 33.8146 17.1577 33.7101 17.1823 33.6016C17.2068 33.4972 17.2253 33.3928 17.2396 33.2843C17.258 33.1471 17.2662 33.0078 17.2662 32.8686C17.2662 32.7294 17.258 32.5881 17.2396 32.453C17.2253 32.3444 17.2068 32.24 17.1823 32.1356C17.1577 32.0271 17.127 31.9226 17.0922 31.8182C16.654 30.5365 15.4398 29.613 14.0086 29.613C12.2109 29.613 10.751 31.0709 10.751 32.8707C10.751 34.6704 12.2088 36.1283 14.0086 36.1283C15.4398 36.1262 16.654 35.2028 17.0922 33.919Z" fill="#30BC90"/>
<path d="M19.0374 23.9841C19.5308 23.9841 20.0222 23.8736 20.4747 23.6504C20.573 23.6012 20.6693 23.548 20.7634 23.4907C20.8535 23.4333 20.9416 23.3719 21.0276 23.3064C21.1361 23.2225 21.2405 23.1303 21.3408 23.03C21.4412 22.9297 21.5333 22.8252 21.6173 22.7167C21.6828 22.6307 21.7442 22.5427 21.8015 22.4526C21.8609 22.3584 21.9142 22.2622 21.9612 22.1639C22.5591 20.9476 22.3523 19.4366 21.3408 18.4251C20.7041 17.7883 19.8707 17.4709 19.0374 17.4709C18.204 17.4709 17.3707 17.7883 16.7339 18.4251C15.4624 19.6966 15.4624 21.7585 16.7339 23.03C17.3707 23.6668 18.204 23.9841 19.0374 23.9841Z" fill="#30BC90"/>
<path d="M38.6691 39.4001C38.6958 39.4001 38.7224 39.4001 38.749 39.4001C38.8903 39.3981 39.0295 39.3879 39.1687 39.3694C41.1507 39.1237 42.6864 37.4325 42.6864 35.3849C42.6864 34.869 42.5881 34.3735 42.41 33.921C42.367 33.8124 42.3199 33.706 42.2687 33.6036C42.2155 33.4951 42.1561 33.3886 42.0926 33.2862C41.9042 32.9791 41.6749 32.6986 41.4128 32.4529C41.292 32.3403 41.163 32.2338 41.0279 32.1355C40.8866 32.0331 40.7392 31.9389 40.5856 31.857C40.5959 31.8448 40.604 31.8325 40.6143 31.8181C40.9378 31.3841 41.1282 30.8476 41.1282 30.2641C41.1282 28.8247 39.9611 27.6596 38.5238 27.6596C38.3927 27.6596 38.2637 27.6699 38.1368 27.6883C38.1286 27.6023 38.1184 27.5142 38.1061 27.4303C38.0876 27.3013 38.0651 27.1764 38.0364 27.0515C38.0098 26.9307 37.9791 26.8119 37.9443 26.6952C37.8563 26.4024 37.7437 26.1219 37.6085 25.8537C37.5594 25.7554 37.5061 25.6592 37.4488 25.5629C37.3935 25.4688 37.3341 25.3787 37.2748 25.2886C36.3534 23.9372 34.8014 23.0486 33.0425 23.0486C32.7661 23.0486 32.4958 23.0711 32.2317 23.1121C32.1252 23.1284 32.0188 23.1489 31.9143 23.1735C31.8079 23.1981 31.7014 23.2247 31.597 23.2554C31.3083 23.3393 31.0298 23.4499 30.7636 23.583C30.6551 23.6362 30.5507 23.6936 30.4463 23.755C30.3377 23.8185 30.2313 23.886 30.1289 23.9577C29.1584 24.6313 28.4315 25.6305 28.108 26.7976C27.6186 26.5355 27.0617 26.3861 26.4679 26.3861C26.3758 26.3861 26.2857 26.3901 26.1956 26.3963C26.0625 26.4065 25.9294 26.425 25.8004 26.4495C25.6776 26.4741 25.5588 26.5028 25.4421 26.5396C25.1555 26.6277 24.8831 26.7526 24.6333 26.9102C24.5412 26.9676 24.4532 27.029 24.3672 27.0925C24.2832 27.1559 24.2013 27.2255 24.1235 27.2972C23.4294 27.9319 22.9953 28.8451 22.9953 29.8587C22.9953 30.4054 23.1223 30.9213 23.3475 31.382C22.811 31.4271 22.3032 31.5786 21.8487 31.8161C21.6685 31.9082 21.4965 32.0147 21.3348 32.1335C21.1996 32.2317 21.0727 32.3382 20.9498 32.4508C20.6877 32.6965 20.4584 32.977 20.2701 33.2842C20.2066 33.3866 20.1472 33.493 20.094 33.6015C20.0428 33.7039 19.9957 33.8104 19.9527 33.9189C19.7746 34.3735 19.6763 34.8669 19.6763 35.3829C19.6763 37.4325 21.2099 39.1217 23.1939 39.3674C23.3311 39.3838 23.4703 39.394 23.6137 39.3981C23.6403 39.3981 23.6669 39.3981 23.6935 39.3981H24.0621H25.2394H25.6878H26.1362H30.1309H30.4483H30.7657H31.599H31.9164H32.2338H36.2285H36.6769H37.1253H38.3026H38.6691V39.4001Z" fill="#30BC90"/>
<path d="M43.321 41.7527C42.8275 41.7527 42.3361 41.8633 41.8836 42.0864C41.7854 42.1356 41.6891 42.1888 41.5949 42.2461C41.5048 42.3035 41.4168 42.3649 41.3308 42.4304C41.2223 42.5144 41.1179 42.6065 41.0175 42.7068C40.9172 42.8072 40.8251 42.9116 40.7411 43.0201C40.6756 43.1061 40.6142 43.1941 40.5568 43.2842C40.4975 43.3784 40.4442 43.4747 40.3971 43.5729C39.7993 44.7892 40.0061 46.3002 41.0175 47.3117C41.6543 47.9485 42.4877 48.2659 43.321 48.2659C44.1543 48.2659 44.9877 47.9485 45.6245 47.3117C46.896 46.0402 46.896 43.9783 45.6245 42.7068C44.9877 42.0701 44.1543 41.7527 43.321 41.7527Z" fill="#30BC90"/>
<path d="M40.5568 22.4526C40.6142 22.5427 40.6756 22.6307 40.7411 22.7167C40.8251 22.8252 40.9172 22.9297 41.0175 23.03C41.1179 23.1303 41.2223 23.2225 41.3308 23.3064C41.4168 23.3719 41.5048 23.4333 41.5949 23.4907C41.6891 23.5501 41.7854 23.6033 41.8836 23.6504C42.3361 23.8715 42.8275 23.9841 43.321 23.9841C44.1543 23.9841 44.9877 23.6668 45.6245 23.03C46.896 21.7585 46.896 19.6966 45.6245 18.4251C44.9877 17.7883 44.1543 17.4709 43.321 17.4709C42.4877 17.4709 41.6543 17.7883 41.0175 18.4251C40.0061 19.4366 39.7993 20.9476 40.3971 22.1639C40.4442 22.2622 40.4995 22.3584 40.5568 22.4526Z" fill="#30BC90"/>
<path d="M21.8015 43.2842C21.7442 43.1941 21.6828 43.1061 21.6173 43.0201C21.5333 42.9116 21.4412 42.8072 21.3408 42.7068C21.2405 42.6065 21.1361 42.5144 21.0276 42.4304C20.9416 42.3649 20.8535 42.3035 20.7634 42.2461C20.6693 42.1868 20.573 42.1335 20.4747 42.0864C20.0222 41.8653 19.5308 41.7527 19.0374 41.7527C18.204 41.7527 17.3707 42.0701 16.7339 42.7068C15.4624 43.9783 15.4624 46.0402 16.7339 47.3117C17.3707 47.9485 18.204 48.2659 19.0374 48.2659C19.8707 48.2659 20.7041 47.9485 21.3408 47.3117C22.3523 46.3002 22.5591 44.7892 21.9612 43.5729C21.9142 43.4747 21.8589 43.3784 21.8015 43.2842Z" fill="#30BC90"/>
<path d="M52.9586 30.33C52.7621 29.8673 52.4816 29.4496 52.1253 29.0933C51.769 28.7371 51.3513 28.4565 50.8886 28.26C50.4074 28.0573 49.8996 27.9549 49.3734 27.9549C48.8472 27.9549 48.3394 28.0573 47.8583 28.26C47.3955 28.4565 46.9778 28.7371 46.6216 29.0933C46.2653 29.4496 45.9848 29.8673 45.7882 30.33C45.7247 30.4815 45.6695 30.6372 45.6265 30.7928H42.676C42.6104 30.7375 42.5429 30.6843 42.4733 30.6331C42.5245 30.5266 42.5695 30.416 42.6084 30.3034C42.7272 29.9615 42.7865 29.6032 42.7865 29.2387C42.7865 28.8026 42.7005 28.3767 42.5326 27.9774C42.3688 27.5925 42.1354 27.2444 41.8385 26.9475C41.5416 26.6506 41.1956 26.4172 40.8086 26.2534C40.4564 26.1039 40.0858 26.02 39.705 26.0016C39.6948 25.9545 39.6845 25.9053 39.6743 25.8582L42.4385 23.0941C42.5818 23.1739 42.7292 23.2456 42.8807 23.307C43.3476 23.4954 43.839 23.5916 44.3447 23.5916C44.8504 23.5916 45.3419 23.4954 45.8087 23.307C46.2919 23.1104 46.726 22.8238 47.0966 22.4532C47.4672 22.0826 47.7559 21.6485 47.9504 21.1653C48.1388 20.6985 48.235 20.2071 48.235 19.7013C48.235 19.1956 48.1388 18.7042 47.9504 18.2373C47.7538 17.7541 47.4672 17.32 47.0966 16.9494C46.726 16.5788 46.2919 16.2901 45.8087 16.0956C45.3419 15.9072 44.8504 15.811 44.3447 15.811C43.839 15.811 43.3476 15.9072 42.8807 16.0956C42.3975 16.2922 41.9634 16.5788 41.5928 16.9494C41.2222 17.32 40.9335 17.7541 40.739 18.2373C40.5506 18.7042 40.4544 19.1956 40.4544 19.7013C40.4544 20.2071 40.5506 20.6985 40.739 21.1653C40.8004 21.3189 40.8721 21.4663 40.952 21.6076L38.7529 23.8087C38.5195 23.481 38.2513 23.178 37.9503 22.9016C36.8876 21.927 35.5076 21.3905 34.0641 21.3905C33.7917 21.3905 33.5215 21.409 33.2532 21.4479V18.4237C33.4109 18.3786 33.5645 18.3254 33.716 18.2619C34.1787 18.0653 34.5964 17.7848 34.9527 17.4286C35.309 17.0723 35.5895 16.6546 35.786 16.1919C35.9887 15.7107 36.0911 15.2029 36.0911 14.6767C36.0911 14.1505 35.9887 13.6427 35.786 13.1615C35.5895 12.6988 35.309 12.2811 34.9527 11.9248C34.5964 11.5685 34.1787 11.288 33.716 11.0915C33.2348 10.8888 32.727 10.7864 32.2008 10.7864C31.6746 10.7864 31.1668 10.8888 30.6856 11.0915C30.2229 11.288 29.8052 11.5685 29.4489 11.9248C29.0927 12.2811 28.8122 12.6988 28.6156 13.1615C28.4129 13.6427 28.3105 14.1505 28.3105 14.6767C28.3105 15.2029 28.4129 15.7107 28.6156 16.1919C28.8122 16.6546 29.0927 17.0723 29.4489 17.4286C29.8052 17.7848 30.2229 18.0653 30.6856 18.2619C30.8372 18.3254 30.9928 18.3807 31.1484 18.4237V22.1829C30.9416 22.3058 30.7409 22.4409 30.5485 22.5883C30.0611 22.9651 29.6394 23.4135 29.2954 23.9233C29.0804 24.2407 28.8982 24.5785 28.7507 24.9307C28.3433 24.7997 27.9174 24.7321 27.4874 24.7321C27.2048 24.7321 26.9264 24.7608 26.6541 24.816L23.4517 21.6137C23.5316 21.4704 23.6032 21.323 23.6647 21.1714C23.853 20.7046 23.9493 20.2132 23.9493 19.7075C23.9493 19.2017 23.853 18.7103 23.6647 18.2435C23.4681 17.7603 23.1815 17.3262 22.8109 16.9556C22.4403 16.585 22.0062 16.2963 21.523 16.1018C21.0561 15.9134 20.5647 15.8172 20.059 15.8172C19.5532 15.8172 19.0618 15.9134 18.595 16.1018C18.1118 16.2983 17.6777 16.585 17.3071 16.9556C16.9385 17.3241 16.6519 17.7562 16.4553 18.2394C16.267 18.7062 16.1707 19.1976 16.1707 19.7034C16.1707 20.2091 16.267 20.7005 16.4553 21.1673C16.6519 21.6506 16.9385 22.0846 17.3091 22.4552C17.6798 22.8258 18.1138 23.1145 18.597 23.3091C19.0639 23.4974 19.5553 23.5937 20.061 23.5937C20.5668 23.5937 21.0582 23.4974 21.525 23.3091C21.6786 23.2476 21.826 23.176 21.9673 23.0961L24.6966 25.8255C24.6598 25.8603 24.6229 25.8951 24.5861 25.9319C24.2093 26.3087 23.9124 26.7489 23.7056 27.2383C23.4906 27.746 23.3821 28.2825 23.3821 28.8374C23.3821 29.1896 23.4251 29.5335 23.5132 29.8693C22.86 30.0434 22.2519 30.3587 21.7298 30.7948H18.7813C18.7363 30.6372 18.683 30.4836 18.6196 30.3321C18.423 29.8693 18.1425 29.4516 17.7862 29.0954C17.43 28.7391 17.0123 28.4586 16.5495 28.262C16.0683 28.0593 15.5606 27.9569 15.0343 27.9569C14.5102 27.9569 14.0003 28.0593 13.5192 28.262C13.0564 28.4586 12.6387 28.7391 12.2825 29.0954C11.9262 29.4516 11.6457 29.8693 11.4491 30.3321C11.2464 30.8132 11.144 31.321 11.144 31.8472C11.144 32.3735 11.2464 32.8812 11.4491 33.3624C11.6457 33.8252 11.9262 34.2429 12.2825 34.5991C12.6387 34.9554 13.0564 35.2359 13.5192 35.4325C14.0003 35.6352 14.5081 35.7376 15.0343 35.7376C15.5585 35.7376 16.0683 35.6352 16.5495 35.4325C17.0123 35.2359 17.43 34.9554 17.7862 34.5991C18.1425 34.2429 18.423 33.8252 18.6196 33.3624C18.683 33.2109 18.7383 33.0553 18.7813 32.8997H20.3006C20.145 33.3665 20.0651 33.862 20.0651 34.3637C20.0651 34.9902 20.188 35.6004 20.4316 36.1737C20.665 36.7265 21.0008 37.2241 21.4288 37.652C21.8547 38.0779 22.3522 38.4137 22.9071 38.6491C23.1548 38.7536 23.4108 38.8375 23.6708 38.8969L21.9714 40.5963C21.828 40.5165 21.6806 40.4448 21.5291 40.3834C21.0623 40.195 20.5709 40.0988 20.0651 40.0988C19.5594 40.0988 19.068 40.195 18.6011 40.3834C18.1179 40.58 17.6838 40.8666 17.3132 41.2372C16.9426 41.6078 16.6539 42.0419 16.4594 42.5251C16.2711 42.9919 16.1748 43.4833 16.1748 43.9891C16.1748 44.4948 16.2711 44.9862 16.4594 45.4531C16.656 45.9363 16.9426 46.3704 17.3132 46.741C17.6838 47.1116 18.1179 47.4003 18.6011 47.5948C19.068 47.7832 19.5594 47.8794 20.0651 47.8794C20.5709 47.8794 21.0623 47.7832 21.5291 47.5948C22.0123 47.3982 22.4464 47.1116 22.817 46.741C23.1876 46.3704 23.4763 45.9363 23.6708 45.4531C23.8592 44.9862 23.9554 44.4948 23.9554 43.9891C23.9554 43.4833 23.8592 42.9919 23.6708 42.5251C23.6094 42.3715 23.5377 42.2241 23.4579 42.0828L26.5251 39.0156H31.1545V45.2667C30.9969 45.3118 30.8433 45.365 30.6918 45.4285C30.229 45.6251 29.8114 45.9056 29.4551 46.2618C29.0988 46.6181 28.8183 47.0358 28.6217 47.4986C28.419 47.9797 28.3167 48.4875 28.3167 49.0137C28.3167 49.5399 28.419 50.0477 28.6217 50.5289C28.8183 50.9916 29.0988 51.4093 29.4551 51.7656C29.8114 52.1219 30.229 52.4024 30.6918 52.5989C31.173 52.8016 31.6807 52.904 32.207 52.904C32.7332 52.904 33.241 52.8016 33.7221 52.5989C34.1849 52.4024 34.6026 52.1219 34.9588 51.7656C35.3151 51.4093 35.5956 50.9916 35.7922 50.5289C35.9949 50.0477 36.0973 49.5399 36.0973 49.0137C36.0973 48.4875 35.9949 47.9797 35.7922 47.4986C35.5956 47.0358 35.3151 46.6181 34.9588 46.2618C34.6026 45.9056 34.1849 45.6251 33.7221 45.4285C33.5706 45.365 33.415 45.3097 33.2594 45.2667V39.0115H37.8888L40.956 42.0787C40.8762 42.2221 40.8045 42.3695 40.7431 42.521C40.5547 42.9878 40.4585 43.4793 40.4585 43.985C40.4585 44.4907 40.5547 44.9821 40.7431 45.449C40.9397 45.9322 41.2263 46.3663 41.5969 46.7369C41.9675 47.1075 42.4016 47.3962 42.8848 47.5907C43.3517 47.7791 43.8431 47.8753 44.3488 47.8753C44.8545 47.8753 45.3459 47.7791 45.8128 47.5907C46.296 47.3941 46.7301 47.1075 47.1007 46.7369C47.4713 46.3663 47.76 45.9322 47.9545 45.449C48.1429 44.9821 48.2391 44.4907 48.2391 43.985C48.2391 43.4793 48.1429 42.9878 47.9545 42.521C47.7579 42.0378 47.4713 41.6037 47.1007 41.2331C46.7301 40.8625 46.296 40.5738 45.8128 40.3793C45.3459 40.1909 44.8545 40.0947 44.3488 40.0947C43.8431 40.0947 43.3517 40.1909 42.8848 40.3793C42.7313 40.4407 42.5838 40.5124 42.4425 40.5922L40.7431 38.8928C41.0031 38.8334 41.2591 38.7495 41.5068 38.645C42.0597 38.4116 42.5572 38.0758 42.9851 37.6479C43.411 37.222 43.7468 36.7245 43.9823 36.1696C44.2259 35.5963 44.3488 34.9861 44.3488 34.3596C44.3488 33.8538 44.2669 33.3604 44.1113 32.8956H45.6306C45.6756 33.0532 45.7288 33.2068 45.7923 33.3583C45.9889 33.8211 46.2694 34.2388 46.6256 34.595C46.9819 34.9513 47.3996 35.2318 47.8624 35.4284C48.3435 35.6311 48.8513 35.7335 49.3775 35.7335C49.9037 35.7335 50.4115 35.6311 50.8927 35.4284C51.3554 35.2318 51.7731 34.9513 52.1294 34.595C52.4857 34.2388 52.7662 33.8211 52.9627 33.3583C53.1655 32.8772 53.2678 32.3694 53.2678 31.8432C53.2678 31.3169 53.1614 30.8112 52.9586 30.33ZM46.2899 32.8956C46.255 32.7912 46.2243 32.6867 46.1998 32.5782C46.1752 32.4738 46.1568 32.3694 46.1424 32.2608C46.124 32.1237 46.1158 31.9844 46.1158 31.8452C46.1158 31.706 46.124 31.5647 46.1424 31.4296C46.1568 31.321 46.1752 31.2166 46.1998 31.1122C46.2243 31.0037 46.255 30.8992 46.2899 30.7948C46.728 29.5131 47.9422 28.5896 49.3734 28.5896C51.1712 28.5896 52.631 30.0475 52.631 31.8472C52.631 33.647 51.1732 35.1049 49.3734 35.1049C47.9422 35.1028 46.728 34.1794 46.2899 32.8956ZM43.7079 34.3616C43.7079 36.4112 42.1743 38.1004 40.1903 38.3461C40.0531 38.3625 39.9139 38.3727 39.7705 38.3768C39.7439 38.3768 39.7173 38.3768 39.6907 38.3768H39.3221H38.1448H37.6964H37.248H33.2532H32.9359H32.6185H31.7852H31.4678H31.1504H27.1557H26.7073H26.2589H25.0816H24.713C24.6864 38.3768 24.6598 38.3768 24.6332 38.3768C24.4919 38.3748 24.3526 38.3645 24.2134 38.3461C22.2314 38.1004 20.6958 36.4091 20.6958 34.3616C20.6958 33.8456 20.794 33.3501 20.9722 32.8976C21.0152 32.7891 21.0623 32.6826 21.1135 32.5803C21.1667 32.4717 21.2261 32.3653 21.2895 32.2629C21.4779 31.9558 21.7072 31.6753 21.9693 31.4296C22.0901 31.3169 22.2191 31.2105 22.3543 31.1122C22.516 30.9934 22.688 30.887 22.8682 30.7948C23.3248 30.5594 23.8305 30.4078 24.367 30.3607C24.1417 29.9 24.0148 29.3841 24.0148 28.8374C24.0148 27.8239 24.4489 26.9107 25.143 26.2759C25.2208 26.2043 25.3027 26.1367 25.3866 26.0712C25.4726 26.0057 25.5607 25.9442 25.6528 25.8889C25.9026 25.7333 26.1749 25.6084 26.4616 25.5183C26.5783 25.4815 26.6991 25.4528 26.8199 25.4282C26.9489 25.4037 27.082 25.3853 27.2151 25.375C27.3052 25.3689 27.3953 25.3648 27.4874 25.3648C28.0812 25.3648 28.6402 25.5142 29.1275 25.7763C29.451 24.6092 30.1779 23.61 31.1484 22.9364C31.2508 22.8647 31.3572 22.7972 31.4658 22.7337C31.5702 22.6723 31.6746 22.6149 31.7831 22.5617C32.0493 22.4286 32.3278 22.3201 32.6165 22.2341C32.7209 22.2034 32.8274 22.1768 32.9338 22.1522C33.0383 22.1297 33.1447 22.1092 33.2512 22.0908C33.5153 22.0498 33.7856 22.0273 34.062 22.0273C35.8208 22.0273 37.3729 22.9159 38.2943 24.2673C38.3557 24.3574 38.413 24.4475 38.4683 24.5417C38.5236 24.6359 38.5768 24.7321 38.628 24.8324C38.7631 25.1006 38.8778 25.3812 38.9638 25.674C38.9986 25.7907 39.0293 25.9094 39.0559 26.0302C39.0846 26.1551 39.1071 26.2821 39.1256 26.409C39.1378 26.495 39.1481 26.581 39.1563 26.667C39.2832 26.6486 39.4122 26.6383 39.5433 26.6383C40.9827 26.6383 42.1477 27.8054 42.1477 29.2428C42.1477 29.8243 41.9573 30.3628 41.6338 30.7969C41.6235 30.8092 41.6153 30.8214 41.6051 30.8358C41.7587 30.9197 41.9061 31.0119 42.0474 31.1142C42.1825 31.2125 42.3095 31.319 42.4323 31.4316C42.6944 31.6773 42.9237 31.9578 43.1121 32.2649C43.1756 32.3673 43.2349 32.4738 43.2882 32.5823C43.3394 32.6847 43.3865 32.7912 43.4295 32.8997C43.6096 33.3501 43.7079 33.8436 43.7079 34.3616ZM46.6461 41.6836C47.9176 42.9551 47.9176 45.0169 46.6461 46.2885C46.0093 46.9252 45.176 47.2426 44.3427 47.2426C43.5093 47.2426 42.676 46.9252 42.0392 46.2885C41.0277 45.277 40.8209 43.7659 41.4188 42.5497C41.4679 42.4514 41.5212 42.3552 41.5785 42.261C41.6358 42.1709 41.6973 42.0828 41.7628 41.9968C41.8467 41.8883 41.9389 41.7839 42.0392 41.6836C42.1395 41.5832 42.2439 41.4911 42.3525 41.4072C42.4385 41.3416 42.5265 41.2802 42.6166 41.2229C42.7108 41.1635 42.807 41.1103 42.9053 41.0632C43.3578 40.842 43.8492 40.7294 44.3427 40.7294C45.178 40.7294 46.0114 41.0468 46.6461 41.6836ZM41.5928 41.2352C41.4945 41.3334 41.4004 41.4379 41.3144 41.5464L38.7816 39.0136H39.6927C39.7787 39.0136 39.8668 39.0115 39.9528 39.0054L41.9041 40.9567C41.7955 41.0427 41.6911 41.1348 41.5928 41.2352ZM32.2029 52.2713C30.4051 52.2713 28.9452 50.8135 28.9452 49.0137C28.9452 47.5825 29.8687 46.3683 31.1504 45.9301C31.2549 45.8953 31.3593 45.8646 31.4678 45.8401C31.5722 45.8155 31.6766 45.7971 31.7852 45.7827C31.9224 45.7643 32.0616 45.7561 32.2008 45.7561C32.34 45.7561 32.4813 45.7643 32.6165 45.7827C32.725 45.7971 32.8294 45.8155 32.9338 45.8401C33.0423 45.8646 33.1468 45.8953 33.2512 45.9301C34.5329 46.3683 35.4564 47.5825 35.4564 49.0137C35.4605 50.8135 34.0006 52.2713 32.2029 52.2713ZM32.6185 45.1459C32.4813 45.1316 32.3421 45.1234 32.2029 45.1234C32.0636 45.1234 31.9244 45.1316 31.7872 45.1459V39.0115H32.6206V45.1459H32.6185ZM17.7596 46.2885C16.4881 45.0169 16.4881 42.9551 17.7596 41.6836C18.3964 41.0468 19.2297 40.7294 20.0631 40.7294C20.5565 40.7294 21.0479 40.84 21.5004 41.0632C21.5987 41.1123 21.695 41.1655 21.7891 41.2229C21.8792 41.2802 21.9673 41.3416 22.0533 41.4072C22.1618 41.4911 22.2662 41.5832 22.3665 41.6836C22.4669 41.7839 22.559 41.8883 22.643 41.9968C22.7085 42.0828 22.7699 42.1709 22.8272 42.261C22.8866 42.3552 22.9398 42.4514 22.9869 42.5497C23.5848 43.7659 23.378 45.277 22.3665 46.2885C21.7298 46.9252 20.8964 47.2426 20.0631 47.2426C19.2277 47.2426 18.3943 46.9252 17.7596 46.2885ZM22.8129 41.2352C22.7146 41.1369 22.6102 41.0427 22.5017 40.9567L24.453 39.0054C24.539 39.0095 24.625 39.0136 24.713 39.0136H25.6242L23.0914 41.5464C23.0054 41.4379 22.9132 41.3334 22.8129 41.2352ZM18.1159 32.8956C17.6777 34.1773 16.4635 35.1008 15.0323 35.1008C13.2346 35.1008 11.7747 33.6429 11.7747 31.8432C11.7747 30.0434 13.2325 28.5855 15.0323 28.5855C16.4635 28.5855 17.6777 29.509 18.1159 30.7907C18.1507 30.8951 18.1814 30.9996 18.206 31.1081C18.2305 31.2125 18.249 31.3169 18.2633 31.4255C18.2817 31.5626 18.2899 31.7019 18.2899 31.8411C18.2899 31.9803 18.2817 32.1216 18.2633 32.2568C18.249 32.3653 18.2305 32.4697 18.206 32.5741C18.1814 32.6867 18.1507 32.7932 18.1159 32.8956ZM18.9021 31.4296H21.1053C20.8944 31.6896 20.7121 31.9681 20.5647 32.2629H18.9021C18.9165 32.1257 18.9246 31.9865 18.9246 31.8472C18.9246 31.708 18.9165 31.5667 18.9021 31.4296ZM17.7596 22.0068C16.4881 20.7353 16.4881 18.6735 17.7596 17.4019C18.3964 16.7652 19.2297 16.4478 20.0631 16.4478C20.8964 16.4478 21.7298 16.7652 22.3665 17.4019C23.378 18.4134 23.5848 19.9245 22.9869 21.1407C22.9378 21.239 22.8846 21.3352 22.8272 21.4294C22.7699 21.5195 22.7085 21.6076 22.643 21.6936C22.559 21.8021 22.4669 21.9065 22.3665 22.0068C22.2662 22.1072 22.1618 22.1993 22.0533 22.2832C21.9673 22.3488 21.8792 22.4102 21.7891 22.4675C21.695 22.5269 21.5987 22.5801 21.5004 22.6272C21.0479 22.8484 20.5565 22.961 20.0631 22.961C19.2277 22.961 18.3943 22.6436 17.7596 22.0068ZM22.8129 22.4552C22.9112 22.357 23.0054 22.2525 23.0914 22.144L25.9661 25.0187C25.9415 25.029 25.9149 25.0392 25.8903 25.0495C25.6467 25.1539 25.4133 25.2788 25.1962 25.4262L22.5017 22.7317C22.6102 22.6477 22.7146 22.5556 22.8129 22.4552ZM32.2029 11.4191C34.0006 11.4191 35.4605 12.8769 35.4605 14.6767C35.4605 16.1079 34.537 17.3221 33.2553 17.7603C33.1509 17.7951 33.0464 17.8258 32.9379 17.8503C32.8335 17.8749 32.7291 17.8933 32.6206 17.9077C32.4834 17.9261 32.3441 17.9343 32.2049 17.9343C32.0657 17.9343 31.9244 17.9261 31.7893 17.9077C31.6807 17.8933 31.5763 17.8749 31.4719 17.8503C31.3634 17.8258 31.259 17.7951 31.1545 17.7603C29.8728 17.3221 28.9493 16.1079 28.9493 14.6767C28.9452 12.8769 30.4051 11.4191 32.2029 11.4191ZM31.7872 18.5445C31.9244 18.5588 32.0636 18.567 32.2029 18.567C32.3421 18.567 32.4813 18.5588 32.6185 18.5445V21.5748C32.469 21.6137 32.3216 21.6587 32.1762 21.7079C32.0432 21.7529 31.9142 21.8041 31.7852 21.8594V18.5445H31.7872ZM46.6461 17.4019C47.9176 18.6735 47.9176 20.7353 46.6461 22.0068C46.0093 22.6436 45.176 22.961 44.3427 22.961C43.8492 22.961 43.3578 22.8504 42.9053 22.6272C42.807 22.5781 42.7108 22.5249 42.6166 22.4675C42.5265 22.4102 42.4385 22.3488 42.3525 22.2832C42.2439 22.1993 42.1395 22.1072 42.0392 22.0068C41.9389 21.9065 41.8467 21.8021 41.7628 21.6936C41.6973 21.6076 41.6358 21.5195 41.5785 21.4294C41.5191 21.3352 41.4659 21.239 41.4188 21.1407C40.8209 19.9245 41.0277 18.4134 42.0392 17.4019C42.676 16.7652 43.5093 16.4478 44.3427 16.4478C45.176 16.4478 46.0114 16.7652 46.6461 17.4019ZM41.5928 22.4552C41.6911 22.5535 41.7955 22.6477 41.9041 22.7337L39.4695 25.1682C39.3672 24.8897 39.2443 24.6195 39.101 24.3594L41.3144 22.1461C41.4004 22.2525 41.4925 22.357 41.5928 22.4552ZM43.3005 31.4296H45.5036C45.4893 31.5667 45.4811 31.706 45.4811 31.8452C45.4811 31.9844 45.4893 32.1237 45.5036 32.2608H43.841C43.6915 31.966 43.5114 31.6875 43.3005 31.4296Z" fill="#114232"/>
</svg>
