<svg xmlns="http://www.w3.org/2000/svg" xmlns:xlink="http://www.w3.org/1999/xlink" width="72" height="46" viewBox="0 0 72 46">
    <defs>
        <filter id="prefix__a" width="114.3%" height="115.8%" x="-7.1%" y="-7.9%" filterUnits="objectBoundingBox">
            <feGaussianBlur in="SourceGraphic"/>
        </filter>
        <filter id="prefix__c" width="114.3%" height="115.8%" x="-7.1%" y="-7.9%" filterUnits="objectBoundingBox">
            <feGaussianBlur in="SourceGraphic"/>
        </filter>
        <filter id="prefix__f" width="109.5%" height="110.5%" x="-4.8%" y="-5.3%" filterUnits="objectBoundingBox">
            <feGaussianBlur in="SourceGraphic"/>
        </filter>
        <path id="prefix__b" d="M28.945 2.087L14.152 2c-2.218-.014-4.298 1.151-5.462 3.06L.923 17.79c-1.163 1.91-1.232 4.263-.18 6.183L7.772 36.79c1.053 1.92 3.067 3.112 5.282 3.122L27.846 40c2.218.014 4.298-1.151 5.461-3.06l7.77-12.725c1.163-1.909 1.232-4.263.18-6.183L34.226 5.21c-1.053-1.92-3.065-3.108-5.282-3.122z"/>
        <path id="prefix__d" d="M52.945 2.087L38.152 2c-2.218-.014-4.298 1.151-5.462 3.06L24.923 17.79c-1.163 1.91-1.232 4.263-.18 6.183l7.028 12.819c1.053 1.92 3.067 3.112 5.282 3.122L51.846 40c2.218.014 4.298-1.151 5.461-3.06l7.77-12.725c1.163-1.909 1.232-4.263.18-6.183L58.226 5.21c-1.053-1.92-3.065-3.108-5.282-3.122z"/>
        <radialGradient id="prefix__e" cx="68.166%" cy="65.098%" r="68.931%" fx="68.166%" fy="65.098%" gradientTransform="matrix(.90476 0 0 1 .065 0)">
            <stop offset="0%" stop-color="#FFCC4C"/>
            <stop offset="100%" stop-color="#FFE367"/>
        </radialGradient>
        <linearGradient id="prefix__g" x1="50%" x2="50%" y1="0%" y2="100%">
            <stop offset="0%" stop-color="#363636"/>
            <stop offset="100%" stop-color="#191919"/>
        </linearGradient>
    </defs>
    <g fill="none" fill-rule="evenodd">
        <g fill-rule="nonzero">
            <g filter="url(#prefix__a)" transform="translate(-4 -1) translate(7 3) rotate(-180 21 21)">
                <use fill="#FFF" stroke="#FFF" stroke-width="6" xlink:href="#prefix__b"/>
                <use stroke="#CFCFCF" stroke-width="2" xlink:href="#prefix__b"/>
            </g>
            <g filter="url(#prefix__c)" transform="translate(-4 -1) translate(7 3) rotate(-180 45 21)">
                <use fill="#FFF" stroke="#FFF" stroke-width="6" xlink:href="#prefix__d"/>
                <use stroke="#CFCFCF" stroke-width="2" xlink:href="#prefix__d"/>
            </g>
            <path fill="url(#prefix__e)" stroke="#FFF" stroke-width="2" d="M53.93 24.736L46.161 37.46c-1.346 2.21-3.755 3.557-6.321 3.54l-14.792-.087c-1.289-.006-2.519-.356-3.58-.984-1.064-.629-1.96-1.537-2.573-2.657l-7.028-12.82c-.613-1.117-.9-2.361-.864-3.604.036-1.237.392-2.473 1.067-3.58L19.836 4.54C21.183 2.33 23.592.983 26.158 1l14.793.087c1.29.008 2.52.359 3.58.986 1.065.629 1.958 1.535 2.572 2.655l7.03 12.823c.613 1.118.9 2.362.864 3.605-.036 1.237-.392 2.473-1.067 3.58z" filter="url(#prefix__f)" transform="translate(-4 -1) translate(7 3) rotate(90 33 21)"/>
            <path fill="url(#prefix__g)" d="M27.803 20.734c.527 0 1.023-.1 1.489-.303.466-.203.87-.48 1.214-.831s.617-.762.82-1.232c.202-.47.303-.972.303-1.507 0-.534-.101-1.037-.304-1.506-.202-.47-.475-.879-.819-1.226-.343-.348-.748-.623-1.214-.825-.466-.203-.962-.304-1.49-.304-.526 0-1.02.101-1.482.304-.462.202-.865.477-1.209.825-.344.347-.615.756-.813 1.226-.199.47-.298.972-.298 1.506 0 .535.1 1.037.298 1.507.198.47.47.88.813 1.232.344.351.747.628 1.209.83.462.203.956.304 1.483.304zM28.862 29l9.487-15.275L37.184 13l-9.498 15.275 1.176.725zm-1.06-9.87c-.29 0-.56-.059-.812-.177-.252-.119-.472-.281-.659-.487-.187-.207-.334-.447-.441-.722-.107-.275-.16-.57-.16-.883 0-.305.053-.597.16-.876.107-.279.254-.521.441-.728.187-.206.407-.37.659-.492.252-.123.523-.184.813-.184.29 0 .563.061.819.184.256.122.48.286.67.492.19.207.342.45.452.728.111.279.167.57.167.876 0 .314-.056.608-.167.883-.11.275-.261.515-.452.722-.19.206-.414.368-.67.487-.256.118-.529.177-.82.177zm10.395 9.683c.527 0 1.021-.102 1.483-.304.462-.203.865-.478 1.209-.825.344-.348.615-.756.813-1.226.199-.47.298-.972.298-1.507 0-.535-.1-1.039-.298-1.512-.198-.474-.47-.888-.813-1.244-.344-.355-.747-.634-1.209-.836-.462-.203-.956-.304-1.483-.304-.527 0-1.021.101-1.483.304-.462.202-.865.481-1.209.836-.343.356-.613.77-.807 1.244-.195.473-.292.977-.292 1.512s.097 1.037.292 1.507c.194.47.464.878.807 1.226.344.347.747.622 1.209.825.462.202.956.303 1.483.303zm0-1.605c-.29 0-.561-.059-.813-.177-.252-.119-.472-.281-.659-.487-.187-.207-.334-.447-.44-.722-.108-.275-.161-.565-.161-.871 0-.313.053-.61.16-.888.107-.279.254-.521.441-.728.187-.206.407-.37.659-.492.252-.123.523-.184.813-.184.29 0 .563.061.82.184.255.122.478.286.67.492.19.207.34.45.452.728.11.279.166.575.166.888 0 .306-.056.596-.166.87-.111.276-.262.516-.453.723-.19.206-.414.368-.67.487-.256.118-.529.177-.819.177z" transform="translate(-4 -1) translate(7 3)"/>
        </g>
    </g>
</svg>
