<svg xmlns="http://www.w3.org/2000/svg" xmlns:xlink="http://www.w3.org/1999/xlink" width="54" height="49" viewBox="0 0 54 49">
    <defs>
        <radialGradient id="prefix__c" cx="31.694%" cy="50%" r="158.859%" fx="31.694%" fy="50%" gradientTransform="matrix(.62217 .09504 -.0594 .99547 .15 -.028)">
            <stop offset="0%" stop-color="#FFCC4C"/>
            <stop offset="100%" stop-color="#FFE367"/>
        </radialGradient>
        <path id="prefix__a" d="M27.811.117l-15.788 2.99c-2.368.446-4.345 2.127-5.19 4.41l-5.65 15.231c-.844 2.285-.432 4.817 1.087 6.65l10.143 12.245c1.519 1.834 3.912 2.69 6.276 2.239l15.789-2.99c2.367-.447 4.345-2.127 5.19-4.411l5.652-15.227c.845-2.284.433-4.816-1.086-6.65L34.088 2.356C32.568.522 30.178-.33 27.81.116z"/>
    </defs>
    <g fill="none" fill-rule="evenodd">
        <g transform="translate(-13 1) matrix(-1 0 0 1 61 2)">
            <mask id="prefix__b" fill="#fff">
                <use xlink:href="#prefix__a"/>
            </mask>
            <path stroke="#CFCFCF" stroke-width="2" d="M11.837 2.124c-2.709.511-4.974 2.432-5.942 5.047L.246 22.4c-.971 2.625-.49 5.53 1.254 7.635l10.143 12.245c.877 1.058 2.006 1.834 3.256 2.28 1.248.445 2.617.562 3.978.303l15.787-2.99c2.709-.51 4.974-2.431 5.942-5.046l5.652-15.226c.971-2.625.49-5.531-1.254-7.636L34.858 1.718C33.909.572 32.744-.38 28.316-.23c-3.169.107-8.2.786-16.48 2.353z"/>
            <text fill="#191919" font-family="PTRootUI-Bold, PT Root UI" font-size="16" font-weight="bold" mask="url(#prefix__b)" transform="matrix(-1 0 0 1 47 0)">
                <tspan x="11" y="28">API</tspan>
            </text>
        </g>
        <path fill="url(#prefix__c)" stroke="#FFF" stroke-width="2" d="M47.594.361c-1.547.565-2.72 1.705-3.367 3.094-.486 1.045-.673 2.23-.496 3.416-.912.251-1.72.748-2.353 1.414-.897.944-1.44 2.23-1.419 3.636.021 1.406.602 2.674 1.527 3.591.927.92 2.2 1.486 3.602 1.488h15.317c1.534 0 2.923-.624 3.929-1.634 1.003-1.009 1.624-2.402 1.624-3.94 0-1.54-.62-2.932-1.624-3.94-1.006-1.01-2.395-1.635-4.12-1.631-.429-1.03-1.21-1.886-2.219-2.4-.986-.504-2.106-.638-3.165-.4-.623-1.116-1.57-1.972-2.673-2.49-1.384-.65-3.014-.769-4.563-.204z" transform="translate(-13 1)"/>
    </g>
</svg>
