<svg width="64" height="65" viewBox="0 0 64 65" fill="none" xmlns="http://www.w3.org/2000/svg">
<path d="M54.9867 4.65234H51.4609V8.17814H54.9867V4.65234Z" fill="#30BC90"/>
<path d="M8.56821 5.19409L5.79297 10.0022H11.3434L8.56821 5.19409Z" fill="#30BC90"/>
<path d="M57.4737 58.2547C58.2324 57.4959 58.2324 56.2658 57.4737 55.5071C56.715 54.7483 55.4848 54.7483 54.7261 55.5071C53.9674 56.2658 53.9674 57.4959 54.7261 58.2547C55.4848 59.0134 56.715 59.0134 57.4737 58.2547Z" fill="#30BC90"/>
<path d="M5.3304 38.2702L4.14893 39.4517L4.59722 39.9L5.77869 38.7185L5.3304 38.2702Z" fill="#114232"/>
<path d="M7.5096 36.0888L6.32812 37.2703L6.77642 37.7186L7.95789 36.5371L7.5096 36.0888Z" fill="#114232"/>
<path d="M6.77788 38.2695L6.32959 38.7178L7.51106 39.8992L7.95935 39.451L6.77788 38.2695Z" fill="#114232"/>
<path d="M4.59624 36.09L4.14795 36.5383L5.32942 37.7198L5.77771 37.2715L4.59624 36.09Z" fill="#114232"/>
<path d="M57.0943 29.0495L55.9114 30.2324L56.3597 30.6807L57.5426 29.4978L57.0943 29.0495Z" fill="#114232"/>
<path d="M59.2747 26.8696L58.0918 28.0525L58.5401 28.5008L59.723 27.3179L59.2747 26.8696Z" fill="#114232"/>
<path d="M58.5396 29.049L58.0913 29.4973L59.2742 30.6802L59.7225 30.2319L58.5396 29.049Z" fill="#114232"/>
<path d="M56.3597 26.8686L55.9114 27.3169L57.0943 28.4998L57.5426 28.0515L56.3597 26.8686Z" fill="#114232"/>
<path d="M29.0501 5.50871L27.8687 6.69019L28.3169 7.13848L29.4984 5.95701L29.0501 5.50871Z" fill="#114232"/>
<path d="M31.2305 3.32854L30.0491 4.51001L30.4974 4.9583L31.6788 3.77683L31.2305 3.32854Z" fill="#114232"/>
<path d="M30.4974 5.50776L30.0491 5.95605L31.2305 7.13753L31.6788 6.68923L30.4974 5.50776Z" fill="#114232"/>
<path d="M28.3174 3.32685L27.8691 3.77515L29.0521 4.95806L29.5004 4.50977L28.3174 3.32685Z" fill="#114232"/>
<path d="M17.3806 56.2693H16.7466V60.4045H17.3806V56.2693Z" fill="#114232"/>
<path d="M19.1313 58.0195H14.9961V58.6535H19.1313V58.0195Z" fill="#114232"/>
<path d="M56.2341 7.2677H52.7084C52.5325 7.2677 52.3914 7.12659 52.3914 6.95071V3.4249C52.3914 3.24902 52.5325 3.10791 52.7084 3.10791H56.2341C56.41 3.10791 56.5511 3.24902 56.5511 3.4249V6.95071C56.5511 7.12659 56.41 7.2677 56.2341 7.2677ZM53.0253 6.63371H55.9172V3.7419H53.0253V6.63371Z" fill="#114232"/>
<path d="M12.5911 9.09232H7.04063C6.92815 9.09232 6.8218 9.03097 6.76658 8.9328C6.70932 8.83464 6.70932 8.71397 6.76658 8.61581L9.54182 3.80771C9.59908 3.70955 9.70338 3.64819 9.81587 3.64819C9.92835 3.64819 10.0347 3.70955 10.0899 3.80771L12.8672 8.61581C12.9245 8.71397 12.9245 8.83464 12.8672 8.9328C12.8099 9.03097 12.7056 9.09232 12.5911 9.09232ZM7.59077 8.45833H12.043L9.81587 4.60122L7.59077 8.45833Z" fill="#114232"/>
<path d="M57.3485 57.9152C56.101 57.9152 55.0886 56.9009 55.0886 55.6554C55.0886 54.4078 56.103 53.3955 57.3485 53.3955C58.596 53.3955 59.6084 54.4099 59.6084 55.6554C59.6104 56.9009 58.596 57.9152 57.3485 57.9152ZM57.3485 54.0275C56.4507 54.0275 55.7226 54.7576 55.7226 55.6533C55.7226 56.5491 56.4527 57.2792 57.3485 57.2792C58.2443 57.2792 58.9744 56.5491 58.9744 55.6533C58.9744 54.7576 58.2463 54.0275 57.3485 54.0275Z" fill="#114232"/>
<path d="M37.2369 18.5712V14.9001H12.3027V46.479H15.9737V19.2051V18.5712H16.6077H37.2369Z" fill="#30BC90"/>
<path d="M23.2771 49.5957C23.909 48.9637 24.3017 48.162 24.4101 47.2806L24.4428 47.0106L24.4632 46.8409C24.4632 46.8204 24.4632 46.802 24.4632 46.7816V46.4769H24.5082L24.5103 46.4523H25.0706H41.5401V41.9612H40.5175H39.8835V41.3272V39.4416C39.5052 39.323 39.137 39.1717 38.7853 38.9876L37.4518 40.321L37.004 40.7689L36.5561 40.321L34.6807 38.4456L34.2328 37.9978L34.6807 37.5499L36.0141 36.2164C35.8301 35.8647 35.6767 35.4966 35.5601 35.1182H33.6745H33.0405V34.4842V31.8317V31.1977H33.6745H35.5601C35.6787 30.8194 35.8301 30.4512 36.0141 30.0995L34.6807 28.766L34.2328 28.3182L34.6807 27.8703L36.5561 25.9949L37.004 25.547L37.4518 25.9949L38.7853 27.3283C39.137 27.1443 39.5052 26.9909 39.8835 26.8743V24.9887V24.3547H40.5175H41.5401V19.2051H16.6079V46.7857C16.6079 47.8307 17.0149 48.8226 17.7552 49.5773C18.4935 50.3319 19.4752 50.7594 20.5182 50.7839H20.5243H20.5305C21.3444 50.7716 22.1195 50.5139 22.774 50.0517L23.091 49.7736C23.1646 49.7041 23.2239 49.6488 23.2771 49.5957ZM20.1807 21.9721H32.6928C33.38 21.9721 33.9383 22.5305 33.9383 23.2176C33.9383 23.9048 33.38 24.4631 32.6928 24.4631H20.1807C19.4936 24.4631 18.9353 23.9048 18.9353 23.2176C18.9353 22.5325 19.4936 21.9721 20.1807 21.9721ZM20.1807 26.7516H30.3287C31.0158 26.7516 31.5742 27.3099 31.5742 27.9971C31.5742 28.6842 31.0158 29.2426 30.3287 29.2426H20.1807C19.4936 29.2426 18.9353 28.6842 18.9353 27.9971C18.9353 27.3099 19.4936 26.7516 20.1807 26.7516ZM20.1807 31.529H30.3287C31.0158 31.529 31.5742 32.0873 31.5742 32.7745C31.5742 33.4617 31.0158 34.02 30.3287 34.02H20.1807C19.4936 34.02 18.9353 33.4617 18.9353 32.7745C18.9353 32.0873 19.4936 31.529 20.1807 31.529ZM20.1807 36.3064H30.3287C31.0158 36.3064 31.5742 36.8648 31.5742 37.5519C31.5742 38.2391 31.0158 38.7974 30.3287 38.7974H20.1807C19.4936 38.7974 18.9353 38.2391 18.9353 37.5519C18.9353 36.8648 19.4936 36.3064 20.1807 36.3064ZM20.1807 43.5748C19.4936 43.5748 18.9353 43.0165 18.9353 42.3293C18.9353 41.6422 19.4936 41.0839 20.1807 41.0839H32.6928C33.38 41.0839 33.9383 41.6422 33.9383 42.3293C33.9383 43.0165 33.38 43.5748 32.6928 43.5748H20.1807Z" fill="#30BC90"/>
<path d="M47.5915 31.6047C47.4585 31.1098 47.2622 30.6353 47.0066 30.1915C46.937 30.0729 46.9575 29.9216 47.0556 29.8234L48.5629 28.3161L46.6875 26.4407L45.1803 27.948C45.121 28.0073 45.0432 28.038 44.9655 28.038C44.9144 28.038 44.8612 28.0257 44.8142 27.9971C44.3704 27.7414 43.8959 27.5451 43.401 27.4122C43.2681 27.3774 43.176 27.2547 43.176 27.1177V24.9846H40.5235V27.1177C40.5235 27.2547 40.4315 27.3754 40.2985 27.4122C39.8036 27.5451 39.3292 27.7414 38.8854 27.9971C38.8383 28.0237 38.7852 28.038 38.734 28.038C38.6543 28.038 38.5765 28.0073 38.5172 27.948L37.01 26.4407L35.1346 28.3161L36.6419 29.8234C36.74 29.9216 36.7584 30.0709 36.6909 30.1915C36.4353 30.6353 36.239 31.1098 36.106 31.6047C36.0713 31.7376 35.9486 31.8297 35.8115 31.8297H33.6785V34.4822H35.8115C35.9486 34.4822 36.0692 34.5742 36.106 34.7072C36.239 35.2021 36.4353 35.6765 36.6909 36.1203C36.7605 36.239 36.74 36.3903 36.6419 36.4885L35.1346 37.9957L37.01 39.8711L38.5172 38.3638C38.5765 38.3045 38.6543 38.2739 38.732 38.2739C38.7831 38.2739 38.8363 38.2882 38.8833 38.3148C39.3271 38.5704 39.8016 38.7667 40.2965 38.8997C40.4294 38.9365 40.5215 39.0571 40.5215 39.1942V41.3272H43.174V39.1942C43.174 39.0571 43.266 38.9365 43.399 38.8997C43.8939 38.7667 44.3683 38.5704 44.8121 38.3148C44.8592 38.2882 44.9124 38.2739 44.9635 38.2739C45.0432 38.2739 45.121 38.3045 45.1803 38.3638L46.6875 39.8711L48.5629 37.9957L47.0556 36.4885C46.9575 36.3903 46.9391 36.241 47.0066 36.1203C47.2622 35.6765 47.4585 35.2021 47.5915 34.7072C47.6262 34.5742 47.7489 34.4822 47.886 34.4822H50.019V31.8297H47.886C47.7489 31.8317 47.6283 31.7376 47.5915 31.6047ZM41.8467 36.9404C39.7607 36.9404 38.0632 35.243 38.0632 33.1569C38.0632 31.0709 39.7607 29.3735 41.8467 29.3735C43.9327 29.3735 45.6302 31.0709 45.6302 33.1569C45.6302 35.245 43.9327 36.9404 41.8467 36.9404Z" fill="#30BC90"/>
<path d="M25.0398 47.3586C24.913 48.3811 24.459 49.3117 23.7248 50.0438C23.6614 50.1072 23.5939 50.1706 23.5059 50.2463L22.8965 50.7842H41.7914C43.7527 50.7842 45.4706 49.3485 45.7896 47.4465L45.8489 47.0886H25.0705L25.0398 47.3586Z" fill="#30BC90"/>
<path d="M21.2035 32.9973H31.3514C32.0386 32.9973 32.5969 32.439 32.5969 31.7518C32.5969 31.0647 32.0386 30.5063 31.3514 30.5063H21.2035C20.5163 30.5063 19.958 31.0647 19.958 31.7518C19.958 32.439 20.5163 32.9973 21.2035 32.9973ZM21.2035 31.1403H31.3514C31.6889 31.1403 31.9629 31.4144 31.9629 31.7518C31.9629 32.0893 31.6889 32.3633 31.3514 32.3633H21.2035C20.866 32.3633 20.592 32.0893 20.592 31.7518C20.592 31.4144 20.866 31.1403 21.2035 31.1403Z" fill="#114232"/>
<path d="M21.2035 28.2202H31.3514C32.0386 28.2202 32.5969 27.6619 32.5969 26.9747C32.5969 26.2876 32.0386 25.7292 31.3514 25.7292H21.2035C20.5163 25.7292 19.958 26.2876 19.958 26.9747C19.958 27.6598 20.5163 28.2202 21.2035 28.2202ZM21.2035 26.3632H31.3514C31.6889 26.3632 31.9629 26.6373 31.9629 26.9747C31.9629 27.3122 31.6889 27.5862 31.3514 27.5862H21.2035C20.866 27.5862 20.592 27.3122 20.592 26.9747C20.592 26.6352 20.866 26.3632 21.2035 26.3632Z" fill="#114232"/>
<path d="M51.0416 30.1753H49.156C49.0374 29.7969 48.8861 29.4288 48.702 29.077L50.0354 27.7436L50.4833 27.2957L50.0354 26.8478L48.16 24.9725L47.7122 24.5246L47.2643 24.9725L45.9309 26.3059C45.5791 26.1218 45.211 25.9684 44.8326 25.8519V23.9663V23.3323H44.1986H43.2006V18.1826V17.5486H42.5666H38.8956V13.8776V13.2437H38.2616H13.3254H12.6914V13.8776V45.4565V46.0904H13.3254H17.0087C17.0864 47.1805 17.5465 48.201 18.3237 48.9966C19.1785 49.8698 20.3156 50.3668 21.5264 50.3934H21.5325H21.5448L23.9212 50.3954H42.8161C43.9123 50.3954 44.986 50.0048 45.8368 49.2931C46.6917 48.5794 47.2602 47.5977 47.4402 46.5281L47.4995 46.1702L47.6222 45.4319H46.8737H43.1986V40.9408H44.1966H44.8306V40.3068V38.4212C45.2089 38.3026 45.5771 38.1513 45.9288 37.9672L47.2622 39.3006L47.7101 39.7485L48.158 39.3006L50.0334 37.4252L50.4813 36.9774L50.0334 36.5295L48.7 35.196C48.884 34.8443 49.0374 34.4762 49.154 34.0978H51.0396H51.6736V33.4638V30.8113V30.1773H51.0416V30.1753ZM16.9964 17.5486V18.1826V45.4585H13.3254V13.8776H38.2596V17.5486H17.6304H16.9964ZM23.7944 49.0272C23.142 49.4915 22.3669 49.7471 21.5509 49.7594H21.5448H21.5386C20.4936 49.7349 19.514 49.3074 18.7757 48.5528C18.0374 47.7981 17.6304 46.8062 17.6283 45.7612V18.1826H42.5625V23.3302H41.54H40.906V23.9642V25.8498C40.5276 25.9684 40.1595 26.1198 39.8078 26.3038L38.4743 24.9704L38.0264 24.5225L37.5786 24.9704L35.7032 26.8458L35.2553 27.2937L35.7032 27.7416L37.0366 29.075C36.8525 29.4267 36.6992 29.7949 36.5826 30.1732H34.697H34.063V30.8072V33.4597V34.0937H34.697H36.5826C36.7012 34.4741 36.8525 34.8402 37.0366 35.192L35.7032 36.5254L35.2553 36.9733L35.7032 37.4212L37.5786 39.2965L38.0264 39.7444L38.4743 39.2965L39.8078 37.9631C40.1595 38.1472 40.5276 38.3006 40.906 38.4171V40.3027V40.9367H41.54H42.5625V45.4278H26.0931H25.5328L25.5307 45.4524H25.4857V45.7571C25.4857 45.7775 25.4857 45.7959 25.4857 45.8164L25.4653 45.9861L25.4325 46.2561C25.3242 47.1376 24.9315 47.9392 24.2995 48.5712C24.2464 48.6244 24.1871 48.6796 24.1114 48.7471L23.7944 49.0272ZM46.8737 46.0659L46.8144 46.4238C46.4953 48.3258 44.7774 49.7615 42.8161 49.7615H23.9212L24.5306 49.2236C24.6165 49.1479 24.6861 49.0825 24.7495 49.0211C25.4837 48.2869 25.9377 47.3584 26.0645 46.3359L26.0972 46.0659H46.8737ZM51.0416 33.4618H48.9086C48.7715 33.4618 48.6509 33.5538 48.6141 33.6867C48.4811 34.1817 48.2848 34.6561 48.0292 35.0999C47.9596 35.2185 47.9801 35.3699 48.0782 35.4681L49.5855 36.9753L47.7101 38.8507L46.2029 37.3434C46.1436 37.2841 46.0658 37.2535 45.9861 37.2535C45.9349 37.2535 45.8818 37.2657 45.8347 37.2944C45.3909 37.55 44.9165 37.7463 44.4216 37.8793C44.2886 37.9161 44.1966 38.0367 44.1966 38.1738V40.3068H41.5441V38.1738C41.5441 38.0367 41.452 37.9161 41.3191 37.8793C40.8242 37.7463 40.3497 37.55 39.9059 37.2944C39.8589 37.2678 39.8057 37.2535 39.7546 37.2535C39.6748 37.2535 39.5971 37.2841 39.5398 37.3434L38.0326 38.8507L36.1572 36.9753L37.6645 35.4681C37.7626 35.3699 37.781 35.2206 37.7135 35.0999C37.4579 34.6561 37.2616 34.1817 37.1286 33.6867C37.0939 33.5538 36.9712 33.4618 36.8341 33.4618H34.7011V30.8093H36.8341C36.9712 30.8093 37.0918 30.7172 37.1286 30.5843C37.2616 30.0894 37.4579 29.6149 37.7135 29.1711C37.7831 29.0525 37.7626 28.9011 37.6645 28.803L36.1572 27.2957L38.0326 25.4203L39.5398 26.9276C39.5991 26.9869 39.6769 27.0176 39.7566 27.0176C39.8078 27.0176 39.8609 27.0053 39.908 26.9767C40.3518 26.721 40.8262 26.5247 41.3211 26.3918C41.4541 26.357 41.5461 26.2343 41.5461 26.0973V23.9642H44.1986V26.0973C44.1986 26.2343 44.2907 26.355 44.4236 26.3918C44.9185 26.5247 45.393 26.721 45.8368 26.9767C45.8838 27.0033 45.937 27.0176 45.9881 27.0176C46.0679 27.0176 46.1456 26.9869 46.2029 26.9276L47.7101 25.4203L49.5855 27.2957L48.0782 28.803C47.9801 28.9011 47.9617 29.0504 48.0292 29.1711C48.2848 29.6149 48.4811 30.0894 48.6141 30.5843C48.6488 30.7172 48.7715 30.8093 48.9086 30.8093H51.0416V33.4618Z" fill="#114232"/>
<path d="M42.8694 28.3508C40.7834 28.3508 39.0859 30.0483 39.0859 32.1343C39.0859 34.2203 40.7834 35.9178 42.8694 35.9178C44.9555 35.9178 46.6529 34.2203 46.6529 32.1343C46.6529 30.0483 44.9555 28.3508 42.8694 28.3508ZM42.8694 35.2838C41.1331 35.2838 39.7199 33.8706 39.7199 32.1343C39.7199 30.398 41.1331 28.9848 42.8694 28.9848C44.6057 28.9848 46.0189 30.398 46.0189 32.1343C46.0189 33.8727 44.6057 35.2838 42.8694 35.2838Z" fill="#114232"/>
<path d="M21.2035 37.7749H31.3514C32.0386 37.7749 32.5969 37.2166 32.5969 36.5294C32.5969 35.8423 32.0386 35.2839 31.3514 35.2839H21.2035C20.5163 35.2839 19.958 35.8423 19.958 36.5294C19.958 37.2166 20.5163 37.7749 21.2035 37.7749ZM21.2035 35.9179H31.3514C31.6889 35.9179 31.9629 36.192 31.9629 36.5294C31.9629 36.8669 31.6889 37.1409 31.3514 37.1409H21.2035C20.866 37.1409 20.592 36.8669 20.592 36.5294C20.592 36.192 20.866 35.9179 21.2035 35.9179Z" fill="#114232"/>
<path d="M34.9611 41.3065C34.9611 40.6194 34.4027 40.061 33.7156 40.061H21.2035C20.5163 40.061 19.958 40.6194 19.958 41.3065C19.958 41.9937 20.5163 42.552 21.2035 42.552H33.7156C34.4027 42.552 34.9611 41.9937 34.9611 41.3065ZM20.592 41.3065C20.592 40.9691 20.866 40.695 21.2035 40.695H33.7156C34.053 40.695 34.3271 40.9691 34.3271 41.3065C34.3271 41.644 34.053 41.918 33.7156 41.918H21.2035C20.866 41.918 20.592 41.644 20.592 41.3065Z" fill="#114232"/>
<path d="M21.2035 23.4407H33.7156C34.4027 23.4407 34.9611 22.8824 34.9611 22.1952C34.9611 21.508 34.4027 20.9497 33.7156 20.9497H21.2035C20.5163 20.9497 19.958 21.508 19.958 22.1952C19.958 22.8824 20.5163 23.4407 21.2035 23.4407ZM21.2035 21.5837H33.7156C34.053 21.5837 34.3271 21.8577 34.3271 22.1952C34.3271 22.5326 34.053 22.8067 33.7156 22.8067H21.2035C20.866 22.8067 20.592 22.5326 20.592 22.1952C20.592 21.8577 20.866 21.5837 21.2035 21.5837Z" fill="#114232"/>
</svg>
