<svg width="64" height="65" viewBox="0 0 64 65" fill="none" xmlns="http://www.w3.org/2000/svg">
<path d="M55.0343 4.98218H51.511V8.50545H55.0343V4.98218Z" fill="#30BC90"/>
<path d="M8.64947 5.52368L5.87622 10.3283H11.4227L8.64947 5.52368Z" fill="#30BC90"/>
<path d="M57.5198 58.5466C58.278 57.7885 58.278 56.5592 57.5198 55.801C56.7616 55.0428 55.5324 55.0428 54.7742 55.801C54.016 56.5592 54.016 57.7885 54.7742 58.5466C55.5324 59.3048 56.7616 59.3048 57.5198 58.5466Z" fill="#30BC90"/>
<path d="M5.41427 38.5762L4.23364 39.7568L4.68162 40.2048L5.86224 39.0242L5.41427 38.5762Z" fill="#114232"/>
<path d="M7.59127 36.3965L6.41064 37.5771L6.85862 38.0251L8.03924 36.8445L7.59127 36.3965Z" fill="#114232"/>
<path d="M6.85984 38.5752L6.41187 39.0232L7.59249 40.2038L8.04046 39.7558L6.85984 38.5752Z" fill="#114232"/>
<path d="M4.68015 36.3977L4.23218 36.8457L5.4128 38.0263L5.86077 37.5784L4.68015 36.3977Z" fill="#114232"/>
<path d="M57.1406 29.3621L55.9585 30.5442L56.4065 30.9922L57.5885 29.8101L57.1406 29.3621Z" fill="#114232"/>
<path d="M59.3195 27.1839L58.1375 28.366L58.5854 28.8139L59.7675 27.6319L59.3195 27.1839Z" fill="#114232"/>
<path d="M58.5852 29.3618L58.1372 29.8098L59.3193 30.9919L59.7673 30.5439L58.5852 29.3618Z" fill="#114232"/>
<path d="M56.4065 27.1829L55.9585 27.6309L57.1406 28.8129L57.5885 28.365L56.4065 27.1829Z" fill="#114232"/>
<path d="M29.1162 5.83817L27.9355 7.0188L28.3835 7.46677L29.5641 6.28615L29.1162 5.83817Z" fill="#114232"/>
<path d="M31.2951 3.65995L30.1145 4.84058L30.5625 5.28855L31.7431 4.10792L31.2951 3.65995Z" fill="#114232"/>
<path d="M30.5622 5.83694L30.1143 6.28491L31.2949 7.46554L31.7429 7.01756L30.5622 5.83694Z" fill="#114232"/>
<path d="M28.384 3.65823L27.936 4.1062L29.1181 5.28827L29.5661 4.8403L28.384 3.65823Z" fill="#114232"/>
<path d="M17.4553 56.5623H16.8218V60.6945H17.4553V56.5623Z" fill="#114232"/>
<path d="M19.205 58.3115H15.0728V58.9451H19.205V58.3115Z" fill="#114232"/>
<path d="M56.281 7.59602H52.7577C52.5819 7.59602 52.4409 7.45501 52.4409 7.27925V3.75598C52.4409 3.58022 52.5819 3.43921 52.7577 3.43921H56.281C56.4567 3.43921 56.5977 3.58022 56.5977 3.75598V7.27925C56.5977 7.45501 56.4567 7.59602 56.281 7.59602ZM53.0745 6.96248H55.9642V4.07274H53.0745V6.96248Z" fill="#114232"/>
<path d="M12.6692 9.41899H7.12268C7.01027 9.41899 6.904 9.35768 6.84883 9.25958C6.7916 9.16149 6.7916 9.04091 6.84883 8.94282L9.62207 4.13817C9.6793 4.04007 9.78352 3.97876 9.89593 3.97876C10.0083 3.97876 10.1146 4.04007 10.1698 4.13817L12.9451 8.94282C13.0023 9.04091 13.0023 9.16149 12.9451 9.25958C12.8878 9.35768 12.7836 9.41899 12.6692 9.41899ZM7.67242 8.78545H12.1215L9.89593 4.93111L7.67242 8.78545Z" fill="#114232"/>
<path d="M57.395 58.2072C56.1483 58.2072 55.1367 57.1935 55.1367 55.9489C55.1367 54.7023 56.1504 53.6907 57.395 53.6907C58.6416 53.6907 59.6532 54.7043 59.6532 55.9489C59.6553 57.1935 58.6416 58.2072 57.395 58.2072ZM57.395 54.3222C56.4978 54.3222 55.7703 55.0518 55.7703 55.9469C55.7703 56.842 56.4998 57.5716 57.395 57.5716C58.2901 57.5716 59.0197 56.842 59.0197 55.9469C59.0197 55.0518 58.2921 54.3222 57.395 54.3222Z" fill="#114232"/>
<path d="M19.2416 16.7842L18.5937 18.0962L17.1448 18.3067L18.1932 19.3285L17.9459 20.7714L19.2416 20.0908L20.5373 20.7714L20.29 19.3285L21.3384 18.3067L19.8894 18.0962L19.2416 16.7842Z" fill="#30BC90"/>
<path d="M23.7356 20.7714L25.0313 20.0908L26.329 20.7714L26.0797 19.3285L27.1281 18.3067L25.6812 18.0962L25.0313 16.7842L24.3834 18.0962L22.9365 18.3067L23.9849 19.3285L23.7356 20.7714Z" fill="#30BC90"/>
<path d="M29.3253 20.7716L31.2259 19.7722L33.1265 20.7716L32.7627 18.6543L34.3016 17.1563L32.1762 16.8477L31.2259 14.9226L30.2756 16.8477L28.1501 17.1563L29.689 18.6543L29.3253 20.7716Z" fill="#30BC90"/>
<path d="M36.1226 20.7714L37.4203 20.0908L38.716 20.7714L38.4666 19.3285L39.515 18.3067L38.0681 18.0962L37.4203 16.7842L36.7704 18.0962L35.3235 18.3067L36.3719 19.3285L36.1226 20.7714Z" fill="#30BC90"/>
<path d="M41.9139 20.7714L43.2096 20.0908L44.5053 20.7714L44.258 19.3285L45.3064 18.3067L43.8574 18.0962L43.2096 16.7842L42.5617 18.0962L41.1128 18.3067L42.1612 19.3285L41.9139 20.7714Z" fill="#30BC90"/>
<path d="M30.9029 45.4753H28.2339V51.3815H30.9029V45.4753Z" fill="#30BC90"/>
<path d="M31.5383 45.4753V51.3815H31.5465H34.2176V45.4753H31.5465H31.5383Z" fill="#30BC90"/>
<path d="M38.9649 22.3103H23.4862C22.6565 22.3103 21.9841 22.9827 21.9841 23.8124V51.3794H27.5919H27.6022V44.8396H30.9047H31.5485H34.851V51.3794H34.8612H40.4691V23.8144C40.467 22.9847 39.7946 22.3103 38.9649 22.3103ZM30.5716 23.4384H32.8503V23.7572H31.9V26.2873H31.5219V23.7572H30.5716V23.4384ZM34.2175 36.9818V38.6698H32.5294V36.9818H34.2175ZM32.5294 34.3761V32.688H34.2175V34.3761H32.5294ZM34.2175 41.2755V42.9636H32.5294V41.2755H34.2175ZM34.2175 30.0824H32.5294V28.3943H34.2175V30.0824ZM29.9217 32.688V34.3761H28.2337V32.688H29.9217ZM28.2337 30.0824V28.3943H29.9217V30.0824H28.2337ZM29.9217 36.9818V38.6698H28.2337V36.9818H29.9217ZM29.9217 41.2755V42.9636H28.2337V41.2755H29.9217ZM25.628 47.1633H23.9399V45.4752H25.628V47.1633ZM25.628 42.9636H23.9399V41.2755H25.628V42.9636ZM25.628 38.6698H23.9399V36.9818H25.628V38.6698ZM25.628 34.3761H23.9399V32.688H25.628V34.3761ZM25.628 30.0824H23.9399V28.3943H25.628V30.0824ZM26.4005 26.2893H26.0204V24.9834H24.5203V26.2893H24.1402V23.4404H24.5203V24.6666H26.0204V23.4404H26.4005V26.2893ZM27.2731 24.8649C27.2731 24.0862 27.733 23.373 28.6383 23.373C29.3474 23.373 29.7827 23.8104 29.9381 24.3724C29.9401 24.3785 29.9422 24.3867 29.9442 24.3928C29.983 24.544 30.0035 24.7034 30.0035 24.8649C30.0035 25.6435 29.5436 26.3568 28.6383 26.3568C27.7309 26.3568 27.2731 25.6435 27.2731 24.8649ZM35.5541 26.2893H33.5737V23.4404H35.5418V23.7593H33.9539V24.6646H35.4355V24.9834H33.9539V25.9685H35.5541V26.2893ZM36.4206 23.4384H36.8007V25.9685H38.3089V26.2873H36.4206V23.4384ZM38.5133 47.1633H36.8252V45.4752H38.5133V47.1633ZM38.5133 42.9636H36.8252V41.2755H38.5133V42.9636ZM38.5133 38.6698H36.8252V36.9818H38.5133V38.6698ZM38.5133 34.3761H36.8252V32.688H38.5133V34.3761ZM38.5133 30.0824H36.8252V28.3943H38.5133V30.0824Z" fill="#30BC90"/>
<path d="M28.6384 26.038C29.1824 26.038 29.6234 25.5128 29.6234 24.865C29.6234 24.2171 29.1824 23.6919 28.6384 23.6919C28.0943 23.6919 27.6533 24.2171 27.6533 24.865C27.6533 25.5128 28.0943 26.038 28.6384 26.038Z" fill="#30BC90"/>
<path d="M20.1226 35.7925H12.5059C11.8723 35.7925 11.3594 36.3054 11.3594 36.939V51.3795H21.2711V36.939C21.2711 36.3075 20.7561 35.7925 20.1226 35.7925ZM15.0604 48.2956H13.5931V46.8283H15.0604V48.2956ZM15.0604 44.3207H13.5931V42.8533H15.0604V44.3207ZM15.0604 40.3478H13.5931V38.8805H15.0604V40.3478ZM19.0354 48.2956H17.568V46.8283H19.0354V48.2956ZM19.0354 44.3207H17.568V42.8533H19.0354V44.3207ZM19.0354 40.3478H17.568V38.8805H19.0354V40.3478Z" fill="#30BC90"/>
<path d="M49.9454 35.7925H42.3267C41.6931 35.7925 41.1802 36.3054 41.1802 36.939V51.3795H51.0919V36.939C51.0919 36.3075 50.579 35.7925 49.9454 35.7925ZM44.8833 48.2956H43.4159V46.8283H44.8833V48.2956ZM44.8833 44.3207H43.4159V42.8533H44.8833V44.3207ZM44.8833 40.3478H43.4159V38.8805H44.8833V40.3478ZM48.8582 48.2956H47.3909V46.8283H48.8582V48.2956ZM48.8582 44.3207H47.3909V42.8533H48.8582V44.3207ZM48.8582 40.3478H47.3909V38.8805H48.8582V40.3478Z" fill="#30BC90"/>
<path d="M18.5351 18.5276L18.343 19.6414C18.3021 19.8785 18.4002 20.1196 18.5943 20.2606C18.7047 20.3403 18.8355 20.3812 18.9663 20.3812C19.0664 20.3812 19.1686 20.3567 19.2606 20.3076L20.262 19.7804L21.2634 20.3076C21.3553 20.3567 21.4575 20.3812 21.5577 20.3812C21.6884 20.3812 21.8192 20.3403 21.9296 20.2606C22.1237 20.1196 22.2218 19.8785 22.181 19.6414L21.9889 18.5276L22.7982 17.7388C22.9698 17.5712 23.0332 17.3178 22.9576 17.0889C22.884 16.86 22.6858 16.6924 22.4466 16.6577L21.3267 16.4942L20.826 15.4805C20.7197 15.2639 20.499 15.127 20.2579 15.127C20.0167 15.127 19.796 15.2639 19.6897 15.4805L19.189 16.4942L18.0691 16.6577C17.83 16.6924 17.6318 16.86 17.5582 17.0889C17.4846 17.3178 17.5459 17.5691 17.7176 17.7388L18.5351 18.5276ZM21.3124 18.3069L21.5597 19.7497L20.264 19.0692L18.9683 19.7497L19.2156 18.3069L18.1672 17.2851L19.6162 17.0746L20.264 15.7625L20.9119 17.0746L22.3608 17.2851L21.3124 18.3069Z" fill="#114232"/>
<path d="M24.3249 18.5276L24.1328 19.6414C24.0919 19.8785 24.19 20.1196 24.3841 20.2606C24.4945 20.3403 24.6253 20.3812 24.7561 20.3812C24.8562 20.3812 24.9584 20.3567 25.0504 20.3076L26.0518 19.7804L27.0532 20.3076C27.1451 20.3567 27.2473 20.3812 27.3474 20.3812C27.4782 20.3812 27.609 20.3403 27.7194 20.2606C27.9135 20.1196 28.0116 19.8785 27.9708 19.6414L27.7787 18.5276L28.5879 17.7388C28.7596 17.5712 28.823 17.3178 28.7474 17.0889C28.6738 16.86 28.4755 16.6924 28.2364 16.6577L27.1165 16.4942L26.6158 15.4805C26.5095 15.2639 26.2888 15.127 26.0477 15.127C25.8065 15.127 25.5858 15.2639 25.4795 15.4805L24.9788 16.4942L23.8589 16.6577C23.6198 16.6924 23.4216 16.86 23.348 17.0889C23.2744 17.3178 23.3357 17.5691 23.5074 17.7388L24.3249 18.5276ZM27.1022 18.3069L27.3495 19.7497L26.0538 19.0692L24.7581 19.7497L25.0054 18.3069L23.957 17.2851L25.406 17.0746L26.0538 15.7625L26.7016 17.0746L28.1506 17.2851L27.1022 18.3069Z" fill="#114232"/>
<path d="M30.0306 17.8552L29.724 19.6434C29.6831 19.8805 29.7812 20.1216 29.9754 20.2626C30.0857 20.3423 30.2165 20.3832 30.3473 20.3832C30.4475 20.3832 30.5497 20.3587 30.6416 20.3096L32.2479 19.4656L33.8543 20.3096C33.9462 20.3587 34.0484 20.3832 34.1485 20.3832C34.2793 20.3832 34.4101 20.3423 34.5205 20.2626C34.7146 20.1216 34.8127 19.8805 34.7719 19.6434L34.4653 17.8552L35.7651 16.5881C35.9367 16.4206 36.0001 16.1671 35.9245 15.9382C35.8509 15.7094 35.6527 15.5418 35.4136 15.507L33.6192 15.2454L32.8161 13.6187C32.7098 13.4021 32.4891 13.2651 32.2479 13.2651C32.0068 13.2651 31.7861 13.4021 31.6798 13.6187L30.8766 15.2454L29.0823 15.507C28.8432 15.5418 28.645 15.7094 28.5714 15.9382C28.4978 16.1671 28.5591 16.4185 28.7308 16.5881L30.0306 17.8552ZM33.7848 17.6324L34.1485 19.7476L32.2479 18.7483L30.3473 19.7476L30.7111 17.6324L29.1743 16.1344L31.2997 15.8258L32.25 13.9007L33.2003 15.8258L35.3257 16.1344L33.7848 17.6324Z" fill="#114232"/>
<path d="M35.7428 17.0889C35.6692 17.3178 35.7305 17.5691 35.9022 17.7388L36.7115 18.5276L36.5194 19.6414C36.4785 19.8785 36.5766 20.1196 36.7707 20.2606C36.8811 20.3403 37.0119 20.3812 37.1427 20.3812C37.2428 20.3812 37.345 20.3567 37.437 20.3076L38.4384 19.7804L39.4398 20.3076C39.5317 20.3567 39.6339 20.3812 39.734 20.3812C39.8648 20.3812 39.9956 20.3403 40.106 20.2606C40.3001 20.1196 40.3982 19.8785 40.3574 19.6414L40.1653 18.5276L40.9745 17.7388C41.1462 17.5712 41.2096 17.3178 41.134 17.0889C41.0604 16.86 40.8621 16.6924 40.623 16.6577L39.5031 16.4942L39.0024 15.4805C38.8961 15.2639 38.6754 15.127 38.4343 15.127C38.1931 15.127 37.9724 15.2639 37.8661 15.4805L37.3654 16.4942L36.2455 16.6577C36.0146 16.6924 35.8163 16.86 35.7428 17.0889ZM39.4888 18.3069L39.7361 19.7497L38.4404 19.0692L37.1447 19.7497L37.392 18.3069L36.3436 17.2851L37.7926 17.0746L38.4404 15.7625L39.0882 17.0746L40.5372 17.2851L39.4888 18.3069Z" fill="#114232"/>
<path d="M42.5031 18.5276L42.311 19.6414C42.2701 19.8785 42.3682 20.1196 42.5624 20.2606C42.6727 20.3403 42.8035 20.3812 42.9343 20.3812C43.0344 20.3812 43.1366 20.3567 43.2286 20.3076L44.23 19.7804L45.2314 20.3076C45.3233 20.3567 45.4255 20.3812 45.5257 20.3812C45.6565 20.3812 45.7873 20.3403 45.8976 20.2606C46.0918 20.1196 46.1899 19.8785 46.149 19.6414L45.9569 18.5276L46.7662 17.7388C46.9378 17.5712 47.0012 17.3178 46.9256 17.0889C46.852 16.86 46.6538 16.6924 46.4147 16.6577L45.2947 16.4942L44.794 15.4805C44.6878 15.2639 44.4671 15.127 44.2259 15.127C43.9847 15.127 43.764 15.2639 43.6578 15.4805L43.1571 16.4942L42.0371 16.6577C41.798 16.6924 41.5998 16.86 41.5262 17.0889C41.4526 17.3178 41.514 17.5691 41.6856 17.7388L42.5031 18.5276ZM45.2804 18.3069L45.5277 19.7497L44.232 19.0692L42.9363 19.7497L43.1836 18.3069L42.1352 17.2851L43.5842 17.0746L44.232 15.7625L44.8799 17.0746L46.3288 17.2851L45.2804 18.3069Z" fill="#114232"/>
<path d="M24.3267 46.775H27.2818V43.8198H24.3267V46.775ZM24.9602 44.4534H26.6483V46.1414H24.9602V44.4534Z" fill="#114232"/>
<path d="M24.3267 42.5755H27.2818V39.6204H24.3267V42.5755ZM24.9602 40.2539H26.6483V41.942H24.9602V40.2539Z" fill="#114232"/>
<path d="M24.3267 38.2818H27.2818V35.3267H24.3267V38.2818ZM24.9602 35.9602H26.6483V37.6483H24.9602V35.9602Z" fill="#114232"/>
<path d="M24.3267 33.9879H27.2818V31.0327H24.3267V33.9879ZM24.9602 31.6663H26.6483V33.3543H24.9602V31.6663Z" fill="#114232"/>
<path d="M24.3267 29.6942H27.2818V26.739H24.3267V29.6942ZM24.9602 27.3725H26.6483V29.0606H24.9602V27.3725Z" fill="#114232"/>
<path d="M28.6226 42.5755H31.5777V39.6204H28.6226V42.5755ZM29.2561 40.2539H30.9442V41.942H29.2561V40.2539Z" fill="#114232"/>
<path d="M28.6226 38.2818H31.5777V35.3267H28.6226V38.2818ZM29.2561 35.9602H30.9442V37.6483H29.2561V35.9602Z" fill="#114232"/>
<path d="M28.6226 33.9879H31.5777V31.0327H28.6226V33.9879ZM29.2561 31.6663H30.9442V33.3543H29.2561V31.6663Z" fill="#114232"/>
<path d="M28.6226 29.6942H31.5777V26.739H28.6226V29.6942ZM29.2561 27.3725H30.9442V29.0606H29.2561V27.3725Z" fill="#114232"/>
<path d="M32.9187 42.5755H35.8738V39.6204H32.9187V42.5755ZM33.5522 40.2539H35.2403V41.942H33.5522V40.2539Z" fill="#114232"/>
<path d="M32.9187 38.2818H35.8738V35.3267H32.9187V38.2818ZM33.5522 35.9602H35.2403V37.6483H33.5522V35.9602Z" fill="#114232"/>
<path d="M32.9187 33.9881H35.8738V31.033H32.9187V33.9881ZM33.5522 31.6665H35.2403V33.3546H33.5522V31.6665Z" fill="#114232"/>
<path d="M32.9187 29.6942H35.8738V26.739H32.9187V29.6942ZM33.5522 27.3725H35.2403V29.0606H33.5522V27.3725Z" fill="#114232"/>
<path d="M37.2122 46.775H40.1673V43.8198H37.2122V46.775ZM37.8457 44.4534H39.5338V46.1414H37.8457V44.4534Z" fill="#114232"/>
<path d="M37.2122 42.5755H40.1673V39.6204H37.2122V42.5755ZM37.8457 40.2539H39.5338V41.942H37.8457V40.2539Z" fill="#114232"/>
<path d="M37.2122 38.2818H40.1673V35.3267H37.2122V38.2818ZM37.8457 35.9602H39.5338V37.6483H37.8457V35.9602Z" fill="#114232"/>
<path d="M37.2122 33.9879H40.1673V31.0327H37.2122V33.9879ZM37.8457 31.6663H39.5338V33.3543H37.8457V31.6663Z" fill="#114232"/>
<path d="M37.2122 29.6942H40.1673V26.739H37.2122V29.6942ZM37.8457 27.3725H39.5338V29.0606H37.8457V27.3725Z" fill="#114232"/>
<path d="M39.3315 25.9011H39.965V25.2676V24.9488V24.3153H39.3315H38.4568V22.4187V21.7852H37.8232H37.4431H37.1979H36.8096H36.5643H34.5963H34.5064H33.9628H33.8728H31.5941H30.9606V22.1858C30.6132 21.8813 30.1615 21.7178 29.6608 21.7178C29.0518 21.7178 28.5143 21.961 28.1506 22.4024C28.1179 22.4412 28.0872 22.4821 28.0586 22.525V22.4187V21.7852H27.4251H27.045H26.4114V22.4187V23.0114H26.1784V22.4187V21.7852H25.5449H25.1648H24.5312V22.4187V25.2676V25.9011H25.1648H25.5449H26.1784V25.2676V24.5953H26.4114V25.2676V25.9011H27.045H27.4251H28.0586V25.2676V25.1613C28.0872 25.2043 28.1179 25.2451 28.1506 25.284C28.5143 25.7254 29.0518 25.9686 29.6608 25.9686C30.2699 25.9686 30.8073 25.7254 31.1711 25.284C31.4858 24.9038 31.6595 24.3909 31.6595 23.8411C31.6595 23.6797 31.6432 23.5223 31.6146 23.3691H31.9109V25.2656V25.8991H32.5445H32.9246H33.5581V25.2656V23.3691H33.8749H33.9648V25.2656V25.8991H34.5983H36.5786H36.8137H37.2122H37.4472H39.3315V25.9011ZM39.3315 24.9488V25.2676H37.4431V22.4187H37.8232V24.9488H39.3315ZM36.5766 25.2676H34.5963V22.4187H36.5643V22.7376H34.9764V23.6429H36.4581V23.9617H34.9764V24.9468H36.5766V25.2676ZM33.8728 22.7376H32.9225V25.2676H32.5445V22.7376H31.5941V22.4187H33.8728V22.7376ZM29.6608 25.3351C28.7555 25.3351 28.2957 24.6198 28.2957 23.8432C28.2957 23.0666 28.7555 22.3513 29.6608 22.3513C30.37 22.3513 30.8053 22.7887 30.9606 23.3507C30.9627 23.3568 30.9647 23.365 30.9667 23.3711C31.0056 23.5223 31.026 23.6817 31.026 23.8432C31.026 24.6218 30.5662 25.3351 29.6608 25.3351ZM25.5429 25.2676H25.1627V22.4187H25.5429V23.6449H27.0429V22.4187H27.423V25.2676H27.0429V23.9617H25.5429V25.2676Z" fill="#114232"/>
<path d="M29.6606 22.6699C28.9657 22.6699 28.6755 23.2687 28.6755 23.843C28.6755 24.4173 28.9678 25.016 29.6606 25.016C30.3534 25.016 30.6456 24.4173 30.6456 23.843C30.6456 23.2687 30.3534 22.6699 29.6606 22.6699ZM29.6606 24.3825C29.354 24.3825 29.3091 24.0433 29.3091 23.843C29.3091 23.6427 29.354 23.3035 29.6606 23.3035C29.9671 23.3035 30.0121 23.6427 30.0121 23.843C30.0121 24.0433 29.9671 24.3825 29.6606 24.3825Z" fill="#114232"/>
<path d="M17.9565 39.9595H20.691V37.2251H17.9565V39.9595ZM18.5901 37.8586H20.0574V39.326H18.5901V37.8586Z" fill="#114232"/>
<path d="M17.9565 43.9324H20.691V41.198H17.9565V43.9324ZM18.5901 41.8315H20.0574V43.2989H18.5901V41.8315Z" fill="#114232"/>
<path d="M17.9565 47.9073H20.691V45.1729H17.9565V47.9073ZM18.5901 45.8043H20.0574V47.2717H18.5901V45.8043Z" fill="#114232"/>
<path d="M13.9817 39.9595H16.7161V37.2251H13.9817V39.9595ZM14.6152 37.8586H16.0826V39.326H14.6152V37.8586Z" fill="#114232"/>
<path d="M13.9817 43.9324H16.7161V41.198H13.9817V43.9324ZM14.6152 41.8315H16.0826V43.2989H14.6152V41.8315Z" fill="#114232"/>
<path d="M13.9817 47.9073H16.7161V45.1729H13.9817V47.9073ZM14.6152 45.8043H16.0826V47.2717H14.6152V45.8043Z" fill="#114232"/>
<path d="M50.968 34.1371H43.3492C42.8751 34.1371 42.4418 34.323 42.123 34.6275V22.7907C42.123 21.6135 41.1645 20.655 39.9874 20.655H24.5087C23.3315 20.655 22.373 21.6135 22.373 22.7907V34.6275C22.0542 34.323 21.621 34.1371 21.1469 34.1371H13.5281C12.5471 34.1371 11.748 34.9361 11.748 35.9171V50.3576V50.9912H12.3816H22.2933H22.373H22.9269H23.0066H28.6144H28.6246H29.2479H29.2581H31.9272H31.9374H32.5607H32.5709H35.2399H35.2502H35.8735H35.8837H41.4915H41.5712H42.125H42.2047H52.1165H52.75V50.3576V35.9171C52.748 34.9361 51.951 34.1371 50.968 34.1371ZM52.1145 50.3597H42.2027V35.9191C42.2027 35.2856 42.7157 34.7727 43.3492 34.7727H50.968C51.6015 34.7727 52.1145 35.2856 52.1145 35.9191V50.3597ZM41.4895 50.3597H35.8817H35.8714V43.8199H32.5689H31.9251H28.6226V50.3597H28.6123H23.0045V22.7927C23.0045 21.963 23.6769 21.2906 24.5066 21.2906H39.9853C40.8151 21.2906 41.4874 21.963 41.4874 22.7927V50.3597H41.4895ZM29.2561 44.4535H31.9251V50.3597H29.2561V44.4535ZM32.5607 44.4535H32.5709H35.2399V50.3597H32.5709H32.5607V44.4535ZM22.2933 50.3597H12.3816V35.9191C12.3816 35.2856 12.8945 34.7727 13.5281 34.7727H21.1469C21.7804 34.7727 22.2933 35.2856 22.2933 35.9191V50.3597Z" fill="#114232"/>
<path d="M47.7798 39.9595H50.5142V37.2251H47.7798V39.9595ZM48.4133 37.8586H49.8807V39.326H48.4133V37.8586Z" fill="#114232"/>
<path d="M47.7798 43.9324H50.5142V41.198H47.7798V43.9324ZM48.4133 41.8315H49.8807V43.2989H48.4133V41.8315Z" fill="#114232"/>
<path d="M47.7798 47.9073H50.5142V45.1729H47.7798V47.9073ZM48.4133 45.8043H49.8807V47.2717H48.4133V45.8043Z" fill="#114232"/>
<path d="M43.8049 39.9595H46.5394V37.2251H43.8049V39.9595ZM44.4385 37.8586H45.9058V39.326H44.4385V37.8586Z" fill="#114232"/>
<path d="M43.8049 43.9324H46.5394V41.198H43.8049V43.9324ZM44.4385 41.8315H45.9058V43.2989H44.4385V41.8315Z" fill="#114232"/>
<path d="M43.8049 47.9073H46.5394V45.1729H43.8049V47.9073ZM44.4385 45.8043H45.9058V47.2717H44.4385V45.8043Z" fill="#114232"/>
</svg>
