<svg width="64" height="65" viewBox="0 0 64 65" fill="none" xmlns="http://www.w3.org/2000/svg">
<path d="M54.6101 4.55737H51.1299V8.03762H54.6101V4.55737Z" fill="#30BC90"/>
<path d="M8.79139 5.09204L6.052 9.83802H11.5308L8.79139 5.09204Z" fill="#30BC90"/>
<path d="M57.0652 57.4676C57.8142 56.7187 57.8142 55.5044 57.0652 54.7555C56.3163 54.0066 55.1021 54.0066 54.3531 54.7555C53.6042 55.5044 53.6042 56.7187 54.3531 57.4676C55.1021 58.2166 56.3163 58.2166 57.0652 57.4676Z" fill="#30BC90"/>
<path d="M5.59565 37.7413L4.42944 38.9075L4.87195 39.35L6.03815 38.1838L5.59565 37.7413Z" fill="#114232"/>
<path d="M7.74653 35.5877L6.58032 36.7539L7.02282 37.1964L8.18903 36.0302L7.74653 35.5877Z" fill="#114232"/>
<path d="M7.0238 37.7404L6.5813 38.1829L7.74751 39.3491L8.19001 38.9066L7.0238 37.7404Z" fill="#114232"/>
<path d="M4.87073 35.589L4.42822 36.0315L5.59443 37.1977L6.03693 36.7552L4.87073 35.589Z" fill="#114232"/>
<path d="M56.6903 28.6395L55.5227 29.8071L55.9652 30.2496L57.1328 29.082L56.6903 28.6395Z" fill="#114232"/>
<path d="M58.8427 26.4876L57.675 27.6553L58.1176 28.0978L59.2852 26.9301L58.8427 26.4876Z" fill="#114232"/>
<path d="M58.1173 28.639L57.6748 29.0815L58.8424 30.2492L59.2849 29.8067L58.1173 28.639Z" fill="#114232"/>
<path d="M55.9655 26.4869L55.5229 26.9294L56.6906 28.0971L57.1331 27.6546L55.9655 26.4869Z" fill="#114232"/>
<path d="M29.0087 5.40288L27.8425 6.56909L28.285 7.01159L29.4512 5.84539L29.0087 5.40288Z" fill="#114232"/>
<path d="M31.1608 3.25127L29.9946 4.41748L30.4371 4.85998L31.6033 3.69377L31.1608 3.25127Z" fill="#114232"/>
<path d="M30.4369 5.40174L29.9944 5.84424L31.1606 7.01045L31.6031 6.56794L30.4369 5.40174Z" fill="#114232"/>
<path d="M28.2855 3.24939L27.843 3.69189L29.0107 4.85953L29.4532 4.41703L28.2855 3.24939Z" fill="#114232"/>
<path d="M17.4901 55.5076H16.8643V59.5894H17.4901V55.5076Z" fill="#114232"/>
<path d="M19.2181 57.2356H15.1362V57.8614H19.2181V57.2356Z" fill="#114232"/>
<path d="M55.8415 7.13925H52.3612C52.1876 7.13925 52.0483 6.99996 52.0483 6.82635V3.3461C52.0483 3.17249 52.1876 3.0332 52.3612 3.0332H55.8415C56.0151 3.0332 56.1544 3.17249 56.1544 3.3461V6.82635C56.1544 6.99996 56.0151 7.13925 55.8415 7.13925ZM52.6741 6.51345H55.5286V3.659H52.6741V6.51345Z" fill="#114232"/>
<path d="M12.7624 8.93996H7.2836C7.17257 8.93996 7.0676 8.8794 7.0131 8.7825C6.95657 8.6856 6.95657 8.5665 7.0131 8.4696L9.75248 3.72362C9.809 3.62672 9.91196 3.56616 10.023 3.56616C10.134 3.56616 10.239 3.62672 10.2935 3.72362L13.0349 8.4696C13.0914 8.5665 13.0914 8.6856 13.0349 8.7825C12.9784 8.8794 12.8754 8.93996 12.7624 8.93996ZM7.82663 8.31416H12.2214L10.023 4.50688L7.82663 8.31416Z" fill="#114232"/>
<path d="M56.9416 57.1325C55.7102 57.1325 54.7109 56.1312 54.7109 54.9018C54.7109 53.6704 55.7122 52.6711 56.9416 52.6711C58.173 52.6711 59.1723 53.6724 59.1723 54.9018C59.1743 56.1312 58.173 57.1325 56.9416 57.1325ZM56.9416 53.2949C56.0554 53.2949 55.3367 54.0156 55.3367 54.8998C55.3367 55.784 56.0574 56.5047 56.9416 56.5047C57.8258 56.5047 58.5465 55.784 58.5465 54.8998C58.5465 54.0156 57.8278 53.2949 56.9416 53.2949Z" fill="#114232"/>
<path d="M47.8696 16.2778H14.3147C13.271 16.2778 12.4211 17.1277 12.4211 18.1714V20.9875H49.7652V18.1714C49.7632 17.1277 48.9133 16.2778 47.8696 16.2778ZM39.7363 19.8792C39.0115 19.8792 38.4201 19.2897 38.4201 18.563C38.4201 17.8383 39.0095 17.2468 39.7363 17.2468C40.463 17.2468 41.0525 17.8363 41.0525 18.563C41.0525 19.2897 40.463 19.8792 39.7363 19.8792ZM43.1499 19.8792C42.4252 19.8792 41.8337 19.2897 41.8337 18.563C41.8337 17.8383 42.4232 17.2468 43.1499 17.2468C43.8766 17.2468 44.4661 17.8363 44.4661 18.563C44.4641 19.2897 43.8746 19.8792 43.1499 19.8792ZM46.5615 19.8792C45.8368 19.8792 45.2453 19.2897 45.2453 18.563C45.2453 17.8383 45.8348 17.2468 46.5615 17.2468C47.2882 17.2468 47.8777 17.8363 47.8777 18.563C47.8777 19.2897 47.2862 19.8792 46.5615 19.8792Z" fill="#30BC90"/>
<path d="M49.7632 21.6294H12.4211V42.9025C12.4211 43.9462 13.271 44.7961 14.3147 44.7961H27.3737V35.6352C27.3737 35.072 27.832 34.6117 28.3972 34.6117H43.913C44.4762 34.6117 44.9365 35.0699 44.9365 35.6352V44.7961H47.8696C48.9133 44.7961 49.7632 43.9462 49.7632 42.9025V21.6294ZM24.1841 39.5232V40.7506V41.3764H23.5583H16.8784H16.2526V40.7506V39.5232V38.8974H16.8784H23.5583H24.1841V39.5232ZM24.1841 34.9185V36.1459V36.7717H23.5583H16.8784H16.2526V36.1459V34.9185V34.2927H16.8784H23.5583H24.1841V34.9185ZM45.9317 30.3119V31.5392V32.165H45.3059H16.8784H16.2526V31.5392V30.3119V29.6861H16.8784H45.3059H45.9317V30.3119ZM45.9317 25.7052V26.9325V27.5583H45.3059H16.8784H16.2526V26.9325V25.7052V25.0794H16.8784H45.3059H45.9317V25.7052Z" fill="#30BC90"/>
<path d="M44.3107 35.6372C44.3107 35.4192 44.133 35.2395 43.913 35.2395H28.3972C28.1792 35.2395 27.9995 35.4171 27.9995 35.6372V47.5254C27.9995 47.7434 28.1772 47.923 28.3972 47.923H36.1551C36.2278 47.923 36.2984 47.9432 36.361 47.9836L41.3775 51.1832V47.923H43.913C44.131 47.923 44.3107 47.7454 44.3107 47.5254V35.6372ZM39.058 46.0335C38.949 46.1123 38.8198 46.1526 38.6906 46.1526C38.5917 46.1526 38.4907 46.1284 38.3999 46.08L36.1551 44.899L33.9103 46.08C33.8194 46.1284 33.7185 46.1526 33.6196 46.1526C33.4904 46.1526 33.3612 46.1123 33.2522 46.0335C33.0604 45.8942 32.9635 45.656 33.0039 45.4219L33.4319 42.9227L31.615 41.1523C31.4454 40.9868 31.3829 40.7364 31.4576 40.5103C31.5322 40.2842 31.726 40.1187 31.9622 40.0844L34.4715 39.719L35.5939 37.4439C35.6989 37.2299 35.9169 37.0947 36.1551 37.0947C36.3933 37.0947 36.6113 37.2299 36.7163 37.4439L37.8387 39.719L40.3479 40.0844C40.5841 40.1187 40.7799 40.2842 40.8526 40.5103C40.9253 40.7364 40.8647 40.9847 40.6952 41.1523L38.8783 42.9227L39.3063 45.4219C39.3487 45.656 39.2518 45.8922 39.058 46.0335Z" fill="#30BC90"/>
<path d="M48.8787 14.6426H15.3238C13.9349 14.6426 12.8044 15.7731 12.8044 17.1619V19.978V19.9942V20.6038V20.62V41.8931C12.8044 43.282 13.9349 44.4124 15.3238 44.4124H28.3828V46.5159C28.3828 47.0792 28.841 47.5394 29.4063 47.5394H37.0935L42.0515 50.7007L43.0144 51.3144V50.1738V47.5394H44.9241C45.4873 47.5394 45.9476 47.0812 45.9476 46.5159V44.4124H48.8807C50.2696 44.4124 51.4001 43.282 51.4001 41.8931V20.62V20.6038V19.9942V19.978V17.1619C51.3981 15.7731 50.2676 14.6426 48.8787 14.6426ZM45.3198 46.5159C45.3198 46.734 45.1421 46.9136 44.9221 46.9136H42.3866V50.1738L37.3701 46.9742C37.3095 46.9358 37.2369 46.9136 37.1642 46.9136H29.4063C29.1883 46.9136 29.0086 46.736 29.0086 46.5159V34.6278C29.0086 34.4098 29.1862 34.2301 29.4063 34.2301H44.9221C45.1401 34.2301 45.3198 34.4077 45.3198 34.6278V46.5159ZM50.7723 41.8931C50.7723 42.9368 49.9224 43.7866 48.8787 43.7866H45.9456V34.6258C45.9456 34.0625 45.4873 33.6023 44.9221 33.6023H29.4063C28.8431 33.6023 28.3828 34.0605 28.3828 34.6258V43.7866H15.3238C14.2801 43.7866 13.4302 42.9368 13.4302 41.8931V20.62H50.7743V41.8931H50.7723ZM50.7723 19.978H13.4302V17.1619C13.4302 16.1183 14.2801 15.2684 15.3238 15.2684H48.8807C49.9244 15.2684 50.7743 16.1183 50.7743 17.1619V19.978H50.7723Z" fill="#114232"/>
<path d="M41.3574 39.0749L38.8481 38.7095L37.7257 36.4344C37.6208 36.2205 37.4027 36.0852 37.1645 36.0852C36.9263 36.0852 36.7083 36.2205 36.6033 36.4344L35.4809 38.7095L32.9717 39.0749C32.7355 39.1092 32.5397 39.2748 32.467 39.5009C32.3943 39.727 32.4549 39.9753 32.6245 40.1428L34.4413 41.9132L34.0133 44.4124C33.973 44.6465 34.0699 44.8847 34.2616 45.024C34.3706 45.1028 34.4998 45.1431 34.629 45.1431C34.728 45.1431 34.8289 45.1189 34.9197 45.0705L37.1645 43.8895L39.4093 45.0705C39.5002 45.1189 39.6011 45.1431 39.7 45.1431C39.8292 45.1431 39.9584 45.1028 40.0674 45.024C40.2592 44.8847 40.3561 44.6465 40.3157 44.4124L39.8878 41.9132L41.7046 40.1428C41.8742 39.9773 41.9368 39.727 41.8621 39.5009C41.7874 39.2748 41.5936 39.1072 41.3574 39.0749ZM39.2155 41.6932L39.7 44.5173L37.1645 43.185L34.629 44.5173L35.1135 41.6932L33.0625 39.6926L35.8988 39.2808L37.1666 36.711L38.4343 39.2808L41.2706 39.6926L39.2155 41.6932Z" fill="#114232"/>
<path d="M40.7456 16.2375C40.0209 16.2375 39.4294 16.827 39.4294 17.5537C39.4294 18.2785 40.0189 18.8699 40.7456 18.8699C41.4724 18.8699 42.0618 18.2805 42.0618 17.5537C42.0618 16.829 41.4724 16.2375 40.7456 16.2375ZM40.7456 18.2441C40.3641 18.2441 40.0552 17.9353 40.0552 17.5537C40.0552 17.1722 40.3641 16.8633 40.7456 16.8633C41.1272 16.8633 41.436 17.1722 41.436 17.5537C41.436 17.9353 41.1272 18.2441 40.7456 18.2441Z" fill="#114232"/>
<path d="M44.159 16.2375C43.4343 16.2375 42.8428 16.827 42.8428 17.5537C42.8428 18.2785 43.4322 18.8699 44.159 18.8699C44.8857 18.8699 45.4752 18.2805 45.4752 17.5537C45.4731 16.829 44.8837 16.2375 44.159 16.2375ZM44.159 18.2441C43.7774 18.2441 43.4686 17.9353 43.4686 17.5537C43.4686 17.1722 43.7774 16.8633 44.159 16.8633C44.5405 16.8633 44.8494 17.1722 44.8494 17.5537C44.8473 17.9353 44.5385 18.2441 44.159 18.2441Z" fill="#114232"/>
<path d="M47.5708 16.2375C46.8461 16.2375 46.2546 16.827 46.2546 17.5537C46.2546 18.2785 46.8441 18.8699 47.5708 18.8699C48.2976 18.8699 48.887 18.2805 48.887 17.5537C48.887 16.829 48.2956 16.2375 47.5708 16.2375ZM47.5708 18.2441C47.1893 18.2441 46.8804 17.9353 46.8804 17.5537C46.8804 17.1722 47.1893 16.8633 47.5708 16.8633C47.9524 16.8633 48.2612 17.1722 48.2612 17.5537C48.2612 17.9353 47.9524 18.2441 47.5708 18.2441Z" fill="#114232"/>
<path d="M24.5677 40.3691H25.1935V39.7433V38.5159V37.8901H24.5677H17.8878H17.262V38.5159V39.7433V40.3691H17.8878H24.5677ZM17.8878 38.5139H24.5677V39.7413H17.8878V38.5139Z" fill="#114232"/>
<path d="M24.5677 35.7624H25.1935V35.1366V33.9092V33.2834H24.5677H17.8878H17.262V33.9092V35.1366V35.7624H17.8878H24.5677ZM17.8878 33.9092H24.5677V35.1366H17.8878V33.9092Z" fill="#114232"/>
<path d="M46.3152 31.1557H46.941V30.5299V29.3026V28.6768H46.3152H17.8878H17.262V29.3026V30.5299V31.1557H17.8878H46.3152ZM17.8878 29.3026H46.3152V30.5299H17.8878V29.3026Z" fill="#114232"/>
<path d="M46.3152 26.549H46.941V25.9232V24.6959V24.0701H46.3152H17.8878H17.262V24.6959V25.9232V26.549H17.8878H46.3152ZM17.8878 24.6959H46.3152V25.9232H17.8878V24.6959Z" fill="#114232"/>
</svg>
