<svg width="64" height="65" viewBox="0 0 64 65" fill="none" xmlns="http://www.w3.org/2000/svg">
<path d="M55.0715 4.55225H51.5327V8.09103H55.0715V4.55225Z" fill="#30BC90"/>
<path d="M8.48223 5.09644L5.69678 9.92223H11.2677L8.48223 5.09644Z" fill="#30BC90"/>
<path d="M57.568 58.3525C58.3295 57.591 58.3295 56.3563 57.568 55.5948C56.8065 54.8332 55.5718 54.8332 54.8103 55.5948C54.0487 56.3563 54.0487 57.591 54.8103 58.3525C55.5718 59.114 56.8065 59.114 57.568 58.3525Z" fill="#30BC90"/>
<path d="M5.2327 38.2942L4.04688 39.48L4.49682 39.9299L5.68264 38.7441L5.2327 38.2942Z" fill="#114232"/>
<path d="M7.41995 36.105L6.23413 37.2908L6.68408 37.7407L7.8699 36.5549L7.41995 36.105Z" fill="#114232"/>
<path d="M6.68505 38.2932L6.23511 38.7432L7.42093 39.929L7.87087 39.479L6.68505 38.2932Z" fill="#114232"/>
<path d="M4.4956 36.1062L4.04565 36.5562L5.23147 37.742L5.68142 37.292L4.4956 36.1062Z" fill="#114232"/>
<path d="M57.1868 29.0395L55.9995 30.2268L56.4495 30.6768L57.6367 29.4895L57.1868 29.0395Z" fill="#114232"/>
<path d="M59.3753 26.8518L58.188 28.0391L58.6379 28.489L59.8252 27.3017L59.3753 26.8518Z" fill="#114232"/>
<path d="M58.6374 29.0391L58.1875 29.489L59.3748 30.6763L59.8247 30.2263L58.6374 29.0391Z" fill="#114232"/>
<path d="M56.4497 26.8508L55.9998 27.3008L57.187 28.4881L57.637 28.0381L56.4497 26.8508Z" fill="#114232"/>
<path d="M29.0396 5.41232L27.8538 6.59814L28.3037 7.04809L29.4895 5.86227L29.0396 5.41232Z" fill="#114232"/>
<path d="M31.2281 3.22409L30.0422 4.40991L30.4922 4.85986L31.678 3.67403L31.2281 3.22409Z" fill="#114232"/>
<path d="M30.4919 5.41114L30.042 5.86108L31.2278 7.04691L31.6778 6.59696L30.4919 5.41114Z" fill="#114232"/>
<path d="M28.3039 3.22266L27.854 3.67261L29.0413 4.85988L29.4912 4.40994L28.3039 3.22266Z" fill="#114232"/>
<path d="M17.3272 56.3594H16.6909V60.5098H17.3272V56.3594Z" fill="#114232"/>
<path d="M19.0841 58.1165H14.9336V58.7528H19.0841V58.1165Z" fill="#114232"/>
<path d="M56.3235 7.17754H52.7847C52.6082 7.17754 52.4666 7.03591 52.4666 6.85938V3.3206C52.4666 3.14407 52.6082 3.00244 52.7847 3.00244H56.3235C56.5 3.00244 56.6417 3.14407 56.6417 3.3206V6.85938C56.6417 7.03591 56.5 7.17754 56.3235 7.17754ZM53.1029 6.54122H56.0053V3.63876H53.1029V6.54122Z" fill="#114232"/>
<path d="M12.5199 9.0086H6.94902C6.83612 9.0086 6.72939 8.94702 6.67397 8.8485C6.61649 8.74997 6.61649 8.62886 6.67397 8.53034L9.45942 3.70454C9.51689 3.60601 9.62158 3.54443 9.73448 3.54443C9.84737 3.54443 9.95411 3.60601 10.0095 3.70454L12.797 8.53034C12.8545 8.62886 12.8545 8.74997 12.797 8.8485C12.7396 8.94702 12.6349 9.0086 12.5199 9.0086ZM7.50119 8.37228H11.9698L9.73448 4.50097L7.50119 8.37228Z" fill="#114232"/>
<path d="M57.4423 58.0117C56.1901 58.0117 55.1741 56.9936 55.1741 55.7435C55.1741 54.4914 56.1922 53.4753 57.4423 53.4753C58.6944 53.4753 59.7104 54.4935 59.7104 55.7435C59.7125 56.9936 58.6944 58.0117 57.4423 58.0117ZM57.4423 54.1096C56.5411 54.1096 55.8104 54.8424 55.8104 55.7415C55.8104 56.6405 56.5432 57.3733 57.4423 57.3733C58.3413 57.3733 59.0741 56.6405 59.0741 55.7415C59.0741 54.8424 58.3434 54.1096 57.4423 54.1096Z" fill="#114232"/>
<path d="M20.7879 23.3527V26.5323H31.3365V29.1063H33.3522V24.5186H22.8036V18.843L9.68506 30.5904L22.8036 42.3377V36.6642H26.8843V34.6485H20.7879V37.828L12.7066 30.5904L20.7879 23.3527Z" fill="#30BC90"/>
<path d="M52.3126 36.7296L40.5776 26.22V31.1217C40.2491 31.1217 29.0971 31.1217 28.8979 31.1217C28.8979 31.1381 28.8979 42.1075 28.8979 42.3374H40.5776V47.2392L52.3126 36.7296Z" fill="#30BC90"/>
<path d="M21.8141 32.9858H21.1778V33.6221V35.3792L14.6853 29.564L21.1778 23.7488V25.5059V26.1422H21.8141H31.7264V28.0799V28.7162H32.3627H34.3784H35.0148V28.0799V23.4922V22.8559H34.3784H24.4662V17.8166V16.3921L23.4049 17.3425L10.2864 29.0898L9.75684 29.564L10.2864 30.0381L23.4049 41.7855L24.4662 42.7359V41.3113V36.2721H27.9105H28.5469V35.6357V33.62V32.9837H27.9105H21.8141V32.9858ZM27.9105 35.6378H23.8298V41.3134L10.7113 29.566L23.8298 17.8187V23.4943H34.3784V28.082H32.3627V25.5079H21.8141V22.3263L13.7308 29.564L21.8141 36.8017V33.6221H27.9085V35.6378H27.9105Z" fill="#114232"/>
<path d="M53.7637 35.2293L42.0287 24.7197L40.9675 23.7693V25.1938V29.4592H29.9242H29.2878V30.0956V41.3113V41.9476H29.9242H40.9675V46.213V47.6376L42.0287 46.6872L53.7637 36.1776L54.2933 35.7034L53.7637 35.2293ZM29.9242 30.0956C30.1212 30.0956 41.2754 30.0956 41.6038 30.0956V25.1938L53.3388 35.7034L41.6038 46.213V41.3113H29.9242C29.9242 41.0814 29.9242 30.112 29.9242 30.0956Z" fill="#114232"/>
</svg>
