<svg xmlns="http://www.w3.org/2000/svg" xmlns:xlink="http://www.w3.org/1999/xlink" width="66" height="47" viewBox="0 0 66 47">
    <defs>
        <radialGradient id="prefix__c" cx="31.694%" cy="50%" r="213.814%" fx="31.694%" fy="50%" gradientTransform="scale(.46342 1) rotate(4.049 .5 5.69)">
            <stop offset="0%" stop-color="#FFCC4C"/>
            <stop offset="100%" stop-color="#FFE367"/>
        </radialGradient>
        <path id="prefix__a" d="M34.203 2.657L18.433.09c-2.364-.387-4.783.508-6.35 2.35L1.627 14.714C.059 16.556-.416 19.055.379 21.28l5.313 14.85c.796 2.223 2.741 3.832 5.103 4.214l15.77 2.568c2.364.387 4.783-.508 6.35-2.35l10.46-12.27c1.566-1.842 2.041-4.342 1.246-6.565L39.306 6.872c-.796-2.224-2.74-3.828-5.103-4.215z"/>
    </defs>
    <g fill="none" fill-rule="evenodd">
        <g transform="translate(-1) matrix(-1 0 0 1 48 2)">
            <mask id="prefix__b" fill="#fff">
                <use xlink:href="#prefix__a"/>
            </mask>
            <path stroke="#CFCFCF" stroke-width="2" d="M.864 14.066c-.899 1.057-1.483 2.302-1.73 3.602-.248 1.306-.155 2.666.304 3.948L4.75 36.465c.46 1.285 1.251 2.392 2.27 3.233 1.014.838 2.254 1.412 3.615 1.632l15.768 2.568c2.706.443 5.478-.58 7.272-2.689l10.46-12.27c.899-1.057 1.483-2.302 1.73-3.602.248-1.306.155-2.667-.304-3.948L40.248 6.535c-.46-1.284-1.25-2.39-2.268-3.23-1.014-.838-2.254-1.412-3.616-1.635L18.594-.898C16.14-1.3 13.613-.901.864 14.066z"/>
            <g mask="url(#prefix__b)">
                <g transform="matrix(-1 0 0 1 42 6)">
                    <path stroke="#191919" stroke-linecap="square" stroke-width="2" d="M21.552 28.296L17.941 17.411 20.474 4.213 8.529 7.059 18.412 17.411 7.275 15.529 18.412 17.411 10.882 23.059"/>
                    <circle cx="4.441" cy="15.028" r="3.5" fill="#191919"/>
                    <circle cx="7.958" cy="6.88" r="3.5" fill="#191919"/>
                    <circle cx="18.412" cy="16.941" r="4.368" fill="#191919"/>
                    <circle cx="20.474" cy="3.662" r="3.5" fill="#191919"/>
                    <circle cx="21.598" cy="29.296" r="3.5" fill="#191919"/>
                    <circle cx="10.882" cy="23.059" r="2.353" fill="#191919"/>
                </g>
            </g>
        </g>
        <path fill="url(#prefix__c)" stroke="#FFF" stroke-width="2" d="M56.795 13h-24.59c-1.716 0-3.312.88-4.228 2.33l-3.473 5.5c-.515.816-.773 1.743-.773 2.67 0 .927.258 1.854.773 2.67l3.473 5.5c.916 1.45 2.512 2.33 4.228 2.33h24.59c1.716 0 3.312-.88 4.228-2.33l3.473-5.5c.515-.816.773-1.743.773-2.67 0-.927-.258-1.854-.773-2.67l-3.473-5.5C60.107 13.88 58.51 13 56.795 13z" transform="translate(-1)"/>
        <text fill="#191919" font-family="PTRootUI-Medium, PT Root UI" font-size="12" font-weight="400" transform="translate(-1)">
            <tspan x="30" y="28">REST</tspan>
        </text>
    </g>
</svg>
