<svg width="64" height="65" viewBox="0 0 64 65" fill="none" xmlns="http://www.w3.org/2000/svg">
<path d="M55.2762 4.52881H51.6953V8.10971H55.2762V4.52881Z" fill="#30BC90"/>
<path d="M8.13257 5.07935L5.31396 9.96258H10.9512L8.13257 5.07935Z" fill="#30BC90"/>
<path d="M57.802 58.9692C58.5726 58.1987 58.5726 56.9493 57.802 56.1787C57.0314 55.4081 55.7821 55.4081 55.0115 56.1787C54.2409 56.9493 54.2409 58.1987 55.0115 58.9692C55.7821 59.7398 57.0314 59.7398 57.802 58.9692Z" fill="#30BC90"/>
<path d="M4.84398 38.6724L3.64404 39.8723L4.09934 40.3276L5.29928 39.1277L4.84398 38.6724Z" fill="#114232"/>
<path d="M7.05736 36.457L5.85742 37.657L6.31272 38.1123L7.51266 36.9123L7.05736 36.457Z" fill="#114232"/>
<path d="M6.3137 38.6714L5.8584 39.1267L7.05833 40.3266L7.51363 39.8713L6.3137 38.6714Z" fill="#114232"/>
<path d="M4.09837 36.4583L3.64307 36.9136L4.843 38.1135L5.2983 37.6582L4.09837 36.4583Z" fill="#114232"/>
<path d="M57.4167 29.3076L56.2153 30.509L56.6706 30.9643L57.872 29.7629L57.4167 29.3076Z" fill="#114232"/>
<path d="M59.6316 27.0935L58.4302 28.2949L58.8855 28.7502L60.0869 27.5488L59.6316 27.0935Z" fill="#114232"/>
<path d="M58.8845 29.3072L58.4292 29.7625L59.6306 30.9639L60.0859 30.5086L58.8845 29.3072Z" fill="#114232"/>
<path d="M56.6706 27.0928L56.2153 27.5481L57.4167 28.7495L57.872 28.2942L56.6706 27.0928Z" fill="#114232"/>
<path d="M28.9343 5.39894L27.7344 6.59888L28.1897 7.05418L29.3896 5.85424L28.9343 5.39894Z" fill="#114232"/>
<path d="M31.1492 3.18483L29.9492 4.38477L30.4045 4.84007L31.6045 3.64013L31.1492 3.18483Z" fill="#114232"/>
<path d="M30.404 5.39773L29.9487 5.85303L31.1487 7.05296L31.604 6.59766L30.404 5.39773Z" fill="#114232"/>
<path d="M28.1902 3.18313L27.7349 3.63843L28.9363 4.83983L29.3916 4.38453L28.1902 3.18313Z" fill="#114232"/>
<path d="M17.0829 56.9524H16.439V61.1523H17.0829V56.9524Z" fill="#114232"/>
<path d="M18.8605 58.7305H14.6606V59.3744H18.8605V58.7305Z" fill="#114232"/>
<path d="M56.5435 7.18549H52.9626C52.7839 7.18549 52.6406 7.04217 52.6406 6.86354V3.28264C52.6406 3.10401 52.7839 2.96069 52.9626 2.96069H56.5435C56.7221 2.96069 56.8654 3.10401 56.8654 3.28264V6.86354C56.8654 7.04217 56.7221 7.18549 56.5435 7.18549ZM53.2845 6.5416H56.2215V3.60459H53.2845V6.5416Z" fill="#114232"/>
<path d="M12.2184 9.03825H6.58123C6.46699 9.03825 6.35898 8.97593 6.3029 8.87623C6.24474 8.77653 6.24474 8.65398 6.3029 8.55428L9.12151 3.67105C9.17966 3.57135 9.2856 3.50903 9.39984 3.50903C9.51408 3.50903 9.62208 3.57135 9.67817 3.67105L12.4989 8.55428C12.557 8.65398 12.557 8.77653 12.4989 8.87623C12.4407 8.97593 12.3348 9.03825 12.2184 9.03825ZM7.13996 8.39435H11.6618L9.39984 4.47696L7.13996 8.39435Z" fill="#114232"/>
<path d="M57.6751 58.6245C56.408 58.6245 55.3799 57.5943 55.3799 56.3294C55.3799 55.0623 56.4101 54.0342 57.6751 54.0342C58.9421 54.0342 59.9703 55.0644 59.9703 56.3294C59.9723 57.5943 58.9421 58.6245 57.6751 58.6245ZM57.6751 54.676C56.7632 54.676 56.0238 55.4175 56.0238 56.3273C56.0238 57.237 56.7653 57.9786 57.6751 57.9786C58.5848 57.9786 59.3264 57.237 59.3264 56.3273C59.3264 55.4175 58.5869 54.676 57.6751 54.676Z" fill="#114232"/>
<path d="M48.9722 35.5833L46.5004 34.9208C46.6271 33.7514 46.6271 32.5695 46.5004 31.398L48.9722 30.7354C49.13 30.6939 49.265 30.6108 49.373 30.5049C49.5932 30.2868 49.6908 29.9586 49.6057 29.6387C49.5267 29.3479 49.371 29.0841 49.1529 28.8764L47.4704 27.2791L46.3758 26.2634L46.2865 26.3548L41.37 31.5891C41.8457 34.9208 40.8009 38.4269 38.2378 40.99C36.0755 43.1523 33.2424 44.2324 30.4071 44.2324C27.574 44.2324 24.7388 43.1523 22.5765 40.99C21.8807 40.2942 21.297 39.5298 20.8255 38.7177C20.4143 38.0115 20.0902 37.2699 19.8493 36.5077C18.6425 32.692 19.5523 28.353 22.5765 25.3288C24.7388 23.1665 27.5719 22.0864 30.4071 22.0864C33.2403 22.0864 36.0755 23.1665 38.2378 25.3288C38.4018 25.4928 38.5618 25.6632 38.7134 25.8356L42.1219 22.2069L41.0294 21.1704L40.0968 20.2856C39.7623 19.9678 39.3989 19.6853 39.0084 19.4402C38.3375 19.0186 37.6437 18.6509 36.9292 18.3373L37.5897 15.8697C37.7185 15.392 37.4339 14.8997 36.9562 14.773L33.9278 13.9608C33.8509 13.9401 33.772 13.9297 33.6952 13.9297C33.4542 13.9297 33.2278 14.0273 33.0616 14.1935C32.9536 14.3015 32.8726 14.4365 32.8311 14.5944L32.1685 17.0661C31.5828 17.0017 30.9949 16.9705 30.4071 16.9705C29.8193 16.9705 29.2315 17.0017 28.6458 17.0661L27.9832 14.5944C27.8752 14.1935 27.5137 13.9297 27.1191 13.9297C27.0422 13.9297 26.9633 13.9401 26.8865 13.9608L23.8581 14.773C23.7002 14.8145 23.5652 14.8976 23.4572 15.0035C23.237 15.2216 23.1394 15.5498 23.2246 15.8697L23.8851 18.3373C22.8216 18.8046 21.7976 19.3924 20.8338 20.1007L19.0268 18.2937C18.8523 18.1192 18.6217 18.0319 18.3932 18.0319C18.1648 18.0319 17.9342 18.1192 17.7597 18.2937L15.5435 20.512C15.1924 20.8609 15.1924 21.4301 15.5435 21.779L17.3505 23.5861C16.6423 24.5498 16.0544 25.5739 15.5871 26.6373L13.1195 25.9768C13.0427 25.956 12.9637 25.9457 12.8869 25.9457C12.6459 25.9457 12.4195 26.0433 12.2534 26.2094C12.1454 26.3175 12.0644 26.4525 12.0228 26.6103L11.2107 29.6387C11.0819 30.1164 11.3664 30.6087 11.8442 30.7354L14.3159 31.398C14.1892 32.5674 14.1892 33.7493 14.3159 34.9208L11.8442 35.5833C11.6863 35.6249 11.5513 35.708 11.4433 35.8139C11.2231 36.032 11.1255 36.3602 11.2107 36.6801L12.0228 39.7084C12.1308 40.1093 12.4922 40.3731 12.8869 40.3731C12.9637 40.3731 13.0427 40.3627 13.1195 40.342L15.5871 39.6814C16.0544 40.7449 16.6423 41.7689 17.3505 42.7327L15.5435 44.5398C15.1924 44.8908 15.1924 45.4578 15.5435 45.8068L17.7618 48.0251C17.9363 48.1996 18.1668 48.2868 18.3953 48.2868C18.6238 48.2868 18.8544 48.1996 19.0288 48.0251L20.8359 46.218C21.7997 46.9263 22.8237 47.5142 23.8871 47.9815L23.2266 50.4491C23.0979 50.9268 23.3824 51.4191 23.8601 51.5458L26.8885 52.3579C26.9654 52.3787 27.0443 52.3891 27.1212 52.3891C27.3621 52.3891 27.5885 52.2915 27.7547 52.1253C27.8627 52.0173 27.9437 51.8823 27.9852 51.7244L28.6478 49.2527C29.2336 49.3171 29.8214 49.3482 30.4092 49.3482C30.997 49.3482 31.5848 49.3171 32.1706 49.2527L32.8332 51.7244C32.9412 52.1253 33.3026 52.3891 33.6972 52.3891C33.7741 52.3891 33.853 52.3787 33.9299 52.3579L36.9583 51.5458C37.1161 51.5042 37.2511 51.4212 37.3591 51.3152C37.5793 51.0971 37.6769 50.7689 37.5918 50.4491L36.9313 47.9815C37.9947 47.5142 39.0187 46.9263 39.9825 46.218L41.7896 48.0251C41.9641 48.1996 42.1946 48.2868 42.4231 48.2868C42.6516 48.2868 42.8821 48.1996 43.0566 48.0251L45.2749 45.8068C45.626 45.4558 45.626 44.8887 45.2749 44.5398L43.4679 42.7327C44.1762 41.7689 44.764 40.7449 45.2313 39.6814L47.6989 40.342C47.7757 40.3627 47.8547 40.3731 47.9315 40.3731C48.1725 40.3731 48.3989 40.2755 48.565 40.1093C48.6731 40.0013 48.7541 39.8663 48.7956 39.7084L49.6077 36.6801C49.7344 36.2023 49.4499 35.71 48.9722 35.5833Z" fill="#30BC90"/>
<path d="M44.6874 25.5239L46.3137 23.7937L48.6629 26.0224L50.7338 17.3921L44.1162 19.3529L42.226 19.9137L44.569 22.1362L39.7709 27.2437L35.1805 32.1311L33.602 26.5479C33.4856 26.1366 33.1616 25.8188 32.7483 25.7108C32.6486 25.6838 32.5468 25.6714 32.445 25.6714C32.1293 25.6714 31.8219 25.796 31.5934 26.0245L21.937 35.6809C21.4676 36.1503 21.4676 36.9126 21.937 37.382C22.1717 37.6167 22.4812 37.7351 22.7886 37.7351C23.096 37.7351 23.4055 37.6167 23.6402 37.382L31.8468 29.1754L33.4462 34.8334C33.5646 35.2509 33.8969 35.5729 34.3186 35.6746C34.4141 35.6975 34.5096 35.7079 34.6031 35.7079C34.9313 35.7079 35.2512 35.5729 35.4817 35.3278L40.8884 29.5701L44.6874 25.5239Z" fill="#30BC90"/>
<path d="M50.1772 33.9216L48.231 33.4003C48.2954 32.5487 48.2954 31.6929 48.231 30.8413L50.1772 30.3199C50.4389 30.2493 50.6757 30.1122 50.8668 29.9211C51.2552 29.5327 51.4089 28.9636 51.2656 28.4339C51.1576 28.0289 50.9374 27.6613 50.6342 27.3726L48.9517 25.7753L48.9497 25.7732L48.9476 25.7711L47.853 24.7554L47.3939 24.3296L46.9557 24.7762L46.8663 24.8676L46.8622 24.8717L46.858 24.878L41.9416 30.1122L41.7297 30.3386L41.7733 30.644C42.2407 33.9279 41.1668 37.1556 38.8239 39.4986C36.8548 41.4677 34.2356 42.554 31.4481 42.554C28.6627 42.554 26.0435 41.4698 24.0724 39.4986C23.4305 38.8568 22.876 38.136 22.4232 37.3592C22.041 36.7028 21.7315 36.0029 21.503 35.278C20.3232 31.5475 21.3078 27.5138 24.0724 24.7492C26.0414 22.7801 28.6607 21.6938 31.4481 21.6938C34.2335 21.6938 36.8527 22.778 38.8239 24.7492C38.9776 24.9029 39.1292 25.0628 39.2725 25.2269L39.7398 25.7566L40.2238 25.2415L43.6323 21.6128L44.0706 21.1434L43.6053 20.703L42.5128 19.6666L41.5801 18.7817C41.2167 18.4369 40.8158 18.1254 40.39 17.8574C39.8562 17.523 39.3016 17.2156 38.7304 16.9414L39.2517 14.9993C39.3577 14.6026 39.3037 14.1872 39.098 13.8299C38.8924 13.4727 38.5601 13.2193 38.1633 13.1133L35.1349 12.3012C35.0041 12.2659 34.8711 12.2493 34.7361 12.2493C34.3311 12.2493 33.9344 12.4134 33.6477 12.7C33.4587 12.889 33.3196 13.1279 33.2489 13.3896L32.7276 15.3379C32.3018 15.3047 31.8739 15.2901 31.4481 15.2901C31.0223 15.2901 30.5944 15.3067 30.1686 15.3379L29.6473 13.3917C29.4666 12.7187 28.8559 12.2493 28.1601 12.2493C28.0251 12.2493 27.8921 12.268 27.7613 12.3012L24.7329 13.1133C24.4712 13.184 24.2344 13.321 24.0433 13.5121C23.6549 13.9006 23.5012 14.4697 23.6445 14.9993L24.1658 16.9414C23.3952 17.3111 22.6537 17.7411 21.9496 18.223L20.5268 16.8002C20.236 16.5094 19.8496 16.3494 19.4384 16.3494C19.0271 16.3494 18.6408 16.5094 18.35 16.8002L16.1275 19.0185C15.8367 19.3093 15.6768 19.6956 15.6768 20.1069C15.6768 20.5182 15.8367 20.9045 16.1275 21.1953L17.5503 22.6181C17.0684 23.3222 16.6385 24.0658 16.2687 24.8364L14.3267 24.3151C14.1958 24.2798 14.0629 24.2632 13.9279 24.2632C13.5228 24.2632 13.1261 24.4272 12.8395 24.7139C12.6504 24.9029 12.5113 25.1418 12.4407 25.4035L11.6285 28.4339C11.4083 29.2544 11.8965 30.0998 12.7169 30.3199L14.6631 30.8413C14.5988 31.6929 14.5988 32.5487 14.6631 33.4003L12.7169 33.9216C12.4552 33.9922 12.2184 34.1293 12.0273 34.3204C11.6389 34.7088 11.4852 35.278 11.6285 35.8076L12.4407 38.836C12.6214 39.509 13.232 39.9784 13.9279 39.9784C14.0629 39.9784 14.1958 39.9597 14.3267 39.9265L16.2687 39.4051C16.6385 40.1757 17.0684 40.9173 17.5503 41.6235L16.1275 43.0463C15.8367 43.3371 15.6768 43.7234 15.6768 44.1347C15.6768 44.5459 15.8367 44.9323 16.1275 45.2231L18.3458 47.4414C18.6366 47.7322 19.023 47.8921 19.4342 47.8921C19.8455 47.8921 20.2318 47.7322 20.5226 47.4414L21.9454 46.0186C22.6496 46.5026 23.3932 46.9304 24.1617 47.3002L23.6403 49.2422C23.5344 49.639 23.5884 50.0544 23.794 50.4116C23.9997 50.7689 24.332 51.0223 24.7287 51.1282L27.7571 51.9404C27.888 51.9757 28.0209 51.9923 28.1559 51.9923C28.561 51.9923 28.9577 51.8282 29.2443 51.5416C29.4333 51.3526 29.5725 51.1137 29.6431 50.852L30.1645 48.9037C30.5903 48.9369 31.0181 48.9514 31.444 48.9514C31.8698 48.9514 32.2976 48.9348 32.7234 48.9037L33.2448 50.8499C33.4255 51.5229 34.0362 51.9923 34.732 51.9923C34.867 51.9923 34.9999 51.9736 35.1308 51.9404L38.1592 51.1282C38.4209 51.0576 38.6577 50.9205 38.8488 50.7294C39.2372 50.341 39.3909 49.7719 39.2476 49.2422L38.7262 47.3002C39.4968 46.9304 40.2383 46.5005 40.9446 46.0186L42.3674 47.4414C42.6582 47.7322 43.0445 47.8921 43.4558 47.8921C43.867 47.8921 44.2534 47.7322 44.5442 47.4414L46.7625 45.2231C47.0533 44.9323 47.2132 44.5459 47.2132 44.1347C47.2132 43.7234 47.0533 43.3371 46.7625 43.0463L45.3397 41.6235C45.8216 40.9193 46.2515 40.1757 46.6212 39.4051L48.5633 39.9265C48.6942 39.9618 48.8271 39.9784 48.9621 39.9784C49.3672 39.9784 49.7639 39.8143 50.0505 39.5277C50.2395 39.3387 50.3787 39.0998 50.4493 38.8381L51.2615 35.8076C51.4858 34.9872 50.9977 34.1418 50.1772 33.9216ZM50.6446 35.6414L49.8324 38.6698C49.7909 38.8277 49.7078 38.9627 49.6019 39.0707C49.4357 39.2369 49.2093 39.3345 48.9684 39.3345C48.8915 39.3345 48.8126 39.3241 48.7357 39.3034L46.2681 38.6428C45.8008 39.7063 45.213 40.7303 44.5047 41.6941L46.3118 43.5012C46.6628 43.8522 46.6628 44.4192 46.3118 44.7682L44.0934 46.9865C43.919 47.161 43.6884 47.2482 43.4599 47.2482C43.2314 47.2482 43.0009 47.161 42.8264 46.9865L41.0193 45.1794C40.0556 45.8877 39.0316 46.4755 37.9681 46.9429L38.6286 49.4105C38.7138 49.7303 38.6161 50.0585 38.396 50.2766C38.288 50.3846 38.153 50.4656 37.9951 50.5072L34.9667 51.3193C34.8898 51.3401 34.8109 51.3505 34.7341 51.3505C34.3394 51.3505 33.9759 51.0867 33.87 50.6858L33.2074 48.2141C32.6217 48.2785 32.0338 48.3096 31.446 48.3096C30.8582 48.3096 30.2704 48.2785 29.6847 48.2141L29.0221 50.6858C28.9805 50.8437 28.8974 50.9787 28.7915 51.0867C28.6253 51.2529 28.3989 51.3505 28.158 51.3505C28.0811 51.3505 28.0022 51.3401 27.9254 51.3193L24.897 50.5072C24.4192 50.3784 24.1347 49.8882 24.2635 49.4105L24.924 46.9429C23.8605 46.4755 22.8365 45.8877 21.8727 45.1794L20.0657 46.9865C19.8912 47.161 19.6606 47.2482 19.4321 47.2482C19.2037 47.2482 18.9731 47.161 18.7986 46.9865L16.5803 44.7682C16.2293 44.4171 16.2293 43.8501 16.5803 43.5012L18.3874 41.6941C17.6791 40.7303 17.0913 39.7063 16.6239 38.6428L14.1563 39.3034C14.0795 39.3241 14.0006 39.3345 13.9237 39.3345C13.5291 39.3345 13.1656 39.0707 13.0596 38.6698L12.2496 35.6414C12.1644 35.3216 12.262 34.9934 12.4822 34.7753C12.5902 34.6673 12.7252 34.5863 12.8831 34.5447L15.3548 33.8822C15.2281 32.7128 15.2281 31.5309 15.3548 30.3594L12.8831 29.6968C12.4054 29.568 12.1208 29.0778 12.2496 28.6001L13.0617 25.5717C13.1033 25.4139 13.1863 25.2789 13.2923 25.1708C13.4584 25.0047 13.6848 24.9071 13.9258 24.9071C14.0026 24.9071 14.0816 24.9174 14.1584 24.9382L16.626 25.5987C17.0933 24.5353 17.6812 23.5112 18.3894 22.5475L16.5824 20.7404C16.2314 20.3894 16.2314 19.8223 16.5824 19.4734L18.8007 17.2551C18.9752 17.0806 19.2057 16.9933 19.4342 16.9933C19.6627 16.9933 19.8933 17.0806 20.0677 17.2551L21.8748 19.0621C22.8386 18.3538 23.8626 17.766 24.926 17.2987L24.2655 14.8311C24.1804 14.5112 24.278 14.183 24.4982 13.9649C24.6062 13.8569 24.7412 13.7759 24.899 13.7344L27.9274 12.9222C28.0043 12.9015 28.0832 12.8911 28.1601 12.8911C28.5547 12.8911 28.9182 13.1549 29.0241 13.5558L29.6867 16.0275C30.2725 15.9631 30.8603 15.9319 31.4481 15.9319C32.0359 15.9319 32.6237 15.9631 33.2095 16.0275L33.8721 13.5558C33.9136 13.3979 33.9967 13.2629 34.1026 13.1549C34.2688 12.9887 34.4952 12.8911 34.7361 12.8911C34.813 12.8911 34.8919 12.9015 34.9688 12.9222L37.9972 13.7344C38.4749 13.8632 38.7595 14.3534 38.6307 14.8311L37.9702 17.3007C38.6826 17.6144 39.3784 17.982 40.0493 18.4037C40.4398 18.6488 40.8033 18.9313 41.1377 19.2491L42.0703 20.1339L43.1629 21.1704L39.7544 24.799C39.6028 24.6266 39.4428 24.4563 39.2787 24.2922C37.1165 22.13 34.2833 21.0499 31.4481 21.0499C28.615 21.0499 25.7797 22.13 23.6175 24.2922C20.5912 27.3144 19.6835 31.6534 20.8903 35.469C21.1312 36.2313 21.4573 36.9729 21.8665 37.6791C22.338 38.4912 22.9217 39.2556 23.6175 39.9514C25.7797 42.1137 28.6129 43.1937 31.4481 43.1937C34.2813 43.1937 37.1165 42.1137 39.2787 39.9514C41.8419 37.3883 42.8866 33.8822 42.411 30.5505L47.3275 25.3162L47.4168 25.2248L48.5114 26.2405L50.1938 27.8378C50.4119 28.0455 50.5698 28.3093 50.6466 28.6001C50.7318 28.92 50.6342 29.2482 50.414 29.4663C50.306 29.5743 50.171 29.6553 50.0131 29.6968L47.5414 30.3594C47.6681 31.5288 47.6681 32.7107 47.5414 33.8822L50.0131 34.5447C50.4888 34.6714 50.7733 35.1637 50.6446 35.6414Z" fill="#114232"/>
<path d="M51.5894 15.7367L44.9718 17.6975L43.0796 18.2583L42.0099 18.5761L42.8179 19.3446L44.6956 21.1268L40.3378 25.7649L36.5305 29.8215L35.2614 25.3329C35.0849 24.7056 34.5822 24.2133 33.9487 24.0472C33.7971 24.0077 33.6392 23.9869 33.4834 23.9869C32.9891 23.9869 32.5259 24.1801 32.1769 24.5291L22.5205 34.1854C21.7998 34.9062 21.7998 36.0777 22.5205 36.7984C22.8695 37.1474 23.3348 37.3405 23.827 37.3405C24.3193 37.3405 24.7846 37.1495 25.1335 36.8005L32.5633 29.3687L33.8635 33.9694C34.0442 34.6092 34.5573 35.1035 35.2033 35.2614C35.3466 35.2967 35.494 35.3133 35.6394 35.3133C36.1483 35.3133 36.6385 35.1014 36.9854 34.7317L42.3941 28.974L46.1952 24.9279L47.3771 23.6691L49.2568 25.4534L50.0669 26.2219L50.3265 25.1376L52.3974 16.5073L52.657 15.4231L51.5894 15.7367ZM49.7013 24.9839L47.3521 22.7552L45.7258 24.4854L41.9247 28.5316L36.5181 34.2914C36.2875 34.5365 35.9697 34.6715 35.6394 34.6715C35.5439 34.6715 35.4483 34.6611 35.3549 34.6382C34.9332 34.5344 34.6009 34.2145 34.4825 33.797L32.8831 28.139L24.6766 36.3456C24.4419 36.5803 24.1324 36.6987 23.825 36.6987C23.5175 36.6987 23.2081 36.5803 22.9733 36.3456C22.5039 35.8762 22.5039 35.1139 22.9733 34.6445L32.6297 24.9881C32.8582 24.7596 33.1656 24.635 33.4813 24.635C33.5831 24.635 33.6849 24.6474 33.7846 24.6745C34.1979 24.7825 34.524 25.1003 34.6383 25.5115L36.2169 31.0947L40.8072 26.2073L45.6032 21.1019L43.2603 18.8794L45.1504 18.3186L51.768 16.3578L49.7013 24.9839Z" fill="#114232"/>
</svg>
