<svg width="64" height="65" viewBox="0 0 64 65" fill="none" xmlns="http://www.w3.org/2000/svg">
<path d="M55.6064 4.27319H52.0078V7.87181H55.6064V4.27319Z" fill="#30BC90"/>
<path d="M8.22953 4.82617L5.39697 9.73357H11.0621L8.22953 4.82617Z" fill="#30BC90"/>
<path d="M58.1445 58.9827C58.9189 58.2083 58.9189 56.9528 58.1445 56.1784C57.3701 55.404 56.1146 55.404 55.3402 56.1784C54.5658 56.9528 54.5658 58.2083 55.3402 58.9827C56.1146 59.7571 57.3701 59.7571 58.1445 58.9827Z" fill="#30BC90"/>
<path d="M4.92462 38.5854L3.71875 39.7913L4.1763 40.2488L5.38218 39.0429L4.92462 38.5854Z" fill="#114232"/>
<path d="M7.14923 36.3591L5.94336 37.5649L6.40091 38.0225L7.60678 36.8166L7.14923 36.3591Z" fill="#114232"/>
<path d="M6.4014 38.5842L5.94385 39.0417L7.14972 40.2476L7.60727 39.7901L6.4014 38.5842Z" fill="#114232"/>
<path d="M4.17533 36.3603L3.71777 36.8179L4.92365 38.0237L5.3812 37.5662L4.17533 36.3603Z" fill="#114232"/>
<path d="M57.7572 29.1745L56.5498 30.3818L57.0074 30.8394L58.2147 29.632L57.7572 29.1745Z" fill="#114232"/>
<path d="M59.9827 26.9494L58.7754 28.1567L59.2329 28.6143L60.4403 27.4069L59.9827 26.9494Z" fill="#114232"/>
<path d="M59.2325 29.174L58.7749 29.6316L59.9823 30.8389L60.4398 30.3814L59.2325 29.174Z" fill="#114232"/>
<path d="M57.0078 26.9485L56.5503 27.406L57.7576 28.6134L58.2152 28.1558L57.0078 26.9485Z" fill="#114232"/>
<path d="M29.1341 5.1474L27.9282 6.35327L28.3858 6.81082L29.5916 5.60495L29.1341 5.1474Z" fill="#114232"/>
<path d="M31.3597 2.9223L30.1538 4.12817L30.6114 4.58573L31.8172 3.37985L31.3597 2.9223Z" fill="#114232"/>
<path d="M30.6109 5.14621L30.1533 5.60376L31.3592 6.80963L31.8167 6.35208L30.6109 5.14621Z" fill="#114232"/>
<path d="M28.3863 2.92062L27.9287 3.37817L29.1361 4.58552L29.5936 4.12797L28.3863 2.92062Z" fill="#114232"/>
<path d="M17.2237 56.9561H16.5767V61.1767H17.2237V56.9561Z" fill="#114232"/>
<path d="M19.0107 58.7429H14.79V59.39H19.0107V58.7429Z" fill="#114232"/>
<path d="M56.8797 6.94272H53.2811C53.1015 6.94272 52.9575 6.7987 52.9575 6.61918V3.02056C52.9575 2.84105 53.1015 2.69702 53.2811 2.69702H56.8797C57.0592 2.69702 57.2032 2.84105 57.2032 3.02056V6.61918C57.2032 6.7987 57.0592 6.94272 56.8797 6.94272ZM53.6046 6.29564H56.5561V3.3441H53.6046V6.29564Z" fill="#114232"/>
<path d="M12.3348 8.80461H6.66973C6.55493 8.80461 6.44638 8.74199 6.39003 8.6418C6.33158 8.54161 6.33158 8.41845 6.39003 8.31826L9.22258 3.41086C9.28103 3.31067 9.38748 3.24805 9.50229 3.24805C9.61709 3.24805 9.72564 3.31067 9.78199 3.41086L12.6166 8.31826C12.6751 8.41845 12.6751 8.54161 12.6166 8.6418C12.5582 8.74199 12.4517 8.80461 12.3348 8.80461ZM7.23123 8.15753H11.7754L9.50229 4.22076L7.23123 8.15753Z" fill="#114232"/>
<path d="M58.017 58.6363C56.7437 58.6363 55.7104 57.6009 55.7104 56.3297C55.7104 55.0564 56.7458 54.0232 58.017 54.0232C59.2903 54.0232 60.3235 55.0585 60.3235 56.3297C60.3256 57.6009 59.2903 58.6363 58.017 58.6363ZM58.017 54.6682C57.1006 54.6682 56.3575 55.4134 56.3575 56.3276C56.3575 57.2419 57.1027 57.9871 58.017 57.9871C58.9313 57.9871 59.6764 57.2419 59.6764 56.3276C59.6764 55.4134 58.9333 54.6682 58.017 54.6682Z" fill="#114232"/>
<path d="M38.7155 27.4887C38.442 27.2153 38.083 27.0796 37.724 27.0796C37.3649 27.0796 37.0059 27.2153 36.7325 27.4887L28.5959 35.6253L25.8468 32.8762C25.5734 32.6028 25.2144 32.4671 24.8553 32.4671C24.4963 32.4671 24.1373 32.6048 23.8638 32.8783C23.5988 33.1434 23.4526 33.4962 23.4526 33.8698C23.4526 34.2455 23.5988 34.5962 23.8638 34.8613L27.6044 38.6018C27.8695 38.8669 28.2223 39.0131 28.5959 39.0131C28.9695 39.0131 29.3223 38.8669 29.5874 38.6018L38.7175 29.4738C39.2623 28.9248 39.2623 28.0356 38.7155 27.4887Z" fill="#30BC90"/>
<path d="M47.299 32.2166C47.1967 32.0704 47.0297 31.9849 46.8523 31.9849C46.6748 31.9849 46.5079 32.0725 46.4056 32.2166L42.6421 37.5581C42.5252 37.7251 42.5106 37.9422 42.6045 38.1238C42.6984 38.3033 42.8863 38.4181 43.0888 38.4181H44.5207C42.3477 43.7743 37.1251 47.3228 31.2889 47.3228C27.6589 47.3228 24.2378 45.9786 21.591 43.5238C21.4553 43.3986 21.3238 43.2712 21.1923 43.1418C21.0858 43.0354 20.946 42.9811 20.8061 42.9811C20.6892 42.9811 20.5744 43.0187 20.4763 43.0917L20.3699 43.1982L18.4161 45.152C16.4414 43.0521 15.0032 40.4971 14.2434 37.7293C14.1767 37.4872 13.9575 37.3264 13.7174 37.3264C13.6694 37.3264 13.6214 37.3327 13.5734 37.3452C13.2812 37.4245 13.1121 37.7251 13.1914 38.0173C13.9992 40.9689 15.5355 43.6908 17.6438 45.9243C17.7669 46.0558 17.8922 46.1852 18.0195 46.3125C18.1489 46.442 18.2825 46.5714 18.4161 46.6966C20.0484 48.2371 21.9187 49.4582 23.9831 50.3328C26.2959 51.3118 28.7527 51.8086 31.2868 51.8086C33.3992 51.8086 35.474 51.4579 37.4529 50.7712C39.3649 50.1053 41.1496 49.1367 42.7569 47.8927C44.3495 46.6632 45.7251 45.1937 46.8502 43.5259C47.9127 41.9479 48.7246 40.232 49.2674 38.4181H50.6158C50.8204 38.4181 51.0061 38.3033 51.1001 38.1238C51.194 37.9422 51.1794 37.723 51.0625 37.5581L47.299 32.2166Z" fill="#30BC90"/>
<path d="M15.2764 33.8741C15.3787 34.0202 15.5457 34.1058 15.7231 34.1058C15.9005 34.1058 16.0675 34.0181 16.1698 33.8741L19.9333 28.5325C20.0502 28.3655 20.0648 28.1485 19.9709 27.9669C19.877 27.7853 19.6891 27.6725 19.4866 27.6725H18.0547C20.2276 22.3164 25.4502 18.7699 31.2865 18.7699C34.906 18.7699 38.3188 20.1058 40.9615 22.5501C41.1055 22.6796 41.2432 22.8132 41.381 22.953C41.4875 23.0595 41.6273 23.1116 41.7672 23.1116C41.8444 23.1116 41.9216 23.0949 41.9926 23.0636L44.1342 20.922C46.1193 23.0261 47.5638 25.5873 48.3257 28.3655C48.3925 28.6077 48.6116 28.7663 48.8517 28.7663C48.8997 28.7663 48.9477 28.7601 48.9978 28.7475C49.29 28.6682 49.4591 28.3676 49.3798 28.0754C48.5678 25.1155 47.0252 22.3852 44.9087 20.1476C44.7918 20.0244 44.6728 19.9013 44.5517 19.7802C44.414 19.6424 44.2762 19.5089 44.1342 19.3753C42.5061 17.8431 40.6442 16.6283 38.5881 15.7579C36.2753 14.7789 33.8185 14.2842 31.2844 14.2842C29.172 14.2842 27.0972 14.6328 25.1183 15.3216C23.2063 15.9875 21.4216 16.956 19.8144 18.198C18.2217 19.4295 16.8461 20.899 15.721 22.5648C14.6586 24.1407 13.8466 25.8565 13.3039 27.6705H11.9554C11.7509 27.6705 11.5651 27.7853 11.4712 27.9648C11.3772 28.1464 11.3918 28.3635 11.5087 28.5304L15.2764 33.8741Z" fill="#30BC90"/>
<path d="M37.3169 25.9879L29.6375 33.6673L27.3456 31.3754C26.9594 30.9892 26.4438 30.7763 25.897 30.7763C25.348 30.7763 24.8345 30.9892 24.4483 31.3754C24.0622 31.7615 23.8472 32.2771 23.8472 32.824C23.8472 33.3709 24.0601 33.8865 24.4483 34.2726L28.1889 38.0132C28.5751 38.4014 29.0906 38.6144 29.6375 38.6144C30.1844 38.6144 30.7 38.4014 31.0862 38.0132L40.2163 28.8851C41.0157 28.0857 41.0157 26.7853 40.2163 25.9858C39.8301 25.5996 39.3145 25.3867 38.7677 25.3867C38.2187 25.3867 37.7031 25.5996 37.3169 25.9879ZM39.7592 28.428L30.629 37.5561C30.3639 37.8212 30.0112 37.9673 29.6375 37.9673C29.2618 37.9673 28.9111 37.8212 28.646 37.5561L24.9055 33.8155C24.6404 33.5504 24.4943 33.1976 24.4943 32.824C24.4943 32.4483 24.6404 32.0976 24.9055 31.8325C25.1789 31.5591 25.5379 31.4213 25.897 31.4213C26.256 31.4213 26.615 31.557 26.8885 31.8304L29.6375 34.5795L37.7741 26.4429C38.0475 26.1695 38.4065 26.0338 38.7656 26.0338C39.1246 26.0338 39.4836 26.1695 39.7571 26.4429C40.306 26.9919 40.306 27.8811 39.7592 28.428Z" fill="#114232"/>
<path d="M52.6361 36.1409L48.8726 30.8014C48.6493 30.4841 48.2861 30.2942 47.8978 30.2942C47.5096 30.2942 47.1443 30.4841 46.923 30.8014L43.1595 36.143C42.9027 36.5083 42.8693 36.98 43.076 37.3787C43.2826 37.7753 43.6876 38.0216 44.1343 38.0216H44.5664C42.2849 42.6744 37.5841 45.6322 32.3323 45.6322C28.884 45.6322 25.5964 44.3442 23.0749 42.0064C22.9454 41.8874 22.8181 41.7643 22.695 41.6411C22.4695 41.4157 22.171 41.2925 21.8517 41.2925C21.6074 41.2925 21.3653 41.3698 21.1649 41.5096H21.1482L20.9583 41.6996L19.4867 43.1711C17.8147 41.2487 16.5852 38.9609 15.9152 36.5166C15.7733 35.999 15.3015 35.6378 14.7651 35.6378C14.6586 35.6378 14.5521 35.6525 14.4499 35.6796C14.1409 35.7631 13.8863 35.9635 13.7276 36.2411C13.5711 36.5187 13.5293 36.8402 13.6149 37.147C14.0303 38.6645 14.6356 40.1361 15.4142 41.5159C16.1907 42.8935 17.1342 44.1752 18.2217 45.3253C18.3491 45.461 18.4806 45.5967 18.6121 45.7282C18.7582 45.8743 18.8939 46.0058 19.0212 46.1269C20.7078 47.7195 22.6469 48.9845 24.7802 49.8883C27.1744 50.9007 29.7169 51.4142 32.3344 51.4142C34.5178 51.4142 36.6636 51.053 38.7134 50.3412C40.6922 49.6524 42.5395 48.6505 44.2011 47.3647C45.8459 46.0935 47.2695 44.5739 48.4343 42.8476C49.4425 41.351 50.2336 39.7312 50.7909 38.0258H51.6634C52.1101 38.0258 52.5172 37.7795 52.7217 37.3829C52.9263 36.98 52.8929 36.5062 52.6361 36.1409ZM52.1456 37.0802C52.0517 37.2597 51.8638 37.3745 51.6613 37.3745H50.3129C49.7723 39.1885 48.9603 40.9043 47.8957 42.4823C46.7706 44.148 45.3951 45.6175 43.8024 46.8491C42.1951 48.0932 40.4104 49.0617 38.4984 49.7276C36.5196 50.4143 34.4447 50.765 32.3323 50.765C29.8004 50.765 27.3435 50.2682 25.0286 49.2892C22.9642 48.4146 21.0939 47.1935 19.4616 45.653C19.328 45.5278 19.1965 45.3984 19.065 45.269C18.9377 45.1416 18.8125 45.0122 18.6893 44.8807C16.5811 42.6472 15.0448 39.9253 14.237 36.9738C14.1576 36.6836 14.3267 36.383 14.6189 36.3016C14.667 36.2891 14.715 36.2828 14.763 36.2828C15.003 36.2828 15.2222 36.4415 15.289 36.6857C16.0488 39.4536 17.4849 42.0085 19.4616 44.1084L21.4154 42.1546L21.5219 42.0481C21.6179 41.9751 21.7348 41.9375 21.8517 41.9375C21.9915 41.9375 22.1314 41.9918 22.2378 42.0982C22.3672 42.2277 22.5008 42.3571 22.6365 42.4802C25.2833 44.935 28.7045 46.2792 32.3344 46.2792C38.1707 46.2792 43.3933 42.7328 45.5662 37.3745H44.1343C43.9297 37.3745 43.7439 37.2597 43.65 37.0802C43.5561 36.8986 43.5707 36.6794 43.6876 36.5145L47.4511 31.173C47.5534 31.0269 47.7204 30.9413 47.8978 30.9413C48.0752 30.9413 48.2422 31.0289 48.3445 31.173L52.108 36.5145C52.2249 36.6815 52.2395 36.8986 52.1456 37.0802Z" fill="#114232"/>
<path d="M15.79 33.2018C16.0134 33.5191 16.3787 33.7091 16.7669 33.7091C17.1552 33.7091 17.5204 33.5191 17.7417 33.2018L21.5052 27.8603C21.762 27.495 21.7954 27.0211 21.5887 26.6245C21.3821 26.2258 20.9771 25.9795 20.5283 25.9795H20.0963C22.3777 21.3268 27.0785 18.3711 32.3303 18.3711C35.7703 18.3711 39.0495 19.6527 41.5669 21.9781L41.569 21.9801L41.5711 21.9822C41.6963 22.097 41.8278 22.2202 41.9698 22.3621C42.1952 22.5876 42.4937 22.7107 42.8131 22.7107C42.9842 22.7107 43.1491 22.6752 43.3057 22.6043L43.4142 22.5563L43.4977 22.4728L45.1593 20.8112C46.8417 22.7399 48.0774 25.034 48.7495 27.4887C48.8915 28.0043 49.3632 28.3654 49.8997 28.3654C50.0061 28.3654 50.1126 28.3508 50.2148 28.3237C50.8494 28.1504 51.223 27.4929 51.0498 26.8583C50.6323 25.3345 50.0249 23.8609 49.2421 22.4748C48.4615 21.093 47.5138 19.8093 46.4242 18.6571C46.3073 18.5339 46.1862 18.4087 46.0547 18.2772C45.9086 18.131 45.7625 17.9912 45.6226 17.8597C43.9402 16.2754 42.0094 15.0167 39.8845 14.1191C37.4903 13.1068 34.9499 12.5933 32.3303 12.5933C30.1427 12.5933 27.9969 12.9544 25.9513 13.6662C23.9746 14.3529 22.1293 15.3548 20.4657 16.6428C18.8209 17.916 17.3952 19.4356 16.2325 21.1598C15.2243 22.6544 14.4332 24.2742 13.8759 25.9816H13.0034C12.5546 25.9816 12.1497 26.2279 11.943 26.6266C11.7384 27.0232 11.7697 27.495 12.0265 27.8603L15.79 33.2018ZM12.5567 27.4887C12.4398 27.3217 12.4252 27.1046 12.5191 26.923C12.613 26.7414 12.8009 26.6287 13.0034 26.6287H14.3518C14.8924 24.8148 15.7044 23.099 16.769 21.523C17.8941 19.8573 19.2697 18.3878 20.8623 17.1562C22.4696 15.9122 24.2543 14.9436 26.1663 14.2799C28.1451 13.591 30.22 13.2424 32.3324 13.2424C34.8644 13.2424 37.3212 13.7392 39.6361 14.7161C41.6921 15.5865 43.5541 16.8014 45.1822 18.3335C45.3242 18.465 45.4619 18.6007 45.5997 18.7385C45.7208 18.8595 45.8397 18.9806 45.9566 19.1058C48.0753 21.3435 49.6179 24.0738 50.4278 27.0337C50.5071 27.3259 50.338 27.6244 50.0458 27.7058C49.9978 27.7183 49.9477 27.7246 49.8997 27.7246C49.6596 27.7246 49.4404 27.5659 49.3736 27.3238C48.6118 24.5455 47.1673 21.9822 45.1822 19.8803L43.0406 22.0219C42.9696 22.0532 42.8924 22.0699 42.8151 22.0699C42.6753 22.0699 42.5354 22.0177 42.429 21.9113C42.2912 21.7735 42.1514 21.6399 42.0094 21.5084C39.3668 19.0641 35.954 17.7282 32.3345 17.7282C26.4982 17.7282 21.2756 21.2746 19.1027 26.6308H20.5346C20.7392 26.6308 20.9249 26.7456 21.0189 26.9251C21.1128 27.1067 21.0982 27.3238 20.9813 27.4908L17.2178 32.8324C17.1155 32.9785 16.9485 33.0641 16.7711 33.0641C16.5937 33.0641 16.4267 32.9764 16.3244 32.8324L12.5567 27.4887Z" fill="#114232"/>
</svg>
