<svg width="64" height="65" viewBox="0 0 64 65" fill="none" xmlns="http://www.w3.org/2000/svg">
<path d="M54.8564 4.94971H51.3604V8.44573H54.8564V4.94971Z" fill="#30BC90"/>
<path d="M8.82992 5.48706L6.07812 10.2545H11.5817L8.82992 5.48706Z" fill="#30BC90"/>
<path d="M57.3229 58.0998C58.0753 57.3474 58.0753 56.1277 57.3229 55.3753C56.5706 54.623 55.3509 54.623 54.5985 55.3753C53.8462 56.1277 53.8462 57.3474 54.5985 58.0998C55.3509 58.8521 56.5706 58.8521 57.3229 58.0998Z" fill="#30BC90"/>
<path d="M5.61974 38.2838L4.44824 39.4553L4.89275 39.8998L6.06424 38.7283L5.61974 38.2838Z" fill="#114232"/>
<path d="M7.78038 36.121L6.60889 37.2925L7.05339 37.737L8.22489 36.5655L7.78038 36.121Z" fill="#114232"/>
<path d="M7.05437 38.2828L6.60986 38.7273L7.78136 39.8988L8.22586 39.4543L7.05437 38.2828Z" fill="#114232"/>
<path d="M4.89177 36.1221L4.44727 36.5667L5.61876 37.7381L6.06327 37.2936L4.89177 36.1221Z" fill="#114232"/>
<path d="M56.9464 29.141L55.7734 30.314L56.2179 30.7585L57.3909 29.5855L56.9464 29.141Z" fill="#114232"/>
<path d="M59.1085 26.9794L57.9355 28.1523L58.3801 28.5969L59.553 27.4239L59.1085 26.9794Z" fill="#114232"/>
<path d="M58.3796 29.1407L57.9351 29.5852L59.108 30.7581L59.5525 30.3136L58.3796 29.1407Z" fill="#114232"/>
<path d="M56.2179 26.9786L55.7734 27.4231L56.9464 28.596L57.3909 28.1515L56.2179 26.9786Z" fill="#114232"/>
<path d="M29.1388 5.79921L27.9673 6.9707L28.4118 7.41521L29.5833 6.24372L29.1388 5.79921Z" fill="#114232"/>
<path d="M31.3004 3.63759L30.1289 4.80908L30.5734 5.25359L31.7449 4.0821L31.3004 3.63759Z" fill="#114232"/>
<path d="M30.5734 5.79792L30.1289 6.24243L31.3004 7.41392L31.7449 6.96942L30.5734 5.79792Z" fill="#114232"/>
<path d="M28.4118 3.63606L27.9673 4.08057L29.1402 5.25349L29.5847 4.80899L28.4118 3.63606Z" fill="#114232"/>
<path d="M17.5681 56.1306H16.9395V60.2309H17.5681V56.1306Z" fill="#114232"/>
<path d="M19.3039 57.8667H15.2036V58.4953H19.3039V57.8667Z" fill="#114232"/>
<path d="M56.0931 7.54336H52.597C52.4226 7.54336 52.2827 7.40344 52.2827 7.22904V3.73302C52.2827 3.55862 52.4226 3.4187 52.597 3.4187H56.0931C56.2674 3.4187 56.4074 3.55862 56.4074 3.73302V7.22904C56.4074 7.40344 56.2674 7.54336 56.0931 7.54336ZM52.9113 6.91472H55.7787V4.04734H52.9113V6.91472Z" fill="#114232"/>
<path d="M12.8189 9.35225H7.31529C7.20376 9.35225 7.09831 9.29142 7.04356 9.19408C6.98678 9.09674 6.98678 8.9771 7.04356 8.87976L9.79536 4.11227C9.85214 4.01494 9.95556 3.9541 10.0671 3.9541C10.1786 3.9541 10.2841 4.01494 10.3388 4.11227L13.0927 8.87976C13.1494 8.9771 13.1494 9.09674 13.0927 9.19408C13.0359 9.29142 12.9325 9.35225 12.8189 9.35225ZM7.86079 8.72362H12.2754L10.0671 4.89908L7.86079 8.72362Z" fill="#114232"/>
<path d="M57.1983 57.7633C55.9613 57.7633 54.9575 56.7575 54.9575 55.5225C54.9575 54.2855 55.9633 53.2817 57.1983 53.2817C58.4353 53.2817 59.4391 54.2876 59.4391 55.5225C59.4411 56.7575 58.4353 57.7633 57.1983 57.7633ZM57.1983 53.9083C56.3081 53.9083 55.5862 54.6323 55.5862 55.5205C55.5862 56.4087 56.3101 57.1326 57.1983 57.1326C58.0865 57.1326 58.8104 56.4087 58.8104 55.5205C58.8104 54.6323 58.0885 53.9083 57.1983 53.9083Z" fill="#114232"/>
<path d="M31.2399 17.7981C29.2465 17.7981 27.2227 18.2199 25.2739 19.1121C20.9384 21.0974 17.8905 24.995 16.6211 29.5049C16.69 29.7036 16.7286 29.9166 16.7286 30.1396V39.4008C16.8563 39.8165 17.0003 40.2302 17.1605 40.6398C17.5661 41.6801 18.067 42.6637 18.6571 43.5843C19.3668 43.8723 20.1394 44.1217 20.9587 44.3265C18.1947 40.9744 16.8036 36.2982 17.6553 31.4314C20.0968 31.1191 21.4474 28.2801 22.9987 27.1445C23.461 26.8058 23.818 26.7044 24.187 26.7044C24.4669 26.7044 24.7528 26.7612 25.0955 26.818C27.1497 27.1546 29.1532 27.7609 31.1608 28.3004C31.8908 28.4971 32.4972 28.5761 33.0143 28.5761C34.5352 28.5761 35.2895 27.8968 36.1818 27.5338C36.8145 27.2763 37.7919 27.0796 38.7349 27.0796C39.6271 27.0796 40.4849 27.256 40.9898 27.7204C41.2271 27.9394 41.4015 28.2314 41.5759 28.4991C41.9348 29.0527 42.3018 29.5982 42.6506 30.1579C43.2712 31.1475 43.8268 31.9424 44.9725 32.1817C46.1284 41.2746 39.617 49.3393 31.2561 49.3393C29.279 49.3393 27.4113 48.8912 25.7262 48.0882C25.6369 48.0496 25.5477 48.0111 25.4646 47.9685C25.349 47.9117 25.2415 47.8529 25.1381 47.7901C24.9292 47.6785 24.7244 47.5609 24.5216 47.4372C23.528 47.3541 22.5566 47.2202 21.6137 47.0357C22.7229 48.0091 23.9498 48.804 25.2739 49.4123C27.1781 50.2843 29.2161 50.7203 31.2561 50.7203C33.2941 50.7203 35.3321 50.2843 37.2363 49.4123C41.3954 47.5082 44.3784 43.8357 45.733 39.5448V30.1396C45.733 29.8861 45.7816 29.6428 45.8729 29.4218C45.7249 28.9047 45.5525 28.3916 45.3538 27.8826C42.894 21.5861 37.2119 17.7981 31.2399 17.7981Z" fill="#30BC90"/>
<path d="M24.0777 46.606C24.0128 46.4275 23.9803 46.243 23.9803 46.0564C23.9803 45.8719 24.0128 45.6894 24.0777 45.5109C23.5951 45.4602 23.1104 45.3953 22.6278 45.3162C21.1048 45.0668 19.6042 44.6714 18.2375 44.0914C18.061 44.0164 17.8846 43.9393 17.7122 43.8562C16.5442 43.3066 15.6337 42.6719 15.0071 41.9743C14.9767 41.9399 14.9463 41.9054 14.9158 41.8689C14.8793 41.8709 14.8408 41.873 14.8043 41.873H13.397C14.3541 43.554 16.5118 44.931 19.3467 45.8192C20.7946 46.2734 22.4189 46.5979 24.1487 46.7702C24.1203 46.7175 24.098 46.6627 24.0777 46.606Z" fill="#30BC90"/>
<path d="M25.3512 47.1797C25.3816 47.2 25.412 47.2203 25.4444 47.2406C25.6107 47.344 25.7993 47.4393 26.0041 47.5225C26.6753 47.7982 27.5392 47.9645 28.4801 47.9645C30.6195 47.9645 32.3533 47.1088 32.3533 46.0543C32.3533 44.9998 30.6195 44.144 28.4801 44.144C27.1499 44.144 25.9757 44.4746 25.2782 44.9795C25.1504 45.0708 25.0389 45.1681 24.9456 45.2715C24.8584 45.3668 24.7874 45.4682 24.7327 45.5717C24.6515 45.7258 24.6069 45.888 24.6069 46.0543C24.6069 46.3341 24.7286 46.5998 24.9476 46.8391C25.0591 46.9607 25.193 47.0743 25.3512 47.1797Z" fill="#30BC90"/>
<path d="M15.0595 27.5137C15.7145 25.9502 16.5967 24.4922 17.6775 23.1761C18.7502 21.8702 20.0035 20.7265 21.4007 19.7794C24.3005 17.8124 27.689 16.7721 31.1972 16.7721C34.7074 16.7721 38.094 17.8124 40.9938 19.7794C42.391 20.7265 43.6442 21.8702 44.7169 23.1761C45.7978 24.4922 46.6779 25.9522 47.3349 27.5137C47.4322 27.7449 47.5235 27.9801 47.6107 28.2153C47.6269 28.2153 47.6451 28.2153 47.6634 28.2153H49.4033C49.3952 28.193 49.3891 28.1707 49.381 28.1504C49.2289 27.6962 49.0565 27.2399 48.8679 26.7978C48.3873 25.6602 47.7912 24.5652 47.0997 23.5391C46.4142 22.5231 45.6254 21.57 44.7595 20.7021C43.8916 19.8342 42.9365 19.0474 41.9225 18.3599C40.8964 17.6664 39.8014 17.0723 38.6638 16.5917C37.5059 16.1029 36.2932 15.7258 35.0623 15.4743C33.799 15.2147 32.4991 15.085 31.1992 15.085C29.8994 15.085 28.5995 15.2168 27.3362 15.4743C26.1032 15.7258 24.8926 16.1029 23.7347 16.5917C22.5971 17.0723 21.502 17.6684 20.4759 18.3599C19.4559 19.0454 18.5008 19.8322 17.6349 20.7001C16.767 21.568 15.9802 22.5211 15.2948 23.5371C14.6013 24.5611 14.0071 25.6582 13.5265 26.7958C13.3379 27.244 13.1635 27.7043 13.0094 28.1646C13.0033 28.1808 12.9992 28.1971 12.9932 28.2133H14.7858C14.871 27.9781 14.9622 27.7449 15.0595 27.5137Z" fill="#30BC90"/>
<path d="M50.2553 28.8461C50.2249 28.8441 50.1965 28.842 50.1661 28.842H49.9268H49.5983H47.828H47.6617C47.6069 28.842 47.5542 28.8461 47.5015 28.8522C47.396 28.8643 47.2926 28.8907 47.1953 28.9292C46.9215 29.0347 46.6903 29.2314 46.5423 29.4808C46.4429 29.6512 46.3801 29.8458 46.3659 30.0527C46.3638 30.0811 46.3618 30.1095 46.3618 30.1399V31.6851V36.8075V38.4622V39.6383V39.9466C46.3618 40.2954 46.4997 40.6137 46.7248 40.8469C46.96 41.0923 47.2926 41.2444 47.6596 41.2444H50.162C50.8778 41.2444 51.4598 40.6624 51.4598 39.9466V30.1378C51.4619 29.4545 50.9285 28.8927 50.2553 28.8461Z" fill="#30BC90"/>
<path d="M14.7758 41.2464H14.8022C14.8143 41.2464 14.8285 41.2464 14.8407 41.2464C14.9583 41.2424 15.0739 41.2241 15.1814 41.1917C15.372 41.1329 15.5443 41.0335 15.6863 40.8997C15.9418 40.6624 16.1 40.3258 16.1 39.9506V39.4964V38.2736V36.4729V32.0846V30.2737V30.1419C16.1 29.929 16.0493 29.7282 15.958 29.5498C15.8039 29.2476 15.5342 29.0144 15.2057 28.9069C15.1063 28.8745 15.0029 28.8542 14.8954 28.8461C14.865 28.8441 14.8346 28.842 14.8042 28.842H14.5669H12.7966H12.4681H12.2998C12.245 28.842 12.1903 28.8461 12.1376 28.8522C11.4968 28.9313 11.002 29.4768 11.002 30.1399V39.9486C11.002 40.6644 11.5839 41.2464 12.2998 41.2464H12.4377H12.7682H13.1008H14.4736H14.7758Z" fill="#30BC90"/>
<path d="M51.1779 27.1993H51.0765C51.0481 27.11 51.0198 27.0228 50.9893 26.9336C50.8312 26.4631 50.6527 25.9927 50.4601 25.5364C49.9632 24.3623 49.3488 23.2287 48.633 22.1702C47.9252 21.1218 47.1121 20.1362 46.2158 19.2399C45.3194 18.3436 44.3339 17.5304 43.2855 16.8227C42.227 16.1069 41.0934 15.4924 39.9193 14.9956C38.7228 14.4907 37.4717 14.1013 36.1982 13.8397C34.8942 13.5721 33.5518 13.4382 32.2094 13.4382C30.8669 13.4382 29.5245 13.5741 28.2186 13.8397C26.9451 14.0993 25.6939 14.4887 24.4974 14.9956C23.3233 15.4924 22.1918 16.1069 21.1312 16.8227C20.0828 17.5304 19.0973 18.3436 18.2009 19.2399C17.3046 20.1362 16.4915 21.1218 15.7837 22.1702C15.0679 23.2287 14.4535 24.3603 13.9566 25.5364C13.762 25.9988 13.5815 26.4753 13.4213 26.9498C13.3929 27.033 13.3665 27.1161 13.3402 27.1993H13.3098C12.2472 27.1993 11.3833 28.0631 11.3833 29.1257V38.9345C11.3833 39.997 12.2472 40.8609 13.3098 40.8609H13.7011C13.908 41.2908 14.1858 41.7065 14.5265 42.104C15.3031 43.0064 16.4043 43.8054 17.7994 44.4786C18.8661 44.9937 20.0706 45.4195 21.3928 45.748L21.9768 46.2793C23.1935 47.3886 24.5562 48.293 26.0285 48.9683C27.012 49.4185 28.0442 49.7632 29.0966 49.9923C30.1389 50.2195 31.2076 50.333 32.2722 50.333C33.3369 50.333 34.4055 50.2174 35.4458 49.9923C36.4983 49.7632 37.5305 49.4185 38.516 48.9683C39.5036 48.5161 40.4506 47.9564 41.3286 47.3054C42.1844 46.6707 42.9834 45.9427 43.7073 45.1397C44.4171 44.3529 45.0599 43.485 45.6155 42.5643C46.1407 41.6964 46.5929 40.7717 46.9661 39.8166C47.2865 40.4371 47.9334 40.8609 48.6776 40.8609H51.18C52.2425 40.8609 53.1064 39.997 53.1064 38.9345V29.1257C53.1044 28.0631 52.2405 27.1993 51.1779 27.1993ZM52.4757 38.9345C52.4757 39.6503 51.8938 40.2323 51.1779 40.2323H48.6755C48.3085 40.2323 47.978 40.0802 47.7407 39.8348C47.5156 39.6016 47.3777 39.2853 47.3777 38.9345V38.6262V37.4501V35.7953V30.673V29.1277C47.3777 29.0994 47.3797 29.0689 47.3818 29.0405C47.396 28.8317 47.4588 28.639 47.5582 28.4687C47.7062 28.2172 47.9354 28.0226 48.2112 27.9171C48.3085 27.8806 48.4099 27.8543 48.5174 27.8401C48.5701 27.834 48.6228 27.8299 48.6776 27.8299H48.8439H50.6142H50.9427H51.182C51.2124 27.8299 51.2428 27.8319 51.2712 27.834C51.9465 27.8806 52.4798 28.4423 52.4798 29.1277V38.9345H52.4757ZM38.2524 48.3984C36.3462 49.2704 34.3082 49.7064 32.2722 49.7064C30.2322 49.7064 28.1942 49.2704 26.2901 48.3984C24.9659 47.7921 23.739 46.9952 22.6298 46.0218C23.5707 46.2043 24.542 46.3402 25.5377 46.4233C25.7405 46.547 25.9453 46.6646 26.1542 46.7762C26.2576 46.839 26.3651 46.8978 26.4807 46.9546C26.5658 46.9972 26.653 47.0357 26.7423 47.0743C28.4274 47.8773 30.2951 48.3254 32.2722 48.3254C40.6331 48.3254 47.1425 40.2607 45.9886 31.1678C44.8429 30.9285 44.2873 30.1336 43.6667 29.144C43.3159 28.5863 42.9509 28.0388 42.592 27.4852C42.4176 27.2175 42.2432 26.9255 42.0059 26.7065C41.503 26.2401 40.6432 26.0657 39.751 26.0657C38.808 26.0657 37.8306 26.2624 37.1979 26.5199C36.3056 26.8829 35.5513 27.5622 34.0304 27.5622C33.5133 27.5622 32.9069 27.4832 32.1769 27.2865C30.1693 26.747 28.1658 26.1407 26.1116 25.8041C25.7669 25.7473 25.4809 25.6905 25.2031 25.6905C24.8341 25.6905 24.4772 25.7919 24.0148 26.1306C22.4655 27.2641 21.1129 30.1052 18.6714 30.4175C17.8197 35.2823 19.2128 39.9605 21.9748 43.3146C21.1535 43.1098 20.3829 42.8604 19.6732 42.5724C19.0851 41.6518 18.5842 40.6683 18.1766 39.628C18.0164 39.2183 17.8724 38.8047 17.7447 38.389V29.1277C17.7447 28.9047 17.7062 28.6918 17.6372 28.493C18.9066 23.981 21.9545 20.0855 26.2921 18.0982C28.2409 17.206 30.2647 16.7842 32.258 16.7842C38.228 16.7842 43.9121 20.5743 46.3719 26.8707C46.5706 27.3797 46.743 27.8928 46.891 28.4099C46.8018 28.6329 46.7511 28.8743 46.7511 29.1277V38.5329C45.3945 42.8218 42.4115 46.4943 38.2524 48.3984ZM12.016 38.9345V29.1257C12.016 28.4646 12.5108 27.9191 13.1516 27.838C13.2043 27.8319 13.2591 27.8279 13.3138 27.8279H13.4821H13.8106H15.581H15.8182C15.8486 27.8279 15.8791 27.8299 15.9095 27.8319C16.0169 27.8401 16.1224 27.8603 16.2197 27.8928C16.5462 28.0003 16.8159 28.2335 16.9721 28.5356C17.0633 28.712 17.114 28.9148 17.114 29.1277V29.2596V31.0704V35.4587V37.2594V38.4822V38.9365C17.114 39.3116 16.9538 39.6503 16.7003 39.8855C16.5584 40.0173 16.386 40.1187 16.1954 40.1775C16.0879 40.21 15.9723 40.2302 15.8547 40.2323C15.8426 40.2323 15.8284 40.2323 15.8162 40.2323H15.7898H15.4877H14.1148H13.7823H13.4497H13.3118C12.596 40.2323 12.016 39.6523 12.016 38.9345ZM14.0215 27.1506C14.1757 26.6903 14.3501 26.2299 14.5386 25.7818C15.0192 24.6442 15.6154 23.5491 16.3069 22.523C16.9923 21.5071 17.7812 20.554 18.6471 19.6861C19.515 18.8181 20.4701 18.0313 21.484 17.3439C22.5101 16.6504 23.6052 16.0562 24.7428 15.5756C25.9007 15.0869 27.1134 14.7097 28.3443 14.4582C29.6076 14.1987 30.9075 14.0689 32.2073 14.0689C33.5072 14.0689 34.807 14.2007 36.0704 14.4582C37.3033 14.7097 38.516 15.0869 39.6719 15.5756C40.8095 16.0562 41.9045 16.6524 42.9306 17.3439C43.9466 18.0293 44.8997 18.8181 45.7676 19.6861C46.6355 20.554 47.4223 21.5071 48.1077 22.523C48.7992 23.5471 49.3954 24.6442 49.876 25.7818C50.0626 26.2239 50.235 26.6801 50.3891 27.1344C50.3972 27.1567 50.4033 27.179 50.4114 27.1993H48.6715C48.6532 27.1993 48.637 27.1993 48.6188 27.1993C48.5316 26.964 48.4403 26.7308 48.343 26.4976C47.688 24.9341 46.8059 23.4761 45.725 22.16C44.6523 20.8541 43.3991 19.7104 42.0019 18.7634C39.102 16.7964 35.7135 15.7561 32.2053 15.7561C28.6951 15.7561 25.3086 16.7964 22.4087 18.7634C21.0116 19.7124 19.7583 20.8541 18.6856 22.16C17.6048 23.4761 16.7247 24.9362 16.0676 26.4976C15.9703 26.7288 15.8791 26.962 15.7919 27.1972H14.0053C14.0114 27.183 14.0155 27.1668 14.0215 27.1506ZM22.6237 43.1139C19.7928 39.8003 18.5639 35.3898 19.2189 30.9528C19.8902 30.7845 20.535 30.4438 21.1778 29.9186C21.8349 29.3812 22.3925 28.7384 22.9319 28.1158C23.4369 27.5318 23.9154 26.9802 24.3818 26.6396C24.7428 26.3759 24.9699 26.3212 25.1991 26.3212C25.3796 26.3212 25.5945 26.3577 25.8419 26.4003C25.8946 26.4084 25.9494 26.4185 26.0062 26.4287C27.6325 26.6963 29.269 27.1465 30.8507 27.5805C31.2299 27.6859 31.6233 27.7934 32.0106 27.8968C32.7528 28.0956 33.4119 28.1929 34.0263 28.1929C35.2998 28.1929 36.1252 27.761 36.7883 27.4162C37.0113 27.3006 37.2222 27.1891 37.4311 27.1039C38.0395 26.8565 38.9479 26.6963 39.7469 26.6963C40.5824 26.6963 41.2495 26.8687 41.574 27.1709C41.7241 27.3088 41.8538 27.5136 41.9938 27.7306C42.0161 27.765 42.0364 27.7975 42.0587 27.8319C42.1742 28.0104 42.2919 28.1888 42.4054 28.3632C42.6447 28.7283 42.8941 29.1075 43.1294 29.4826C43.4498 29.9916 43.7702 30.4844 44.1859 30.8899C44.5489 31.2469 44.9524 31.5003 45.4066 31.6626C45.8386 35.9413 44.5286 40.1512 41.7808 43.272C39.2643 46.1293 35.8859 47.7009 32.2682 47.7009C31.6111 47.7009 30.9582 47.6481 30.3154 47.5427C31.1346 47.4616 31.8951 47.2608 32.5095 46.9587C32.9414 46.7457 33.2882 46.4902 33.5396 46.1962C33.8377 45.8494 33.9959 45.4499 33.9959 45.0444C33.9959 44.6388 33.8377 44.2393 33.5396 43.8926C33.2882 43.6005 32.9435 43.345 32.5095 43.1301C31.6923 42.7286 30.6216 42.5055 29.492 42.5055C28.3625 42.5055 27.2918 42.7265 26.4746 43.1301C26.0427 43.343 25.6959 43.5985 25.4444 43.8926C25.4424 43.8966 25.4384 43.8986 25.4363 43.9027C24.5907 43.8216 23.7715 43.7019 22.9867 43.5458L22.6237 43.1139ZM25.9615 44.2596C26.0548 44.1562 26.1664 44.0588 26.2941 43.9676C26.9917 43.4626 28.1658 43.1321 29.4961 43.1321C31.6355 43.1321 33.3693 43.9879 33.3693 45.0423C33.3693 46.0968 31.6355 46.9526 29.4961 46.9526C28.5552 46.9526 27.6913 46.7863 27.0201 46.5105C26.8153 46.4253 26.6267 46.3321 26.4604 46.2286C26.428 46.2084 26.3975 46.1881 26.3671 46.1678C26.211 46.0624 26.0751 45.9488 25.9656 45.8271C25.7466 45.5878 25.6249 45.3222 25.6249 45.0423C25.6249 44.8761 25.6695 44.7138 25.7507 44.5597C25.8013 44.4563 25.8743 44.3549 25.9615 44.2596ZM17.5885 39.8551C17.8927 40.6358 18.2516 41.3902 18.6613 42.1121C17.8075 41.6781 17.1242 41.1996 16.6212 40.6845C17.0288 40.4959 17.3594 40.1694 17.5541 39.7659C17.5662 39.7963 17.5764 39.8267 17.5885 39.8551ZM47.9982 27.323C47.7509 27.4162 47.5278 27.5582 47.3412 27.7387C47.2236 27.3696 47.0938 27.0026 46.9539 26.6416C45.7189 23.4802 43.6566 20.8217 40.9879 18.952C40.5905 18.6742 40.1849 18.4146 39.7672 18.1773C40.4161 18.5038 41.0468 18.8749 41.6531 19.2866C42.9996 20.2011 44.2082 21.3023 45.2424 22.5616C46.2847 23.831 47.1344 25.2383 47.765 26.743C47.8482 26.9356 47.9252 27.1283 47.9982 27.323ZM25.5276 17.7657C24.7164 18.1733 23.9398 18.6498 23.2097 19.1933C22.354 19.828 21.553 20.558 20.829 21.3631C20.1193 22.1519 19.4785 23.0198 18.9208 23.9425C18.3693 24.8551 17.8968 25.8305 17.5176 26.8403C17.3999 27.1506 17.2925 27.4629 17.1931 27.7792C16.9822 27.5643 16.7226 27.398 16.4327 27.3006C16.5036 27.1141 16.5766 26.9275 16.6557 26.743C17.2884 25.2363 18.1361 23.829 19.1784 22.5595C20.2126 21.3002 21.4212 20.1971 22.7677 19.2845C23.6437 18.6883 24.5684 18.1814 25.5276 17.7657ZM15.8162 40.8609C15.8547 40.8609 15.8912 40.8589 15.9277 40.8569C15.9581 40.8913 15.9886 40.9258 16.019 40.9623C16.6456 41.6599 17.5561 42.2926 18.7241 42.8442C18.8965 42.9253 19.0709 43.0044 19.2493 43.0794C20.6161 43.6573 22.1167 44.0528 23.6397 44.3042C24.1223 44.3833 24.6069 44.4482 25.0896 44.4989C25.0267 44.6753 24.9922 44.8598 24.9922 45.0444C24.9922 45.2309 25.0267 45.4155 25.0896 45.5939C25.1098 45.6507 25.1322 45.7055 25.1585 45.7602C23.4288 45.5878 21.8044 45.2634 20.3566 44.8091C17.5257 43.9189 15.366 42.542 14.4109 40.8609H15.8162Z" fill="#114232"/>
</svg>
