<svg xmlns="http://www.w3.org/2000/svg" width="50" height="49" viewBox="0 0 50 49">
    <defs>
        <filter id="prefix__a" width="109.4%" height="109.3%" x="-4.7%" y="-4.6%" filterUnits="objectBoundingBox">
            <feGaussianBlur in="SourceGraphic"/>
        </filter>
        <filter id="prefix__c" width="128.4%" height="126%" x="-14.2%" y="-13%" filterUnits="objectBoundingBox">
            <feGaussianBlur in="SourceGraphic"/>
        </filter>
        <radialGradient id="prefix__b" cx="68.166%" cy="65.098%" r="62.366%" fx="68.166%" fy="65.098%" gradientTransform="matrix(1 0 0 .91667 0 .054)">
            <stop offset="0%" stop-color="#FFCC4C"/>
            <stop offset="100%" stop-color="#FFE367"/>
        </radialGradient>
    </defs>
    <g fill="none" fill-rule="evenodd">
        <g fill-rule="nonzero">
            <path stroke="#CFCFCF" stroke-width="2" d="M34.263 42.297l-14.835 3.975c-1.285.344-2.613.328-3.857-.013-1.24-.34-2.397-1.004-3.342-1.958L1.327 33.27C-.558 31.369-1.3 28.604-.62 26.014L3.31 11.009c.34-1.298 1.01-2.451 1.915-3.367.906-.917 2.049-1.595 3.334-1.939l14.84-3.976c1.284-.345 2.613-.329 3.856.012 1.241.34 2.398 1.005 3.343 1.96l10.897 11.03c1.884 1.903 2.625 4.668 1.945 7.258L39.512 36.99c-.338 1.297-1.007 2.451-1.912 3.367-.907.918-2.052 1.596-3.337 1.94z" filter="url(#prefix__a)" transform="translate(-16 1) translate(18)"/>
            <path fill="url(#prefix__b)" stroke="#FFF" stroke-width="2" d="M46.306 6.092v5.422c0 .586-.157 1.15-.444 1.64-.285.488-.698.904-1.21 1.196l-4.75 2.707c-1.02.583-2.274.583-3.292 0l-4.75-2.708c-.512-.291-.926-.707-1.211-1.195-.287-.491-.445-1.055-.445-1.642v-5.42c0-.587.158-1.15.445-1.64.285-.488.698-.904 1.21-1.197l4.75-2.709c1.02-.582 2.273-.582 3.292 0l4.751 2.71c.512.292.925.708 1.21 1.195.287.49.444 1.054.444 1.64z" filter="url(#prefix__c)" transform="translate(-16 1) translate(18) rotate(-105 38.255 8.802)"/>
            <path fill="#191919" d="M19.269 36.593L17.5 29.995l5.587-1.497c.575-.154 1.122-.333 1.64-.535l6.548 5.413 2.407-.646-6.993-5.77c1.393-.905 2.35-2.027 2.872-3.367.523-1.34.566-2.822.13-4.446-.594-2.22-1.814-3.762-3.66-4.626-1.845-.865-4.095-.941-6.75-.23l-7.787 2.087 5.574 20.804 2.2-.59zm3.258-9.952l-5.528 1.481-2.795-10.432 5.528-1.48c2.06-.553 3.756-.524 5.088.085 1.331.61 2.222 1.757 2.674 3.44.44 1.645.238 3.07-.608 4.273-.845 1.203-2.298 2.081-4.359 2.633z" transform="translate(-16 1) translate(18)"/>
        </g>
    </g>
</svg>
