<svg xmlns="http://www.w3.org/2000/svg" width="52" height="47" viewBox="0 0 52 47">
    <defs>
        <radialGradient id="prefix__b" cx="68.166%" cy="65.098%" r="62.366%" fx="68.166%" fy="65.098%" gradientTransform="matrix(1 0 0 .94405 0 .036)">
            <stop offset="0%" stop-color="#FFCC4C"/>
            <stop offset="100%" stop-color="#FFE367"/>
        </radialGradient>
        <radialGradient id="prefix__c" cx="68.166%" cy="65.098%" r="62.366%" fx="68.166%" fy="65.098%" gradientTransform="matrix(1 0 0 .97636 0 .015)">
            <stop offset="0%" stop-color="#FFCC4C"/>
            <stop offset="100%" stop-color="#FFE367"/>
        </radialGradient>
        <filter id="prefix__a" width="104.3%" height="104.5%" x="-2.2%" y="-2.3%" filterUnits="objectBoundingBox">
            <feGaussianBlur in="SourceGraphic"/>
        </filter>
    </defs>
    <g fill="none" fill-rule="evenodd">
        <path fill-rule="nonzero" stroke="#CFCFCF" stroke-width="2" d="M48.453 45.945c-1.33.683-2.853.931-4.344.663l-15.875-2.861c-2.376-.429-4.302-2.104-5.058-4.398L18.14 24.04c-.757-2.295-.223-4.855 1.402-6.72L30.369 4.87c1.625-1.865 4.085-2.75 6.461-2.321L52.7 5.41c2.376.428 4.307 2.104 5.058 4.398l5.036 15.308" filter="url(#prefix__a)" transform="translate(-13 -1)"/>
        <path fill="#191919" d="M37.598 43.5c-.829-1.434-2.663-1.926-4.098-1.098-1.434.829-1.926 2.663-1.098 4.098.829 1.434 2.663 1.926 4.098 1.098 1.434-.829 1.926-2.663 1.098-4.098z" transform="translate(-13 -1)"/>
        <path fill="url(#prefix__b)" fill-rule="nonzero" d="M63.395 28.269c-.79-.596-1.914-.438-2.51.353l-2.837 4.033c-.046-.007-.084-.03-.13-.032l-9.693-.33c-.392-.013-.765.16-1.005.47l-1.126 1.445 9.43 2.036-3.051 4.418-3.42-.116c-.165-.005-.322.067-.422.197l-.827 1.075 4.629.999 2.236 4.174.806-1.091c.096-.133.123-.303.073-.46l-1.062-3.276 3.409-4.14 4.56 8.513 1.08-1.48c.23-.316.294-.724.173-1.096l-2.99-9.227c-.014-.046-.049-.077-.069-.12l3.1-3.835c.595-.79.437-1.915-.354-2.51" transform="translate(-13 -1)"/>
        <path fill="url(#prefix__c)" stroke="#FFF" stroke-width="2" d="M26.98 14.404l-.728 3.346c-.117.54-.442.98-.873 1.257-.43.277-.967.39-1.506.272-.43-.093-.817-.326-1.101-.661l-2.214-2.613-3.407.342c-.55.055-1.07-.118-1.466-.442-.396-.324-.669-.8-.724-1.349-.044-.437.057-.877.289-1.251l1.801-2.913-1.378-3.135c-.223-.506-.219-1.053-.033-1.53.185-.477.553-.884 1.059-1.106.402-.177.852-.216 1.28-.112l3.326.813 2.556-2.28c.412-.367.934-.533 1.445-.504.511.03 1.011.254 1.379.666.292.328.469.744.502 1.182l.254 3.415L30.4 9.528c.477.278.796.723.926 1.218s.072 1.04-.207 1.517c-.221.38-.562.676-.969.843l-3.17 1.298z" transform="translate(-13 -1)"/>
        <path fill="#191919" d="M46.598 2.5C45.769 1.066 43.935.574 42.5 1.402c-1.434.829-1.926 2.663-1.098 4.098.829 1.434 2.663 1.926 4.098 1.098 1.434-.829 1.926-2.663 1.098-4.098z" transform="translate(-13 -1)"/>
    </g>
</svg>
